<svg height="431" viewBox=".93 0 4634.07 799.33" width="2500" xmlns="http://www.w3.org/2000/svg"><path d="m140.46 640.85-139.53 35.81v-639.24l139.53 36.07z" fill="#325ab4"/><path d="m361.86 660.09-139.54 36.08v-376.54l139.54 36.07z" fill="#3c8cff"/><path d="m453.02 264.04 139.8-36.08v376.55l-139.8-36.08z" fill="#00c8d2"/><path d="m814.74 678.26-139.8 35.82v-714.08l139.8 36.08z" fill="#78e6dc"/><g fill="#325ab4"><path d="m1438.51 400.87c18.08 24.05 27.11 54.25 27.11 89.52 0 44.1-17.54 81.78-51.82 111.71-34.02 29.66-77.08 44.9-127.58 44.9h-199.86v-548.12h131.56c35.08 0 63.26 1.87 83.99 5.34 20.99 3.75 38.53 9.89 52.62 18.18 23.65 14.16 41.99 32.33 54.48 54.25 12.49 21.91 18.87 46.76 18.87 74.02 0 22.99-5.84 44.1-17.54 63.07-9.04 14.97-21.53 28.07-36.94 38.75 27.9 11.23 49.97 27.53 65.11 48.38zm-91.69-149.39c0-26.19-7.71-45.43-23.65-58.53-16.22-13.36-40.93-20.04-73.89-20.04h-80v156.07h84.52c30.03 0 53.15-6.95 69.1-20.58 15.68-13.36 23.39-32.07 23.92-56.92zm-177.54 152.86v165.96h97.81c38.01 0 66.97-7.22 86.11-21.38 18.87-13.9 27.91-34.21 27.91-62 0-27.26-8.77-47.3-27.11-61.2-18.61-14.16-47.05-21.38-84.25-21.38z" fill-rule="evenodd"/><path d="m2021.09 176.65h-78.67v89.53h-148.82l-97.28 236.51c-1.6 4-4.79 12.56-9.31 26.19-2.65 8.01-5.58 17.37-9.03 27.52-3.19-10.95-5.85-20.58-8.51-28.59-5.58-17.91-7.7-22.98-8.5-25.12l-95.68-236.51h-87.17l155.47 373.87-66.97 159.28h80.26l203.06-464.74h92.76v229.3c0 32.6 7.7 56.38 22.86 70.81 15.13 14.17 40.11 21.65 74.4 21.65h43.05v-75.63h-40.91c-7.72 0-13.03-1.6-16.23-5.08-3.17-3.74-4.78-10.15-4.78-19.24v-221.54h61.92v-68.68h-61.92z"/><path d="m2458.02 317.48c36.15 39.29 54.5 91.94 54.5 156.34v11.76h-313.62c3.2 28.6 15.14 51.58 36.15 69.75 22.58 19.78 51.83 29.67 86.65 29.67 22.57 0 43.57-4.81 62.97-14.43 19.68-9.62 37.74-24.06 53.97-42.76l4.24-5.08 57.14 46.23-4.52 5.35c-23.91 28.06-50.49 48.9-78.93 62.26-28.45 13.37-61.13 20.05-96.74 20.05-29.5 0-57.68-5.61-83.19-16.3-25.52-10.96-48.11-26.46-66.45-46.51-16.21-17.63-28.96-38.21-37.48-61.46-8.77-22.98-13.01-47.57-13.01-72.96 0-59.86 18.07-109.03 53.95-146.18 35.89-37.15 83.19-56.12 140.86-56.12 58.73 0 106.85 20.04 143.51 60.39zm-258.86 101.56h226.72c-5.06-25.66-17.02-47.04-35.89-63.61-20.74-18.17-46.51-27.25-76.27-27.25-30.3 0-56.62 9.35-78.15 27.79-19.66 16.83-31.89 37.95-36.41 63.07zm828.96-45.97c0 88.99-27.12 157.68-80.27 204.18-52.88 46.23-131.03 69.75-231.76 69.75h-116.94v-548.12h116.94c100.73 0 178.88 23.52 231.76 69.75 53.15 46.77 80.27 115.45 80.27 204.44zm-138.21 147.79c35.89-32.87 54.23-82.58 54.23-147.52 0-65.47-18.08-114.92-54.23-147.79-36.4-33.13-91.16-49.7-163.44-49.7h-44.13v394.72h44.13c72.28 0 127.29-16.84 163.44-49.71zm494.61-254.69h73.35v381.09h-78.13v-47.57c-13.29 14.97-28.97 26.73-46.25 35.28-22.85 11.22-49.42 16.84-78.93 16.84-26.3 0-51.56-5.08-75.21-14.97-23.65-10.15-45.18-24.85-63.53-43.83-17.54-18.44-31.09-39.55-39.86-62.53-8.77-22.99-13.29-48.11-13.29-75.1 0-58.26 17.54-106.09 52.61-142.17 35.1-36.08 81.87-54.25 139.28-54.25 28.97 0 55.82 5.88 80 17.9 18.59 9.36 35.34 21.92 49.96 37.42zm-121.19 64.14c-34.82 0-63.78 11.76-86.1 35.01-22.34 23.52-33.77 53.98-33.77 90.86 0 37.15 11.43 67.62 33.77 90.87 22.32 23.25 51.28 35.01 86.1 35.01s63.79-11.76 86.11-35.01c22.32-23.52 33.75-53.99 33.75-90.87 0-36.61-11.43-67.07-33.75-90.59s-51.29-35.28-86.11-35.28z" fill-rule="evenodd"/><path d="m3698.4 258.96c-21.25 0-41.45 4.27-60.06 12.83-14.08 6.41-27.91 15.5-41.19 27.25v-32.87h-77.61v380.83h77.61v-210.32c0-36.08 7.7-63.34 22.58-80.98 14.63-17.37 37.48-26.19 67.24-26.19 26.31 0 44.92 7.75 56.89 24.05 12.22 16.57 18.61 43.56 18.61 80.44v213.26h78.13v-219.67c0-51.85-12.76-93-38.02-122.93-25.23-30.2-60.33-45.7-104.18-45.7zm455.54 287.55c-9.82 12.57-21.52 22.19-35.33 28.33-13.83 6.42-30.04 9.62-48.38 9.62-33.76 0-60.61-11.49-81.6-35.27-20.99-23.52-31.63-54.79-31.63-92.47s10.9-68.95 32.17-93c21.26-24.05 47.83-35.81 81.32-35.81 17.01 0 32.42 2.94 45.72 8.55 13.01 5.61 24.98 14.43 35.35 26.46l5.04 5.88 50.77-58.8-5.06-4.54c-17.79-16.3-37.73-28.59-59.52-36.61-21.54-8.02-45.99-12.03-72.56-12.03-27.91 0-53.96 4.81-77.35 13.9-23.38 9.35-44.39 23.25-61.65 41.42-18.61 18.71-32.7 40.62-42 65.21-9.56 24.32-14.35 51.04-14.35 79.37s4.79 55.05 14.35 79.1c9.56 24.32 23.65 46.24 42 64.94 17.26 17.91 38.27 31.81 61.92 41.16s49.43 14.16 77.34 14.16c26.85 0 51.57-4.27 73.35-12.56 21.81-8.28 42.52-21.64 62.2-39.82l5.04-4.54-51.56-59.59z"/><path d="m4634.74 473.29v12.29h-313.36c3.19 28.6 15.16 51.31 36.15 69.75 22.6 19.78 51.82 29.67 86.64 29.67 22.6 0 43.59-4.81 63-14.43 19.4-9.62 37.73-24.06 53.94-42.76l4.25-5.08 57.14 46.23-4.5 5.35c-23.93 28.06-50.52 48.9-78.95 62.26-28.43 13.37-61.13 20.05-96.74 20.05-29.51 0-57.68-5.61-83.19-16.3-25.52-10.96-48.1-26.46-66.43-46.51-16.23-17.63-28.99-38.21-37.48-61.46-8.77-22.98-13.03-47.57-13.03-72.96 0-59.86 18.07-109.03 53.96-146.18 35.87-37.15 83.17-56.12 140.85-56.12 59.01 0 107.12 20.31 143.53 59.86 36.15 39.29 54.48 91.93 54.48 156.34zm-313.08-54.25h226.7c-5.06-25.66-17.01-47.04-35.88-63.61-20.73-18.17-46.52-27.25-76.28-27.25-30.3 0-56.61 9.35-78.14 27.79-19.4 16.83-31.62 37.95-36.4 63.07z" fill-rule="evenodd"/></g></svg>