<svg xmlns="http://www.w3.org/2000/svg" width="2500" height="534" viewBox="0 0 1033.746 220.695"><path d="M1033.746 99.838v-18.18h-22.576V53.395l-.76.234-21.205 6.488-.418.127v21.415h-33.469v-11.93c0-5.555 1.242-9.806 3.69-12.641 2.431-2.801 5.908-4.225 10.343-4.225 3.188 0 6.489.751 9.811 2.232l.833.372V36.321l-.392-.144c-3.099-1.114-7.314-1.675-12.539-1.675-6.585 0-12.568 1.433-17.786 4.273-5.221 2.844-9.328 6.904-12.205 12.066-2.867 5.156-4.322 11.111-4.322 17.701v13.116h-15.72v18.18h15.72v76.589h22.567V99.838h33.469v48.671c0 20.045 9.455 30.203 28.102 30.203 3.064 0 6.289-.359 9.582-1.062 3.352-.722 5.635-1.443 6.979-2.213l.297-.176v-18.348l-.918.607c-1.225.816-2.75 1.483-4.538 1.979-1.796.505-3.296.758-4.458.758-4.368 0-7.6-1.177-9.605-3.5-2.028-2.344-3.057-6.443-3.057-12.177V99.838h22.575zM866.635 160.26c-8.191 0-14.649-2.716-19.2-8.066-4.579-5.377-6.899-13.043-6.899-22.783 0-10.049 2.32-17.914 6.901-23.386 4.554-5.436 10.95-8.195 19.014-8.195 7.825 0 14.054 2.635 18.516 7.836 4.484 5.228 6.76 13.03 6.76 23.196 0 10.291-2.14 18.196-6.36 23.484-4.191 5.248-10.493 7.914-18.732 7.914m1.003-80.885c-15.627 0-28.039 4.579-36.889 13.61-8.844 9.032-13.328 21.531-13.328 37.153 0 14.838 4.377 26.773 13.011 35.468 8.634 8.698 20.384 13.104 34.921 13.104 15.148 0 27.313-4.643 36.159-13.799 8.845-9.146 13.326-21.527 13.326-36.784 0-15.07-4.205-27.094-12.502-35.731-8.301-8.641-19.977-13.021-34.698-13.021m-86.602 0c-10.63 0-19.423 2.719-26.14 8.08-6.758 5.393-10.186 12.466-10.186 21.025 0 4.449.74 8.401 2.196 11.753 1.465 3.363 3.732 6.324 6.744 8.809 2.989 2.465 7.603 5.047 13.717 7.674 5.14 2.115 8.973 3.904 11.408 5.314 2.38 1.382 4.069 2.771 5.023 4.124.927 1.324 1.397 3.136 1.397 5.372 0 6.367-4.768 9.465-14.579 9.465-3.639 0-7.79-.76-12.337-2.258a46.347 46.347 0 0 1-12.634-6.406l-.937-.672v21.727l.344.16c3.193 1.474 7.219 2.717 11.964 3.695 4.736.979 9.039 1.477 12.777 1.477 11.535 0 20.824-2.732 27.602-8.125 6.821-5.43 10.278-12.67 10.278-21.525 0-6.388-1.861-11.866-5.529-16.284-3.643-4.382-9.966-8.405-18.785-11.961-7.026-2.82-11.527-5.161-13.384-6.958-1.79-1.736-2.699-4.191-2.699-7.3 0-2.756 1.122-4.964 3.425-6.752 2.321-1.797 5.552-2.711 9.604-2.711 3.76 0 7.607.594 11.433 1.758 3.823 1.164 7.181 2.723 9.984 4.63l.922.63v-20.61l-.354-.152c-2.586-1.109-5.996-2.058-10.138-2.828-4.123-.765-7.863-1.151-11.116-1.151m-95.157 80.885c-8.189 0-14.649-2.716-19.199-8.066-4.58-5.377-6.896-13.041-6.896-22.783 0-10.049 2.319-17.914 6.901-23.386 4.55-5.436 10.945-8.195 19.013-8.195 7.822 0 14.051 2.635 18.514 7.836 4.485 5.228 6.76 13.03 6.76 23.196 0 10.291-2.141 18.196-6.361 23.484-4.191 5.248-10.49 7.914-18.732 7.914m1.006-80.885c-15.631 0-28.044 4.579-36.889 13.61-8.844 9.032-13.331 21.531-13.331 37.153 0 14.844 4.38 26.773 13.014 35.468 8.634 8.698 20.383 13.104 34.92 13.104 15.146 0 27.314-4.643 36.16-13.799 8.843-9.146 13.326-21.527 13.326-36.784 0-15.07-4.206-27.094-12.505-35.731-8.303-8.641-19.977-13.021-34.695-13.021M602.409 98.07V81.658h-22.292v94.767h22.292v-48.477c0-8.243 1.869-15.015 5.557-20.13 3.641-5.054 8.493-7.615 14.417-7.615 2.008 0 4.262.331 6.703.986 2.416.651 4.166 1.358 5.198 2.102l.937.679V81.496l-.361-.155c-2.076-.882-5.013-1.327-8.729-1.327-5.602 0-10.615 1.8-14.909 5.344-3.769 3.115-6.493 7.386-8.576 12.712h-.237zm-62.213-18.695c-10.227 0-19.349 2.193-27.108 6.516-7.775 4.333-13.788 10.519-17.879 18.385-4.073 7.847-6.141 17.013-6.141 27.235 0 8.954 2.005 17.171 5.968 24.413 3.965 7.254 9.577 12.929 16.681 16.865 7.094 3.931 15.293 5.924 24.371 5.924 10.594 0 19.639-2.118 26.891-6.295l.293-.168v-20.423l-.937.684c-3.285 2.393-6.956 4.303-10.906 5.679-3.94 1.375-7.532 2.07-10.682 2.07-8.747 0-15.769-2.737-20.866-8.133-5.108-5.403-7.698-12.99-7.698-22.537 0-9.607 2.701-17.389 8.024-23.131 5.307-5.725 12.342-8.629 20.908-8.629 7.327 0 14.467 2.481 21.222 7.381l.935.679V84.371l-.302-.17c-2.542-1.423-6.009-2.598-10.313-3.489-4.286-.889-8.478-1.337-12.461-1.337m-66.481 2.284h-22.292v94.766h22.292V81.659zm-10.918-40.371c-3.669 0-6.869 1.249-9.498 3.724-2.64 2.482-3.979 5.607-3.979 9.295 0 3.63 1.323 6.698 3.938 9.114 2.598 2.409 5.808 3.63 9.54 3.63 3.731 0 6.953-1.221 9.582-3.626 2.646-2.42 3.988-5.487 3.988-9.118 0-3.559-1.306-6.652-3.879-9.195-2.571-2.538-5.833-3.824-9.692-3.824m-55.62 33.379v101.758h22.75V44.189H398.44l-40.022 98.221-38.839-98.221H286.81v132.235h21.379V74.657h.734l41.013 101.768h16.134l40.373-101.758h.734z" fill="#706d6e"/><path d="M104.868 104.868H0V0h104.868v104.868z" fill="#f1511b"/><path d="M220.654 104.868H115.788V0h104.866v104.868z" fill="#80cc28"/><path d="M104.865 220.695H0V115.828h104.865v104.867z" fill="#00adef"/><path d="M220.654 220.695H115.788V115.828h104.866v104.867z" fill="#fbbc09"/></svg>