<svg xmlns="http://www.w3.org/2000/svg" width="2500" height="752" viewBox="-313 376 166.2 50"><g fill="#f12e45"><path d="M-195.9 385.8h-8.8c-.2 0-.4.2-.4.4v5.1c0 .2.2.4.4.4h8.8c.2 0 .4-.2.4-.4v-5.1c.1-.2-.1-.4-.4-.4zm-.1 7.6h-17c-.2 0-.5.2-.6.4l-2.2 8.3-.1.4-2.6-8.9c-.1-.2-.3-.4-.6-.4h-6.6c-.2 0-.5.2-.6.4l-2.5 8.3-.1.4-.1-.2-1-4.1-1.1-4.1c-.1-.2-.3-.4-.6-.4H-245v-7.2c0-.2-.3-.5-.6-.4l-8.4 2.6c-.3.1-.4.2-.4.4v4.5h-2.2c-.2 0-.4.2-.4.4v6.4c0 .2.2.4.4.4h2.2v7.8c0 5.5 3 8.1 8.5 8.1 2.3 0 4.5-.5 6-1.3v-6.6c0-.3-.3-.4-.5-.4-.9.4-1.6.5-2.4.5-1.5 0-2.3-.6-2.3-2.3v-5.7h4.8c.2 0 .4-.2.4-.4v-5.4l6.3 20.9c.1.2.3.4.6.4h7c.2 0 .5-.2.6-.4l3-9.3 1.5 4.8 1.4 4.4c.1.2.3.4.6.4h7c.2 0 .5-.2.6-.4l6.4-21v21c0 .2.2.4.4.4h8.5c.2 0 .4-.2.4-.4v-21.8c0-.3-.2-.5-.4-.5zm11.2-7.6h-8.5c-.2 0-.4.2-.4.4v29.5c0 .2.2.4.4.4h8.5c.2 0 .4-.2.4-.4v-29.5c0-.2-.2-.4-.4-.4zm11.3 0h-8.8c-.2 0-.4.2-.4.4v5.1c0 .2.2.4.4.4h8.8c.2 0 .4-.2.4-.4v-5.1c.1-.2-.1-.4-.4-.4zm-.1 7.6h-8.5c-.2 0-.4.2-.4.4v21.9c0 .2.2.4.4.4h8.5c.2 0 .4-.2.4-.4v-21.8c0-.3-.2-.5-.4-.5zm14.1-.5c-7.5 0-12.8 5.5-12.8 11.9v.1c0 6.4 5.3 11.8 12.7 11.8 7.5 0 12.8-5.5 12.8-11.9v-.1c0-6.4-5.3-11.8-12.7-11.8zm3.6 11.9c0 2.2-1.5 3.9-3.6 3.9s-3.7-1.8-3.7-4v-.1c0-2.2 1.5-3.9 3.6-3.9s3.7 1.8 3.7 4.1zM-288 376c-13.8 0-25 11.2-25 25s11.2 25 25 25 25-11.2 25-25-11.2-25-25-25zm0 43.4c-10.2 0-18.4-8.2-18.4-18.4s8.2-18.4 18.4-18.4 18.4 8.2 18.4 18.4-8.2 18.4-18.4 18.4z"/><circle cx="-281.8" cy="394.8" r="5.2"/><circle cx="-281.8" cy="407.2" r="5.2"/><circle cx="-294.2" cy="407.2" r="5.2"/><circle cx="-294.2" cy="394.8" r="5.2"/></g></svg>