<svg width="119" height="117" viewBox="0 0 119 117" fill="none" xmlns="http://www.w3.org/2000/svg">
<path d="M52.0114 115.804C80.1842 115.804 103.023 92.8871 103.023 64.6183C103.023 36.3495 80.1842 13.4331 52.0114 13.4331C23.8386 13.4331 1 36.3495 1 64.6183C1 92.8871 23.8386 115.804 52.0114 115.804Z" fill="#f5f5f5" stroke="#d4d4d4" stroke-width="2" stroke-miterlimit="10"/>
<path d="M110.666 21.9437C111.335 21.3297 111.382 20.2874 110.77 19.6156C110.158 18.9438 109.12 18.8969 108.45 19.5108C107.781 20.1247 107.734 21.167 108.346 21.8389C108.957 22.5107 109.996 22.5576 110.666 21.9437Z" fill="#EAEEF9"/>
<path opacity="0.3" d="M83.4192 41.2399C85.2331 41.2399 86.7036 39.7644 86.7036 37.9443C86.7036 36.1242 85.2331 34.6487 83.4192 34.6487C81.6053 34.6487 80.1348 36.1242 80.1348 37.9443C80.1348 39.7644 81.6053 41.2399 83.4192 41.2399Z" fill="#a3a3a3"/>
<path d="M61.2816 45.5689C60.8718 47.7547 59.0958 49.8039 56.7733 50.3504C54.9973 50.7602 53.2213 50.3504 51.9918 49.3941V65.2414H37.2374C37.7839 64.1485 37.9205 63.0556 37.7839 61.826C37.5106 59.0937 35.1882 56.9079 32.5925 56.6347C29.0405 56.2248 25.8984 58.9571 25.8984 62.5091C25.8984 63.4654 26.035 64.4217 26.4448 65.1048H9.77783V34.6397C9.77783 28.3554 14.8326 23.3007 21.2535 23.3007H51.8552V39.148C52.9481 38.4649 54.041 38.0551 55.2706 38.0551C58.9592 38.6015 61.9647 41.7437 61.2816 45.5689Z" fill="white" stroke="#e5e5e5" stroke-width="1.5905" stroke-miterlimit="10" stroke-linejoin="round"/>
<path d="M42.019 85.1871C41.4726 88.8757 44.3415 92.0178 48.0301 92.0178C49.5328 92.0178 50.899 91.4713 51.9919 90.6516V107.045H21.3902C15.1059 107.045 9.91455 101.854 9.91455 95.7064V65.1047H26.4449C26.0351 64.285 25.8985 63.4653 25.8985 62.3724C26.0351 59.5035 28.2209 57.0444 30.9532 56.6346C34.6418 56.2247 37.784 58.957 37.784 62.509C37.784 63.4653 37.6474 64.285 37.2375 65.1047H51.7187V81.4985C50.4891 80.4055 48.8498 79.8591 47.0738 80.1323C44.4781 80.4055 42.4289 82.5914 42.019 85.1871Z" fill="white" stroke="#e5e5e5" stroke-width="1.5905" stroke-miterlimit="10" stroke-linejoin="round"/>
<path d="M94.0691 65.1049V95.4333C94.0691 101.718 88.8777 106.772 82.5934 106.772H51.9917V90.3786C50.8988 91.3349 49.5327 91.7447 48.0299 91.7447C44.4779 91.7447 41.7456 88.6026 42.0188 84.914C42.4287 82.1817 44.6145 80.1325 47.0736 79.7226C48.8496 79.586 50.6256 80.1325 51.7185 81.0888V64.695H69.3418C68.7953 65.5147 68.6587 66.471 68.6587 67.4273C68.6587 70.8427 71.6642 73.7116 75.3528 73.3017C78.0851 73.0285 80.4076 70.7061 80.6808 68.1104C80.8174 66.8808 80.5442 65.7879 80.1344 64.695L94.0691 65.1049Z" fill="white" stroke="#e5e5e5" stroke-width="1.5905" stroke-miterlimit="10" stroke-linejoin="round"/>
<path d="M106.911 52.6728L93.3859 50.3503C93.6591 51.4432 93.7958 52.5362 93.3859 53.6291C92.5662 56.2247 90.1072 58.0007 87.3749 57.8641C83.8229 57.5909 81.2272 54.4488 81.7737 51.0334C81.9103 50.0771 82.3201 49.2574 82.8666 48.5743L65.3799 45.4322L68.1122 29.7215C69.2051 30.8144 70.8445 31.4975 72.7571 31.4975C75.2161 31.3609 77.2654 29.8581 77.9484 27.6723C79.3146 24.1203 76.9921 20.2951 73.3035 19.7486C72.074 19.4754 70.8445 19.7486 69.7516 20.1585L72.4839 4.44775L102.539 9.63912C108.823 10.732 112.922 16.6065 111.829 22.7541L106.911 52.6728Z" fill="#d4d4d4" stroke="#a3a3a3" stroke-width="2" stroke-miterlimit="10"/>
<path d="M113.473 64.1926L118.015 62.8236C118.344 62.7281 118.344 62.2505 118.015 62.155L113.473 60.786C113.356 60.7542 113.271 60.6693 113.24 60.5526L111.871 56.0211C111.775 55.6921 111.297 55.6921 111.202 56.0211L109.833 60.5526C109.801 60.6693 109.716 60.7542 109.6 60.786L105.068 62.155C104.739 62.2505 104.739 62.7281 105.068 62.8236L109.61 64.1926C109.727 64.2244 109.812 64.3093 109.844 64.4261L111.213 68.9682C111.308 69.2971 111.786 69.2971 111.881 68.9682L113.25 64.4261C113.271 64.3093 113.356 64.2244 113.473 64.1926Z" fill="#a3a3a3"/>
<path d="M103.424 24.4522L109.073 22.7495C109.482 22.6307 109.482 22.0367 109.073 21.9179L103.424 20.2152C103.279 20.1756 103.173 20.07 103.133 19.9248L101.431 14.2887C101.312 13.8795 100.718 13.8795 100.599 14.2887L98.8965 19.9248C98.8569 20.07 98.7513 20.1756 98.6061 20.2152L92.97 21.9179C92.5608 22.0367 92.5608 22.6307 92.97 22.7495L98.6193 24.4522C98.7645 24.4918 98.8701 24.5974 98.9097 24.7426L100.612 30.3919C100.731 30.8011 101.325 30.8011 101.444 30.3919L103.147 24.7426C103.173 24.5974 103.279 24.4918 103.424 24.4522Z" fill="#a3a3a3"/>
<path d="M62.357 5.26099L65.1958 4.40543C65.4015 4.34575 65.4015 4.0473 65.1958 3.98761L62.357 3.13205C62.2841 3.11216 62.231 3.0591 62.2111 2.98615L61.3555 0.154199C61.2958 -0.0513995 60.9973 -0.0513995 60.9376 0.154199L60.082 2.98615C60.0621 3.0591 60.009 3.11216 59.9361 3.13205L57.1039 3.98761C56.8983 4.0473 56.8983 4.34575 57.1039 4.40543L59.9427 5.26099C60.0157 5.28088 60.0687 5.33394 60.0886 5.4069L60.9443 8.24548C61.004 8.45107 61.3024 8.45107 61.3621 8.24548L62.2177 5.4069C62.231 5.33394 62.2841 5.28088 62.357 5.26099Z" fill="#a3a3a3"/>
</svg>
