<svg width="146" height="120" viewBox="0 0 146 120" fill="none" xmlns="http://www.w3.org/2000/svg">
<path d="M131.648 59.7265C131.648 72.9542 127.219 85.3837 119.837 95.1904C115.748 100.55 110.865 105.225 105.187 108.874C96.1015 114.918 85.0856 118.339 73.3883 118.339C41.2491 118.453 15.1289 92.2256 15.1289 59.7265C15.1289 27.3414 41.1355 1 73.3883 1C85.0856 1 95.9879 4.42096 105.187 10.4647C110.865 14.1137 115.748 18.789 119.837 24.1485C127.219 34.0693 131.648 46.3847 131.648 59.7265Z" fill="#f5f5f5" stroke="#d4d4d4" stroke-width="2" stroke-miterlimit="10"/>
<path d="M29.0195 51.8744H28.3162C27.7887 51.8744 27.437 51.7103 27.437 51.4641C27.437 51.2179 27.7887 51.0538 28.3162 51.0538H29.0195C29.547 51.0538 29.8987 51.2179 29.8987 51.4641C29.8987 51.7103 29.547 51.8744 29.0195 51.8744Z" fill="#2D5887"/>
<path d="M29.0195 55.1566H28.3162C27.7887 55.1566 27.437 54.9925 27.437 54.7463C27.437 54.5002 27.7887 54.3361 28.3162 54.3361H29.0195C29.547 54.3361 29.8987 54.5002 29.8987 54.7463C29.8987 54.9925 29.547 55.1566 29.0195 55.1566Z" fill="#2D5887"/>
<path d="M29.0195 58.4388H28.3162C27.7887 58.4388 27.437 58.2747 27.437 58.0286C27.437 57.7824 27.7887 57.6183 28.3162 57.6183H29.0195C29.547 57.6183 29.8987 57.7824 29.8987 58.0286C29.8987 58.2747 29.547 58.4388 29.0195 58.4388Z" fill="#2D5887"/>
<path d="M29.0195 61.7211H28.3162C27.7887 61.7211 27.437 61.557 27.437 61.3108C27.437 61.0646 27.7887 60.9005 28.3162 60.9005H29.0195C29.547 60.9005 29.8987 61.0646 29.8987 61.3108C29.8987 61.557 29.547 61.7211 29.0195 61.7211Z" fill="#2D5887"/>
<path d="M61.1189 51.8744H49.553C49.0841 51.8744 48.7715 51.7103 48.7715 51.4641C48.7715 51.2179 49.0841 51.0538 49.553 51.0538H61.1189C61.5878 51.0538 61.9004 51.2179 61.9004 51.4641C61.9004 51.7103 61.5878 51.8744 61.1189 51.8744Z" fill="white"/>
<path d="M85.7621 61.7211H49.5264C49.0734 61.7211 48.7715 61.557 48.7715 61.3108C48.7715 61.0646 49.0734 60.9005 49.5264 60.9005H85.7621C86.215 60.9005 86.517 61.0646 86.517 61.3108C86.517 61.557 86.215 61.7211 85.7621 61.7211Z" fill="url(#paint0_linear)"/>
<path d="M61.1642 55.1566H45.4053C44.9635 55.1566 44.6689 54.9925 44.6689 54.7463C44.6689 54.5002 44.9635 54.3361 45.4053 54.3361H61.1642C61.606 54.3361 61.9006 54.5002 61.9006 54.7463C61.9006 54.9925 61.606 55.1566 61.1642 55.1566Z" fill="#2D5887"/>
<path d="M73.4741 58.4388H45.4038C44.9629 58.4388 44.6689 58.2747 44.6689 58.0286C44.6689 57.7824 44.9629 57.6183 45.4038 57.6183H73.4741C73.915 57.6183 74.2089 57.7824 74.2089 58.0286C74.0619 58.2747 73.768 58.4388 73.4741 58.4388Z" fill="#2D5887"/>
<path d="M85.7181 58.4388H75.0082C74.5287 58.4388 74.209 58.2747 74.209 58.0286C74.209 57.7824 74.5287 57.6183 75.0082 57.6183H85.7181C86.1976 57.6183 86.5173 57.7824 86.5173 58.0286C86.5173 58.2747 86.1976 58.4388 85.7181 58.4388Z" fill="white"/>
<path d="M92.3056 58.4388H88.1141C87.6484 58.4388 87.3379 58.2747 87.3379 58.0286C87.3379 57.7824 87.6484 57.6183 88.1141 57.6183H92.3056C92.7713 57.6183 93.0818 57.7824 93.0818 58.0286C93.0818 58.2747 92.7713 58.4388 92.3056 58.4388Z" fill="url(#paint1_linear)"/>
<path d="M2 103.569H139.853" stroke="#D6DEE8" stroke-width="2" stroke-miterlimit="10" stroke-linecap="round" stroke-linejoin="round"/>
<path d="M98.8252 51.0538V103.569H24.3713C21.4342 103.569 19.2314 101.209 19.2314 98.4063V51.0538H98.8252Z" fill="white" stroke="#d4d4d4" stroke-width="2" stroke-miterlimit="10"/>
<path d="M128.366 51.0538V98.4063C128.366 101.357 125.917 103.569 123.009 103.569H98.8257V51.0538H128.366Z" fill="#DAE1ED"/>
<path d="M128.366 51.0538V98.4063C128.366 101.357 125.917 103.569 123.009 103.569H98.8257V51.0538H128.366Z" fill="#f5f5f5" stroke="#d4d4d4" stroke-width="2" stroke-miterlimit="10"/>
<path d="M47.9512 51.0538L63.6074 26.4372H143.956L127.857 51.0538H47.9512Z" fill="#C5CDDB"/>
<path d="M47.9512 51.0538L63.6074 26.4372H143.956L127.857 51.0538H47.9512Z" fill="#f5f5f5" stroke="#d4d4d4" stroke-width="2" stroke-miterlimit="10"/>
<path opacity="0.3" d="M128.366 51.1976V78.9527H106.826C104.826 78.9527 103.441 77.6584 103.134 75.7889L98.8257 51.0538L128.366 51.1976Z" fill="url(#paint2_linear)"/>
<path d="M127.747 51.0538H98.8257L113.511 73.312C114.56 74.786 116.208 75.6705 117.857 75.6705H140.334C141.833 75.6705 142.882 73.9016 141.982 72.7224L127.747 51.0538Z" fill="white" stroke="#d4d4d4" stroke-width="2" stroke-miterlimit="10"/>
<path d="M98.8254 51.0538L83.0597 26.4372H2L18.3607 51.0538H98.8254Z" fill="white" stroke="#d4d4d4" stroke-width="2" stroke-miterlimit="10"/>
<path d="M58.9543 81.4144H27.9218C27.1967 81.4144 26.6167 80.8673 26.6167 80.1835C26.6167 79.4997 27.1967 78.9527 27.9218 78.9527H58.9543C59.6794 78.9527 60.2594 79.4997 60.2594 80.1835C60.1144 80.8673 59.6794 81.4144 58.9543 81.4144Z" fill="#DAE1ED"/>
<path d="M58.9543 87.1583H27.9218C27.1967 87.1583 26.6167 86.7936 26.6167 86.3377C26.6167 85.8818 27.1967 85.5172 27.9218 85.5172H58.9543C59.6794 85.5172 60.2594 85.8818 60.2594 86.3377C60.1144 86.7936 59.6794 87.1583 58.9543 87.1583Z" fill="#DAE1ED"/>
<path d="M42.5228 93.7227H27.9422C27.2058 93.7227 26.6167 93.358 26.6167 92.9021C26.6167 92.4462 27.2058 92.0815 27.9422 92.0815H42.5228C43.2592 92.0815 43.8483 92.4462 43.8483 92.9021C43.7011 93.358 43.1119 93.7227 42.5228 93.7227Z" fill="#DAE1ED"/>
<defs>
<linearGradient id="paint0_linear" x1="48.941" y1="61.3274" x2="86.5608" y2="61.3274" gradientUnits="userSpaceOnUse">
<stop stop-color="#FF66A9"/>
<stop offset="1" stop-color="#F53689"/>
</linearGradient>
<linearGradient id="paint1_linear" x1="87.3762" y1="58.0035" x2="93.0807" y2="58.0035" gradientUnits="userSpaceOnUse">
<stop stop-color="#83A6FF"/>
<stop offset="1" stop-color="#5A78FF"/>
</linearGradient>
<linearGradient id="paint2_linear" x1="113.602" y1="79.5253" x2="113.602" y2="54.1128" gradientUnits="userSpaceOnUse">
<stop offset="0.00289017" stop-color="#606673" stop-opacity="0"/>
<stop offset="1" stop-color="#a3a3a3"/>
</linearGradient>
</defs>
</svg>
