<svg width="128" height="110" viewBox="0 0 128 110" fill="none" xmlns="http://www.w3.org/2000/svg">
<path d="M63.6998 108.5C93.3998 108.5 117.6 84.4 117.6 54.8C117.5 25.1 93.3998 1 63.6998 1C33.8998 1 9.7998 25.1 9.7998 54.7C9.7998 84.4 33.8998 108.5 63.6998 108.5Z" fill="#f5f5f5" stroke="#d4d4d4" stroke-width="2" stroke-miterlimit="10"/>
<path d="M118.9 36C121.164 36 123 34.1644 123 31.9C123 29.6357 121.164 27.8 118.9 27.8C116.635 27.8 114.8 29.6357 114.8 31.9C114.8 34.1644 116.635 36 118.9 36Z" fill="#EAEEF9"/>
<path d="M124.9 20C126.446 20 127.7 18.7464 127.7 17.2C127.7 15.6536 126.446 14.4 124.9 14.4C123.354 14.4 122.1 15.6536 122.1 17.2C122.1 18.7464 123.354 20 124.9 20Z" fill="#EAEEF9"/>
<path d="M5.2 90.8C8.07188 90.8 10.4 88.4719 10.4 85.6C10.4 82.7281 8.07188 80.4 5.2 80.4C2.32812 80.4 0 82.7281 0 85.6C0 88.4719 2.32812 90.8 5.2 90.8Z" fill="#EAEEF9"/>
<path d="M101.512 32.1697V97.3009C101.512 102.047 97.7479 105.811 93.0022 105.811H34.4168C29.6711 105.811 25.9072 102.047 25.9072 97.3009V12.0412C25.9072 7.29548 29.6711 3.53162 34.4168 3.53162H73.0373C75.1647 3.53162 77.1285 4.34985 78.6013 5.82266L99.2207 26.4421C100.694 28.0786 101.512 30.0423 101.512 32.1697Z" fill="white" stroke="#e5e5e5" stroke-width="2" stroke-miterlimit="10"/>
<path d="M75.9185 4.12698V23.4805C75.9185 26.9513 78.8576 29.7279 82.1974 29.7279H100.924" fill="#d4d4d4"/>
<path d="M51.1871 88.0744H37.5406C37.0314 88.0744 36.624 87.5331 36.624 86.8836C36.624 86.2342 37.0314 85.6929 37.5406 85.6929H51.1871C51.6963 85.6929 52.1037 86.2342 52.1037 86.8836C52.1037 87.6414 51.6963 88.0744 51.1871 88.0744Z" fill="#D5DDEA"/>
<path d="M68.6393 21.3927H37.9495C37.2358 21.3927 36.624 20.8432 36.624 20.202C36.624 19.5608 37.2358 19.0113 37.9495 19.0113H68.6393C69.353 19.0113 69.9648 19.5608 69.9648 20.202C69.9648 20.8432 69.353 21.3927 68.6393 21.3927Z" fill="#d4d4d4"/>
<path d="M49.6968 28.5373H37.9414C37.2321 28.5373 36.624 27.9877 36.624 27.3465C36.624 26.7053 37.2321 26.1558 37.9414 26.1558H49.5955C50.3049 26.1558 50.9129 26.7053 50.9129 27.3465C50.9129 27.9877 50.3049 28.5373 49.6968 28.5373Z" fill="#d4d4d4"/>
<path d="M90.4363 70.2132H54.6499H50.7057H38.7769C38.2959 70.2132 37.8149 70.7093 37.8149 71.4039C37.8149 71.9993 38.1997 72.5947 38.7769 72.5947H50.7057H54.6499H90.4363C90.9173 72.5947 91.3983 72.0985 91.3983 71.4039C91.3021 70.7093 90.9173 70.2132 90.4363 70.2132Z" fill="#d4d4d4"/>
<path d="M90.4346 61.8779H77.1351H72.6056H38.7787C38.2968 61.8779 37.8149 62.3741 37.8149 63.0687C37.8149 63.664 38.2004 64.2594 38.7787 64.2594H72.6056H77.1351H90.4346C90.9165 64.2594 91.3983 63.7633 91.3983 63.0687C91.302 62.3741 90.9165 61.8779 90.4346 61.8779Z" fill="#d4d4d4"/>
<path d="M90.5219 53.5429H87.0657H83.6095H38.775C38.295 53.5429 37.8149 54.0391 37.8149 54.7337C37.8149 55.329 38.199 55.9244 38.775 55.9244H83.6095H87.4497H90.4259C90.9059 55.9244 91.386 55.4283 91.386 54.7337C91.482 54.1383 91.0019 53.5429 90.5219 53.5429Z" fill="#d4d4d4"/>
<path d="M90.4466 45.2077H79.3111H76.5511H38.7667C38.2908 45.2077 37.8149 45.7038 37.8149 46.3984C37.8149 46.9938 38.1956 47.5892 38.7667 47.5892H76.5511H79.3111H90.3514C91.0176 47.5892 91.3983 47.093 91.3983 46.3984C91.3983 45.8031 91.0176 45.2077 90.4466 45.2077Z" fill="#d4d4d4"/>
<path d="M91.0478 106C102.671 106 112.093 96.5776 112.093 84.9546C112.093 73.3315 102.671 63.9092 91.0478 63.9092C79.4248 63.9092 70.0024 73.3315 70.0024 84.9546C70.0024 96.5776 79.4248 106 91.0478 106Z" fill="#d4d4d4" stroke="#a3a3a3" stroke-width="2" stroke-miterlimit="10"/>
<path d="M94.4783 85.2744L94.4931 85.2896L94.5085 85.3042C95.5672 86.3033 97.2893 86.3632 98.3258 85.2626C99.3087 84.219 99.3087 82.4658 98.3258 81.4223L93.119 75.8939C92.8246 75.466 92.3804 75.244 92.0711 75.1303C91.7075 74.9966 91.3193 74.9351 91.0091 74.9351C90.5749 74.9351 90.1701 75.1043 89.9007 75.2474C89.6162 75.3984 89.327 75.6041 89.1184 75.8257L83.9158 81.3496C83.5549 81.6234 83.3448 81.9942 83.2255 82.3039C83.0904 82.6546 83.0327 83.0246 83.0327 83.3424C83.0327 84.041 83.3085 84.6904 83.8474 85.2626L83.8675 85.284L83.8889 85.3042C84.9454 86.3013 86.6627 86.3629 87.7 85.2692L88.3813 84.5692V91.1612C88.3813 92.6438 89.5485 93.9719 91.0866 93.9719C92.6247 93.9719 93.7919 92.6438 93.7919 91.1612V84.5692L94.4783 85.2744Z" fill="white" stroke="#a3a3a3" stroke-width="2"/>
</svg>
