<svg xmlns="http://www.w3.org/2000/svg" width="2500" height="715" viewBox="88.623 335.663 433.66 124.019"><path fill="#231F20" d="M120.172 433.458c0 7.235-2.972 16.963-11.748 16.963-4.4 0-6.99-2.267-6.99-6.773.002-8.505 12.459-10.19 18.738-10.19m12.587 24.905v-40.206c0-13.035-8.554-17.539-20.538-17.539-11.72 0-21.48 4.979-21.48 17.912h12.838c0-5.586 2.968-8.654 8.643-8.654 6.513 0 7.951 4.724 7.951 10.304v5.578c-12.811.354-31.549 2.139-31.549 19.1 0 9.603 7.597 14.821 16.599 14.821 6.173 0 11.862-2.02 14.722-7.833h.229v6.518h12.585m39.029-37.116h13.995c0-13.881-7.694-20.63-21.467-20.63-16.931 0-25.857 10.66-25.857 27.02 0 19.688 10.084 32.041 30.235 32.041 5.584 0 11.152-.938 16.497-2.611v-8.063c-3.094 1.063-6.296 1.416-9.473 1.416-14.978 0-23.262-10.91-23.262-25.134 0-6.754 2.49-15.411 10.797-15.411 6.874 0 8.535 5.569 8.535 11.372m50.574 0h14.01c0-13.881-7.726-20.63-21.476-20.63-16.955 0-25.854 10.66-25.854 27.02 0 19.688 10.073 32.041 30.238 32.041 5.569 0 11.158-.938 16.482-2.611v-8.063c-3.074 1.063-6.284 1.416-9.483 1.416-14.936 0-23.262-10.91-23.262-25.134 0-6.754 2.513-15.411 10.805-15.411 6.876 0 8.54 5.569 8.54 11.372m51.608-2.495h-20.636c.602-5.697 4.972-9.745 10.621-9.745 6.074 0 10.015 3.703 10.015 9.745m12.454 7.965v-3.216c0-13.754-7.115-22.884-21.47-22.884-16.83 0-24.207 10.554-24.207 26.566 0 18.6 8.417 32.497 28.458 32.497 5.346 0 10.71-.587 15.762-2.256v-9.127c-3.324 1.177-7.214 2.122-10.769 2.122-12.8 0-21.248-11.73-21.248-23.701h33.474m39.01 31.644h13.194v-39.132c0-9.712-4.552-18.613-15.325-18.613-8.067 0-13.742 4.638-16.722 11.851h-.233V401.89h-13.191v56.477h13.191V433.94c0-7.606 3.8-20.992 13.252-20.992 1.354 0 2.843.108 3.825 1.076 2.223 2.123 2.009 9.351 2.009 12.088v32.251m40.545-47.313h16.769v-9.16h-16.769v-18.714l-13.108 5.333v13.378h-11.046v9.16h11.046v33.082c0 11.753 5.75 15.548 17.292 15.548 3.574 0 7.222-.343 10.76-.938v-9.267c-1.983.489-3.989.943-6.039.943-8.206 0-8.907-6.045-8.907-12.699V411.05m54.859 47.313h13.166v-56.474h-13.166v24.443c0 7.605-3.8 20.995-13.306 20.995-1.285 0-2.852-.095-3.8-1.049-2.265-2.145-2.009-9.383-2.009-12.096v-32.294h-13.146v39.168c0 9.733 4.468 18.624 15.286 18.624 7.967 0 13.772-4.754 16.749-11.848h.226v10.531m34.639-24.777c0-13.286 4.975-19.203 18.482-19.203v-13.765c-9.469 0-13.884 3.917-18.26 11.72h-.223v-10.451h-13.188v56.477h13.188v-24.778m54.36-14.833H489.19c.596-5.697 4.979-9.745 10.66-9.745 6.068 0 9.984 3.703 9.984 9.745m12.449 7.965v-3.216c0-13.754-7.107-22.884-21.473-22.884-16.836 0-24.193 10.554-24.193 26.566 0 18.6 8.423 32.497 28.449 32.497 5.344 0 10.69-.587 15.787-2.256v-9.127c-3.316 1.177-7.233 2.122-10.766 2.122-12.844 0-21.262-11.73-21.262-23.701h33.457"/><path fill="#27AAE1" d="M341.81 335.663v9.285s26.291 10.188 30.055 11.653c-3.764 1.443-30.055 11.58-30.055 11.58v9.272l40.948-16.636v-8.51l-40.948-16.644"/></svg>