<svg height="588" viewBox=".017 .02 118.965 27.969" width="2500" xmlns="http://www.w3.org/2000/svg"><g fill="none"><path d="m8.767 14.008c0-2.888 2.35-5.23 5.251-5.23 2.9 0 5.251 2.341 5.251 5.23 0 2.89-2.35 5.231-5.25 5.231-2.901 0-5.252-2.342-5.252-5.23" fill="#00aa13"/><path d="m14.017.062c-7.732 0-14 6.244-14 13.947 0 5.782 3.505 10.718 8.594 12.866a2.623 2.623 0 0 0 3.587-1.897 2.613 2.613 0 0 0 -1.56-2.927v-.001c-3.154-1.317-5.371-4.42-5.371-8.041 0-4.815 3.917-8.718 8.751-8.718s8.752 3.903 8.752 8.718c0 3.62-2.217 6.724-5.372 8.04v.002a2.613 2.613 0 0 0 1.011 5.026 2.717 2.717 0 0 0 1.014-.203c5.089-2.148 8.595-7.085 8.595-12.866 0-7.704-6.269-13.948-14.001-13.948" fill="#00aa13"/><path d="m68.641 12.461c0-2.523-1.737-4.399-4.445-4.399-2.71 0-4.446 1.877-4.446 4.4 0 2.521 1.737 4.4 4.446 4.4 2.708 0 4.445-1.878 4.445-4.4m-13.249 0c0-4.634 3.68-8.213 8.804-8.213 5.152 0 8.803 3.579 8.803 8.213s-3.651 8.212-8.803 8.212c-5.123 0-8.804-3.578-8.804-8.212m16.111 11.568h2.355c1.266 0 1.708-.47 1.708-1.584v-18.192h4.357v18.25c0 3.843-1.56 5.485-5.711 5.485h-2.71v-3.96zm-23.096-10.72c0 1.92-1.956 3.454-4.445 3.454-2.814 0-4.563-1.653-4.563-4.398 0-2.538 1.867-4.28 4.741-4.28 2.282 0 4.267 1.594 4.267 3.394zm.178-9.066v1.834h-.06c-1.126-1.18-2.992-1.83-5.214-1.83-4.771 0-8.297 3.542-8.297 8.117 0 4.753 3.615 8.236 8.445 8.236 2.162 0 3.97-.68 5.067-1.89h.06v1.582c0 2.125-1.838 3.689-4.268 3.689-2.45 0-3.876-.688-5.114-1.867l-2.837 2.72c1.901 2.01 4.767 3.153 8.04 3.153 4.979 0 8.385-3.327 8.385-7.754v-15.99zm42.473 3.524c2.325 0 3.945 1.203 4.151 3.022h-8.362c.236-1.819 1.856-3.022 4.211-3.022m.45 9.386c-2.612 0-4.665-1.682-4.719-3.314h12.66v-1.231c0-4.664-3.239-8.36-8.48-8.36-4.946 0-8.479 3.462-8.479 8.243 0 4.927 3.727 8.182 9.205 8.182 3.356 0 5.763-1.603 7.019-3.138l-2.953-2.062c-1.313 1.221-2.505 1.68-4.252 1.68m10.507-17.134h4.206l.023 10.77h.057l7.042-6.578h5.638l-7.298 6.881 7.269 9.568h-5.034l-4.992-6.915h-.057l-2.648 2.499v4.428h-4.206z" fill="#000"/></g></svg>