<svg id="Layer_1" xmlns="http://www.w3.org/2000/svg" viewBox="0 0 1091.9 308.5" width="2500" height="706"><style>.st0{fill:#675d55}.st1{fill:#665c54}.st2{fill:#675c55}.st3{fill:#665c55}.st4{fill:#ec5250}</style><title>udemy-1</title><path class="st0" d="M850.3 162.4v70h-31V130H841l6.5 8.1c22.3-17.1 48.3-12.6 60.4 3.2l5.7-4.4c12.4-9.5 26.2-11.9 41-7.9 9.3 2.5 16.4 8.2 19.6 17.3 2.4 7 4.5 14.4 4.7 21.7.6 20.6.3 41.2.3 61.8-.1 1-.2 1.9-.4 2.8h-31v-17.9-33.3c0-2 0-4.1-.2-6.1-1.3-15.6-10.1-21.5-25.1-16.7-2.7 1-5.2 2.2-7.7 3.5v70.3h-31.6v-7.3-44.8-2c-.4-19.5-12.4-26.5-29.9-17.6-.9.3-1.6.8-3 1.7z"/><path class="st1" d="M544.4 95.3H577c.2 1.6.4 2.9.4 4.2-.1 26.9-.1 53.9-.4 80.8-.1 5-.7 9.9-1.8 14.8-4.7 21.4-17.7 34.4-39.5 38.5-14.7 2.9-29.9 2.7-44.4-.7-20.1-4.8-32.5-19.9-35.1-42.4-.9-8.8-1.4-17.6-1.4-26.4-.2-20.6-.1-41.2-.1-61.8v-7h32.8v7.7c0 22.2-.2 44.4.1 66.6.1 6.3 1 12.6 2.6 18.7 1.9 7.5 7.2 13 15 14.1 7.3 1.1 14.8 1.1 22.1 0 9-1.4 13.7-8.3 15.5-16.9 1-5.1 1.5-10.3 1.5-15.5.2-24.6.1-49.3.1-74.7zM693.8 232.6h-19.3l-5.7-7.1c-10.8 7.8-22.9 10.3-36 9.4-20.9-1.5-35.5-13.1-41.1-33.3-3.6-12.7-3.6-26.1.1-38.8 6-20.6 23.3-34.5 44.8-35.3 8.5-.3 17 .8 26 1.4v-42h31.2v145.7zM662.5 203v-45.3c-1.9-.9-3.6-1.9-5.5-2.5-15.9-5.6-30.3.7-34.4 15.3-1 3.2-1.5 6.6-1.5 10 .2 10 1.9 19.8 11.9 24.9 10 5 20.1 3.7 29.5-2.4z"/><path class="st2" d="M805.7 186h-64.5c-1.8 9.2 4 18.4 13.7 21.4 10.9 3.4 21.9 2.3 32.7-1 4.5-1.4 8.7-3.5 13.5-5.5L797 225c-6.7 5.8-14.7 8.2-23.1 9.2-11.3 1.3-22.6 1-33.6-2.5-15-4.9-25.2-14.8-29.8-29.9-4.1-13.3-4.3-27.5-.4-40.8 5.5-19.4 21.2-32.2 41.4-33.5 5.6-.5 11.3-.4 16.9.4 15.5 2.5 26.3 11.4 32.1 26 4.1 10 5.6 20.7 5.2 32.1zm-65.3-15.5h39.4c-.9-13-10.1-19.2-19-19.2-11.4.1-18.8 6.8-20.4 19.2z"/><path class="st3" d="M1014.9 130c3.9 11.1 7.7 22.1 11.6 33.1 3.8 11.1 7.6 22.2 12 34.9l22.4-68.1h31L1037.8 267h-31.4l14.9-38-41.1-99h34.7z"/><path class="st4" d="M242.8 152.2l-4.5 9.3c-14.2 31.7-29.7 62.8-49.9 91.3-10.7 15.1-22.6 29-37.7 40-13.6 9.8-28.6 15.8-45.6 15.7-18.5-.1-33.4-7.7-44.4-22.6-10-13.6-14-29.3-15.2-45.9-1.6-22.2 2.2-43.8 7.2-65.2 1.2-5 2.2-10 3.5-15.9-4.5 2.6-8.3 4.9-12.1 6.9-6.4 3.5-13.2 5.6-20.6 5.4C9 170.5-.4 159.9 0 145c10.7-9.3 21.5-17.7 31.1-27.4C56.6 91.9 76.1 61.9 91 29c2.1-4.9 4.6-9.7 7.3-14.3 7.1-11.4 18.5-16.5 30.3-14 11.3 2.4 18.4 10.9 20.7 24.5 3 17.5-.6 34.4-4.6 51.2-8 33-16.4 66-24.2 99.1-3.8 16.2-5.9 32.7-4.8 49.4.3 4.9 1.3 9.8 2.9 14.4 3.4 9 11.3 11.3 18.7 5.1 4.6-4 8.7-8.4 12.4-13.2 20.9-26.5 38.1-55.4 53.5-85.3 13.1-25.5 26-51.1 39.1-76.6 2.2-4.4 4.8-8.6 7.3-12.8 9.8-16.1 33.7-14.7 43.3 1.2 5.2 8.6 7.7 18.2 8.4 28.1.8 10.3 1 20.6 1.4 30.9.9 22.4 1.7 44.8 2.8 67.2.3 4.2 1.2 8.4 2.8 12.4 2.9 7.5 8.4 10.3 16.1 8 4.3-1.2 8.4-3.1 12-5.7 10.2-7.7 19.9-15.9 30.5-24.5 4.4 1.3 7 5.2 8.5 10.1 2.8 9.3 1 18.3-2.4 26.9-9.5 24.2-28.3 37.8-52.8 43.2-9.4 1.9-19.1 2.3-28.7 1-18.7-2.3-31.2-13.6-38.5-30.8-6.8-16-8.4-32.9-9.1-50-.3-7.3 0-14.6 0-22l-1.1-.3z"/></svg>