<svg xmlns="http://www.w3.org/2000/svg" xmlns:xlink="http://www.w3.org/1999/xlink" aria-hidden="true" role="img" class="iconify iconify--fontisto" width="28" height="32" preserveAspectRatio="xMidYMid meet" viewBox="0 0 21 24"><path d="M12.731 2.751L17.666 5.6a2.138 2.138 0 1 1 2.07 3.548l-.015.003v5.7a2.14 2.14 0 1 1-2.098 3.502l-.002-.002l-4.905 2.832a2.14 2.14 0 1 1-4.079.054l-.004.015l-4.941-2.844a2.14 2.14 0 1 1-2.067-3.556l.015-.003V9.15a2.14 2.14 0 1 1 1.58-3.926l-.01-.005c.184.106.342.231.479.376l.001.001l4.938-2.85a2.14 2.14 0 1 1 4.096.021l.004-.015zm-.515.877a.766.766 0 0 1-.057.057l-.001.001l6.461 11.19c.026-.009.056-.016.082-.023V9.146a2.14 2.14 0 0 1-1.555-2.603l-.003.015l.019-.072zm-3.015.059l-.06-.06l-4.946 2.852A2.137 2.137 0 0 1 2.749 9.12l-.015.004l-.076.021v5.708l.084.023l6.461-11.19zm2.076.507a2.164 2.164 0 0 1-1.207-.004l.015.004l-6.46 11.189c.286.276.496.629.597 1.026l.003.015h12.911c.102-.413.313-.768.599-1.043l.001-.001L11.28 4.194zm.986 16.227l4.917-2.838a1.748 1.748 0 0 1-.038-.142H4.222l-.021.083l4.939 2.852c.39-.403.936-.653 1.54-.653c.626 0 1.189.268 1.581.696l.001.002z" fill="currentColor"></path></svg>