<svg width="128" height="128" viewBox="0 0 128 128" fill="none" xmlns="http://www.w3.org/2000/svg">
<path d="M0 16C0 7.16344 7.16344 0 16 0H112C120.837 0 128 7.16344 128 16V112C128 120.837 120.837 128 112 128H16C7.16344 128 0 120.837 0 112V16Z" fill="#10B981"/>
<ellipse cx="49.94" cy="39.46" rx="2.5" ry="2.5" fill="white" fill-opacity="0.75"/>
<ellipse cx="65.44" cy="40.46" rx="3" ry="3" fill="white" fill-opacity="0.75"/>
<ellipse cx="80.44" cy="44.46" rx="2.50001" ry="2.5" fill="white" fill-opacity="0.75"/>
<path d="M86.7407 58.919C87.2596 55.7445 77.0229 51.468 63.9989 49.3955C50.9765 47.3216 39.8979 48.2292 39.379 51.4037C39.3147 51.6624 39.379 51.8568 39.4448 52.1169C39.1203 51.9868 20.2663 104.92 20.2663 104.92H91.5347C91.5347 104.92 87.1295 59.5665 86.482 59.5665C86.6107 59.3735 86.7407 59.1792 86.7407 58.919Z" fill="url(#paint0_linear_202_73)"/>
<path d="M79.2254 56.8465C78.9009 58.8547 71.5157 59.3078 62.6397 57.9471C53.828 56.5221 46.8943 53.7363 47.2188 51.7925C47.3489 51.145 48.1907 50.6261 49.5514 50.3675C45.0162 50.5618 42.0361 51.4037 41.7774 52.8287C41.3887 55.4858 50.4591 59.1134 62.1208 60.993C73.7826 62.8711 83.5662 62.1593 84.0193 59.5679C84.2795 58.0114 81.6867 56.3277 77.4116 54.7083C78.6422 55.4201 79.2897 56.1976 79.2254 56.8465Z" fill="#A7F3D0" fill-opacity="0.5"/>
<path d="M83.8892 39.3532C83.1131 31.319 76.9571 24.5155 68.6642 23.2205C60.3713 21.9241 52.5315 26.4593 49.227 33.7803C54.5397 34.1047 60.2412 34.6879 66.2029 35.6598C72.5519 36.6318 78.5122 37.9282 83.8892 39.3532Z" fill="url(#paint1_radial_202_73)"/>
<path d="M19.0356 39.5005C18.3882 43.4526 26.6153 48.3123 39.5091 52.2643C39.4448 52.0042 39.4448 51.8098 39.4448 51.5511C39.9622 48.3766 50.9765 47.469 64.0647 49.5429C77.1515 51.6154 87.3239 55.8919 86.805 59.0664C86.7407 59.3266 86.6764 59.5209 86.5463 59.7139C99.9576 59.9083 109.288 57.8358 109.936 53.8837C110.842 47.8577 91.2759 39.7592 66.203 35.8072C41.0642 31.8552 19.9418 33.4746 19.0356 39.5005ZM47.9321 39.1761C48.1264 38.1398 49.0984 37.3623 50.1346 37.5567C51.1709 37.7511 51.9484 38.723 51.754 39.7592C51.6239 40.7955 50.5877 41.5087 49.5515 41.3786C48.5152 41.1843 47.7377 40.2123 47.9321 39.1761ZM62.8984 40.2123C63.0928 38.7873 64.4535 37.8154 65.8785 38.0755C67.3035 38.2699 68.2754 39.6292 68.0168 41.0556C67.7566 42.4164 66.3973 43.3883 65.0366 43.1939C63.6102 42.9995 62.6382 41.6388 62.8984 40.2123ZM78.6423 44.0358C78.8366 42.9995 79.8086 42.222 80.8448 42.4164C81.8811 42.6107 82.6586 43.5827 82.4642 44.6189C82.3356 45.6552 81.2979 46.4327 80.2617 46.2383C79.2254 46.0439 78.4479 45.072 78.6423 44.0358Z" fill="url(#paint2_radial_202_73)"/>
<defs>
<linearGradient id="paint0_linear_202_73" x1="56.7496" y1="39.4014" x2="56.7496" y2="100.924" gradientUnits="userSpaceOnUse">
<stop stop-color="#86EFAC" stop-opacity="0.75"/>
<stop offset="0.635417" stop-color="white" stop-opacity="0.2"/>
<stop offset="1" stop-color="white" stop-opacity="0"/>
</linearGradient>
<radialGradient id="paint1_radial_202_73" cx="0" cy="0" r="1" gradientUnits="userSpaceOnUse" gradientTransform="translate(66.5581 31.1766) rotate(90) scale(8.17659 17.3311)">
<stop stop-color="#047857"/>
<stop offset="1" stop-color="#064E3B"/>
</radialGradient>
<radialGradient id="paint2_radial_202_73" cx="0" cy="0" r="1" gradientUnits="userSpaceOnUse" gradientTransform="translate(64.4593 46.6885) scale(347.403)">
<stop stop-color="#047857"/>
<stop offset="0.114583" stop-color="#064E3B"/>
</radialGradient>
</defs>
</svg>
