<svg
  xmlns="http://www.w3.org/2000/svg"
  width="24"
  height="24"
  viewBox="0 0 24 24"
  fill="none"
  stroke="currentColor"
  stroke-width="2"
  stroke-linecap="round"
  stroke-linejoin="round"
>
  <path d="M12.22 2h-.44a2 2 0 00-2 2v.18a2 2 0 01-1 1.73l-.43.25a2 2 0 01-2 0l-.15-.08a2 2 0 00-2.73.73l-.22.38a2 2 0 00.73 2.73l.15.1a2 2 0 011 1.72v.51a2 2 0 01-1 1.74l-.15.09a2 2 0 00-.73 2.73l.22.38a2 2 0 002.73.73l.15-.08a2 2 0 012 0l.43.25a2 2 0 011 1.73V20a2 2 0 002 2h.44a2 2 0 002-2v-.18a2 2 0 011-1.73l.43-.25a2 2 0 012 0l.15.08a2 2 0 002.73-.73l.22-.39a2 2 0 00-.73-2.73l-.15-.08a2 2 0 01-1-1.74v-.5a2 2 0 011-1.74l.15-.09a2 2 0 00.73-2.73l-.22-.38a2 2 0 00-2.73-.73l-.15.08a2 2 0 01-2 0l-.43-.25a2 2 0 01-1-1.73V4a2 2 0 00-2-2z" />
  <circle cx="12" cy="12" r="3" />
</svg>
