<svg xmlns="http://www.w3.org/2000/svg" width="142" height="127" viewBox="0 0 142 127">
    <path fill="url(#a)" d="M105 57c.2-.3.4-.6.4-1 .8-4.9-15-11.5-35.1-14.7s-37.2-1.8-38 3.1c-.1.4 0 .7.1 1.1-.5-.2-29.6 81.5-29.6 81.5h110s-6.8-70-7.8-70z"/>
    <path fill="#ffffff" d="M91 49.5c1.9 1.1 2.9 2.3 2.8 3.3-.5 3.1-11.9 3.8-25.6 1.7-13.6-2.2-24.3-6.5-23.8-9.5.2-1 1.5-1.8 3.6-2.2-7 .3-11.6 1.6-12 3.8-.6 4.1 13.4 9.7 31.4 12.6 18 2.9 33.1 1.8 33.8-2.2.4-2.4-3.6-5-10.2-7.5z"/>
    <path fill="url(#b)" d="M73.7 20.1c9.8 1.5 19 3.5 27.3 5.7-1.2-12.4-10.7-22.9-23.5-24.9s-24.9 5-30 16.3c8.2.5 17 1.4 26.2 2.9z"/>
    <path fill="url(#c)" d="M73.7 20.1c-38.8-6.1-71.4-3.6-72.8 5.7-1 6.1 11.7 13.6 31.6 19.7-.1-.4-.1-.7-.1-1.1.8-4.9 17.8-6.3 38-3.1s35.9 9.8 35.1 14.7c-.1.4-.2.7-.4 1 20.7.3 35.1-2.9 36.1-9 1.4-9.3-28.8-21.8-67.5-27.9zm-25.7 8.6c-1.6-.3-2.8-1.8-2.5-3.4.3-1.6 1.8-2.8 3.4-2.5 1.6.3 2.8 1.8 2.5 3.4-.2 1.6-1.8 2.7-3.4 2.5zm23.9 2.8c-2.2-.3-3.7-2.4-3.3-4.6.3-2.2 2.4-3.7 4.6-3.3 2.2.3 3.7 2.4 3.3 4.6-.4 2.1-2.5 3.6-4.6 3.3zm23.5 4.7c-1.6-.3-2.8-1.8-2.5-3.4.3-1.6 1.8-2.8 3.4-2.5 1.6.3 2.8 1.8 2.5 3.4-.2 1.6-1.8 2.8-3.4 2.5z"/>
    <linearGradient id="a" gradientUnits="userSpaceOnUse" x1="71.305" y1="41.487" x2="56.415" y2="135.498">
        <stop offset="0" stop-color="#52FA7B" stop-opacity=".75"/>
        <stop offset="1" stop-color="#52FA7B" stop-opacity=".25"/>
    </linearGradient>
    <linearGradient id="b" gradientUnits="userSpaceOnUse" x1="77.87" y1=".956" x2="74.181" y2="21.874">
        <stop offset="0" stop-color="#969BA1"/>
        <stop offset=".254" stop-color="#82868B"/>
        <stop offset=".5" stop-color="#76797E"/>
        <stop offset=".726" stop-color="#72757A"/>
        <stop offset="1" stop-color="#6B6E73"/>
    </linearGradient>
    <radialGradient id="c" cx="71" cy="36.883" r="69.985" fx="71.211" fy="-13.911" gradientTransform="matrix(.989 .148 -.037 .249 2.155 17.202)" gradientUnits="userSpaceOnUse">
        <stop offset=".347" stop-color="#969BA1"/>
        <stop offset=".901" stop-color="#83878C"/>
        <stop offset=".949" stop-color="#72757A"/>
    </radialGradient>
</svg>
