<svg width="117" height="120" viewBox="0 0 117 120" fill="none" xmlns="http://www.w3.org/2000/svg">
<path d="M104.634 68.6831C104.634 80.1972 100.53 90.6702 93.6709 98.8771C85.0353 109.228 72.0513 115.781 57.4749 115.781C43.511 115.781 31.0169 109.717 22.3813 100.102C14.9706 91.7726 10.4385 80.7484 10.4385 68.6831C10.4385 42.6538 31.5069 21.5854 57.5361 21.5854C83.5654 21.5854 104.634 42.6538 104.634 68.6831Z" stroke="#575757" stroke-width="2" stroke-miterlimit="10" stroke-dasharray="4 4"/>
<path d="M74.8781 71.7725C74.5226 73.2834 73.9893 74.8833 73.3671 76.2164C71.6785 79.5049 69.0121 82.0824 65.7236 83.7711C62.3462 85.4598 58.3467 86.1708 54.3471 85.282C44.926 83.3267 38.8823 74.0833 40.8376 64.6622C42.7929 55.2411 51.9474 49.1085 61.3685 51.1527C64.7459 51.8637 67.6789 53.5524 70.1675 55.8632C74.3448 60.0405 76.1224 66.0843 74.8781 71.7725Z" fill="#1E1E1E" stroke="#545454" stroke-width="2" stroke-miterlimit="10"/>
<path d="M63.4127 66.7063H60.4132C59.8609 66.7063 59.4132 66.2586 59.4132 65.7063V62.7067C59.4132 61.9068 58.791 61.1958 57.9023 61.1958C57.1024 61.1958 56.3913 61.818 56.3913 62.7067V65.7063C56.3913 66.2586 55.9436 66.7063 55.3913 66.7063H52.3918C51.5919 66.7063 50.8809 67.3284 50.8809 68.2172C50.8809 69.106 51.503 69.7281 52.3918 69.7281H55.3913C55.9436 69.7281 56.3913 70.1759 56.3913 70.7281V73.7277C56.3913 74.5276 57.0135 75.2386 57.9023 75.2386C58.7022 75.2386 59.4132 74.6165 59.4132 73.7277V70.7281C59.4132 70.1759 59.8609 69.7281 60.4132 69.7281H63.4127C64.2126 69.7281 64.9237 69.106 64.9237 68.2172C64.9237 67.3284 64.2126 66.7063 63.4127 66.7063Z" fill="#575757"/>
<path d="M78.3516 21.6057C78.3516 27.1603 76.1318 32.0976 72.6787 35.8007C72.4321 36.171 72.0621 36.4178 71.6921 36.6647C67.9924 40.1209 63.0594 42.2192 57.6332 42.2192C53.3169 42.2192 49.2472 40.8615 45.9174 38.5162C44.9308 37.899 44.0675 37.035 43.2043 36.2944C39.3812 32.5914 37.0381 27.4071 37.0381 21.6057C37.0381 10.2498 46.2874 0.992188 57.6332 0.992188C69.1023 0.992188 78.3516 10.2498 78.3516 21.6057Z" fill="black"/>
<path d="M78.3516 21.6043C78.3516 27.6526 75.7618 32.9603 71.6921 36.7868C67.9924 40.2429 63.0594 42.3413 57.6332 42.3413C53.3169 42.3413 49.2472 40.9835 45.9174 38.6383C40.4912 34.9353 37.0381 28.7635 37.0381 21.7278C37.0381 10.3718 46.2874 1.11426 57.6332 1.11426C68.979 1.11426 78.3516 10.2484 78.3516 21.6043Z" fill="#0E0E0E" stroke="#575757" stroke-width="2" stroke-miterlimit="10"/>
<path d="M72.679 35.8005C72.4324 36.1708 72.0624 36.4176 71.6924 36.6645C67.9927 40.1207 63.0597 42.219 57.6335 42.219C53.3172 42.219 49.2475 40.8613 45.9177 38.516C44.9311 37.8988 44.0679 37.0348 43.2046 36.2942C43.6979 35.677 44.4378 35.3067 46.041 34.6895L46.6577 34.4427C47.8909 33.9489 49.6174 33.3318 51.8373 32.3443C52.2072 32.2209 52.4539 31.974 52.7005 31.7271C52.8239 31.6037 52.9472 31.4803 52.9472 31.2334C53.0705 30.9865 53.1938 30.6162 53.1938 30.3693V26.1726C53.0705 26.0492 53.0705 26.0492 52.9472 25.9257C52.5772 25.432 52.3306 24.8148 52.3306 24.0742L52.0839 23.9508C50.974 24.1976 51.0973 23.0867 50.8507 20.8649C50.7274 20.0009 50.8507 19.754 51.344 19.6306L51.7139 19.1368C50.974 17.4088 50.604 15.8041 50.604 14.5698C50.604 12.4714 51.4673 11.1136 52.7005 10.4964C51.9606 9.01522 51.9606 8.52148 51.9606 8.52148C51.9606 8.52148 56.2769 9.26209 57.7568 9.01522C59.6067 8.64492 62.5664 9.13866 63.6764 11.6073C65.5262 12.3479 66.1428 13.4589 66.3895 14.6932C66.6361 16.6681 65.5262 18.7665 65.2796 19.6306V19.754C65.5262 19.8774 65.6495 20.1243 65.5262 20.9883C65.2796 23.0867 65.2796 24.3211 64.293 24.0742L63.3064 25.8023C63.3064 26.0492 63.3064 26.0492 63.1831 26.1726C63.1831 26.5429 63.1831 27.1601 63.1831 30.4928C63.1831 30.8631 63.3064 31.3568 63.553 31.6037C63.6764 31.7271 63.6764 31.8506 63.7997 31.8506C64.0463 32.0974 64.293 32.3443 64.5396 32.3443C67.0061 33.3318 68.7326 34.0724 70.0892 34.5661C71.3224 35.0599 72.1857 35.4302 72.679 35.8005Z" fill="#0E0E0E"/>
<path d="M72.679 35.8004C72.4324 36.1707 72.0624 36.4176 71.6924 36.6644C67.9927 40.1206 63.0597 42.219 57.6335 42.219C53.3172 42.219 49.2475 40.8612 45.9177 38.5159C44.9311 37.8988 44.0679 37.0347 43.2046 36.2941C43.6979 35.6769 44.4378 35.3066 46.041 34.6895L46.6577 34.4426C47.8909 33.9489 49.6174 33.3317 51.8373 32.3442C52.2072 32.2208 52.4539 31.9739 52.7005 31.7271C53.9338 33.4551 55.907 34.566 58.2501 34.566C60.4699 34.566 62.4431 33.4551 63.6764 31.8505C63.923 32.0974 64.1697 32.3442 64.4163 32.3442C66.8828 33.3317 68.6093 34.0723 69.9659 34.566C71.3224 35.0598 72.1857 35.4301 72.679 35.8004Z" fill="#575757"/>
<path d="M65.1562 19.5071C65.2795 19.0134 65.0328 18.2728 64.7862 17.9025C64.7862 17.7791 64.6629 17.7791 64.6629 17.6556C63.7996 15.9275 61.9497 15.3104 60.2232 15.1869C55.6602 14.9401 55.2903 15.8041 53.9337 14.5698C54.427 15.1869 54.427 16.2978 53.687 17.5322C53.1937 18.3962 52.3305 18.89 51.4672 19.1368C49.3707 14.4463 50.4806 11.4839 52.4538 10.4964C51.7139 9.01522 51.7139 8.52148 51.7139 8.52148C51.7139 8.52148 56.0302 9.26209 57.5101 9.01522C59.3599 8.64492 62.3197 9.13866 63.4296 11.6073C65.2795 12.3479 65.8961 13.4589 66.1428 14.6932C66.5127 16.5447 65.4028 18.6431 65.1562 19.5071Z" fill="#545454"/>
<path d="M53.3172 30.3692V26.1724C53.1939 26.049 53.1939 26.049 53.0706 25.9256V25.6787C53.3172 26.049 53.5639 26.4193 53.9338 26.6662L57.2636 29.0114C58.0035 29.6286 59.1134 29.6286 59.8534 29.0114L62.9365 26.2959C63.0598 26.1724 63.1831 26.1724 63.3064 26.049C63.3064 26.4193 63.3064 27.0365 63.3064 30.3692C63.3064 30.6161 63.3064 30.7395 63.4298 30.9864H53.3172C53.1939 30.7395 53.3172 30.6161 53.3172 30.3692Z" fill="url(#paint0_linear_592_1141)"/>
<path d="M115.285 97.8074C115.285 103.362 113.065 108.299 109.612 112.002C109.365 112.373 108.995 112.619 108.625 112.866C104.925 116.323 99.9925 118.421 94.5663 118.421C90.25 118.421 86.1803 117.063 82.8505 114.718C81.8639 114.101 81.0007 113.237 80.1374 112.496C76.3143 108.793 73.9712 103.609 73.9712 97.8074C73.9712 86.4514 83.2205 77.1938 94.5663 77.1938C106.035 77.1938 115.285 86.4514 115.285 97.8074Z" fill="black"/>
<path d="M115.285 97.8065C115.285 103.855 112.695 109.162 108.625 112.989C104.925 116.445 99.9925 118.543 94.5663 118.543C90.25 118.543 86.1803 117.186 82.8505 114.84C77.4243 111.137 73.9712 104.966 73.9712 97.9299C73.9712 86.574 83.2205 77.3164 94.5663 77.3164C105.912 77.3164 115.285 86.4505 115.285 97.8065Z" fill="#0E0E0E" stroke="#575757" stroke-width="2" stroke-miterlimit="10"/>
<path d="M109.613 112.003C109.366 112.373 108.996 112.62 108.626 112.867C104.927 116.323 99.9936 118.421 94.5673 118.421C90.251 118.421 86.1813 117.063 82.8516 114.718C81.865 114.101 81.0017 113.237 80.1384 112.496C80.6317 111.879 81.3717 111.509 82.9749 110.892L83.5915 110.645C84.8247 110.151 86.5513 109.534 88.7711 108.546C89.1411 108.423 89.3877 108.176 89.6344 107.929C89.7577 107.806 89.881 107.682 89.881 107.436C90.0043 107.189 90.1277 106.818 90.1277 106.571V102.375C90.0043 102.251 90.0043 102.251 89.881 102.128C89.511 101.634 89.2644 101.017 89.2644 100.276L89.0178 100.153C87.9078 100.4 88.0312 99.2889 87.7845 97.0671C87.6612 96.203 87.7845 95.9562 88.2778 95.8327L88.6478 95.339C87.9078 93.6109 87.5379 92.0063 87.5379 90.7719C87.5379 88.6735 88.4011 87.3158 89.6344 86.6986C88.8944 85.2174 88.8944 84.7236 88.8944 84.7236C88.8944 84.7236 93.2108 85.4642 94.6907 85.2174C96.5405 84.8471 99.5003 85.3408 100.61 87.8095C102.46 88.5501 103.077 89.661 103.323 90.8953C103.57 92.8703 102.46 94.9687 102.213 95.8327V95.9562C102.46 96.0796 102.583 96.3265 102.46 97.1905C102.213 99.2889 102.213 100.523 101.227 100.276L100.24 102.004C100.24 102.251 100.24 102.251 100.117 102.375C100.117 102.745 100.117 103.362 100.117 106.695C100.117 107.065 100.24 107.559 100.487 107.806C100.61 107.929 100.61 108.053 100.734 108.053C100.98 108.3 101.227 108.546 101.473 108.546C103.94 109.534 105.666 110.275 107.023 110.768C108.256 111.262 109.12 111.632 109.613 112.003Z" fill="#0E0E0E"/>
<path d="M109.612 112.003C109.365 112.373 108.995 112.62 108.626 112.867C104.926 116.323 99.9928 118.421 94.5666 118.421C90.2503 118.421 86.1806 117.063 82.8508 114.718C81.8642 114.101 81.001 113.237 80.1377 112.496C80.631 111.879 81.3709 111.509 82.9741 110.892L83.5908 110.645C84.824 110.151 86.5505 109.534 88.7704 108.546C89.1403 108.423 89.387 108.176 89.6336 107.929C90.8669 109.657 92.8401 110.768 95.1832 110.768C97.403 110.768 99.3762 109.657 100.609 108.053C100.856 108.3 101.103 108.546 101.349 108.546C103.816 109.534 105.542 110.274 106.899 110.768C108.256 111.262 109.119 111.632 109.612 112.003Z" fill="#575757"/>
<path d="M102.089 95.7093C102.213 95.2155 101.966 94.4749 101.719 94.1046C101.719 93.9812 101.596 93.9812 101.596 93.8578C100.733 92.1297 98.8829 91.5125 97.1563 91.3891C92.5933 91.1422 92.2234 92.0063 90.8668 90.7719C91.3601 91.3891 91.3601 92.5 90.6201 93.7343C90.1269 94.5984 89.2636 95.0921 88.4003 95.339C86.3038 90.6485 87.4137 87.6861 89.3869 86.6986C88.647 85.2174 88.647 84.7236 88.647 84.7236C88.647 84.7236 92.9633 85.4642 94.4432 85.2174C96.293 84.8471 99.2528 85.3408 100.363 87.8095C102.213 88.5501 102.829 89.661 103.076 90.8953C103.446 92.7469 102.336 94.8452 102.089 95.7093Z" fill="#545454"/>
<path d="M90.2501 106.571V102.375C90.1267 102.251 90.1267 102.251 90.0034 102.128V101.881C90.2501 102.251 90.4967 102.621 90.8667 102.868L94.1964 105.214C94.9364 105.831 96.0463 105.831 96.7862 105.214L99.8693 102.498C99.9927 102.375 100.116 102.375 100.239 102.251C100.239 102.621 100.239 103.239 100.239 106.571C100.239 106.818 100.239 106.942 100.363 107.189H90.2501C90.1267 106.942 90.2501 106.818 90.2501 106.571Z" fill="url(#paint1_linear_592_1141)"/>
<path d="M41.2036 98.1168C41.2036 103.918 38.7371 109.102 34.7908 112.805C33.6808 113.793 32.5709 114.657 31.2144 115.398C28.2546 117.126 24.8015 118.113 21.1018 118.113C17.4021 118.113 13.949 117.126 10.9892 115.398C10.4959 115.151 10.126 114.904 9.63268 114.534C4.45307 110.954 1 104.906 1 98.1168C1 87.0077 10.0026 78.1204 20.9785 78.1204C32.201 77.997 41.2036 87.0077 41.2036 98.1168Z" fill="#0E0E0E" stroke="#575757" stroke-width="2" stroke-miterlimit="10"/>
<path d="M17.0321 102.56C17.2787 102.806 17.5254 103.177 17.8954 103.424C18.142 103.67 18.3886 103.794 18.6353 104.041C18.7586 104.164 19.0053 104.288 19.1286 104.411C19.1286 104.411 19.2519 104.411 19.2519 104.534L19.3752 104.658V106.386C19.3752 106.386 19.3752 106.386 19.2519 106.263C19.1286 106.139 18.8819 106.016 18.7586 105.892C18.512 105.769 18.2653 105.522 18.0187 105.399C17.8953 105.399 17.8953 105.275 17.772 105.275C16.9088 104.781 16.1688 104.288 16.1688 103.67C16.2921 103.424 16.5388 103.053 17.0321 102.56ZM34.1875 112.107C33.4476 110.502 32.4476 108.978 30.721 108.114C29.8578 107.744 28.8712 107.373 27.8846 107.373C27.6379 107.373 27.268 107.373 27.0213 107.373C26.898 107.373 26.7747 107.373 26.6513 107.373C25.2948 107.25 25.1715 107.003 25.1715 107.003V104.164C26.0347 103.424 26.898 102.56 27.6379 101.695C28.2546 100.831 28.7479 99.844 28.9945 98.6096C30.1044 98.3628 30.8444 97.3753 30.721 96.1409C30.721 95.6472 30.3511 95.1535 30.3511 94.6597C30.3511 94.4129 30.3511 94.166 30.3511 93.9191C30.3511 93.7957 30.3511 93.5488 30.3511 93.4254C30.3511 93.3019 30.3511 93.0551 30.3511 92.9316C30.2277 92.0676 29.9811 91.2036 29.4878 90.2161C28.0079 87.5005 25.2948 85.7725 22.0884 85.7725C21.4717 85.7725 20.8551 85.8959 20.2385 86.0193C19.1286 86.2662 18.0187 86.7599 17.1554 87.5005C17.0321 87.624 16.7854 87.7474 16.6621 87.9943L16.5388 88.1177C15.5522 89.1052 14.6889 90.2161 14.319 91.5739C13.8257 92.9316 13.8257 94.2894 13.949 95.6472C13.949 95.6472 13.949 95.6472 13.949 95.7706V95.8941C13.949 96.1409 14.0723 96.1409 13.949 96.2644C13.949 96.3878 13.8257 96.3878 13.8257 96.5112C13.579 96.8815 13.4557 97.3753 13.7023 98.1159C14.1956 99.3502 14.9356 99.2268 15.7988 99.844C15.7988 99.844 15.6755 99.844 15.6755 99.9674L14.8123 100.214C10.8659 101.449 9.50932 104.781 11.2359 106.88C11.8525 107.62 12.8391 108.238 14.319 108.608C13.949 108.608 13.579 108.855 13.3324 109.102C11.6058 110.459 10.4959 112.558 10.2493 114.533C10.2493 114.656 10.2493 114.78 10.2493 114.903C10.7426 115.15 11.1125 115.52 11.6058 115.767L30.9172 115.315C32.1505 114.575 32.6961 114.003 33.806 113.016C33.6827 112.399 34.3108 112.23 34.1875 112.107Z" fill="#0E0E0E"/>
<path d="M34.7909 112.805C33.681 113.792 32.5711 114.656 31.2145 115.397C28.2547 117.125 24.8017 118.113 21.1019 118.113C17.4022 118.113 13.9491 117.125 10.9894 115.397C10.4961 115.15 10.1261 114.903 9.63281 114.533C9.63281 114.41 9.63281 114.286 9.63281 114.163C9.87946 112.188 10.9894 110.089 12.7159 108.732C12.9626 108.485 13.3325 108.361 13.7025 108.238C12.2226 107.991 11.236 107.374 10.6194 106.51H15.3057C16.6623 108.361 18.7588 109.472 21.2253 109.472C23.3218 109.472 25.1716 108.608 26.5282 107.25C26.6515 107.25 26.7748 107.25 26.8982 107.25C27.1448 107.25 27.3915 107.25 27.7614 107.25C28.748 107.25 29.7346 107.497 30.5979 107.991C32.3244 108.855 33.5577 110.336 34.4209 112.064C34.6676 112.311 34.6676 112.558 34.7909 112.805Z" fill="#575757"/>
<path d="M25.2953 104.165V106.757L17.5259 107.004L17.8958 105.275C18.0192 105.275 18.0192 105.399 18.1425 105.399C18.3891 105.522 18.6358 105.769 18.8824 105.893C19.0058 106.016 19.1291 106.139 19.3757 106.263C19.3757 106.263 19.4991 106.263 19.4991 106.386V104.658L19.3757 104.535C20.7323 105.275 22.5822 105.769 25.2953 104.165Z" fill="url(#paint2_linear_592_1141)"/>
<path d="M30.351 93.4261C28.8711 93.9198 27.1446 94.1667 25.5414 94.0432C22.9516 93.7964 20.4851 92.8089 18.5119 91.0808C17.8953 92.9323 16.2921 94.2901 14.4422 95.1541C14.1956 95.2776 13.949 95.401 13.7023 95.401C13.7023 95.401 13.7023 95.401 13.7023 95.2776C13.579 93.9198 13.579 92.562 14.0723 91.2042C14.4422 89.8465 15.3055 88.7356 16.2921 87.7481L16.4154 87.6247C16.5388 87.5012 16.7854 87.3778 16.9087 87.1309C17.772 86.3903 18.8819 85.8966 19.9918 85.6497C20.6084 85.5263 21.2251 85.4028 21.8417 85.4028C25.0481 85.4028 27.8846 87.1309 29.2411 89.8465C29.7344 90.8339 29.9811 91.8214 30.1044 92.562C30.351 93.0558 30.351 93.3026 30.351 93.4261Z" fill="#545454"/>
<path d="M20.4853 111.694C19.7453 112.558 18.5121 112.558 17.4022 112.558C18.5121 111.447 17.8955 107.868 13.9491 108.238C8.52286 107.251 9.01616 101.573 14.4424 99.8445L15.3057 99.5977L15.429 99.7211C15.799 100.832 16.4156 101.819 17.0322 102.56C14.8124 104.412 17.8955 104.905 19.3754 106.387C20.6086 107.127 21.7185 110.213 20.4853 111.694Z" fill="#545454"/>
<defs>
<linearGradient id="paint0_linear_592_1141" x1="58.2301" y1="30.8211" x2="58.2301" y2="28.0409" gradientUnits="userSpaceOnUse">
<stop stop-color="#151515"/>
<stop offset="0.9913" stop-color="#0B0B0B"/>
</linearGradient>
<linearGradient id="paint1_linear_592_1141" x1="95.163" y1="107.023" x2="95.163" y2="104.243" gradientUnits="userSpaceOnUse">
<stop stop-color="#151515"/>
<stop offset="0.9913" stop-color="#0B0B0B"/>
</linearGradient>
<linearGradient id="paint2_linear_592_1141" x1="21.3956" y1="106.915" x2="21.3956" y2="105.428" gradientUnits="userSpaceOnUse">
<stop stop-color="#151515"/>
<stop offset="0.9913" stop-color="#0B0B0B"/>
</linearGradient>
</defs>
</svg>
