<svg width="150" height="126" viewBox="0 0 150 126" fill="none" xmlns="http://www.w3.org/2000/svg">
<path d="M84.2752 124.383C117.256 124.383 143.993 97.6454 143.993 64.5473C143.993 31.4493 117.138 4.71167 84.2752 4.71167C51.295 4.71167 24.5574 31.4493 24.5574 64.5473C24.5574 97.6454 51.295 124.383 84.2752 124.383Z" fill="#0E0E0E" stroke="#575757" stroke-width="2" stroke-miterlimit="10"/>
<path d="M139.635 25.4417C142.302 25.4417 144.464 23.2796 144.464 20.6125C144.464 17.9453 142.302 15.7832 139.635 15.7832C136.968 15.7832 134.806 17.9453 134.806 20.6125C134.806 23.2796 136.968 25.4417 139.635 25.4417Z" fill="#0E0E0E"/>
<path d="M146.702 6.59605C148.523 6.59605 150 5.11948 150 3.29803C150 1.47658 148.523 0 146.702 0C144.881 0 143.404 1.47658 143.404 3.29803C143.404 5.11948 144.881 6.59605 146.702 6.59605Z" fill="#0E0E0E"/>
<path d="M27.2665 25.3241C29.088 25.3241 30.5646 23.8475 30.5646 22.0261C30.5646 20.2046 29.088 18.728 27.2665 18.728C25.4451 18.728 23.9685 20.2046 23.9685 22.0261C23.9685 23.8475 25.4451 25.3241 27.2665 25.3241Z" fill="#0E0E0E"/>
<path d="M7.12491 88.9293C10.5076 88.9293 13.2498 86.187 13.2498 82.8044C13.2498 79.4217 10.5076 76.6794 7.12491 76.6794C3.74221 76.6794 1 79.4217 1 82.8044C1 86.187 3.74221 88.9293 7.12491 88.9293Z" fill="#0E0E0E" stroke="#575757" stroke-width="2" stroke-miterlimit="10"/>
<path d="M128.187 105.12C117.275 116.97 101.64 124.383 84.275 124.383C70.4162 124.383 57.6597 119.662 47.5264 111.731V14.0746C47.5264 10.8443 50.1275 8.20825 53.3724 8.20825H111.37L128.187 25.0838V105.12Z" fill="#0E0E0E" stroke="#575757" stroke-width="2" stroke-miterlimit="10"/>
<path d="M71.5926 104.186H63.1468C62.8317 104.186 62.5796 103.369 62.5796 102.39C62.5796 101.41 62.8317 100.593 63.1468 100.593H71.5926C71.9078 100.593 72.1599 101.41 72.1599 102.39C72.1599 103.533 71.9078 104.186 71.5926 104.186Z" fill="#575757"/>
<path d="M90.1779 28.7408H63.7222C63.1069 28.7408 62.5796 27.9117 62.5796 26.9445C62.5796 25.9773 63.1069 25.1482 63.7222 25.1482H90.1779C90.7932 25.1482 91.3205 25.9773 91.3205 26.9445C91.3205 27.9117 90.7932 28.7408 90.1779 28.7408Z" fill="#575757"/>
<path d="M70.2489 37.1239H63.3525C62.9363 37.1239 62.5796 36.2948 62.5796 35.3276C62.5796 34.3603 62.9363 33.5312 63.3525 33.5312H70.1895C70.6056 33.5312 70.9624 34.3603 70.9624 35.3276C70.9624 36.2948 70.6056 37.1239 70.2489 37.1239Z" fill="#575757"/>
<path d="M111.995 83.8276H79.2032H75.5891H64.6586C64.2178 83.8276 63.7771 84.5761 63.7771 85.6239C63.7771 86.5221 64.1297 87.4203 64.6586 87.4203H75.5891H79.2032H111.995C112.435 87.4203 112.876 86.6718 112.876 85.6239C112.788 84.5761 112.435 83.8276 111.995 83.8276Z" fill="#575757"/>
<path d="M111.993 74.2476H99.8067H95.6562H64.6602C64.2186 74.2476 63.7771 74.996 63.7771 76.0439C63.7771 76.942 64.1303 77.8402 64.6602 77.8402H95.6562H99.8067H111.993C112.435 77.8402 112.876 77.0917 112.876 76.0439C112.788 74.996 112.435 74.2476 111.993 74.2476Z" fill="#575757"/>
<path d="M113.251 65.8647H110.007H106.763H64.6783C64.2277 65.8647 63.7771 66.6132 63.7771 67.6611C63.7771 68.5592 64.1376 69.4574 64.6783 69.4574H106.763H110.367H113.161C113.612 69.4574 114.062 68.7089 114.062 67.6611C114.152 66.7629 113.702 65.8647 113.251 65.8647Z" fill="#575757"/>
<path d="M113.18 56.2844H102.728H100.137H64.6705C64.2238 56.2844 63.7771 57.0329 63.7771 58.0807C63.7771 58.9789 64.1344 59.877 64.6705 59.877H100.137H102.728H113.091C113.716 59.877 114.074 59.1286 114.074 58.0807C114.074 57.1826 113.716 56.2844 113.18 56.2844Z" fill="#575757"/>
<path d="M111.37 8.91162V19.7872C111.37 23.1009 114.056 25.7872 117.37 25.7872H128.187" fill="#0E0E0E"/>
<path d="M111.37 8.91162V19.7872C111.37 23.1009 114.056 25.7872 117.37 25.7872H128.187" stroke="#575757" stroke-width="2" stroke-miterlimit="10"/>
<path d="M70.8988 42.4288V79.5311C70.8988 83.8729 67.3447 87.0305 63.3956 87.0305H61.421V96.8981C61.421 99.2664 58.6567 100.056 57.077 98.477L47.2043 87.0305H8.50327C4.15928 87.0305 1 83.4782 1 79.5311V42.4288C1 38.0871 4.55418 34.9294 8.50327 34.9294H63.3956C67.3447 34.9294 70.8988 38.4818 70.8988 42.4288Z" fill="#1E1E1E" stroke="#545454" stroke-width="2" stroke-miterlimit="10" stroke-linejoin="round"/>
<path d="M19.5605 61.7695V53.8754C19.5605 52.6913 20.3504 51.9019 21.5351 51.9019H30.2231C31.4078 51.9019 32.1976 52.6913 32.1976 53.8754V62.9536C32.1976 65.3218 32.1976 67.2954 31.8027 68.8742C31.4157 70.4216 30.6493 71.2107 29.5035 72.3563C29.457 72.4028 29.4061 72.4451 29.3504 72.4803C28.3636 73.1039 26.8665 73.4756 25.0679 73.8037C24.46 73.9146 23.9046 73.4429 23.9046 72.825V71.3204C23.9046 70.8227 24.274 70.4097 24.7555 70.2839C26.9907 69.7001 28.2485 68.1396 28.2485 65.3218C28.2485 65.3218 27.8951 64.5324 27.4591 64.5324H22.2327C22.0353 64.5324 21.8422 64.4743 21.6783 64.3643C20.5832 63.629 19.5605 62.8696 19.5605 61.7695ZM38.9111 61.7695V53.8754C38.9111 52.6913 39.7009 51.9019 40.8856 51.9019H49.5736C50.7583 51.9019 51.5481 52.6913 51.5481 53.8754V62.9536C51.5481 65.3218 51.5481 67.2954 51.1532 68.8742C50.7662 70.4216 49.9998 71.2107 48.8541 72.3563C48.8075 72.4028 48.7566 72.4451 48.7009 72.4803C47.7141 73.1039 46.217 73.4756 44.4184 73.8037C43.8105 73.9146 43.255 73.4429 43.255 72.825V71.3204C43.255 70.8227 43.6244 70.4097 44.106 70.2839C46.3411 69.7001 47.5991 68.1396 47.5991 65.3218C47.5991 65.3218 47.2456 64.5324 46.8097 64.5324H41.5832C41.3858 64.5324 41.1927 64.4743 41.0288 64.3643C39.9337 63.629 38.9111 62.8696 38.9111 61.7695Z" fill="#575757"/>
</svg>
