<svg width="119" height="117" viewBox="0 0 119 117" fill="none" xmlns="http://www.w3.org/2000/svg">
<path d="M52.0114 115.804C80.1842 115.804 103.023 92.8871 103.023 64.6183C103.023 36.3495 80.1842 13.4331 52.0114 13.4331C23.8386 13.4331 1 36.3495 1 64.6183C1 92.8871 23.8386 115.804 52.0114 115.804Z" fill="#0E0E0E" stroke="#575757" stroke-width="2" stroke-miterlimit="10"/>
<path d="M110.666 21.9438C111.335 21.3298 111.382 20.2875 110.77 19.6157C110.158 18.9439 109.12 18.897 108.45 19.5109C107.781 20.1249 107.734 21.1672 108.346 21.839C108.957 22.5108 109.996 22.5577 110.666 21.9438Z" fill="#575757"/>
<path opacity="0.3" d="M83.419 41.2397C85.2329 41.2397 86.7034 39.7642 86.7034 37.9441C86.7034 36.1239 85.2329 34.6484 83.419 34.6484C81.605 34.6484 80.1345 36.1239 80.1345 37.9441C80.1345 39.7642 81.605 41.2397 83.419 41.2397Z" fill="#575757"/>
<path d="M61.2815 45.569C60.8716 47.7548 59.0956 49.804 56.7732 50.3505C54.9972 50.7603 53.2212 50.3505 51.9917 49.3942V65.2415H37.2373C37.7837 64.1486 37.9204 63.0557 37.7837 61.8261C37.5105 59.0939 35.1881 56.908 32.5924 56.6348C29.0404 56.2249 25.8983 58.9572 25.8983 62.5092C25.8983 63.4655 26.0349 64.4218 26.4447 65.1049H9.77771V34.6398C9.77771 28.3555 14.8325 23.3008 21.2534 23.3008H51.8551V39.1481C52.948 38.465 54.0409 38.0552 55.2704 38.0552C58.959 38.6016 61.9646 41.7438 61.2815 45.569Z" fill="#0E0E0E" stroke="#575757" stroke-width="1.5905" stroke-miterlimit="10" stroke-linejoin="round"/>
<path d="M42.0188 85.187C41.4723 88.8756 44.3412 92.0177 48.0298 92.0177C49.5326 92.0177 50.8987 91.4713 51.9917 90.6516V107.045H21.3899C15.1057 107.045 9.91431 101.854 9.91431 95.7063V65.1046H26.4447C26.0348 64.2849 25.8982 63.4653 25.8982 62.3723C26.0348 59.5034 28.2207 57.0444 30.953 56.6345C34.6416 56.2247 37.7837 58.957 37.7837 62.5089C37.7837 63.4652 37.6471 64.2849 37.2373 65.1046H51.7184V81.4984C50.4889 80.4055 48.8495 79.859 47.0735 80.1323C44.4778 80.4055 42.4286 82.5913 42.0188 85.187Z" fill="#0E0E0E" stroke="#575757" stroke-width="1.5905" stroke-miterlimit="10" stroke-linejoin="round"/>
<path d="M94.069 65.1047V95.4331C94.069 101.717 88.8776 106.772 82.5933 106.772H51.9916V90.3784C50.8987 91.3347 49.5325 91.7446 48.0298 91.7446C44.4778 91.7446 41.7455 88.6024 42.0187 84.9138C42.4286 82.1815 44.6144 80.1323 47.0735 79.7224C48.8495 79.5858 50.6254 80.1323 51.7184 81.0886V64.6948H69.3417C68.7952 65.5145 68.6586 66.4708 68.6586 67.4271C68.6586 70.8425 71.6641 73.7114 75.3527 73.3016C78.085 73.0283 80.4075 70.7059 80.6807 68.1102C80.8173 66.8807 80.5441 65.7877 80.1342 64.6948L94.069 65.1047Z" fill="#0E0E0E" stroke="#575757" stroke-width="1.5905" stroke-miterlimit="10" stroke-linejoin="round"/>
<path d="M106.911 52.6728L93.3859 50.3503C93.6591 51.4432 93.7958 52.5362 93.3859 53.6291C92.5662 56.2248 90.1072 58.0007 87.3749 57.8641C83.8229 57.5909 81.2272 54.4488 81.7737 51.0334C81.9103 50.0771 82.3201 49.2574 82.8666 48.5743L65.3799 45.4322L68.1122 29.7215C69.2051 30.8144 70.8445 31.4975 72.7571 31.4975C75.2161 31.3609 77.2654 29.8581 77.9484 27.6723C79.3146 24.1203 76.9921 20.2951 73.3035 19.7486C72.074 19.4754 70.8445 19.7486 69.7516 20.1585L72.4839 4.44775L102.539 9.63912C108.823 10.732 112.922 16.6065 111.829 22.7541L106.911 52.6728Z" fill="#1E1E1E" stroke="#545454" stroke-width="2" stroke-miterlimit="10" stroke-linejoin="round"/>
<path d="M113.473 64.1927L118.015 62.8237C118.344 62.7282 118.344 62.2506 118.015 62.1551L113.473 60.7861C113.356 60.7543 113.271 60.6694 113.239 60.5526L111.87 56.0212C111.775 55.6922 111.297 55.6922 111.202 56.0212L109.833 60.5526C109.801 60.6694 109.716 60.7543 109.599 60.7861L105.068 62.1551C104.739 62.2506 104.739 62.7282 105.068 62.8237L109.61 64.1927C109.727 64.2245 109.812 64.3094 109.843 64.4261L111.212 68.9682C111.308 69.2972 111.786 69.2972 111.881 68.9682L113.25 64.4261C113.271 64.3094 113.356 64.2245 113.473 64.1927Z" fill="#575757"/>
<path d="M103.424 24.4523L109.073 22.7496C109.483 22.6308 109.483 22.0369 109.073 21.9181L103.424 20.2153C103.279 20.1757 103.173 20.0701 103.134 19.925L101.431 14.2888C101.312 13.8796 100.718 13.8796 100.599 14.2888L98.8967 19.925C98.8571 20.0701 98.7515 20.1757 98.6064 20.2153L92.9702 21.9181C92.561 22.0369 92.561 22.6308 92.9702 22.7496L98.6196 24.4523C98.7647 24.4919 98.8703 24.5975 98.9099 24.7427L100.613 30.3921C100.731 30.8012 101.325 30.8012 101.444 30.3921L103.147 24.7427C103.173 24.5975 103.279 24.4919 103.424 24.4523Z" fill="#575757"/>
<path d="M62.357 5.26099L65.1958 4.40544C65.4015 4.34575 65.4015 4.0473 65.1958 3.98761L62.357 3.13205C62.2841 3.11216 62.231 3.0591 62.2111 2.98615L61.3555 0.154199C61.2958 -0.0513995 60.9973 -0.0513995 60.9376 0.154199L60.082 2.98615C60.0621 3.0591 60.009 3.11216 59.9361 3.13205L57.1039 3.98761C56.8983 4.0473 56.8983 4.34575 57.1039 4.40544L59.9427 5.26099C60.0157 5.28088 60.0687 5.33394 60.0886 5.4069L60.9443 8.24547C61.004 8.45107 61.3024 8.45107 61.3621 8.24547L62.2177 5.4069C62.231 5.33394 62.2841 5.28088 62.357 5.26099Z" fill="#575757"/>
</svg>
