<svg width="145" height="120" viewBox="0 0 145 120" fill="none" xmlns="http://www.w3.org/2000/svg">
<path d="M130.648 59.7265C130.648 72.9542 126.219 85.3837 118.837 95.1904C114.748 100.55 109.865 105.225 104.187 108.874C95.1015 114.918 84.0856 118.339 72.3883 118.339C40.2491 118.453 14.1289 92.2256 14.1289 59.7265C14.1289 27.3414 40.1355 1 72.3883 1C84.0856 1 94.9879 4.42096 104.187 10.4647C109.865 14.1137 114.748 18.789 118.837 24.1485C126.219 34.0693 130.648 46.3847 130.648 59.7265Z" fill="#0E0E0E" stroke="#575757" stroke-width="2" stroke-miterlimit="10"/>
<path d="M28.0198 51.8743H27.3164C26.7889 51.8743 26.4373 51.7102 26.4373 51.464C26.4373 51.2178 26.7889 51.0537 27.3164 51.0537H28.0198C28.5473 51.0537 28.8989 51.2178 28.8989 51.464C28.8989 51.7102 28.5473 51.8743 28.0198 51.8743Z" fill="#7F7F7F"/>
<path d="M28.0198 55.1565H27.3164C26.7889 55.1565 26.4373 54.9924 26.4373 54.7462C26.4373 54.5 26.7889 54.3359 27.3164 54.3359H28.0198C28.5473 54.3359 28.8989 54.5 28.8989 54.7462C28.8989 54.9924 28.5473 55.1565 28.0198 55.1565Z" fill="#7F7F7F"/>
<path d="M28.0198 58.4387H27.3164C26.7889 58.4387 26.4373 58.2746 26.4373 58.0284C26.4373 57.7823 26.7889 57.6182 27.3164 57.6182H28.0198C28.5473 57.6182 28.8989 57.7823 28.8989 58.0284C28.8989 58.2746 28.5473 58.4387 28.0198 58.4387Z" fill="#7F7F7F"/>
<path d="M28.0198 61.7209H27.3164C26.7889 61.7209 26.4373 61.5568 26.4373 61.3107C26.4373 61.0645 26.7889 60.9004 27.3164 60.9004H28.0198C28.5473 60.9004 28.8989 61.0645 28.8989 61.3107C28.8989 61.5568 28.5473 61.7209 28.0198 61.7209Z" fill="#7F7F7F"/>
<path d="M60.1191 51.8743H48.5532C48.0843 51.8743 47.7717 51.7102 47.7717 51.464C47.7717 51.2178 48.0843 51.0537 48.5532 51.0537H60.1191C60.588 51.0537 60.9006 51.2178 60.9006 51.464C60.9006 51.7102 60.588 51.8743 60.1191 51.8743Z" fill="white"/>
<path d="M84.7623 61.7209H48.5266C48.0737 61.7209 47.7717 61.5568 47.7717 61.3107C47.7717 61.0645 48.0737 60.9004 48.5266 60.9004H84.7623C85.2153 60.9004 85.5172 61.0645 85.5172 61.3107C85.5172 61.5568 85.2153 61.7209 84.7623 61.7209Z" fill="url(#paint0_linear_592_1292)"/>
<path d="M60.1642 55.1565H44.4053C43.9635 55.1565 43.6689 54.9924 43.6689 54.7462C43.6689 54.5 43.9635 54.3359 44.4053 54.3359H60.1642C60.606 54.3359 60.9006 54.5 60.9006 54.7462C60.9006 54.9924 60.606 55.1565 60.1642 55.1565Z" fill="#7F7F7F"/>
<path d="M72.4741 58.4387H44.4038C43.9629 58.4387 43.6689 58.2746 43.6689 58.0284C43.6689 57.7823 43.9629 57.6182 44.4038 57.6182H72.4741C72.915 57.6182 73.2089 57.7823 73.2089 58.0284C73.0619 58.2746 72.768 58.4387 72.4741 58.4387Z" fill="#7F7F7F"/>
<path d="M84.7178 58.4387H74.008C73.5284 58.4387 73.2087 58.2746 73.2087 58.0284C73.2087 57.7823 73.5284 57.6182 74.008 57.6182H84.7178C85.1974 57.6182 85.5171 57.7823 85.5171 58.0284C85.5171 58.2746 85.1974 58.4387 84.7178 58.4387Z" fill="white"/>
<path d="M91.3053 58.4387H87.1138C86.6481 58.4387 86.3376 58.2746 86.3376 58.0284C86.3376 57.7823 86.6481 57.6182 87.1138 57.6182H91.3053C91.771 57.6182 92.0815 57.7823 92.0815 58.0284C92.0815 58.2746 91.771 58.4387 91.3053 58.4387Z" fill="url(#paint1_linear_592_1292)"/>
<path d="M1 103.569H138.853" stroke="#575757" stroke-width="2" stroke-miterlimit="10" stroke-linecap="round" stroke-linejoin="round"/>
<path d="M97.8255 51.0537V103.569H23.3715C20.4345 103.569 18.2317 101.209 18.2317 98.4062V51.0537H97.8255Z" fill="#0E0E0E" stroke="#575757" stroke-width="1.5905" stroke-miterlimit="10" stroke-linejoin="round"/>
<path d="M127.365 51.0537V98.4062C127.365 101.356 124.916 103.569 122.008 103.569H97.8254V51.0537H127.365Z" fill="#EAEAEA"/>
<path d="M127.365 51.0537V98.4062C127.365 101.356 124.916 103.569 122.008 103.569H97.8254V51.0537H127.365Z" fill="#0E0E0E" stroke="#575757" stroke-width="2" stroke-miterlimit="10"/>
<path d="M46.9512 51.0537L62.6074 26.437H142.956L126.857 51.0537H46.9512Z" fill="#D6D6D6"/>
<path d="M46.9512 51.0537L62.6074 26.437H142.956L126.857 51.0537H46.9512Z" fill="#0E0E0E" stroke="#575757" stroke-width="2" stroke-miterlimit="10"/>
<path opacity="0.3" d="M127.365 51.1975V78.9526H105.826C103.826 78.9526 102.441 77.6583 102.133 75.7888L97.8254 51.0537L127.365 51.1975Z" fill="url(#paint2_linear_592_1292)"/>
<path d="M126.746 51.0537H97.8254L112.511 73.3119C113.56 74.7859 115.208 75.6704 116.856 75.6704H139.334C140.832 75.6704 141.881 73.9015 140.982 72.7223L126.746 51.0537Z" fill="#0E0E0E" stroke="#575757" stroke-width="1.5905" stroke-miterlimit="10" stroke-linejoin="round"/>
<path d="M97.8254 51.0537L82.0597 26.437H1L17.3607 51.0537H97.8254Z" fill="#0E0E0E" stroke="#575757" stroke-width="1.5905" stroke-miterlimit="10" stroke-linejoin="round"/>
<path d="M57.9543 81.4143H26.9218C26.1967 81.4143 25.6167 80.8673 25.6167 80.1835C25.6167 79.4997 26.1967 78.9526 26.9218 78.9526H57.9543C58.6794 78.9526 59.2594 79.4997 59.2594 80.1835C59.1144 80.8673 58.6794 81.4143 57.9543 81.4143Z" fill="#575757"/>
<path d="M57.9543 87.1582H26.9218C26.1967 87.1582 25.6167 86.7935 25.6167 86.3376C25.6167 85.8818 26.1967 85.5171 26.9218 85.5171H57.9543C58.6794 85.5171 59.2594 85.8818 59.2594 86.3376C59.1144 86.7935 58.6794 87.1582 57.9543 87.1582Z" fill="#575757"/>
<path d="M41.5228 93.7227H26.9422C26.2058 93.7227 25.6167 93.358 25.6167 92.9021C25.6167 92.4462 26.2058 92.0815 26.9422 92.0815H41.5228C42.2592 92.0815 42.8483 92.4462 42.8483 92.9021C42.7011 93.358 42.1119 93.7227 41.5228 93.7227Z" fill="#575757"/>
<defs>
<linearGradient id="paint0_linear_592_1292" x1="47.9413" y1="61.3273" x2="85.561" y2="61.3273" gradientUnits="userSpaceOnUse">
<stop stop-color="#FF66A9"/>
<stop offset="0.0001" stop-color="#AAAAAA"/>
<stop offset="1" stop-color="#3B3B3B"/>
</linearGradient>
<linearGradient id="paint1_linear_592_1292" x1="86.376" y1="58.0033" x2="92.0804" y2="58.0033" gradientUnits="userSpaceOnUse">
<stop stop-color="white"/>
<stop offset="1" stop-color="#8D8D8D"/>
</linearGradient>
<linearGradient id="paint2_linear_592_1292" x1="112.602" y1="79.5252" x2="112.602" y2="54.1127" gradientUnits="userSpaceOnUse">
<stop offset="0.00289017" stop-opacity="0"/>
<stop offset="1"/>
</linearGradient>
</defs>
</svg>
