<svg width="123" height="126" viewBox="0 0 123 126" fill="none" xmlns="http://www.w3.org/2000/svg">
<path d="M64.4237 111.867C91.7974 111.867 113.99 89.6745 113.99 62.2031C113.99 34.7317 91.6996 12.5396 64.4237 12.5396C37.0501 12.5396 14.8579 34.7317 14.8579 62.2031C14.8579 89.6745 37.0501 111.867 64.4237 111.867Z" fill="#0E0E0E" stroke="#575757" stroke-width="2" stroke-miterlimit="10"/>
<path d="M93.6338 12.5396C83.2422 33.022 67.9889 41.1703 54.0085 46.0363C50.764 47.1812 47.2331 48.183 43.8931 47.3243C40.5531 46.4656 37.6425 43.0785 38.5491 39.7392C39.3602 36.6383 43.3682 35.1117 46.2788 36.3521C49.2371 37.5924 50.8594 41.0272 50.5731 44.2235C50.2868 47.4197 48.3305 50.2343 45.8494 52.1903C43.3205 54.1462 40.3145 55.3388 37.2608 56.2452C30.533 58.2488 23.519 59.2029 16.9821 61.7313C10.3976 64.2597 4.14697 68.7917 1.9044 75.4227C0.282106 80.1456 0.950108 85.4886 3.04954 89.9729C5.14898 94.4572 8.72756 98.2259 12.7356 101.231C18.8907 105.811 26.4773 108.673 34.1116 108.483C41.7459 108.292 49.4757 104.952 54.1994 98.9415C58.9231 92.9306 60.3068 84.2005 56.9668 77.2833C54.6765 72.5127 49.4757 68.6009 44.2748 69.7458C40.1714 70.6999 37.1653 74.7072 36.7359 78.9529C36.3065 83.1987 38.1673 87.3968 40.9348 90.5453C43.7022 93.7416 47.3762 95.9837 51.1934 97.9397C56.776 100.754 63.3606 102.901 69.134 100.516C74.6212 98.2736 77.818 92.5967 79.9175 87.1106C82.0169 81.6244 83.5915 75.6613 87.4086 71.1293C91.9892 65.6909 99.7189 63.1625 106.638 64.7845C113.556 66.4064 119.377 72.1311 121.095 79.0006C122.431 84.3436 120.809 91.0224 115.799 93.36C111.886 95.2205 107.067 93.8847 103.679 91.2132C100.292 88.5417 98.0012 84.7253 95.8064 81.0043" stroke="#575757" stroke-width="2" stroke-miterlimit="10" stroke-dasharray="4 4"/>
<path d="M55.1786 35.3718C63.5323 38.1997 72.5968 33.7202 75.4247 25.3665C78.2527 17.0128 73.7731 7.94831 65.4194 5.1204C57.0657 2.29248 48.0012 6.77201 45.1733 15.1257C42.3454 23.4794 46.8249 32.5439 55.1786 35.3718Z" fill="#0E0E0E" stroke="#575757" stroke-width="2" stroke-miterlimit="10" stroke-linecap="round" stroke-linejoin="round"/>
<path d="M56.138 32.5372C62.9264 34.8352 70.2924 31.1951 72.5904 24.4067C74.8884 17.6184 71.2482 10.2524 64.4599 7.95438C57.6715 5.65637 50.3055 9.29651 48.0075 16.0849C45.7095 22.8732 49.3497 30.2392 56.138 32.5372Z" fill="#0E0E0E"/>
<path d="M59.7563 21.8493C60.6417 22.149 61.6025 21.6742 61.9023 20.7888C62.202 19.9033 61.7272 18.9426 60.8418 18.6428C59.9563 18.3431 58.9955 18.8179 58.6958 19.7033C58.3961 20.5888 58.8709 21.5495 59.7563 21.8493Z" fill="#0E0E0E" stroke="#575757" stroke-width="2" stroke-miterlimit="10" stroke-linejoin="round"/>
<path d="M63.0127 12.23L60.6609 19.1773" stroke="#575757" stroke-width="2" stroke-miterlimit="10" stroke-linejoin="round"/>
<path d="M62.0832 20.2544L66.1859 20.4519" stroke="#575757" stroke-width="2" stroke-miterlimit="10" stroke-linejoin="round"/>
<path d="M64.0749 10.7699C64.3354 10.6457 64.4335 10.3214 64.2939 10.0454C64.1543 9.76951 63.8299 9.64651 63.5694 9.77072C63.3089 9.89492 63.2108 10.2193 63.3504 10.4952C63.49 10.7711 63.8144 10.8941 64.0749 10.7699Z" fill="#0E0E0E" stroke="#575757" stroke-width="2" stroke-miterlimit="10" stroke-linejoin="round"/>
<path d="M57.3169 30.7045C57.5774 30.5803 57.6754 30.2559 57.5358 29.98C57.3962 29.7041 57.0719 29.5811 56.8113 29.7053C56.5508 29.8295 56.4528 30.1539 56.5924 30.4298C56.732 30.7057 57.0563 30.8287 57.3169 30.7045Z" fill="#0E0E0E" stroke="#575757" stroke-width="2" stroke-miterlimit="10" stroke-linejoin="round"/>
<path d="M50.7202 17.3822C50.9807 17.258 51.0787 16.9337 50.9391 16.6577C50.7995 16.3818 50.4752 16.2588 50.2146 16.383C49.9541 16.5072 49.8561 16.8316 49.9957 17.1075C50.1353 17.3834 50.4596 17.5064 50.7202 17.3822Z" fill="#0E0E0E" stroke="#575757" stroke-width="2" stroke-miterlimit="10" stroke-linejoin="round"/>
<path d="M70.655 24.14C70.9155 24.0158 71.0136 23.6915 70.874 23.4155C70.7344 23.1396 70.41 23.0166 70.1495 23.1408C69.8889 23.265 69.7909 23.5894 69.9305 23.8653C70.0701 24.1412 70.3945 24.2642 70.655 24.14Z" fill="#0E0E0E" stroke="#575757" stroke-width="2" stroke-miterlimit="10" stroke-linejoin="round"/>
<path d="M12.3005 40.0978L14.9425 39.3015C15.1339 39.246 15.1339 38.9682 14.9425 38.9126L12.3005 38.1163C12.2326 38.0978 12.1832 38.0484 12.1647 37.9805L11.3684 35.3447C11.3128 35.1533 11.0351 35.1533 10.9795 35.3447L10.1832 37.9805C10.1647 38.0484 10.1153 38.0978 10.0474 38.1163L7.41159 38.9126C7.22023 38.9682 7.22023 39.246 7.41159 39.3015L10.0536 40.0978C10.1215 40.1163 10.1709 40.1657 10.1894 40.2336L10.9857 42.8756C11.0412 43.067 11.319 43.067 11.3746 42.8756L12.1709 40.2336C12.1832 40.1657 12.2326 40.1163 12.3005 40.0978Z" fill="#575757"/>
<path d="M96.5554 9.17336L99.2573 9.73368C99.452 9.77613 99.5845 9.53199 99.4428 9.39188L97.5006 7.4318C97.4497 7.38314 97.4299 7.31618 97.446 7.24767L98.0034 4.55119C98.0458 4.35651 97.8017 4.22401 97.6616 4.3657L95.7045 6.30252C95.6558 6.35336 95.5888 6.37321 95.5203 6.3571L92.8238 5.79972C92.6292 5.75727 92.4967 6.00142 92.6383 6.14152L94.5806 8.1016C94.6314 8.15026 94.6513 8.21722 94.6352 8.28573L94.0748 10.9876C94.0324 11.1823 94.2765 11.3148 94.4167 11.1731L96.3767 9.23089C96.42 9.17709 96.4869 9.15725 96.5554 9.17336Z" fill="#575757"/>
<path d="M94.8952 76.013L96.9595 74.1819C97.1099 74.0512 96.9933 73.799 96.7963 73.8289L94.064 74.2143C93.9946 74.226 93.9291 74.2019 93.8838 74.148L92.0553 72.0895C91.9246 71.9391 91.6724 72.0556 91.7023 72.2526L92.085 74.9792C92.0967 75.0486 92.0726 75.1142 92.0187 75.1594L89.96 76.9879C89.8096 77.1186 89.9262 77.3708 90.1232 77.3409L92.8555 76.9555C92.9249 76.9438 92.9904 76.9679 93.0357 77.0218L94.8668 79.086C94.9975 79.2363 95.2497 79.1198 95.2198 78.9228L94.8345 76.1906C94.8172 76.1238 94.8413 76.0582 94.8952 76.013Z" fill="#575757"/>
<path d="M73.8716 57.3258L76.1834 56.6291C76.3508 56.5805 76.3508 56.3374 76.1834 56.2888L73.8716 55.5921C73.8122 55.5759 73.769 55.5327 73.7528 55.4733L73.0561 53.1671C73.0074 52.9996 72.7644 52.9996 72.7158 53.1671L72.019 55.4733C72.0028 55.5327 71.9596 55.5759 71.9002 55.5921L69.5938 56.2888C69.4264 56.3374 69.4264 56.5805 69.5938 56.6291L71.9056 57.3258C71.965 57.342 72.0082 57.3852 72.0244 57.4446L72.7212 59.7563C72.7698 59.9237 73.0128 59.9237 73.0615 59.7563L73.7582 57.4446C73.769 57.3852 73.8122 57.342 73.8716 57.3258Z" fill="#575757"/>
<path d="M29.5118 89.7614L31.8235 88.9651C31.991 88.9095 31.991 88.6317 31.8235 88.5762L29.5118 87.7799C29.4524 87.7614 29.4092 87.712 29.393 87.6441L28.6962 85.0083C28.6476 84.8169 28.4045 84.8169 28.3559 85.0083L27.6591 87.6441C27.6429 87.712 27.5997 87.7614 27.5403 87.7799L25.234 88.5762C25.0665 88.6317 25.0665 88.9095 25.234 88.9651L27.5457 89.7614C27.6051 89.7799 27.6483 89.8293 27.6646 89.8972L28.3613 92.5392C28.4099 92.7305 28.653 92.7305 28.7016 92.5392L29.3984 89.8972C29.4092 89.8293 29.4524 89.7799 29.5118 89.7614Z" fill="#575757"/>
<path d="M25.6924 50.6715L27.3436 50.1738C27.4632 50.1391 27.4632 49.9655 27.3436 49.9308L25.6924 49.4331C25.65 49.4216 25.6191 49.3907 25.6075 49.3483L25.1098 47.701C25.0751 47.5814 24.9015 47.5814 24.8668 47.701L24.3691 49.3483C24.3575 49.3907 24.3266 49.4216 24.2842 49.4331L22.6368 49.9308C22.5172 49.9655 22.5172 50.1391 22.6368 50.1738L24.2881 50.6715C24.3305 50.6831 24.3614 50.7139 24.3729 50.7564L24.8706 52.4075C24.9054 52.5271 25.079 52.5271 25.1137 52.4075L25.6114 50.7564C25.6191 50.7139 25.65 50.6831 25.6924 50.6715Z" fill="#575757"/>
<path d="M120.831 51.7623L122.482 51.2647C122.601 51.2299 122.601 51.0563 122.482 51.0216L120.831 50.524C120.788 50.5124 120.757 50.4815 120.746 50.4391L120.248 48.7918C120.213 48.6723 120.04 48.6723 120.005 48.7918L119.507 50.4391C119.496 50.4815 119.465 50.5124 119.422 50.524L117.775 51.0216C117.655 51.0563 117.655 51.2299 117.775 51.2647L119.426 51.7623C119.469 51.7739 119.5 51.8047 119.511 51.8472L120.009 53.4983C120.044 53.6179 120.217 53.6179 120.252 53.4983L120.75 51.8472C120.757 51.8047 120.788 51.7739 120.831 51.7623Z" fill="#575757"/>
<path d="M37.8975 27.6539L39.5487 27.1563C39.6683 27.1215 39.6683 26.9479 39.5487 26.9132L37.8975 26.4156C37.855 26.404 37.8242 26.3731 37.8126 26.3307L37.3149 24.6834C37.2802 24.5639 37.1066 24.5639 37.0719 24.6834L36.5742 26.3307C36.5626 26.3731 36.5317 26.404 36.4893 26.4156L34.8419 26.9132C34.7223 26.9479 34.7223 27.1215 34.8419 27.1563L36.4931 27.6539C36.5356 27.6655 36.5664 27.6963 36.578 27.7388L37.0757 29.3899C37.1104 29.5095 37.284 29.5095 37.3188 29.3899L37.8165 27.7388C37.8242 27.6963 37.855 27.6655 37.8975 27.6539Z" fill="#575757"/>
<path d="M13.3067 83.1031L14.9579 82.6055C15.0775 82.5708 15.0775 82.3972 14.9579 82.3624L13.3067 81.8648C13.2642 81.8532 13.2334 81.8224 13.2218 81.7799L12.7241 80.1327C12.6894 80.0131 12.5158 80.0131 12.481 80.1327L11.9833 81.7799C11.9718 81.8224 11.9409 81.8532 11.8985 81.8648L10.2511 82.3624C10.1315 82.3972 10.1315 82.5708 10.2511 82.6055L11.9023 83.1031C11.9448 83.1147 11.9756 83.1456 11.9872 83.188L12.4849 84.8391C12.5196 84.9587 12.6932 84.9587 12.7279 84.8391L13.2256 83.188C13.2334 83.1456 13.2642 83.1147 13.3067 83.1031Z" fill="#575757"/>
<path d="M58.692 57.5907L61.9788 62.276C62.9178 63.6146 63.5601 64.7335 64.0496 66.2448C65.8821 71.0942 65.1986 76.4246 62.6769 80.7618C62.2088 81.5181 61.9704 82.3987 62.0861 83.1736C62.106 84.0157 62.3558 84.9818 62.8924 85.7468C63.9657 87.2767 65.7653 88.0116 67.5735 87.7419C73.3805 86.6643 79.3531 88.4667 83.4434 92.8737C83.9415 93.3803 84.3439 93.954 84.8135 94.6233L88.1002 99.3086C88.5027 99.8823 88.8095 100.523 89.1449 101.001L61.0333 120.722C60.6023 120.311 60.1327 119.641 59.7973 119.163L56.5106 114.478C56.1752 114 55.9354 113.455 55.6 112.977C55.4659 112.786 55.3603 112.432 55.159 112.145C52.5701 106.827 52.8798 100.76 55.841 95.8296C56.7772 94.3168 56.6316 92.2789 55.5584 90.749C55.0888 90.0797 54.361 89.4489 53.5761 89.1435C53.509 89.0479 53.4134 89.1149 53.4134 89.1149C52.6284 88.8095 51.7864 88.8295 50.9444 88.8495C47.0412 89.5903 43.0409 88.9724 39.4316 87.0814C38.5125 86.5848 37.5934 86.0882 36.7985 85.3618C36.5687 85.2376 36.3675 84.9507 36.2334 84.7595C35.3714 83.9375 34.4423 83.0198 33.7044 81.968L30.4177 77.2828C30.3506 77.1872 30.2164 76.9959 30.0823 76.8047L58.3851 56.9499C58.4908 57.3038 58.5578 57.3995 58.692 57.5907Z" fill="#0E0E0E" stroke="#575757" stroke-width="1.9781" stroke-miterlimit="10" stroke-linecap="round" stroke-linejoin="round"/>
<path d="M74.5354 102.547C74.5354 102.547 64.4213 111.925 63.742 111.974C63.2924 112.146 59.3136 113.796 56.779 114.861L56.1082 113.905C55.7728 113.426 55.4375 112.948 55.1306 112.308C55.2548 112.078 55.3118 111.752 55.3689 111.427C56.6662 107.378 60.6978 101.126 69.195 101.443L74.5354 102.547Z" fill="#0E0E0E" stroke="#575757" stroke-width="1.9781" stroke-miterlimit="10" stroke-linecap="round" stroke-linejoin="round"/>
<path d="M58.692 57.5907L61.9788 62.276C62.9178 63.6146 63.5601 64.7335 64.0496 66.2448C65.8821 71.0942 65.1986 76.4246 62.6769 80.7618C62.2088 81.5181 61.9704 82.3987 62.0861 83.1736C62.106 84.0157 62.3558 84.9818 62.8924 85.7468C63.9657 87.2767 65.7653 88.0116 67.5735 87.7419C73.3805 86.6643 79.3531 88.4667 83.4434 92.8737C83.9415 93.3803 84.3439 93.954 84.8135 94.6233L88.1002 99.3086C88.5027 99.8823 88.8095 100.523 89.1449 101.001L61.0333 120.722C60.6023 120.311 60.1327 119.641 59.7973 119.163L56.5106 114.478C56.1752 114 55.9354 113.455 55.6 112.977C55.4659 112.786 55.3603 112.432 55.159 112.145C52.5701 106.827 52.8798 100.76 55.841 95.8296C56.7772 94.3168 56.6316 92.2789 55.5584 90.749C55.0888 90.0797 54.361 89.4489 53.5761 89.1435C53.509 89.0479 53.4134 89.1149 53.4134 89.1149C52.6284 88.8095 51.7864 88.8295 50.9444 88.8495C47.0412 89.5903 43.0409 88.9724 39.4316 87.0814C38.5125 86.5848 37.5934 86.0882 36.7985 85.3618C36.5687 85.2376 36.3675 84.9507 36.2334 84.7595C35.3714 83.9375 34.4423 83.0198 33.7044 81.968L30.4177 77.2828C30.3506 77.1872 30.2164 76.9959 30.0823 76.8047L58.3851 56.9499C58.4908 57.3038 58.5578 57.3995 58.692 57.5907Z" fill="#0E0E0E" stroke="#575757" stroke-width="2" stroke-miterlimit="10" stroke-linecap="round" stroke-linejoin="round"/>
<path d="M56.5304 77.084L45.3631 85.774L39.5946 87.1099C38.6755 86.6132 37.7565 86.1166 36.9615 85.3902C36.7318 85.266 36.5305 84.9792 36.3964 84.788C39.4818 79.6274 42.3203 76.352 50.5763 74.6979C51.9635 74.4381 53.2551 74.2454 54.805 74.0142C68.6011 72.3258 56.5304 77.084 56.5304 77.084Z" fill="#0E0E0E" stroke="#575757" stroke-width="1.9781" stroke-miterlimit="10" stroke-linecap="round" stroke-linejoin="round"/>
<path d="M64.1168 66.3406C65.9493 71.19 65.2658 76.5204 62.7441 80.8576C62.276 81.6139 62.0377 82.4945 62.1533 83.2694L62.0577 83.3365C60.5278 84.4097 60.1282 86.6875 61.2014 88.2174L71.1959 102.464L68.423 104.41L58.3614 90.067C57.2882 88.5371 55.1061 88.0704 53.4806 89.2107C52.6957 88.9053 51.8536 88.9253 51.0116 88.9453C47.1084 89.6861 43.1081 89.0681 39.4988 87.1772C38.5798 86.6806 37.6607 86.184 36.8657 85.4576C45.3801 83.7649 48.2457 78.9011 50.452 74.9279C51.1684 73.712 51.7892 72.5631 52.4771 71.5099C55.2 67.4596 59.2174 66.0681 64.1168 66.3406Z" fill="#0E0E0E" stroke="#575757" stroke-width="2" stroke-miterlimit="10" stroke-linecap="round" stroke-linejoin="round"/>
<path d="M84.7176 94.6907L88.0043 99.376C88.4068 99.9497 88.7136 100.59 89.049 101.069L63.9972 118.643L59.3946 118.59L56.4432 114.383C56.1079 113.905 55.7725 113.427 55.5327 112.881C55.3985 112.69 55.2929 112.336 55.0917 112.049C55.1873 111.982 55.2544 112.078 55.35 112.011C55.5127 112.039 55.6083 111.972 55.7039 111.905C65.0217 109.934 67.5135 104.334 69.8725 99.9684C70.245 99.2791 70.7131 98.5227 71.1526 97.929C74.0382 93.9073 78.2183 92.5443 83.2804 92.8454C83.7499 93.5147 84.248 94.0214 84.7176 94.6907Z" fill="#0E0E0E" stroke="#575757" stroke-width="2" stroke-miterlimit="10" stroke-linecap="round" stroke-linejoin="round"/>
<path d="M60.9889 57.4062L29.6263 79.4074C28.957 79.8769 27.9808 79.7057 27.5783 79.132L25.4319 76.0722C24.9623 75.4029 25.2007 74.5223 25.87 74.0528L57.3282 51.9845C57.9976 51.515 58.9067 51.5906 59.3762 52.2599L61.4556 55.2241C61.7339 56.0275 61.6583 56.9366 60.9889 57.4062Z" fill="#0E0E0E" stroke="#575757" stroke-width="2" stroke-miterlimit="10" stroke-linecap="round" stroke-linejoin="round"/>
<path d="M92.6484 102.538L61.2858 124.539C60.6165 125.009 59.7074 124.933 59.2378 124.264L57.1584 121.3C56.6889 120.63 56.9272 119.75 57.5965 119.28L89.0548 97.212C89.7241 96.7425 90.6332 96.8181 91.1028 97.4875L93.1821 100.452C93.4604 101.255 93.3177 102.069 92.6484 102.538Z" fill="#0E0E0E" stroke="#575757" stroke-width="2" stroke-miterlimit="10" stroke-linecap="round" stroke-linejoin="round"/>
<path d="M111.307 35.6053L109.874 38.2699C109.465 39.0312 109.089 39.6002 108.491 40.1902C106.636 42.2069 103.956 43.1493 101.309 42.9878C100.84 42.9462 100.368 43.0427 100.029 43.2813C99.6362 43.4906 99.2391 43.8379 99.0052 44.2729C98.5373 45.143 98.6174 46.1675 99.174 46.9576C101.061 49.4447 101.628 52.6936 100.517 55.6717C100.396 56.0272 100.221 56.3535 100.016 56.7342L98.5832 59.3988C98.4078 59.7251 98.178 60.0221 98.0318 60.294L82.0439 51.6971C82.1357 51.396 82.3404 51.0153 82.4866 50.7434L83.9194 48.0788C84.0656 47.8069 84.2662 47.5642 84.4124 47.2923C84.4709 47.1836 84.613 47.0497 84.7007 46.8865C86.5978 44.4014 89.5369 43.1075 92.5688 43.3358C93.5056 43.4189 94.4337 42.8663 94.9015 41.9962C95.1062 41.6156 95.2314 41.122 95.1893 40.6788C95.2185 40.6244 95.1642 40.5952 95.1642 40.5952C95.1221 40.1519 94.9128 39.759 94.7034 39.366C93.427 37.6982 92.7693 35.662 92.8057 33.5084C92.8221 32.9563 92.8385 32.4043 92.9929 31.8564C92.997 31.7184 93.0847 31.5553 93.1432 31.4465C93.3269 30.8442 93.5398 30.1876 93.8614 29.5894L95.2942 26.9247C95.3235 26.8704 95.3819 26.7616 95.4404 26.6528L111.537 35.3082C111.395 35.4421 111.366 35.4965 111.307 35.6053Z" fill="#0E0E0E" stroke="#575757" stroke-width="1.9781" stroke-miterlimit="10" stroke-linecap="round" stroke-linejoin="round"/>
<path d="M93.8336 53.7603C93.8336 53.7603 87.0032 51.2092 86.8191 50.8998C86.6308 50.7285 84.907 49.2407 83.8025 48.2963L84.0949 47.7525C84.2411 47.4806 84.3873 47.2087 84.6171 46.9116C84.7551 46.9157 84.9224 46.8655 85.0896 46.8152C87.31 46.4668 91.2202 46.8869 93.0877 50.9756L93.8336 53.7603Z" fill="#0E0E0E" stroke="#575757" stroke-width="1.9781" stroke-miterlimit="10" stroke-linecap="round" stroke-linejoin="round"/>
<path d="M111.307 35.6053L109.874 38.2699C109.465 39.0312 109.089 39.6002 108.491 40.1902C106.636 42.2069 103.956 43.1493 101.309 42.9878C100.84 42.9462 100.368 43.0427 100.029 43.2813C99.6362 43.4906 99.2391 43.8379 99.0052 44.2729C98.5373 45.143 98.6174 46.1675 99.174 46.9576C101.061 49.4447 101.628 52.6936 100.517 55.6717C100.396 56.0272 100.221 56.3535 100.016 56.7342L98.5832 59.3988C98.4078 59.7251 98.178 60.0221 98.0318 60.294L82.0439 51.6971C82.1357 51.396 82.3404 51.0153 82.4866 50.7434L83.9194 48.0788C84.0656 47.8069 84.2662 47.5642 84.4124 47.2923C84.4709 47.1836 84.613 47.0497 84.7007 46.8865C86.5978 44.4014 89.5369 43.1075 92.5688 43.3358C93.5056 43.4189 94.4337 42.8663 94.9015 41.9962C95.1062 41.6156 95.2314 41.122 95.1893 40.6788C95.2185 40.6244 95.1642 40.5952 95.1642 40.5952C95.1221 40.1519 94.9128 39.759 94.7034 39.366C93.427 37.6982 92.7693 35.662 92.8057 33.5084C92.8221 32.9563 92.8385 32.4043 92.9929 31.8564C92.997 31.7184 93.0847 31.5553 93.1432 31.4465C93.3269 30.8442 93.5398 30.1876 93.8614 29.5894L95.2942 26.9247C95.3235 26.8704 95.3819 26.7616 95.4404 26.6528L111.537 35.3082C111.395 35.4421 111.366 35.4965 111.307 35.6053Z" fill="#0E0E0E" stroke="#575757" stroke-width="2" stroke-miterlimit="10" stroke-linecap="round" stroke-linejoin="round"/>
<path d="M101.587 39.2113L94.8313 35.9994L92.831 33.5918C92.8474 33.0398 92.8638 32.4878 93.0182 31.9399C93.0223 31.8019 93.1101 31.6388 93.1685 31.53C96.3385 31.7623 98.5594 32.3256 101.3 35.8325C101.752 36.4261 102.15 36.9904 102.627 37.6676C106.7 43.7832 101.587 39.2113 101.587 39.2113Z" fill="#0E0E0E" stroke="#575757" stroke-width="1.9781" stroke-miterlimit="10" stroke-linecap="round" stroke-linejoin="round"/>
<path d="M108.462 40.2444C106.607 42.2611 103.927 43.2036 101.279 43.042C100.811 43.0005 100.339 43.0969 100 43.3355L99.9456 43.3063C99.0756 42.8384 97.9049 43.1904 97.437 44.0605L93.0801 52.1632L91.503 51.3152L95.8892 43.1581C96.3571 42.288 96.0595 41.1465 95.135 40.6494C95.0929 40.2062 94.8836 39.8132 94.6743 39.4202C93.3979 37.7524 92.7402 35.7163 92.7765 33.5626C92.7929 33.0106 92.8094 32.4586 92.9638 31.9107C95.7844 35.5305 98.762 35.7295 101.162 35.8285C101.907 35.8782 102.597 35.8987 103.258 35.9736C105.817 36.2983 107.428 37.8656 108.462 40.2444Z" fill="#0E0E0E" stroke="#575757" stroke-width="2" stroke-miterlimit="10" stroke-linecap="round" stroke-linejoin="round"/>
<path d="M99.962 56.7048L98.5292 59.3694C98.3537 59.6957 98.1239 59.9928 97.9777 60.2647L83.73 52.6035L82.6623 50.417L83.9489 48.0243C84.0952 47.7524 84.2414 47.4805 84.4419 47.2378C84.5004 47.129 84.6425 46.9951 84.7303 46.832C84.7846 46.8612 84.7554 46.9156 84.8098 46.9449C84.8349 47.0285 84.8893 47.0577 84.9437 47.087C88.0865 51.0202 91.3231 50.8678 93.9452 50.9457C94.3592 50.958 94.8276 50.9996 95.2123 51.0663C97.7969 51.4746 99.433 53.1255 100.492 55.5879C100.288 55.9686 100.167 56.3241 99.962 56.7048Z" fill="#0E0E0E" stroke="#575757" stroke-width="2" stroke-miterlimit="10" stroke-linecap="round" stroke-linejoin="round"/>
<path d="M111.939 36.6459L94.1024 27.0548C93.7217 26.8502 93.5709 26.3484 93.7463 26.0221L94.6821 24.282C94.8868 23.9013 95.3592 23.8048 95.7399 24.0095L113.631 33.6299C114.012 33.8346 114.192 34.2819 113.987 34.6626L113.081 36.3484C112.767 36.6706 112.32 36.8506 111.939 36.6459Z" fill="#0E0E0E" stroke="#575757" stroke-width="2" stroke-miterlimit="10" stroke-linecap="round" stroke-linejoin="round"/>
<path d="M98.1377 62.3137L80.3008 52.7226C79.9202 52.5179 79.7401 52.0706 79.9448 51.6899L80.8513 50.0041C81.0559 49.6235 81.5284 49.527 81.9091 49.7317L99.8003 59.352C100.181 59.5567 100.361 60.0041 100.156 60.3847L99.2499 62.0705C98.9364 62.3927 98.5183 62.5184 98.1377 62.3137Z" fill="#0E0E0E" stroke="#575757" stroke-width="2" stroke-miterlimit="10" stroke-linecap="round" stroke-linejoin="round"/>
</svg>
