<svg width="128" height="110" viewBox="0 0 128 110" fill="none" xmlns="http://www.w3.org/2000/svg">
<path d="M63.7001 108.492C93.4001 108.492 117.6 84.3922 117.6 54.7922C117.5 25.0922 93.4001 0.992188 63.7001 0.992188C33.9001 0.992188 9.80005 25.0922 9.80005 54.6922C9.80005 84.3922 33.9001 108.492 63.7001 108.492Z" fill="#0E0E0E" stroke="#575757" stroke-width="2" stroke-miterlimit="10"/>
<path d="M118.9 35.992C121.164 35.992 123 34.1564 123 31.892C123 29.6276 121.164 27.792 118.9 27.792C116.636 27.792 114.8 29.6276 114.8 31.892C114.8 34.1564 116.636 35.992 118.9 35.992Z" fill="#575757"/>
<path d="M124.9 19.9921C126.446 19.9921 127.7 18.7385 127.7 17.1921C127.7 15.6457 126.446 14.3921 124.9 14.3921C123.354 14.3921 122.1 15.6457 122.1 17.1921C122.1 18.7385 123.354 19.9921 124.9 19.9921Z" fill="#575757"/>
<path d="M5.2 90.7921C8.07188 90.7921 10.4 88.464 10.4 85.5921C10.4 82.7202 8.07188 80.3921 5.2 80.3921C2.32812 80.3921 0 82.7202 0 85.5921C0 88.464 2.32812 90.7921 5.2 90.7921Z" fill="#575757"/>
<path d="M101.512 32.162V97.2932C101.512 102.039 97.7477 105.803 93.0019 105.803H34.4166C29.6708 105.803 25.907 102.039 25.907 97.2932V12.0335C25.907 7.28779 29.6708 3.52393 34.4166 3.52393H73.0371C75.1645 3.52393 77.1283 4.34216 78.6011 5.81497L99.2205 26.4344C100.693 28.0709 101.512 30.0346 101.512 32.162Z" fill="#0E0E0E" stroke="#575757" stroke-width="2" stroke-miterlimit="10"/>
<path d="M75.9182 4.11914V23.4727C75.9182 26.9435 78.8573 29.7201 82.1972 29.7201H100.924" fill="#575757"/>
<path d="M51.1869 88.0665H37.5403C37.0311 88.0665 36.6238 87.5253 36.6238 86.8758C36.6238 86.2263 37.0311 85.6851 37.5403 85.6851H51.1869C51.6961 85.6851 52.1034 86.2263 52.1034 86.8758C52.1034 87.6335 51.6961 88.0665 51.1869 88.0665Z" fill="#575757"/>
<path d="M68.6391 21.3849H37.9493C37.2355 21.3849 36.6238 20.8353 36.6238 20.1942C36.6238 19.553 37.2355 19.0034 37.9493 19.0034H68.6391C69.3528 19.0034 69.9646 19.553 69.9646 20.1942C69.9646 20.8353 69.3528 21.3849 68.6391 21.3849Z" fill="#575757"/>
<path d="M49.6966 28.5294H37.9412C37.2318 28.5294 36.6238 27.9799 36.6238 27.3387C36.6238 26.6975 37.2318 26.1479 37.9412 26.1479H49.5953C50.3046 26.1479 50.9127 26.6975 50.9127 27.3387C50.9127 27.9799 50.3046 28.5294 49.6966 28.5294Z" fill="#575757"/>
<path d="M90.4358 70.2056H54.6494H50.7053H38.7765C38.2955 70.2056 37.8145 70.7017 37.8145 71.3963C37.8145 71.9917 38.1993 72.5871 38.7765 72.5871H50.7053H54.6494H90.4358C90.9168 72.5871 91.3978 72.0909 91.3978 71.3963C91.3016 70.7017 90.9168 70.2056 90.4358 70.2056Z" fill="#575757"/>
<path d="M90.4341 61.8701H77.1346H72.6051H38.7782C38.2963 61.8701 37.8145 62.3663 37.8145 63.0609C37.8145 63.6562 38.1999 64.2516 38.7782 64.2516H72.6051H77.1346H90.4341C90.916 64.2516 91.3978 63.7555 91.3978 63.0609C91.3015 62.3663 90.916 61.8701 90.4341 61.8701Z" fill="#575757"/>
<path d="M90.5214 53.5352H87.0652H83.609H38.7745C38.2945 53.5352 37.8145 54.0313 37.8145 54.7259C37.8145 55.3213 38.1985 55.9166 38.7745 55.9166H83.609H87.4493H90.4254C90.9055 55.9166 91.3855 55.4205 91.3855 54.7259C91.4815 54.1305 91.0015 53.5352 90.5214 53.5352Z" fill="#575757"/>
<path d="M90.4461 45.1997H79.3106H76.5506H38.7662C38.2903 45.1997 37.8145 45.6959 37.8145 46.3905C37.8145 46.9858 38.1952 47.5812 38.7662 47.5812H76.5506H79.3106H90.3509C91.0171 47.5812 91.3978 47.0851 91.3978 46.3905C91.3978 45.7951 91.0171 45.1997 90.4461 45.1997Z" fill="#575757"/>
<path d="M91.0475 105.992C102.671 105.992 112.093 96.5698 112.093 84.9468C112.093 73.3237 102.671 63.9014 91.0475 63.9014C79.4244 63.9014 70.0021 73.3237 70.0021 84.9468C70.0021 96.5698 79.4244 105.992 91.0475 105.992Z" fill="#1E1E1E" stroke="#545454" stroke-width="2" stroke-miterlimit="10" stroke-linejoin="round"/>
<path d="M92.2577 76.4039C92.309 76.4659 92.3544 76.533 92.4095 76.5916L97.5975 82.1C98.2176 82.7584 98.2176 83.9106 97.5975 84.5691C96.9774 85.2275 95.8922 85.2275 95.1945 84.5691L94.5082 83.8639C93.8823 83.2207 92.7916 83.6638 92.7916 84.5613V91.1533C92.7916 92.141 92.0164 92.964 91.0862 92.964C90.1561 92.964 89.3809 92.141 89.3809 91.1533V84.5613C89.3809 83.6638 88.2902 83.2207 87.6643 83.8639L86.9779 84.5691C86.3578 85.2275 85.2726 85.2275 84.575 84.5691C84.1874 84.1576 84.0323 83.746 84.0323 83.3345C84.0323 82.9603 84.1606 82.4499 84.4753 82.1748C84.5377 82.1203 84.6037 82.0695 84.6605 82.0092L89.846 76.5034C90.0785 76.2565 90.6211 75.9272 91.0087 75.9272C91.3634 75.9272 91.9778 76.0651 92.2577 76.4039Z" fill="#575757"/>
</svg>
