<svg width="148" height="163" viewBox="0 0 148 163" fill="none" xmlns="http://www.w3.org/2000/svg">
<path d="M56.161 15.3833C25.4729 23.8793 7.48263 55.6443 15.9786 86.3324C24.4746 117.02 56.2396 135.011 86.9277 126.515C117.616 118.019 135.606 86.2537 127.11 55.5656C118.614 24.8776 86.8491 6.88731 56.161 15.3833Z" fill="#0E0E0E" stroke="#575757" stroke-width="2" stroke-miterlimit="10"/>
<path d="M91.7718 32.1479L92.866 31.5956C92.924 31.5796 93.0238 31.4896 92.9917 31.3737L92.9027 30.1513C92.9125 29.9615 92.9963 29.8136 93.17 29.7655C93.3438 29.7174 93.5496 29.7851 93.5977 29.9588L94.15 31.053C94.1661 31.111 94.2561 31.2108 94.3719 31.1787L95.5944 31.0897C95.7842 31.0995 95.9321 31.1833 95.9802 31.357C96.0283 31.5308 95.9605 31.7366 95.7868 31.7847L94.6926 32.337C94.6347 32.3531 94.5349 32.4431 94.5669 32.5589L94.656 33.7814C94.6461 33.9712 94.5624 34.1191 94.3886 34.1672C94.2149 34.2153 94.009 34.1475 93.9609 33.9738L93.4086 32.8796C93.3926 32.8217 93.3026 32.7219 93.1867 32.7539L91.9642 32.843C91.7745 32.8331 91.6266 32.7494 91.5785 32.5756C91.5464 32.4598 91.6141 32.254 91.7718 32.1479Z" fill="#1E1E1E"/>
<path d="M39.2365 38.4401L40.2797 37.9135C40.3349 37.8982 40.43 37.8124 40.3995 37.702L40.3146 36.5366C40.324 36.3556 40.4038 36.2146 40.5695 36.1688C40.7351 36.1229 40.9313 36.1875 40.9772 36.3531L41.5038 37.3963C41.519 37.4515 41.6048 37.5466 41.7153 37.516L42.8807 37.4312C43.0616 37.4405 43.2026 37.5204 43.2485 37.686C43.2943 37.8517 43.2298 38.0479 43.0641 38.0938L42.021 38.6203C41.9658 38.6356 41.8706 38.7214 41.9012 38.8318L41.9861 39.9973C41.9767 40.1782 41.8968 40.3192 41.7312 40.3651C41.5656 40.4109 41.3693 40.3463 41.3235 40.1807L40.7969 39.1376C40.7816 39.0823 40.6958 38.9872 40.5854 39.0178L39.42 39.1026C39.2391 39.0933 39.098 39.0134 39.0522 38.8478C39.0063 38.6821 39.0709 38.4859 39.2365 38.4401Z" fill="#1E1E1E"/>
<path d="M76.6054 49.8626L77.448 49.4373C77.4926 49.425 77.5694 49.3557 77.5447 49.2665L77.4762 48.3252C77.4837 48.1791 77.5482 48.0652 77.682 48.0282C77.8158 47.9911 77.9743 48.0433 78.0113 48.1771L78.4366 49.0196C78.449 49.0642 78.5183 49.141 78.6074 49.1163L79.5487 49.0478C79.6949 49.0553 79.8087 49.1198 79.8458 49.2536C79.8828 49.3874 79.8307 49.5459 79.6969 49.5829L78.8544 50.0082C78.8098 50.0206 78.7329 50.0899 78.7576 50.1791L78.8262 51.1203C78.8186 51.2665 78.7541 51.3804 78.6203 51.4174C78.4865 51.4544 78.3281 51.4023 78.291 51.2685L77.8657 50.426C77.8534 50.3814 77.7841 50.3045 77.6949 50.3292L76.7536 50.3978C76.6075 50.3902 76.4936 50.3257 76.4565 50.1919C76.3873 50.1151 76.484 49.9443 76.6054 49.8626Z" fill="#1E1E1E"/>
<path d="M43.4127 109.199L44.9253 108.436C45.0054 108.414 45.1433 108.289 45.099 108.129L44.976 106.439C44.9895 106.177 45.1053 105.972 45.3455 105.906C45.5857 105.839 45.8702 105.933 45.9367 106.173L46.7003 107.686C46.7225 107.766 46.8469 107.904 47.007 107.86L48.6969 107.736C48.9593 107.75 49.1637 107.866 49.2302 108.106C49.2967 108.346 49.2031 108.631 48.9629 108.697L47.4503 109.461C47.3702 109.483 47.2323 109.607 47.2766 109.767L47.3997 111.457C47.3861 111.72 47.2703 111.924 47.0301 111.991C46.7899 112.057 46.5054 111.964 46.4389 111.723L45.6753 110.211C45.6532 110.131 45.5288 109.993 45.3686 110.037L43.6787 110.16C43.4163 110.147 43.2119 110.031 43.1454 109.791C43.0789 109.55 43.1947 109.346 43.4127 109.199Z" fill="#1E1E1E"/>
<path d="M120.156 69.1737L120.948 67.985C120.998 67.9355 121.047 67.7869 120.948 67.6878L120.156 66.4991C120.057 66.301 120.057 66.1029 120.205 65.9543C120.354 65.8057 120.601 65.7562 120.75 65.9048L121.939 66.6973C121.988 66.7468 122.137 66.7963 122.236 66.6973L123.425 65.9048C123.623 65.8057 123.821 65.8057 123.969 65.9543C124.118 66.1029 124.168 66.3506 124.019 66.4991L123.227 67.6878C123.177 67.7374 123.127 67.886 123.227 67.985L124.019 69.1737C124.118 69.3718 124.118 69.5699 123.969 69.7185C123.821 69.8671 123.573 69.9167 123.425 69.7681L122.236 68.9756C122.186 68.9261 122.038 68.8765 121.939 68.9756L120.75 69.7681C120.552 69.8671 120.354 69.8671 120.205 69.7185C120.057 69.57 120.007 69.3223 120.156 69.1737Z" fill="#1E1E1E"/>
<path d="M43.5537 60.6946L44.5678 58.6607C44.6361 58.5727 44.6847 58.3283 44.5086 58.1917L43.0212 56.4733C42.8254 56.1803 42.786 55.8676 42.9909 55.6035C43.1958 55.3394 43.5768 55.2119 43.8409 55.4169L45.8749 56.431C45.9629 56.4993 46.2073 56.5479 46.3439 56.3718L48.0623 54.8844C48.3553 54.6886 48.6679 54.6492 48.932 54.8541C49.1961 55.059 49.3236 55.44 49.1187 55.7041L48.1046 57.7381C48.0363 57.8261 47.9877 58.0705 48.1638 58.2071L49.6512 59.9255C49.847 60.2184 49.8864 60.5311 49.6815 60.7952C49.4765 61.0594 49.0956 61.1868 48.8314 60.9819L46.7975 59.9678C46.7095 59.8995 46.4651 59.8509 46.3285 60.0269L44.6101 61.5144C44.3171 61.7102 44.0044 61.7496 43.7403 61.5447C43.4762 61.3397 43.3488 60.9587 43.5537 60.6946Z" fill="#1E1E1E"/>
<path d="M63.753 120.774L65.1738 120.056C65.249 120.036 65.3785 119.919 65.3369 119.768L65.2213 118.181C65.2341 117.935 65.3428 117.743 65.5684 117.68C65.794 117.618 66.0613 117.706 66.1237 117.931L66.8409 119.352C66.8617 119.427 66.9786 119.557 67.129 119.515L68.7163 119.4C68.9627 119.412 69.1547 119.521 69.2172 119.747C69.2796 119.972 69.1917 120.239 68.9661 120.302L67.5454 121.019C67.4702 121.04 67.3406 121.157 67.3822 121.307L67.4978 122.894C67.4851 123.141 67.3763 123.333 67.1507 123.395C66.9251 123.458 66.6579 123.37 66.5954 123.144L65.8782 121.724C65.8574 121.648 65.7406 121.519 65.5902 121.56L64.0029 121.676C63.7564 121.663 63.5644 121.554 63.5019 121.329C63.4395 121.103 63.5274 120.836 63.753 120.774Z" fill="#1E1E1E"/>
<path d="M36.4424 84.4297L37.4307 82.6771C37.495 82.6024 37.549 82.3885 37.3995 82.2598L36.1618 80.6734C36.0019 80.4056 35.9812 80.1274 36.1742 79.9031C36.3673 79.6788 36.71 79.5833 36.9342 79.7764L38.6868 80.7647C38.7615 80.829 38.9754 80.883 39.1041 80.7335L40.6905 79.4958C40.9583 79.3359 41.2365 79.3152 41.4608 79.5082C41.6851 79.7013 41.7806 80.0439 41.5875 80.2682L40.5993 82.0208C40.5349 82.0955 40.4809 82.3094 40.6304 82.4381L41.8681 84.0244C42.028 84.2923 42.0487 84.5705 41.8557 84.7948C41.6626 85.0191 41.32 85.1146 41.0957 84.9215L39.3431 83.9332C39.2684 83.8689 39.0545 83.8149 38.9258 83.9644L37.3395 85.2021C37.0716 85.362 36.7934 85.3828 36.5691 85.1897C36.3448 84.9966 36.2493 84.654 36.4424 84.4297Z" fill="#1E1E1E"/>
<path d="M61.2319 29.7607L63.0868 28.8648C63.2644 28.8157 63.304 28.6135 63.2794 28.5247L63.0938 26.4732C63.1088 26.1823 63.3014 25.8422 63.5678 25.7684C63.8341 25.6947 64.1496 25.7985 64.3367 26.1291L65.2326 27.984C65.2818 28.1615 65.4839 28.2012 65.5727 28.1766L67.6242 27.991C67.9152 28.006 68.2552 28.1986 68.329 28.465C68.4027 28.7313 68.2989 29.0468 67.9684 29.2339L66.1135 30.1298C65.9359 30.179 65.8963 30.3811 65.9208 30.4699L66.1065 32.5214C66.0914 32.8124 65.8988 33.1524 65.6325 33.2262C65.3661 33.2999 65.0506 33.1961 64.8635 32.8655L63.9676 31.0106C63.9185 30.8331 63.7163 30.7935 63.6275 30.818L61.576 31.0037C61.2851 30.9886 60.945 30.796 60.8713 30.5296C60.7729 30.1745 60.8768 29.859 61.2319 29.7607Z" fill="#1E1E1E"/>
<path d="M104.568 49.7554L105.499 49.3054C105.589 49.2807 105.608 49.1792 105.596 49.1346L105.503 48.1041C105.51 47.9579 105.607 47.7871 105.741 47.7501C105.875 47.713 106.033 47.7652 106.127 47.9312L106.577 48.8629C106.602 48.9521 106.703 48.972 106.748 48.9597L107.778 48.8665C107.925 48.874 108.095 48.9708 108.132 49.1045C108.169 49.2383 108.117 49.3968 107.951 49.4908L107.02 49.9408C106.93 49.9655 106.911 50.067 106.923 50.1116L107.016 51.1421C107.009 51.2882 106.912 51.459 106.778 51.4961C106.644 51.5331 106.486 51.481 106.392 51.3149L105.942 50.3832C105.917 50.294 105.816 50.2741 105.771 50.2865L104.74 50.3797C104.594 50.3722 104.423 50.2754 104.386 50.1416C104.349 50.0078 104.446 49.837 104.568 49.7554Z" fill="#1E1E1E"/>
<path d="M96.2885 107.626L98.3881 106.612C98.5891 106.557 98.6339 106.328 98.6061 106.227L98.396 103.905C98.413 103.576 98.631 103.191 98.9325 103.107C99.234 103.024 99.5911 103.141 99.8029 103.516L100.817 105.615C100.873 105.816 101.101 105.861 101.202 105.833L103.524 105.623C103.853 105.64 104.238 105.858 104.322 106.16C104.405 106.461 104.288 106.818 103.914 107.03L101.814 108.044C101.613 108.1 101.568 108.328 101.596 108.429L101.806 110.751C101.789 111.08 101.571 111.465 101.27 111.549C100.968 111.632 100.611 111.515 100.399 111.141L99.3851 109.041C99.3295 108.84 99.1006 108.795 99.0001 108.823L96.678 109.033C96.3487 109.016 95.9637 108.798 95.8802 108.497C95.7968 108.195 95.9143 107.838 96.2885 107.626Z" fill="#1E1E1E"/>
<path d="M106.127 86.1344L107.636 85.4056C107.781 85.3656 107.813 85.2012 107.793 85.129L107.642 83.4601C107.654 83.2234 107.811 82.9468 108.028 82.8868C108.244 82.8268 108.501 82.9112 108.653 83.1801L109.382 84.6891C109.422 84.8335 109.586 84.8658 109.659 84.8458L111.327 84.6948C111.564 84.707 111.841 84.8637 111.901 85.0804C111.961 85.297 111.876 85.5537 111.607 85.7059L110.098 86.4347C109.954 86.4747 109.922 86.6391 109.942 86.7114L110.093 88.3803C110.081 88.6169 109.924 88.8936 109.707 88.9536C109.491 89.0136 109.234 88.9291 109.082 88.6602L108.353 87.1512C108.313 87.0068 108.148 86.9746 108.076 86.9946L106.407 87.1456C106.171 87.1333 105.894 86.9766 105.834 86.76C105.774 86.5433 105.931 86.2666 106.127 86.1344Z" fill="#1E1E1E"/>
<path d="M22.194 64.0334L24.4316 63.8309C24.6253 63.7773 24.7758 63.9442 24.8026 64.041L25.7797 66.0642C25.957 66.3279 26.3279 66.538 26.6184 66.4575C26.9089 66.3771 27.1458 66.103 27.1354 65.6888L26.933 63.4512C26.8794 63.2575 27.0462 63.1071 27.143 63.0803L29.1662 62.1031C29.4299 61.9259 29.64 61.5549 29.5596 61.2644C29.4791 60.9739 29.205 60.737 28.7909 60.7474L26.5532 60.9499C26.3596 61.0035 26.2091 60.8366 26.1823 60.7398L25.2052 58.7166C25.0279 58.4529 24.657 58.2428 24.3665 58.3233C24.0759 58.4037 23.8391 58.6778 23.8495 59.092L24.0519 61.3296C24.1055 61.5233 23.9387 61.6737 23.8418 61.7005L21.8187 62.6777C21.555 62.8549 21.3449 63.2259 21.4253 63.5164C21.5326 63.9037 21.9035 64.1138 22.194 64.0334Z" fill="#1E1E1E"/>
<path d="M10.2317 108.566L13.3956 108.28C13.6694 108.204 13.8821 108.44 13.92 108.577L15.3016 111.438C15.5523 111.811 16.0767 112.108 16.4875 111.994C16.8982 111.88 17.2332 111.493 17.2185 110.907L16.9322 107.743C16.8564 107.469 17.0923 107.257 17.2292 107.219L20.0898 105.837C20.4627 105.587 20.7597 105.062 20.646 104.651C20.5323 104.241 20.1447 103.906 19.5592 103.92L16.3953 104.207C16.1215 104.282 15.9088 104.046 15.8709 103.91L14.4893 101.049C14.2386 100.676 13.7142 100.379 13.3034 100.493C12.8926 100.606 12.5577 100.994 12.5724 101.58L12.8587 104.743C12.9345 105.017 12.6986 105.23 12.5616 105.268L9.70104 106.65C9.32819 106.9 9.03118 107.425 9.14489 107.835C9.29652 108.383 9.82097 108.68 10.2317 108.566Z" fill="#1E1E1E"/>
<path d="M15.485 28.2522L18.4022 27.9883C18.6546 27.9184 18.8508 28.1359 18.8857 28.2622L20.1596 30.8997C20.3907 31.2435 20.8743 31.5173 21.253 31.4125C21.6317 31.3076 21.9406 30.9503 21.927 30.4104L21.6631 27.4932C21.5932 27.2408 21.8107 27.0446 21.9369 27.0097L24.5745 25.7358C24.9183 25.5047 25.1921 25.0211 25.0873 24.6424C24.9824 24.2637 24.6251 23.9548 24.0852 23.9684L21.168 24.2323C20.9155 24.3022 20.7194 24.0847 20.6845 23.9585L19.4106 21.3209C19.1795 20.9772 18.6959 20.7033 18.3172 20.8081C17.9385 20.913 17.6296 21.2703 17.6432 21.8102L17.9071 24.7274C17.977 24.9799 17.7595 25.176 17.6333 25.2109L14.9957 26.4848C14.6519 26.7159 14.3781 27.1995 14.4829 27.5782C14.6227 28.0832 15.1063 28.3571 15.485 28.2522Z" fill="#1E1E1E"/>
<path d="M131.048 82.8904L135.025 84.3075C135.397 84.3686 135.523 84.7717 135.492 84.958L135.565 89.1786C135.66 89.768 136.127 90.4186 136.686 90.5102C137.245 90.6018 137.865 90.3208 138.173 89.6062L139.59 85.6299C139.652 85.2573 140.055 85.1321 140.241 85.1627L144.462 85.0895C145.051 84.9948 145.702 84.5275 145.793 83.9687C145.885 83.4098 145.604 82.7898 144.889 82.4813L140.913 81.0642C140.54 81.0031 140.415 80.6 140.446 80.4137L140.372 76.1931C140.278 75.6037 139.811 74.9532 139.252 74.8615C138.693 74.7699 138.073 75.0509 137.764 75.7655L136.347 79.7418C136.286 80.1144 135.883 80.2396 135.697 80.209L131.476 80.2823C130.887 80.3769 130.236 80.8442 130.145 81.4031C130.022 82.1483 130.49 82.7988 131.048 82.8904Z" fill="#1E1E1E"/>
<path d="M47.6538 42.7536C47.2844 42.8559 47.0678 43.2383 47.1701 43.6077C47.2723 43.9771 47.6547 44.1937 48.0242 44.0914C48.3936 43.9892 48.6102 43.6068 48.5079 43.2373C48.4056 42.8679 48.0232 42.6513 47.6538 42.7536Z" fill="#1E1E1E"/>
<path d="M71.5437 60.1943C71.1743 60.2965 70.9577 60.6789 71.06 61.0484C71.1622 61.4178 71.5446 61.6344 71.9141 61.5321C72.2835 61.4298 72.5001 61.0474 72.3978 60.678C72.2955 60.3086 71.9131 60.092 71.5437 60.1943Z" fill="#1E1E1E"/>
<path d="M87.0625 32.0586C86.8668 32.3882 86.9754 32.8141 87.305 33.0098C87.6346 33.2054 88.0605 33.0969 88.2562 32.7672C88.4518 32.4376 88.3433 32.0118 88.0136 31.8161C87.684 31.6204 87.2582 31.729 87.0625 32.0586Z" fill="#1E1E1E"/>
<path d="M64.6673 18.7561C64.4717 19.0857 64.5802 19.5116 64.9099 19.7073C65.2395 19.9029 65.6653 19.7944 65.861 19.4648C66.0567 19.1351 65.9481 18.7093 65.6185 18.5136C65.2889 18.3179 64.863 18.4265 64.6673 18.7561Z" fill="#1E1E1E"/>
<path d="M24.7159 49.313C24.5202 49.6426 24.6288 50.0685 24.9584 50.2641C25.2881 50.4598 25.7139 50.3513 25.9096 50.0216C26.1053 49.692 25.9967 49.2662 25.6671 49.0705C25.3375 48.8748 24.9116 48.9834 24.7159 49.313Z" fill="#1E1E1E"/>
<path d="M27.6241 76.6072C27.4285 76.9368 27.537 77.3627 27.8666 77.5583C28.1963 77.754 28.6221 77.6454 28.8178 77.3158C29.0135 76.9862 28.9049 76.5604 28.5753 76.3647C28.2457 76.169 27.8198 76.2776 27.6241 76.6072Z" fill="#1E1E1E"/>
<path d="M35.1957 103.887C35 104.217 35.1086 104.642 35.4382 104.838C35.7678 105.034 36.1936 104.925 36.3893 104.596C36.585 104.266 36.4764 103.84 36.1468 103.644C35.8172 103.449 35.3914 103.557 35.1957 103.887Z" fill="#1E1E1E"/>
<path d="M53.5051 117.827C53.3094 118.157 53.418 118.583 53.7476 118.779C54.0773 118.974 54.5031 118.866 54.6988 118.536C54.8945 118.206 54.7859 117.781 54.4563 117.585C54.1266 117.389 53.7008 117.498 53.5051 117.827Z" fill="#1E1E1E"/>
<path d="M87 118.051C86.8043 118.381 86.9129 118.807 87.2425 119.002C87.5721 119.198 87.998 119.089 88.1937 118.76C88.3893 118.43 88.2808 118.004 87.9511 117.809C87.6215 117.613 87.1957 117.721 87 118.051Z" fill="#1E1E1E"/>
<path d="M110.305 97.2576C110.109 97.5872 110.218 98.013 110.547 98.2087C110.877 98.4044 111.303 98.2958 111.498 97.9662C111.694 97.6366 111.585 97.2108 111.256 97.0151C110.926 96.8194 110.5 96.928 110.305 97.2576Z" fill="#1E1E1E"/>
<path d="M122.725 74.7053C122.53 75.035 122.638 75.4608 122.968 75.6565C123.298 75.8522 123.723 75.7436 123.919 75.414C124.115 75.0843 124.006 74.6585 123.677 74.4628C123.347 74.2671 122.921 74.3757 122.725 74.7053Z" fill="#1E1E1E"/>
<path d="M108.7 40.0772C108.505 40.4068 108.613 40.8326 108.943 41.0283C109.272 41.224 109.698 41.1154 109.894 40.7858C110.09 40.4562 109.981 40.0303 109.651 39.8346C109.322 39.639 108.896 39.7475 108.7 40.0772Z" fill="#1E1E1E"/>
<path d="M106.348 78.3655L112.645 73.4041L110.729 70.8971L104.431 75.8585L106.348 78.3655Z" fill="#0E0E0E" stroke="#575757" stroke-width="2" stroke-miterlimit="10"/>
<path d="M146.37 58.2505L134.023 42.0017L104.475 65.4607L116.823 81.7095L146.37 58.2505Z" fill="#0E0E0E" stroke="#575757" stroke-width="2" stroke-miterlimit="10"/>
<path d="M124.767 75.0697L112.405 58.7385" stroke="#575757" stroke-width="2" stroke-miterlimit="10"/>
<path d="M131.697 69.8236L119.335 53.4924" stroke="#575757" stroke-width="2" stroke-miterlimit="10"/>
<path d="M138.628 64.5775L126.266 48.2463" stroke="#575757" stroke-width="2" stroke-miterlimit="10"/>
<path d="M138.321 48.4403L108.206 71.2356" stroke="#575757" stroke-width="2" stroke-miterlimit="10"/>
<path d="M143.053 54.6918L112.938 77.4871" stroke="#575757" stroke-width="2" stroke-miterlimit="10"/>
<path d="M113.433 102.184C111.233 103.85 108.107 103.414 106.438 101.209L103.672 97.5551C103.535 97.3739 103.571 97.1089 103.752 96.972L111.075 91.4293C111.255 91.2924 111.52 91.3294 111.658 91.5106L114.423 95.1646C116.062 97.3919 115.603 100.542 113.433 102.184Z" fill="#1E1E1E" stroke="#575757" stroke-width="2" stroke-miterlimit="10"/>
<path d="M90.6046 86.1563L84.3074 91.1177L86.224 93.6246L92.5212 88.6632L90.6046 86.1563Z" fill="#0E0E0E" stroke="#575757" stroke-width="2" stroke-miterlimit="10"/>
<path d="M62.9433 122.491L50.5955 106.242L80.1429 82.7835L92.4907 99.0323L62.9433 122.491Z" fill="#0E0E0E" stroke="#575757" stroke-width="2" stroke-miterlimit="10"/>
<path d="M83.7494 106.361L71.3877 90.0295" stroke="#575757" stroke-width="2" stroke-miterlimit="10"/>
<path d="M76.8187 111.607L64.4569 95.2756" stroke="#575757" stroke-width="2" stroke-miterlimit="10"/>
<path d="M69.8882 116.853L57.5265 100.522" stroke="#575757" stroke-width="2" stroke-miterlimit="10"/>
<path d="M54.5474 112.295L84.2394 88.6205" stroke="#575757" stroke-width="2" stroke-miterlimit="10"/>
<path d="M59.2794 118.546L88.9714 94.8715" stroke="#575757" stroke-width="2" stroke-miterlimit="10"/>
<path d="M96.117 64.6554L81.9844 75.353L101.414 101.022L101.437 101.052C101.437 101.052 101.437 101.052 101.46 101.082C102.267 102.086 106.048 100.507 109.936 97.5641C113.823 94.6217 116.34 91.4342 115.623 90.3618C115.623 90.3618 115.623 90.3618 115.6 90.3316L115.577 90.3014L96.1472 64.6326L96.117 64.6554Z" fill="#0E0E0E" stroke="#575757" stroke-width="2" stroke-miterlimit="10"/>
<path d="M103.089 73.8662L108.484 80.9931L108.506 81.0233L108.529 81.0535C109.276 82.1031 106.73 85.3134 102.842 88.2558C98.955 91.1983 95.204 92.7551 94.3665 91.7739L94.3436 91.7437L94.3208 91.7135L88.9261 84.5867C89.7335 85.5906 93.5147 84.011 97.4019 81.0686C101.289 78.1262 103.813 74.8856 103.089 73.8662Z" fill="#1E1E1E" stroke="#575757" stroke-width="2" stroke-miterlimit="10"/>
<path d="M97.3669 52.3623C100.626 56.6245 97.1994 64.8705 89.7021 70.7763C82.2048 76.6822 73.4526 78.0302 70.1933 73.768C70.1736 73.7421 70.1538 73.7163 70.1341 73.6905C70.1143 73.6646 70.0748 73.613 70.0551 73.5871C69.0399 71.8619 74.1022 65.8873 81.473 60.0811C88.8437 54.275 95.822 50.8061 97.197 52.2064C97.2168 52.2323 97.2563 52.2839 97.276 52.3098C97.3077 52.2848 97.3274 52.3107 97.3669 52.3623Z" fill="#1E1E1E" stroke="#575757" stroke-width="2" stroke-miterlimit="10"/>
<path d="M96.7131 52.14L96.7324 52.1651C97.0891 52.69 96.794 53.7221 95.9556 55.0165C94.2674 57.6545 90.4413 61.5148 85.568 65.3075C80.6947 69.1002 75.9847 71.8831 73.0479 72.8446C71.5893 73.3378 70.5187 73.3686 70.0999 72.892L70.0805 72.867C70.0611 72.842 70.0418 72.8169 70.0224 72.7919C69.0261 71.1198 73.9932 65.3282 81.2256 59.6995C88.4579 54.0709 95.3055 50.7077 96.6549 52.0649C96.6743 52.09 96.6937 52.115 96.7131 52.14Z" fill="#1E1E1E" stroke="#575757" stroke-width="2" stroke-miterlimit="10"/>
<path d="M95.9965 55.2585L96.0158 55.2833C94.3368 57.8956 90.5318 61.7185 85.6851 65.4745C80.8385 69.2304 76.1541 71.9864 73.2334 72.9386L73.2142 72.9139C73.1949 72.8891 73.1756 72.8643 73.1756 72.8643C72.3273 71.4555 76.5803 66.4909 82.7543 61.7062C88.9593 56.8977 94.801 54.0394 95.958 55.2089C95.958 55.2089 95.9773 55.2337 95.9965 55.2585Z" fill="#0E0E0E" stroke="#575757" stroke-width="2" stroke-miterlimit="10"/>
<path d="M84.8829 61.2183C84.9771 61.4173 84.3981 62.1113 83.5747 62.7728C82.7169 63.4618 81.9237 63.8702 81.7737 63.6702L77.0693 56.0049L78.6818 54.7096L84.84 61.1612L84.8829 61.2183Z" fill="#0E0E0E" stroke="#575757" stroke-width="2" stroke-miterlimit="10"/>
<path d="M78.2285 55.6796C79.2374 54.8746 79.5447 53.5456 78.9147 52.7111C78.2847 51.8766 76.9561 51.8526 75.9472 52.6576C74.9382 53.4625 74.6309 54.7915 75.2609 55.626C75.8909 56.4605 77.2195 56.4845 78.2285 55.6796Z" fill="#0E0E0E" stroke="#575757" stroke-width="2" stroke-miterlimit="10"/>
<path d="M36.2208 32.2775C35.9844 33.8534 34.9601 36.9262 33.148 37.399C33.0692 37.399 32.9904 37.399 32.9116 37.4778C31.1782 37.7141 29.2084 36.5323 27.9477 35.6656C27.3174 35.1928 26.6871 34.6413 26.1355 34.0897C25.8992 33.8534 25.584 33.5382 25.3476 33.3018C23.5354 31.332 22.1172 28.8895 21.2505 26.2894C21.0929 25.7379 20.9353 25.1863 21.0141 24.6348C21.0141 24.4772 21.0929 24.3984 21.0929 24.3196C21.2505 23.9257 21.5657 23.5317 22.0384 23.4529C22.4324 23.3741 22.7475 23.5317 23.1415 23.6105C23.5354 23.7681 23.8506 23.9257 24.2446 24.1621C23.3779 23.1378 23.1415 21.4044 23.1415 20.1437C23.1415 20.0649 23.1415 19.9073 23.2203 19.9073C23.2991 19.8285 23.5354 19.9073 23.6142 19.9861C24.8749 20.9316 24.8749 22.665 25.4264 24.0833C25.4264 23.059 25.5052 22.0347 25.5052 21.0104C25.5052 20.3013 25.584 19.4346 26.1355 18.9618C26.2143 18.8831 26.2931 18.8831 26.3719 18.8831C26.5295 18.8831 26.6083 19.0406 26.6871 19.1194C27.6326 20.774 27.081 22.8226 27.2386 24.7136C27.3174 25.4227 27.3962 26.1318 27.5538 26.841C27.6326 27.1561 27.7902 27.8652 27.9477 28.5744C28.1053 28.8895 28.2629 29.2047 28.4993 29.5199C28.5781 29.6774 28.7357 29.835 28.8932 29.9138C29.1296 30.1502 29.4448 30.3866 29.7599 30.6229C30.3903 30.9381 31.0206 31.1745 31.7297 31.332C32.9904 31.5684 34.251 31.5684 35.5117 31.6472C35.7481 31.6472 35.9844 31.726 36.142 31.8836C36.2208 32.0412 36.2208 32.12 36.2208 32.2775Z" fill="#1E1E1E" stroke="#575757" stroke-width="2" stroke-miterlimit="10" stroke-linecap="round" stroke-linejoin="round"/>
<path d="M52.7665 58.3572C51.1119 58.3572 49.3785 57.8056 48.1178 57.0177C45.6753 55.4419 44.1782 53.0781 42.76 50.9508L45.5177 49.1386C46.7784 51.0296 48.039 53.0781 49.8512 54.1812C51.2695 55.1267 53.5544 55.4419 54.815 54.3388C56.3909 52.9206 55.9969 50.2417 55.3666 48.2719C54.5787 45.8294 53.0816 43.702 51.2694 42.3626L53.2392 39.7625C55.6818 41.5746 57.5727 44.2535 58.5182 47.3264C59.8577 51.5023 59.3849 54.8116 57.0212 56.8601C55.8393 57.8844 54.2635 58.3572 52.7665 58.3572Z" fill="#575757"/>
<path d="M56.155 32.1987C56.2338 33.3806 55.8399 34.5625 55.3671 35.7443C53.5549 40.4718 51.6639 45.1992 49.4578 49.7691C48.985 50.6358 48.5911 51.5813 48.1183 52.448C47.488 53.7087 46.7001 55.1269 45.2819 55.4421C44.1 55.6785 42.9969 55.1269 41.9726 54.5754C41.6575 54.4178 41.3423 54.1814 41.1847 53.8663C41.0271 53.5511 41.1059 53.1571 41.1847 52.842C42.1302 48.1145 43.9424 43.7022 45.7546 39.2111C46.6213 37.005 47.5668 34.72 48.2759 32.4351C48.8275 30.8593 49.2214 28.8107 51.27 28.6531C53.161 28.5743 55.9975 30.0714 56.155 32.1987Z" fill="#575757"/>
<path d="M34.1721 46.3021C34.1721 46.4596 34.1721 46.5384 34.1721 46.696C34.0933 47.7203 33.8569 48.6658 33.3054 49.5325C32.6751 50.478 31.7296 51.2659 30.6265 51.5023C30.3901 51.5811 30.1538 51.5811 29.9174 51.5811C28.8931 51.6599 27.8688 51.3447 26.9233 50.9507C25.7415 50.478 24.5596 49.9264 23.2201 49.8477C22.511 49.7689 21.8019 49.8477 21.0928 50.0052C20.6988 50.084 20.3837 50.2416 19.9897 50.3204C19.5957 50.478 19.2018 50.6356 18.8078 50.7932C17.4684 51.4235 16.1289 52.2902 14.7895 52.8417C13.6864 53.3145 12.347 53.5508 11.4015 52.8417C10.9287 52.5266 10.6924 51.975 10.456 51.5023C9.11653 48.981 7.93466 46.4596 6.7528 43.8595C6.67401 43.7807 6.59521 43.6232 6.59521 43.4656C6.59521 43.0716 7.06796 42.7565 7.38313 42.5989C7.46192 42.5201 7.54071 42.5201 7.6195 42.4413C8.4862 42.0473 9.27411 41.7322 10.2196 41.5746C11.2439 41.4958 12.347 41.6534 13.0561 42.3625C13.5288 42.8352 13.844 43.3868 14.1592 44.0171C14.4743 44.7262 14.8683 45.4354 15.1834 46.1445C16.1289 45.3566 17.0744 44.5687 18.0987 43.8595C18.4139 43.6232 18.729 43.4656 19.0442 43.308C19.5957 42.9928 20.2261 42.6777 20.8564 42.5201C21.8807 42.1261 22.9838 41.9685 24.0868 41.8898C24.6384 41.811 25.1899 41.7322 25.7415 41.811C26.3718 41.811 27.0021 41.9685 27.5536 42.0473C29.0507 42.3625 30.6265 42.6777 32.1235 42.9928L30.4689 42.8353C31.8084 43.1504 33.3842 43.6232 33.9357 44.8838C34.1721 45.2778 34.1721 45.8293 34.1721 46.3021Z" fill="#1E1E1E" stroke="#575757" stroke-width="2" stroke-miterlimit="10" stroke-linecap="round" stroke-linejoin="round"/>
<path d="M28.3414 42.5203C27.7899 44.6476 28.2626 46.9326 29.602 48.7448C29.6808 48.8236 29.7596 48.9811 29.9172 48.9024C29.996 48.9024 29.996 48.8236 30.0748 48.7448C30.3112 48.1932 30.39 47.5629 30.4687 47.0114C30.6263 45.6719 31.0991 43.5446 30.6263 42.2051C30.0748 40.9445 28.5778 41.496 28.3414 42.5203Z" fill="#575757"/>
<path d="M38.1115 27.3921C37.4812 28.2588 36.6933 28.9679 35.9842 29.7558C31.8082 34.2469 29.8385 40.4714 28.6566 46.5383C28.3414 48.1141 28.1839 49.8475 29.1294 51.0294C29.6021 51.5809 30.2324 51.9749 30.8628 52.2901C31.887 52.8416 32.8325 53.3931 33.8568 53.9447C35.0387 54.575 36.2993 55.2841 37.6388 55.3629C39.2146 55.4417 40.7904 54.6538 41.9723 53.5507C43.1542 52.4476 43.9421 51.0294 44.73 49.6112C46.6998 45.9868 48.512 42.2836 50.0878 38.5016C50.5605 37.3985 51.0333 36.2167 51.1909 35.0348C51.4272 33.3014 51.0333 31.568 50.7181 29.9134C50.6393 29.5194 50.5605 29.0467 50.2454 28.7315C49.8514 28.3376 49.2211 28.3376 48.7483 28.4164C45.2815 28.5739 41.7359 28.8891 38.4267 28.1012C37.7176 27.9436 36.9297 27.7072 36.5357 27.0769" fill="#1E1E1E"/>
<path d="M38.1115 27.3921C37.4812 28.2588 36.6933 28.9679 35.9842 29.7558C31.8082 34.2469 29.8385 40.4714 28.6566 46.5383C28.3414 48.1141 28.1839 49.8475 29.1294 51.0294C29.6021 51.5809 30.2324 51.9749 30.8628 52.2901C31.887 52.8416 32.8325 53.3931 33.8568 53.9447C35.0387 54.575 36.2993 55.2841 37.6388 55.3629C39.2146 55.4417 40.7904 54.6538 41.9723 53.5507C43.1542 52.4476 43.9421 51.0294 44.73 49.6112C46.6998 45.9868 48.512 42.2836 50.0878 38.5016C50.5605 37.3985 51.0333 36.2167 51.1909 35.0348C51.4272 33.3014 51.0333 31.568 50.7181 29.9134C50.6393 29.5194 50.5605 29.0467 50.2454 28.7315C49.8514 28.3376 49.2211 28.3376 48.7483 28.4164C45.2815 28.5739 41.7359 28.8891 38.4267 28.1012C37.7176 27.9436 36.9297 27.7072 36.5357 27.0769" stroke="#575757" stroke-width="2" stroke-miterlimit="10" stroke-linecap="round" stroke-linejoin="round"/>
<path d="M21.0929 50.084C20.699 50.1628 20.3838 50.3203 19.9899 50.3991C19.9111 49.2961 19.7535 48.0354 19.4383 46.8535C19.1232 45.8292 18.7292 44.8838 18.0989 43.9383C18.414 43.7019 18.7292 43.5443 19.0444 43.3867C19.6747 44.411 20.1474 45.4353 20.4626 46.5384C20.7778 47.7202 21.0141 48.9809 21.0929 50.084Z" fill="#575757"/>
<path d="M31.8079 48.5083C31.4927 49.2962 31.6503 48.2719 31.5715 49.2174C31.5715 50.0841 31.8079 50.9508 32.2807 51.7387C33.2261 53.0782 34.8808 53.8661 36.4566 54.4176C37.8748 54.8904 39.3719 55.1267 40.7901 54.4176C42.5235 53.5509 43.8629 51.5023 43.7054 49.5326C43.5478 46.9325 40.4749 45.593 38.19 45.3566C35.3535 45.0415 33.9353 46.0658 31.7291 47.7204V48.5083H31.8079Z" fill="#575757"/>
<path d="M53.7908 23.5314C53.7908 23.6102 53.712 23.7677 53.712 23.8465C53.3181 25.5799 52.8453 27.2346 52.6877 29.0467C52.6089 29.8347 52.7665 31.2529 51.9786 31.8044C51.3483 32.1984 50.2452 31.962 49.5361 31.962C47.3299 31.8044 45.2026 31.4105 42.9176 31.4105C42.7601 31.4105 42.6025 31.4105 42.3661 31.4105C41.5782 31.3317 40.8691 31.0165 40.2387 30.6226C39.372 30.2286 38.5841 29.7559 37.7174 29.4407C37.0083 29.2043 36.2204 29.0467 35.8264 28.4164C35.3537 27.7861 35.3537 26.9982 35.2749 26.2891C35.0385 23.9253 35.1173 21.404 35.7477 19.1191C36.1416 17.7008 36.9295 16.2826 38.1114 15.2583C40.7115 12.8946 44.8874 12.4218 48.1179 13.9976C50.4816 15.1795 52.5302 17.2281 53.4757 19.7494C53.8696 20.8525 54.0272 22.1919 53.7908 23.5314Z" fill="#1E1E1E" stroke="#575757" stroke-width="2" stroke-miterlimit="10" stroke-linecap="round" stroke-linejoin="round"/>
<path d="M53.7907 23.5315C53.7907 23.6103 53.7119 23.7679 53.7119 23.8466C53.3179 25.5801 52.8452 27.2347 52.6876 29.0469C52.6088 29.8348 52.7664 31.253 51.9785 31.8046C51.3482 32.1985 50.2451 31.9621 49.536 31.9621C47.3298 31.8046 45.2024 31.4106 42.9175 31.4106C42.7599 31.4106 42.6023 31.4106 42.366 31.4106C43.3115 31.0166 44.3357 31.0166 45.36 30.8591C48.5905 30.3075 51.4269 28.0226 52.6876 25.0285C53.0816 24.083 53.3179 23.0587 53.3967 22.0345C53.4755 21.2465 53.4755 20.4586 53.3179 19.7495C53.8695 20.8526 54.0271 22.192 53.7907 23.5315Z" fill="#1E1E1E" stroke="#575757" stroke-width="2" stroke-miterlimit="10" stroke-linecap="round" stroke-linejoin="round"/>
<path d="M46.6998 30.0716C45.8331 30.8595 44.8089 31.4111 43.7058 31.4111C41.8148 31.4111 39.845 31.0171 38.1116 30.1504C37.5601 29.8353 37.0873 29.5201 36.6146 29.2049C36.3782 28.9686 36.063 28.7322 35.9055 28.4958C35.3539 27.8655 35.0388 27.1564 34.8812 26.2897C34.4084 24.4775 34.7236 22.2713 35.3539 20.5379C36.063 18.7257 37.1661 18.0166 39.0571 17.9378C40.9481 17.7802 43.1542 18.4105 44.9664 19.2772C45.0452 19.356 45.124 19.356 45.2028 19.4348C45.9907 19.8288 46.6998 20.3015 47.2514 20.8531C49.9303 23.2956 49.2212 27.7079 46.6998 30.0716Z" fill="#1E1E1E" stroke="#575757" stroke-width="2" stroke-miterlimit="10" stroke-linecap="round" stroke-linejoin="round"/>
<path d="M42.5238 50.8722C42.5238 50.951 42.5238 50.951 42.5238 51.0298C42.5238 51.4238 42.445 51.7389 42.2874 52.0541C41.7359 53.5511 40.1601 54.4966 38.5843 54.9694C37.0084 55.4421 35.3538 55.5209 33.8568 55.9936C32.5961 56.3876 31.3355 56.9391 30.39 57.8058C30.1536 58.0422 29.9172 58.1998 29.7597 58.4362C29.7597 58.515 29.6809 58.515 29.6809 58.5938C27.9475 60.7211 27.4747 63.794 25.4261 65.685C25.2686 65.8425 25.111 65.9213 24.9534 66.0001C24.7958 66.0001 24.6382 65.9213 24.4807 65.9213C21.5654 64.6607 18.8865 63.0848 16.2076 61.4302C15.8136 61.1939 15.3409 60.8787 15.1045 60.4847C14.9469 60.1696 14.9469 59.8544 15.1045 59.5392C15.4985 58.3574 17.2319 56.9391 18.0198 56.624C18.8865 56.3088 19.9108 56.3876 20.7775 56.7028C21.6442 57.0179 22.5109 57.5695 23.22 58.121C23.3776 57.0179 23.6927 55.8361 24.1655 54.8118C24.3231 54.4966 24.4807 54.1815 24.6382 53.8663C24.7958 53.5511 25.0322 53.3147 25.1898 52.9996C25.6625 52.2905 26.2929 51.6601 26.9232 51.1086C27.7899 50.3207 28.7354 49.6116 29.6809 48.9812C31.0991 48.0357 32.5961 47.169 34.172 46.7751C34.4083 46.6963 34.6447 46.6963 34.8811 46.6175C36.4569 46.3023 38.1903 46.5387 39.6873 47.169C40.554 47.4842 41.342 48.0357 41.8935 48.7449C42.2874 49.2964 42.5238 50.0843 42.5238 50.8722Z" fill="#1E1E1E" stroke="#575757" stroke-width="2" stroke-miterlimit="10" stroke-linecap="round" stroke-linejoin="round"/>
<path d="M30.3115 57.8055C30.0751 58.0419 29.8387 58.1995 29.6811 58.4359C29.6811 58.5146 29.6024 58.5146 29.6024 58.5934C28.6569 57.4116 27.5538 56.4661 26.2931 55.757C25.7416 55.4418 25.1113 55.2054 24.4809 54.969C24.4021 54.8902 24.2446 54.8902 24.1658 54.8115C24.3234 54.4963 24.4809 54.1811 24.6385 53.866C24.7173 53.866 24.7961 53.9448 24.8749 53.9448C25.5052 54.1811 26.2143 54.4175 26.8447 54.8115C28.1053 55.5206 29.366 56.5449 30.3115 57.8055Z" fill="#575757"/>
<path d="M66.2398 37.2411C66.2398 37.3199 66.2398 37.4775 66.161 37.5563C65.9247 38.423 65.058 38.8958 64.1913 39.0533C63.9549 39.1321 63.6397 39.1321 63.4033 39.1321C62.773 39.2109 62.2215 39.2109 61.5911 39.3685C60.9608 39.5261 60.3305 39.92 59.7002 40.2352C59.0698 40.5504 58.3607 40.7867 57.7304 40.9443C57.3364 41.0231 56.9425 41.1019 56.5485 41.1807C54.8151 41.4171 53.0817 41.2595 51.4271 40.708C50.4028 40.3928 49.6149 39.5261 49.1422 38.423C48.433 36.6896 48.5906 34.4835 50.2452 33.4592C52.3726 32.1197 53.712 34.0107 55.4454 34.7986C55.7606 34.9562 56.0758 35.035 56.3909 35.1138C56.7849 35.1926 57.1788 35.1926 57.5728 35.1926C58.4395 35.1138 59.3062 34.8774 60.0941 34.4835C61.5124 33.7743 62.773 32.6713 64.0337 31.647C64.27 31.4894 64.5064 31.253 64.8216 31.3318C65.1367 31.4106 65.2943 31.8046 65.2943 32.1985V32.2773C65.2155 32.5925 65.058 32.9076 64.9792 33.2228C64.8216 34.641 66.3974 35.9017 66.2398 37.2411Z" fill="#1E1E1E" stroke="#575757" stroke-width="2" stroke-miterlimit="10" stroke-linecap="round" stroke-linejoin="round"/>
<path d="M65.6099 40.6295L59.7794 11.9495C59.7006 11.6343 59.937 11.398 60.1733 11.3192C60.4885 11.2404 60.7249 11.4767 60.8037 11.7131L66.6342 40.3931C66.713 40.7082 66.4766 40.9446 66.2402 41.0234C66.0039 41.1022 65.6887 40.8658 65.6099 40.6295Z" fill="#1E1E1E" stroke="#575757" stroke-width="2" stroke-miterlimit="10" stroke-linecap="round" stroke-linejoin="round"/>
<path d="M66.1616 37.5562C65.9253 38.4229 65.0586 38.8956 64.1919 39.0532C63.9555 39.132 63.6403 39.132 63.404 39.132C63.404 39.0532 63.3252 38.9744 63.3252 38.8956C63.1676 38.5805 63.2464 38.1865 63.5615 37.9501C63.3252 37.8713 63.0888 37.7925 63.01 37.5562C62.8524 37.1622 63.01 36.6895 63.404 36.5319L63.6403 36.4531C63.5615 36.4531 63.4828 36.4531 63.4828 36.4531C63.1676 36.4531 62.9312 36.2955 62.7736 35.9803C62.6161 35.5864 62.7736 35.1924 63.0888 34.9561C62.9312 34.8773 62.6948 34.7197 62.6161 34.5621C62.4585 34.1682 62.6161 33.6954 63.01 33.5378L65.5313 32.356C65.4525 32.6711 65.2949 32.9863 65.2162 33.3014C64.8222 34.7197 66.6344 36.0591 66.1616 37.5562Z" fill="#1E1E1E" stroke="#575757" stroke-width="2" stroke-miterlimit="10" stroke-linecap="round" stroke-linejoin="round"/>
<path d="M67.4217 36.7685C67.3429 36.5321 67.1066 36.3745 66.8702 36.3745L67.1066 36.2958C67.5005 36.1382 67.6581 35.6654 67.5005 35.2715C67.3429 34.9563 66.949 34.7987 66.6338 34.8775L66.7914 34.7987C67.1853 34.6411 67.3429 34.1684 67.1853 33.7744C67.1066 33.5381 66.949 33.4593 66.7126 33.3805C67.0278 33.1441 67.1853 32.7502 67.0278 32.3562C66.8702 31.9622 66.3974 31.8047 66.0035 31.9622L63.3246 33.2229C62.9306 33.3805 62.773 33.8532 62.9306 34.2472C63.0094 34.4836 63.167 34.5623 63.4034 34.6411C63.0882 34.8775 62.9306 35.2715 63.0882 35.6654C63.2458 35.9806 63.6397 36.1382 63.9549 36.0594L63.7185 36.1382C63.3246 36.2958 63.167 36.7685 63.3246 37.1625C63.4034 37.3988 63.6397 37.5564 63.8761 37.5564C63.561 37.7928 63.4822 38.1867 63.6397 38.5019C63.7973 38.8959 64.2701 39.0534 64.664 38.8959L67.0278 37.7928C67.4217 37.6352 67.5793 37.2412 67.4217 36.7685Z" fill="#1E1E1E" stroke="#575757" stroke-width="2" stroke-miterlimit="10" stroke-linecap="round" stroke-linejoin="round"/>
<path opacity="0.4" d="M43.7846 22.4287C43.4695 22.9014 42.8391 23.059 42.3664 22.8226C42.2088 22.7438 41.9724 22.665 41.8149 22.5862C39.6087 21.7195 37.245 22.2711 36.6146 23.9257C36.4571 24.3196 35.9055 24.2408 35.9055 23.8469C35.8267 23.2954 35.9055 22.665 36.1419 22.1135C36.9298 19.9861 39.5299 19.0406 41.9724 19.9861C42.6028 20.2225 43.1543 20.6165 43.6271 21.0104C44.021 21.4044 44.021 21.9559 43.7846 22.4287Z" fill="#575757"/>
<path opacity="0.4" d="M36.2206 34.4835C37.7964 35.2714 41.0268 36.2956 42.9966 36.4532C43.3906 36.532 43.5481 36.8472 43.4693 37.2411C42.1299 40.3928 41.0268 43.5444 40.6329 44.7263C40.5541 45.0415 40.2389 45.199 40.0025 45.1203C38.5843 44.7263 34.6447 43.6232 33.0689 42.9929C32.7538 42.9141 32.675 42.5989 32.7538 42.2838C34.0932 38.9745 35.0387 36.0593 35.4327 34.7986C35.5902 34.4835 35.9842 34.3259 36.2206 34.4835Z" fill="#575757"/>
<path d="M57.8097 40.8655C57.4158 40.9443 57.0218 41.0231 56.6278 41.1019C55.9975 40.1564 55.6036 38.8957 55.6824 37.6351C55.7611 36.926 55.9975 35.9017 56.4703 35.1138C56.8642 35.1926 57.2582 35.1926 57.6521 35.1926C57.1794 35.9017 56.7854 36.926 56.7066 37.7139C56.6278 38.8957 57.1006 40.1564 57.8097 40.8655Z" fill="#575757"/>
<path d="M29.8387 30.6228C28.4204 31.5683 27.1598 32.7501 26.0567 34.0896C25.8203 33.8532 25.5052 33.538 25.2688 33.3017C26.2931 32.041 27.5537 30.9379 28.8932 29.9924L29.8387 30.6228Z" fill="#575757"/>
<path d="M81.053 22.2708C73.6466 19.8283 70.5738 29.1257 63.0098 25.1861L60.3309 12.1068C68.5252 15.5736 71.6769 7.69449 78.3741 9.19152L81.053 22.2708Z" fill="#1E1E1E" stroke="#575757" stroke-width="2" stroke-miterlimit="10" stroke-linecap="round" stroke-linejoin="round"/>
</svg>
