<?xml version="1.0" encoding="UTF-8" standalone="no"?>
<!-- Generator: Adobe Illustrator 22.1.0, SVG Export Plug-In . SVG Version: 6.00 Build 0)  -->

<svg
   xmlns:dc="http://purl.org/dc/elements/1.1/"
   xmlns:cc="http://creativecommons.org/ns#"
   xmlns:rdf="http://www.w3.org/1999/02/22-rdf-syntax-ns#"
   xmlns:svg="http://www.w3.org/2000/svg"
   xmlns="http://www.w3.org/2000/svg"
   xmlns:sodipodi="http://sodipodi.sourceforge.net/DTD/sodipodi-0.dtd"
   xmlns:inkscape="http://www.inkscape.org/namespaces/inkscape"
   version="1.1"
   id="Layer_1"
   x="0px"
   y="0px"
   viewBox="0 0 20 20"
   xml:space="preserve"
   width="20"
   height="20"
   sodipodi:docname="github.svg"
   inkscape:version="0.92.3 (2405546, 2018-03-11)"><metadata
   id="metadata13"><rdf:RDF><cc:Work
       rdf:about=""><dc:format>image/svg+xml</dc:format><dc:type
         rdf:resource="http://purl.org/dc/dcmitype/StillImage" /></cc:Work></rdf:RDF></metadata><defs
   id="defs11" /><sodipodi:namedview
   pagecolor="#ffffff"
   bordercolor="#666666"
   borderopacity="1"
   objecttolerance="10"
   gridtolerance="10"
   guidetolerance="10"
   inkscape:pageopacity="0"
   inkscape:pageshadow="2"
   inkscape:window-width="1600"
   inkscape:window-height="847"
   id="namedview9"
   showgrid="false"
   inkscape:zoom="16.342125"
   inkscape:cx="-6.175781"
   inkscape:cy="11.228523"
   inkscape:window-x="-8"
   inkscape:window-y="-8"
   inkscape:window-maximized="1"
   inkscape:current-layer="Layer_1" />
<style
   type="text/css"
   id="style2">
	.st0{opacity:0.3;enable-background:new    ;}
</style>
<circle
   class="st0"
   cx="10"
   cy="10"
   r="10"
   id="circle4"
   style="opacity:0.3;enable-background:new" />
<path
   d="M 8.9,0.1 C 4.3,0.6 0.6,4.3 0.1,8.8 -0.4,13.5 2.3,17.7 6.4,19.3 6.7,19.4 7,19.2 7,18.8 v -1.6 c 0,0 -0.4,0.1 -0.9,0.1 C 4.7,17.3 4.1,16.1 4,15.4 3.9,15 3.7,14.7 3.4,14.4 3.1,14.3 3,14.3 3,14.2 3,14 3.3,14 3.4,14 4,14 4.5,14.7 4.7,15 5.2,15.8 5.8,16 6.1,16 6.5,16 6.8,15.9 7,15.8 7.1,15.1 7.4,14.4 8,14 5.7,13.5 4,12.2 4,10 4,8.9 4.5,7.8 5.2,7 5.1,6.8 5,6.3 5,5.6 5,5.2 5,4.6 5.3,4 5.3,4 6.7,4 8.1,5.3 8.6,5.1 9.3,5 10,5 10.7,5 11.4,5.1 12,5.3 13.3,4 14.8,4 14.8,4 15,4.6 15,5.2 15,5.6 15,6.4 14.9,6.8 14.8,7 c 0.7,0.8 1.2,1.8 1.2,3 0,2.2 -1.7,3.5 -4,4 0.6,0.5 1,1.4 1,2.3 v 2.6 c 0,0.3 0.3,0.6 0.7,0.5 3.7,-1.5 6.3,-5.1 6.3,-9.3 0,-6 -5.1,-10.7 -11.1,-10 z"
   id="path6"
   inkscape:connector-curvature="0"
   style="fill:#fff" />
</svg>