<?xml version="1.0"?>
<svg xmlns="http://www.w3.org/2000/svg" xmlns:xlink="http://www.w3.org/1999/xlink" version="1.1" id="Capa_1" x="0px" y="0px" viewBox="0 0 612.001 612.001" style="enable-background:new 0 0 612.001 612.001;" xml:space="preserve" width="512px" height="512px" class=""><g><g>
	<path d="M64.601,236.822c0,157.434,128.185,375.178,241.4,375.178c106.581,0,241.399-217.744,241.399-375.178S439.322,0,306,0   S64.601,79.388,64.601,236.822z M368.721,353.237c29.475-29.475,70.598-40.195,108.552-32.173   c8.021,37.954-2.698,79.077-32.173,108.552c-29.475,29.475-70.598,40.195-108.552,32.173   C328.526,423.834,339.246,382.711,368.721,353.237z M134.727,321.063c37.954-8.021,79.077,2.698,108.552,32.173   c29.475,29.475,40.195,70.598,32.173,108.552c-37.954,8.021-79.077-2.698-108.552-32.173   C137.425,400.139,126.706,359.017,134.727,321.063z" data-original="#000000" class="active-path" data-old_color="#000000" fill="#51FF0D"/>
</g></g> </svg>
