<?xml version="1.0" encoding="UTF-8" standalone="no"?>
<svg
   xmlns:dc="http://purl.org/dc/elements/1.1/"
   xmlns:cc="http://creativecommons.org/ns#"
   xmlns:rdf="http://www.w3.org/1999/02/22-rdf-syntax-ns#"
   xmlns:svg="http://www.w3.org/2000/svg"
   xmlns="http://www.w3.org/2000/svg"
   xmlns:sodipodi="http://sodipodi.sourceforge.net/DTD/sodipodi-0.dtd"
   xmlns:inkscape="http://www.inkscape.org/namespaces/inkscape"
   version="1.1"
   id="Capa_1"
   x="0px"
   y="0px"
   viewBox="0 0 612.001 612.001"
   style="enable-background:new 0 0 612.001 612.001;"
   xml:space="preserve"
   width="512px"
   height="512px"
   class=""
   sodipodi:docname="logo.svg"
   inkscape:version="0.92.4 (f8dce91, 2019-08-02)"><metadata
   id="metadata13"><rdf:RDF><cc:Work
       rdf:about=""><dc:format>image/svg+xml</dc:format><dc:type
         rdf:resource="http://purl.org/dc/dcmitype/StillImage" /><dc:title></dc:title></cc:Work></rdf:RDF></metadata><defs
   id="defs11" /><sodipodi:namedview
   pagecolor="#ffffff"
   bordercolor="#666666"
   borderopacity="1"
   objecttolerance="10"
   gridtolerance="10"
   guidetolerance="10"
   inkscape:pageopacity="0"
   inkscape:pageshadow="2"
   inkscape:window-width="1533"
   inkscape:window-height="845"
   id="namedview9"
   showgrid="false"
   inkscape:zoom="0.921875"
   inkscape:cx="380.48543"
   inkscape:cy="276.92414"
   inkscape:window-x="67"
   inkscape:window-y="27"
   inkscape:window-maximized="1"
   inkscape:current-layer="Capa_1" /> <g
   id="g3826"
   transform="translate(-516.40798,-163.88978)"><circle
     transform="scale(1,-1)"
     style="stroke-width:1.19531453"
     r="178.70923"
     cy="-501.55591"
     cx="822.40845"
     id="circle3814" /><g
     id="g3820"
     transform="translate(516.40798,163.89028)"><g
       id="g3818"><path
         id="path3816"
         data-old_color="#121212"
         class="active-path"
         data-original="#121212"
         d="M 64.601,236.822 C 64.601,394.256 192.786,612 306.001,612 412.582,612 547.4,394.256 547.4,236.822 547.4,79.388 439.322,0 306,0 172.678,0 64.601,79.388 64.601,236.822 Z m 304.12,116.415 c 29.475,-29.475 70.598,-40.195 108.552,-32.173 8.021,37.954 -2.698,79.077 -32.173,108.552 -29.475,29.475 -70.598,40.195 -108.552,32.173 -8.022,-37.955 2.698,-79.078 32.173,-108.552 z M 134.727,321.063 c 37.954,-8.021 79.077,2.698 108.552,32.173 29.475,29.475 40.195,70.598 32.173,108.552 -37.954,8.021 -79.077,-2.698 -108.552,-32.173 -29.475,-29.476 -40.194,-70.598 -32.173,-108.552 z"
         inkscape:connector-curvature="0"
         style="fill:#51ff0d" /></g></g></g></svg>