<svg width="198" height="172" xmlns="http://www.w3.org/2000/svg">
  <path fill="none" d="M-1-1h200v174H-1z"/>
  <g>
    <path fill="#f02e65" d="M197.289 88c0 35.899-29.101 65-65 65-16.675 0-31.883-6.279-43.389-16.601 18.433-8.298 31.266-26.827 31.266-48.353 0-21.553-12.865-40.101-31.335-48.384C100.346 29.304 115.581 23 132.289 23c35.899 0 65 29.101 65 65z"/>
    <path fill="#f02e65" d="M106.306 36.116a65 65 0 10-78.307 103.769 65 65 0 1078.307-103.77v.001zm-7.229 9.578a53 53 0 01-63.85 84.612 53 53 0 0163.85-84.612z"/>
    <path fill="#f02e65" d="M68.894 65.511c-.078.192-1.072 4.095-2.142 8.725-1.111 4.63-2.871 11.938-3.864 16.262-1.915 7.92-3.063 13.124-3.063 13.813 0 .19 1.187.345 2.64.345h2.641l1.185-5.282c.69-2.869 2.221-9.451 3.445-14.616 1.225-5.166 2.716-11.441 3.291-13.967.573-2.526 1.147-4.82 1.263-5.088.115-.344-.537-.458-2.526-.458-1.493 0-2.795.114-2.87.266zM48.345 82.079l-3.52 3.827 1.034 1.224c.572.688 2.143 2.411 3.482 3.827l2.449 2.601h6.964l-3.29-3.559c-1.8-1.911-3.292-3.749-3.292-3.978 0-.268 1.378-1.989 3.062-3.826 1.683-1.874 3.061-3.483 3.061-3.674 0-.153-1.454-.268-3.214-.268h-3.176l-3.56 3.826zm26.785-3.597c0 .116.651.842 1.453 1.646 2.987 2.984 5.091 5.511 4.976 6.007-.076.269-1.531 2.066-3.29 3.941l-3.175 3.482h3.557l3.559-.038 3.251-3.558c1.8-1.988 3.253-3.751 3.253-3.98 0-.19-1.53-1.989-3.444-4.016l-3.442-3.713h-3.331c-1.875 0-3.367.115-3.367.229z"/>
  </g>
</svg>
