<svg width="770" height="223" viewBox="0 0 770 223" fill="none" xmlns="http://www.w3.org/2000/svg">
<g clip-path="url(#clip0)">
<path d="M111.14 0C172.52 0 222.279 49.7054 222.279 111.02C222.279 172.335 172.52 222.04 111.14 222.04C49.7589 222.04 0 172.335 0 111.02C0 49.7054 49.7589 0 111.14 0Z" fill="#EF39A8"/>
<path d="M111.404 21.6757C161.093 21.6757 201.374 61.9133 201.374 111.549C201.374 161.185 161.093 201.422 111.404 201.422C61.715 201.422 21.4338 161.185 21.4338 111.549C21.4338 61.9133 61.715 21.6757 111.404 21.6757Z" fill="#BD399C"/>
<path d="M111.404 45.4653C147.94 45.4653 177.558 75.0514 177.558 111.549C177.558 148.046 147.94 177.632 111.404 177.632C74.868 177.632 45.25 148.046 45.25 111.549C45.25 75.0514 74.868 45.4653 111.404 45.4653Z" fill="#93388E"/>
<path d="M110.874 65.5554C135.718 65.5554 155.859 85.6738 155.859 110.492C155.859 135.309 135.718 155.428 110.874 155.428C86.0303 155.428 65.8894 135.309 65.8894 110.492C65.8894 85.6738 86.0303 65.5554 110.874 65.5554Z" fill="#6030A2"/>
<path d="M339 170.836H388.915C411.919 170.836 429.28 164.994 440.782 153.091C452.501 141.189 458.361 127.339 458.361 111.108C458.361 94.8779 452.501 80.8116 440.782 68.9093C429.28 57.007 411.919 51.1641 388.915 51.1641H339V170.836ZM435.574 111.108C435.574 122.794 431.667 132.749 423.855 140.972C416.259 148.979 404.54 153.091 388.915 153.091H361.136V68.9093H388.915C404.54 68.9093 416.259 73.021 423.855 81.0279C431.667 89.2514 435.574 99.206 435.574 111.108ZM476.156 121.496C476.156 151.576 495.254 173 528.458 173C550.594 173 568.389 162.396 576.202 142.487H551.679C546.253 150.927 538.657 155.255 528.458 155.255C511.53 155.255 500.68 144.435 498.726 127.555H577.938V121.496C577.938 91.8482 557.972 69.9913 527.156 69.9913C496.122 69.9913 476.156 91.199 476.156 121.496ZM555.151 113.272H498.943C501.331 98.3404 510.879 87.7365 527.156 87.7365C542.999 87.7365 552.764 98.124 555.151 113.272ZM628.504 134.264V88.3857H653.461V72.1553H628.504V49H606.802V72.1553H590.742V88.3857H606.802V134.264C606.802 148.763 609.84 158.501 616.134 163.695C622.427 168.888 631.325 171.485 642.827 171.485C646.517 171.485 649.771 171.269 652.593 170.62L656.716 169.754V152.658L652.593 153.091C649.771 153.524 646.517 153.74 642.827 153.74C631.108 153.74 628.504 147.681 628.504 134.264ZM721.605 70.6405C707.065 70.6405 695.78 73.6702 687.967 79.946C679.938 86.2217 676.031 93.7959 676.031 102.669H698.167C698.167 92.2811 709.886 88.3857 721.605 88.3857C736.362 88.3857 745.477 93.5794 745.477 107.213V113.272H718.784C692.525 113.272 672.125 119.981 672.125 142.054C672.125 162.396 687.75 173 710.972 173C725.945 173 736.579 169.321 742.873 161.963L745.912 158.285C745.912 162.396 747.647 168.672 748.298 170.836H770V169.105L768.481 164.344C767.613 161.098 767.179 156.121 767.179 149.196V111.108C767.179 82.11 750.686 70.6405 721.605 70.6405ZM745.477 127.771C745.477 147.464 735.495 157.635 716.614 157.635C704.244 157.635 694.26 153.524 694.26 143.136C694.26 131.234 705.112 127.771 718.784 127.555L745.477 127.771Z" fill="black"/>
</g>
<defs>
<clipPath id="clip0">
<rect width="770" height="222.04" fill="white"/>
</clipPath>
</defs>
</svg>
