<svg width="145" height="120" viewBox="0 0 145 120" fill="none" xmlns="http://www.w3.org/2000/svg">
<path d="M130.648 59.7265C130.648 72.9542 126.219 85.3837 118.837 95.1904C114.748 100.55 109.865 105.225 104.187 108.874C95.1014 114.918 84.0855 118.339 72.3882 118.339C40.249 118.453 14.1288 92.2256 14.1288 59.7265C14.1288 27.3414 40.1355 1 72.3882 1C84.0855 1 94.9879 4.42096 104.187 10.4647C109.865 14.1137 114.748 18.789 118.837 24.1485C126.219 34.0693 130.648 46.3847 130.648 59.7265Z" fill="#1A1A1A" stroke="#3E3E3E" stroke-width="2" stroke-miterlimit="10"/>
<path d="M28.0197 51.8744H27.3164C26.7889 51.8744 26.4372 51.7103 26.4372 51.4641C26.4372 51.2179 26.7889 51.0538 27.3164 51.0538H28.0197C28.5472 51.0538 28.8989 51.2179 28.8989 51.4641C28.8989 51.7103 28.5472 51.8744 28.0197 51.8744Z" fill="#777777"/>
<path d="M28.0197 55.1566H27.3164C26.7889 55.1566 26.4372 54.9925 26.4372 54.7463C26.4372 54.5002 26.7889 54.3361 27.3164 54.3361H28.0197C28.5472 54.3361 28.8989 54.5002 28.8989 54.7463C28.8989 54.9925 28.5472 55.1566 28.0197 55.1566Z" fill="#777777"/>
<path d="M28.0197 58.4388H27.3164C26.7889 58.4388 26.4372 58.2747 26.4372 58.0286C26.4372 57.7824 26.7889 57.6183 27.3164 57.6183H28.0197C28.5472 57.6183 28.8989 57.7824 28.8989 58.0286C28.8989 58.2747 28.5472 58.4388 28.0197 58.4388Z" fill="#777777"/>
<path d="M28.0197 61.7211H27.3164C26.7889 61.7211 26.4372 61.557 26.4372 61.3108C26.4372 61.0646 26.7889 60.9005 27.3164 60.9005H28.0197C28.5472 60.9005 28.8989 61.0646 28.8989 61.3108C28.8989 61.557 28.5472 61.7211 28.0197 61.7211Z" fill="#777777"/>
<path d="M60.119 51.8744H48.5531C48.0842 51.8744 47.7716 51.7103 47.7716 51.4641C47.7716 51.2179 48.0842 51.0538 48.5531 51.0538H60.119C60.5879 51.0538 60.9005 51.2179 60.9005 51.4641C60.9005 51.7103 60.5879 51.8744 60.119 51.8744Z" fill="white"/>
<path d="M84.7622 61.7211H48.5265C48.0736 61.7211 47.7716 61.557 47.7716 61.3108C47.7716 61.0646 48.0736 60.9005 48.5265 60.9005H84.7622C85.2152 60.9005 85.5171 61.0646 85.5171 61.3108C85.5171 61.557 85.2152 61.7211 84.7622 61.7211Z" fill="url(#paint0_linear_595_1292)"/>
<path d="M60.1641 55.1566H44.4052C43.9634 55.1566 43.6688 54.9925 43.6688 54.7463C43.6688 54.5002 43.9634 54.3361 44.4052 54.3361H60.1641C60.6059 54.3361 60.9005 54.5002 60.9005 54.7463C60.9005 54.9925 60.6059 55.1566 60.1641 55.1566Z" fill="#777777"/>
<path d="M72.474 58.4388H44.4036C43.9628 58.4388 43.6688 58.2747 43.6688 58.0286C43.6688 57.7824 43.9628 57.6183 44.4036 57.6183H72.474C72.9149 57.6183 73.2088 57.7824 73.2088 58.0286C73.0618 58.2747 72.7679 58.4388 72.474 58.4388Z" fill="#777777"/>
<path d="M84.7179 58.4388H74.008C73.5285 58.4388 73.2088 58.2747 73.2088 58.0286C73.2088 57.7824 73.5285 57.6183 74.008 57.6183H84.7179C85.1974 57.6183 85.5171 57.7824 85.5171 58.0286C85.5171 58.2747 85.1974 58.4388 84.7179 58.4388Z" fill="white"/>
<path d="M91.3054 58.4388H87.1139C86.6482 58.4388 86.3377 58.2747 86.3377 58.0286C86.3377 57.7824 86.6482 57.6183 87.1139 57.6183H91.3054C91.7711 57.6183 92.0816 57.7824 92.0816 58.0286C92.0816 58.2747 91.7711 58.4388 91.3054 58.4388Z" fill="url(#paint1_linear_595_1292)"/>
<path d="M1 103.569H138.853" stroke="#3E3E3E" stroke-width="2" stroke-miterlimit="10" stroke-linecap="round" stroke-linejoin="round"/>
<path d="M97.8254 51.0538V103.569H23.3714C20.4344 103.569 18.2316 101.209 18.2316 98.4063V51.0538H97.8254Z" fill="#1A1A1A" stroke="#3E3E3E" stroke-width="1.5905" stroke-miterlimit="10" stroke-linejoin="round"/>
<path d="M127.365 51.0538V98.4063C127.365 101.357 124.916 103.569 122.008 103.569H97.8254V51.0538H127.365Z" fill="#E7E7E7"/>
<path d="M127.365 51.0538V98.4063C127.365 101.357 124.916 103.569 122.008 103.569H97.8254V51.0538H127.365Z" fill="#1A1A1A" stroke="#3E3E3E" stroke-width="2" stroke-miterlimit="10"/>
<path d="M46.951 51.0538L62.6072 26.4372H142.956L126.857 51.0538H46.951Z" fill="#D9D9D9"/>
<path d="M46.951 51.0538L62.6072 26.4372H142.956L126.857 51.0538H46.951Z" fill="#1A1A1A" stroke="#3E3E3E" stroke-width="2" stroke-miterlimit="10"/>
<path opacity="0.3" d="M127.365 51.1976V78.9527H105.826C103.826 78.9527 102.441 77.6584 102.133 75.7889L97.8254 51.0538L127.365 51.1976Z" fill="url(#paint2_linear_595_1292)"/>
<path d="M126.746 51.0538H97.8254L112.511 73.312C113.56 74.786 115.208 75.6705 116.856 75.6705H139.334C140.832 75.6705 141.881 73.9016 140.982 72.7224L126.746 51.0538Z" fill="#1A1A1A" stroke="#3E3E3E" stroke-width="1.5905" stroke-miterlimit="10" stroke-linejoin="round"/>
<path d="M97.8254 51.0538L82.0597 26.4372H1L17.3607 51.0538H97.8254Z" fill="#1A1A1A" stroke="#3E3E3E" stroke-width="1.5905" stroke-miterlimit="10" stroke-linejoin="round"/>
<path d="M57.9543 81.4144H26.9217C26.1967 81.4144 25.6166 80.8673 25.6166 80.1835C25.6166 79.4997 26.1967 78.9527 26.9217 78.9527H57.9543C58.6793 78.9527 59.2594 79.4997 59.2594 80.1835C59.1144 80.8673 58.6793 81.4144 57.9543 81.4144Z" fill="#3E3E3E"/>
<path d="M57.9543 87.1583H26.9217C26.1967 87.1583 25.6166 86.7936 25.6166 86.3377C25.6166 85.8818 26.1967 85.5172 26.9217 85.5172H57.9543C58.6793 85.5172 59.2594 85.8818 59.2594 86.3377C59.1144 86.7936 58.6793 87.1583 57.9543 87.1583Z" fill="#3E3E3E"/>
<path d="M41.5228 93.7227H26.9422C26.2058 93.7227 25.6166 93.358 25.6166 92.9021C25.6166 92.4462 26.2058 92.0815 26.9422 92.0815H41.5228C42.2592 92.0815 42.8483 92.4462 42.8483 92.9021C42.701 93.358 42.1119 93.7227 41.5228 93.7227Z" fill="#3E3E3E"/>
<defs>
<linearGradient id="paint0_linear_595_1292" x1="47.9412" y1="61.3274" x2="85.5609" y2="61.3274" gradientUnits="userSpaceOnUse">
<stop stop-color="#A2A2A2"/>
<stop offset="1" stop-color="#252525"/>
</linearGradient>
<linearGradient id="paint1_linear_595_1292" x1="86.3761" y1="58.0035" x2="92.0805" y2="58.0035" gradientUnits="userSpaceOnUse">
<stop stop-color="#9A9A9A"/>
<stop offset="1" stop-color="#545454"/>
</linearGradient>
<linearGradient id="paint2_linear_595_1292" x1="112.602" y1="79.5253" x2="112.602" y2="54.1128" gradientUnits="userSpaceOnUse">
<stop offset="0.00289017" stop-opacity="0"/>
<stop offset="1"/>
</linearGradient>
</defs>
</svg>
