<svg width="123" height="126" viewBox="0 0 123 126" fill="none" xmlns="http://www.w3.org/2000/svg">
<path d="M64.4237 111.867C91.7974 111.867 113.99 89.6745 113.99 62.2031C113.99 34.7317 91.6996 12.5396 64.4237 12.5396C37.0501 12.5396 14.8579 34.7317 14.8579 62.2031C14.8579 89.6745 37.0501 111.867 64.4237 111.867Z" fill="#1f1f1f" stroke="#3c3c3c" stroke-width="2" stroke-miterlimit="10"/>
<path d="M93.6338 12.5396C83.2422 33.022 67.9889 41.1703 54.0085 46.0363C50.764 47.1812 47.2331 48.183 43.8931 47.3243C40.5531 46.4656 37.6425 43.0785 38.5491 39.7392C39.3602 36.6383 43.3682 35.1117 46.2788 36.3521C49.2371 37.5924 50.8594 41.0272 50.5731 44.2235C50.2868 47.4197 48.3305 50.2343 45.8494 52.1903C43.3205 54.1462 40.3145 55.3388 37.2608 56.2452C30.533 58.2488 23.519 59.2029 16.9821 61.7313C10.3976 64.2597 4.14697 68.7917 1.9044 75.4227C0.282106 80.1456 0.950108 85.4886 3.04954 89.9729C5.14898 94.4572 8.72756 98.2259 12.7356 101.231C18.8907 105.811 26.4773 108.673 34.1116 108.483C41.7459 108.292 49.4757 104.952 54.1994 98.9415C58.9231 92.9306 60.3068 84.2005 56.9668 77.2833C54.6765 72.5127 49.4757 68.6009 44.2748 69.7458C40.1714 70.6999 37.1653 74.7072 36.7359 78.9529C36.3065 83.1987 38.1673 87.3968 40.9348 90.5453C43.7022 93.7416 47.3762 95.9837 51.1934 97.9397C56.776 100.754 63.3606 102.901 69.134 100.516C74.6212 98.2736 77.818 92.5967 79.9175 87.1106C82.0169 81.6244 83.5915 75.6613 87.4086 71.1293C91.9892 65.6909 99.7189 63.1625 106.638 64.7845C113.556 66.4064 119.377 72.1311 121.095 79.0006C122.431 84.3436 120.809 91.0224 115.799 93.36C111.886 95.2205 107.067 93.8847 103.679 91.2132C100.292 88.5417 98.0012 84.7253 95.8064 81.0043" stroke="#3c3c3c" stroke-width="2" stroke-miterlimit="10" stroke-dasharray="4 4"/>
<path d="M55.1784 35.3718C63.5321 38.1997 72.5966 33.7202 75.4245 25.3665C78.2524 17.0128 73.7729 7.94831 65.4192 5.1204C57.0655 2.29248 48.001 6.77201 45.1731 15.1257C42.3451 23.4794 46.8247 32.5439 55.1784 35.3718Z" fill="#1f1f1f" stroke="#737373" stroke-width="2" stroke-miterlimit="10" stroke-linecap="round" stroke-linejoin="round"/>
<path d="M56.1375 32.5372C62.9259 34.8352 70.2919 31.1951 72.5899 24.4067C74.8879 17.6184 71.2478 10.2524 64.4594 7.95438C57.671 5.65637 50.3051 9.29651 48.007 16.0849C45.709 22.8732 49.3492 30.2392 56.1375 32.5372Z" fill="#1f1f1f"/>
<path d="M59.7561 21.8493C60.6415 22.149 61.6023 21.6742 61.902 20.7888C62.2018 19.9033 61.7269 18.9426 60.8415 18.6428C59.9561 18.3431 58.9953 18.8179 58.6956 19.7033C58.3958 20.5888 58.8706 21.5495 59.7561 21.8493Z" fill="#1f1f1f" stroke="#737373" stroke-width="2" stroke-miterlimit="10" stroke-linejoin="round"/>
<path d="M63.0122 12.23L60.6604 19.1773" stroke="#737373" stroke-width="2" stroke-miterlimit="10" stroke-linejoin="round"/>
<path d="M62.083 20.2544L66.1857 20.4519" stroke="#737373" stroke-width="2" stroke-miterlimit="10" stroke-linejoin="round"/>
<path d="M64.0744 10.7699C64.3349 10.6457 64.433 10.3214 64.2934 10.0454C64.1538 9.76951 63.8294 9.64651 63.5689 9.77072C63.3084 9.89492 63.2103 10.2193 63.3499 10.4952C63.4895 10.7711 63.8139 10.8941 64.0744 10.7699Z" fill="#1f1f1f" stroke="#3c3c3c" stroke-width="2" stroke-miterlimit="10" stroke-linejoin="round"/>
<path d="M57.3166 30.7045C57.5771 30.5803 57.6752 30.2559 57.5356 29.98C57.396 29.7041 57.0716 29.5811 56.8111 29.7053C56.5506 29.8295 56.4525 30.1539 56.5921 30.4298C56.7317 30.7057 57.0561 30.8287 57.3166 30.7045Z" fill="#1f1f1f" stroke="#3c3c3c" stroke-width="2" stroke-miterlimit="10" stroke-linejoin="round"/>
<path d="M50.7199 17.3822C50.9804 17.258 51.0785 16.9337 50.9389 16.6577C50.7993 16.3818 50.4749 16.2588 50.2144 16.383C49.9539 16.5072 49.8558 16.8316 49.9954 17.1075C50.135 17.3834 50.4594 17.5064 50.7199 17.3822Z" fill="#1f1f1f" stroke="#3c3c3c" stroke-width="2" stroke-miterlimit="10" stroke-linejoin="round"/>
<path d="M70.6545 24.14C70.915 24.0158 71.0131 23.6915 70.8735 23.4155C70.7339 23.1396 70.4095 23.0166 70.149 23.1408C69.8884 23.265 69.7904 23.5894 69.93 23.8653C70.0696 24.1412 70.394 24.2642 70.6545 24.14Z" fill="#1f1f1f" stroke="#3c3c3c" stroke-width="2" stroke-miterlimit="10" stroke-linejoin="round"/>
<path d="M12.3005 40.0978L14.9425 39.3015C15.1339 39.246 15.1339 38.9682 14.9425 38.9126L12.3005 38.1163C12.2326 38.0978 12.1832 38.0484 12.1647 37.9805L11.3684 35.3447C11.3128 35.1533 11.0351 35.1533 10.9795 35.3447L10.1832 37.9805C10.1647 38.0484 10.1153 38.0978 10.0474 38.1163L7.41159 38.9126C7.22023 38.9682 7.22023 39.246 7.41159 39.3015L10.0536 40.0978C10.1215 40.1163 10.1709 40.1657 10.1894 40.2336L10.9857 42.8756C11.0412 43.067 11.319 43.067 11.3746 42.8756L12.1709 40.2336C12.1832 40.1657 12.2326 40.1163 12.3005 40.0978Z" fill="#3c3c3c"/>
<path d="M96.5557 9.17336L99.2576 9.73368C99.4523 9.77613 99.5848 9.53199 99.4431 9.39188L97.5008 7.4318C97.45 7.38314 97.4301 7.31618 97.4463 7.24767L98.0036 4.55119C98.0461 4.35651 97.8019 4.22401 97.6618 4.3657L95.7047 6.30252C95.656 6.35336 95.5891 6.37321 95.5206 6.3571L92.8241 5.79972C92.6294 5.75727 92.4969 6.00142 92.6386 6.14152L94.5808 8.1016C94.6317 8.15026 94.6515 8.21722 94.6354 8.28573L94.0751 10.9876C94.0326 11.1823 94.2768 11.3148 94.4169 11.1731L96.377 9.23089C96.4202 9.17709 96.4872 9.15725 96.5557 9.17336Z" fill="#3c3c3c"/>
<path d="M94.8952 76.0129L96.9595 74.1819C97.1099 74.0512 96.9933 73.799 96.7963 73.8289L94.064 74.2143C93.9946 74.226 93.9291 74.2019 93.8838 74.148L92.0553 72.0895C91.9246 71.9391 91.6724 72.0556 91.7023 72.2526L92.085 74.9792C92.0967 75.0486 92.0726 75.1142 92.0187 75.1594L89.96 76.9879C89.8096 77.1186 89.9262 77.3708 90.1232 77.3409L92.8555 76.9555C92.9249 76.9438 92.9904 76.9679 93.0357 77.0218L94.8668 79.086C94.9975 79.2363 95.2497 79.1198 95.2198 78.9228L94.8345 76.1906C94.8172 76.1238 94.8413 76.0582 94.8952 76.0129Z" fill="#3c3c3c"/>
<path d="M73.8716 57.3258L76.1834 56.6291C76.3508 56.5805 76.3508 56.3374 76.1834 56.2888L73.8716 55.5921C73.8122 55.5759 73.769 55.5327 73.7528 55.4733L73.0561 53.1671C73.0074 52.9996 72.7644 52.9996 72.7158 53.1671L72.019 55.4733C72.0028 55.5327 71.9596 55.5759 71.9002 55.5921L69.5938 56.2888C69.4264 56.3374 69.4264 56.5805 69.5938 56.6291L71.9056 57.3258C71.965 57.342 72.0082 57.3852 72.0244 57.4446L72.7212 59.7563C72.7698 59.9237 73.0128 59.9237 73.0615 59.7563L73.7582 57.4446C73.769 57.3852 73.8122 57.342 73.8716 57.3258Z" fill="#3c3c3c"/>
<path d="M29.5118 89.7614L31.8235 88.9651C31.991 88.9095 31.991 88.6317 31.8235 88.5762L29.5118 87.7799C29.4524 87.7614 29.4092 87.712 29.393 87.6441L28.6962 85.0083C28.6476 84.8169 28.4045 84.8169 28.3559 85.0083L27.6591 87.6441C27.6429 87.712 27.5997 87.7614 27.5403 87.7799L25.234 88.5762C25.0665 88.6317 25.0665 88.9095 25.234 88.9651L27.5457 89.7614C27.6051 89.7799 27.6483 89.8293 27.6646 89.8972L28.3613 92.5392C28.4099 92.7305 28.653 92.7305 28.7016 92.5392L29.3984 89.8972C29.4092 89.8293 29.4524 89.7799 29.5118 89.7614Z" fill="#3c3c3c"/>
<path d="M25.6922 50.6715L27.3434 50.1738C27.463 50.1391 27.463 49.9655 27.3434 49.9308L25.6922 49.4331C25.6497 49.4216 25.6188 49.3907 25.6073 49.3483L25.1096 47.701C25.0749 47.5814 24.9013 47.5814 24.8665 47.701L24.3688 49.3483C24.3573 49.3907 24.3264 49.4216 24.284 49.4331L22.6366 49.9308C22.517 49.9655 22.517 50.1391 22.6366 50.1738L24.2878 50.6715C24.3303 50.6831 24.3611 50.7139 24.3727 50.7564L24.8704 52.4075C24.9051 52.5271 25.0787 52.5271 25.1134 52.4075L25.6111 50.7564C25.6188 50.7139 25.6497 50.6831 25.6922 50.6715Z" fill="#3c3c3c"/>
<path d="M120.831 51.7623L122.482 51.2647C122.602 51.2299 122.602 51.0563 122.482 51.0216L120.831 50.524C120.788 50.5124 120.758 50.4815 120.746 50.4391L120.248 48.7918C120.214 48.6723 120.04 48.6723 120.005 48.7918L119.508 50.4391C119.496 50.4815 119.465 50.5124 119.423 50.524L117.775 51.0216C117.656 51.0563 117.656 51.2299 117.775 51.2647L119.426 51.7623C119.469 51.7739 119.5 51.8047 119.511 51.8472L120.009 53.4983C120.044 53.6179 120.217 53.6179 120.252 53.4983L120.75 51.8472C120.758 51.8047 120.788 51.7739 120.831 51.7623Z" fill="#3c3c3c"/>
<path d="M37.8972 27.6539L39.5485 27.1563C39.6681 27.1215 39.6681 26.9479 39.5485 26.9132L37.8972 26.4156C37.8548 26.404 37.8239 26.3731 37.8124 26.3307L37.3147 24.6834C37.2799 24.5639 37.1063 24.5639 37.0716 24.6834L36.5739 26.3307C36.5623 26.3731 36.5315 26.404 36.489 26.4156L34.8417 26.9132C34.7221 26.9479 34.7221 27.1215 34.8417 27.1563L36.4929 27.6539C36.5353 27.6655 36.5662 27.6963 36.5778 27.7388L37.0755 29.3899C37.1102 29.5095 37.2838 29.5095 37.3185 29.3899L37.8162 27.7388C37.8239 27.6963 37.8548 27.6655 37.8972 27.6539Z" fill="#3c3c3c"/>
<path d="M13.3069 83.1031L14.9581 82.6055C15.0777 82.5708 15.0777 82.3972 14.9581 82.3624L13.3069 81.8648C13.2645 81.8532 13.2336 81.8224 13.222 81.7799L12.7243 80.1327C12.6896 80.0131 12.516 80.0131 12.4813 80.1327L11.9836 81.7799C11.972 81.8224 11.9411 81.8532 11.8987 81.8648L10.2513 82.3624C10.1317 82.3972 10.1317 82.5708 10.2513 82.6055L11.9026 83.1031C11.945 83.1147 11.9759 83.1456 11.9874 83.188L12.4851 84.8391C12.5199 84.9587 12.6935 84.9587 12.7282 84.8391L13.2259 83.188C13.2336 83.1456 13.2645 83.1147 13.3069 83.1031Z" fill="#3c3c3c"/>
<path d="M58.6922 57.5907L61.979 62.276C62.9181 63.6146 63.5603 64.7335 64.0498 66.2448C65.8824 71.0942 65.1988 76.4246 62.6771 80.7618C62.209 81.5182 61.9707 82.3987 62.0863 83.1736C62.1063 84.0157 62.356 84.9818 62.8927 85.7468C63.9659 87.2767 65.7655 88.0116 67.5737 87.7419C73.3808 86.6643 79.3534 88.4667 83.4436 92.8737C83.9417 93.3803 84.3442 93.954 84.8137 94.6233L88.1005 99.3086C88.5029 99.8823 88.8098 100.523 89.1452 101.001L61.0335 120.722C60.6025 120.311 60.133 119.641 59.7976 119.163L56.5108 114.478C56.1754 114 55.9357 113.455 55.6003 112.977C55.4661 112.786 55.3605 112.432 55.1593 112.145C52.5704 106.827 52.88 100.76 55.8413 95.8296C56.7775 94.3168 56.6319 92.2789 55.5586 90.749C55.0891 90.0797 54.3612 89.4489 53.5763 89.1435C53.5092 89.0479 53.4136 89.1149 53.4136 89.1149C52.6287 88.8095 51.7867 88.8295 50.9447 88.8495C47.0414 89.5903 43.0411 88.9724 39.4319 87.0814C38.5128 86.5848 37.5937 86.0882 36.7988 85.3618C36.569 85.2376 36.3678 84.9507 36.2336 84.7595C35.3716 83.9375 34.4425 83.0198 33.7047 81.968L30.4179 77.2828C30.3508 77.1872 30.2167 76.9959 30.0825 76.8047L58.3854 56.9499C58.491 57.3038 58.5581 57.3995 58.6922 57.5907Z" fill="#1f1f1f" stroke="#3c3c3c" stroke-width="1.9781" stroke-miterlimit="10" stroke-linecap="round" stroke-linejoin="round"/>
<path d="M74.5356 102.547C74.5356 102.547 64.4216 111.925 63.7422 111.974C63.2927 112.146 59.3138 113.796 56.7792 114.861L56.1085 113.905C55.7731 113.426 55.4377 112.948 55.1309 112.308C55.255 112.078 55.3121 111.752 55.3692 111.427C56.6664 107.378 60.698 101.126 69.1952 101.443L74.5356 102.547Z" fill="#1f1f1f" stroke="#3c3c3c" stroke-width="1.9781" stroke-miterlimit="10" stroke-linecap="round" stroke-linejoin="round"/>
<path d="M58.6922 57.5907L61.979 62.276C62.9181 63.6146 63.5603 64.7335 64.0498 66.2448C65.8824 71.0942 65.1988 76.4246 62.6771 80.7618C62.209 81.5182 61.9707 82.3987 62.0863 83.1736C62.1063 84.0157 62.356 84.9818 62.8927 85.7468C63.9659 87.2767 65.7655 88.0116 67.5737 87.7419C73.3808 86.6643 79.3534 88.4667 83.4436 92.8737C83.9417 93.3803 84.3442 93.954 84.8137 94.6233L88.1005 99.3086C88.5029 99.8823 88.8098 100.523 89.1452 101.001L61.0335 120.722C60.6025 120.311 60.133 119.641 59.7976 119.163L56.5108 114.478C56.1754 114 55.9357 113.455 55.6003 112.977C55.4661 112.786 55.3605 112.432 55.1593 112.145C52.5704 106.827 52.88 100.76 55.8413 95.8296C56.7775 94.3168 56.6319 92.2789 55.5586 90.749C55.0891 90.0797 54.3612 89.4489 53.5763 89.1435C53.5092 89.0479 53.4136 89.1149 53.4136 89.1149C52.6287 88.8095 51.7867 88.8295 50.9447 88.8495C47.0414 89.5903 43.0411 88.9724 39.4319 87.0814C38.5128 86.5848 37.5937 86.0882 36.7988 85.3618C36.569 85.2376 36.3678 84.9507 36.2336 84.7595C35.3716 83.9375 34.4425 83.0198 33.7047 81.968L30.4179 77.2828C30.3508 77.1872 30.2167 76.9959 30.0825 76.8047L58.3854 56.9499C58.491 57.3038 58.5581 57.3995 58.6922 57.5907Z" fill="#1f1f1f" stroke="#737373" stroke-width="2" stroke-miterlimit="10" stroke-linecap="round" stroke-linejoin="round"/>
<path d="M56.5304 77.084L45.3631 85.774L39.5946 87.1099C38.6755 86.6132 37.7565 86.1166 36.9615 85.3902C36.7318 85.266 36.5305 84.9792 36.3964 84.788C39.4818 79.6274 42.3203 76.352 50.5763 74.6979C51.9635 74.4381 53.2551 74.2454 54.805 74.0142C68.6011 72.3258 56.5304 77.084 56.5304 77.084Z" fill="#1f1f1f" stroke="#737373" stroke-width="1.9781" stroke-miterlimit="10" stroke-linecap="round" stroke-linejoin="round"/>
<path d="M64.1171 66.3406C65.9496 71.19 65.266 76.5204 62.7443 80.8576C62.2762 81.6139 62.0379 82.4945 62.1535 83.2694L62.0579 83.3365C60.528 84.4097 60.1284 86.6875 61.2017 88.2174L71.1961 102.464L68.4232 104.41L58.3617 90.067C57.2885 88.5371 55.1063 88.0704 53.4808 89.2107C52.6959 88.9053 51.8539 88.9253 51.0119 88.9453C47.1086 89.6861 43.1084 89.0682 39.4991 87.1772C38.58 86.6806 37.6609 86.184 36.866 85.4576C45.3803 83.7649 48.2459 78.9011 50.4523 74.9279C51.1687 73.712 51.7895 72.5631 52.4773 71.5099C55.2003 67.4596 59.2177 66.0681 64.1171 66.3406Z" fill="#1f1f1f" stroke="#737373" stroke-width="2" stroke-miterlimit="10" stroke-linecap="round" stroke-linejoin="round"/>
<path d="M84.7178 94.6907L88.0046 99.376C88.407 99.9497 88.7139 100.59 89.0493 101.069L63.9974 118.643L59.3949 118.59L56.4435 114.383C56.1081 113.905 55.7727 113.427 55.5329 112.881C55.3988 112.69 55.2932 112.336 55.0919 112.049C55.1876 111.982 55.2546 112.078 55.3503 112.011C55.513 112.039 55.6086 111.972 55.7042 111.905C65.022 109.934 67.5137 104.334 69.8727 99.9684C70.2452 99.2791 70.7133 98.5227 71.1528 97.929C74.0385 93.9073 78.2186 92.5443 83.2807 92.8454C83.7502 93.5147 84.2483 94.0214 84.7178 94.6907Z" fill="#1f1f1f" stroke="#737373" stroke-width="2" stroke-miterlimit="10" stroke-linecap="round" stroke-linejoin="round"/>
<path d="M60.9889 57.4062L29.6263 79.4074C28.957 79.8769 27.9808 79.7057 27.5783 79.132L25.4319 76.0722C24.9623 75.4029 25.2007 74.5223 25.87 74.0528L57.3282 51.9845C57.9976 51.515 58.9067 51.5906 59.3762 52.2599L61.4556 55.2241C61.7339 56.0275 61.6583 56.9366 60.9889 57.4062Z" fill="#1f1f1f" stroke="#737373" stroke-width="2" stroke-miterlimit="10" stroke-linecap="round" stroke-linejoin="round"/>
<path d="M92.6489 102.538L61.2863 124.539C60.6169 125.009 59.7078 124.933 59.2383 124.264L57.1589 121.3C56.6894 120.63 56.9277 119.75 57.597 119.28L89.0553 97.212C89.7246 96.7425 90.6337 96.8181 91.1032 97.4875L93.1826 100.452C93.4609 101.255 93.3182 102.069 92.6489 102.538Z" fill="#1f1f1f" stroke="#737373" stroke-width="2" stroke-miterlimit="10" stroke-linecap="round" stroke-linejoin="round"/>
<path d="M111.308 35.6053L109.875 38.2699C109.466 39.0312 109.09 39.6002 108.492 40.1902C106.636 42.2069 103.956 43.1493 101.309 42.9878C100.841 42.9462 100.368 43.0427 100.03 43.2813C99.6367 43.4906 99.2396 43.8379 99.0057 44.2729C98.5378 45.143 98.6179 46.1675 99.1745 46.9576C101.062 49.4447 101.628 52.6936 100.518 55.6717C100.397 56.0272 100.221 56.3535 100.017 56.7342L98.5837 59.3988C98.4083 59.7251 98.1785 60.0221 98.0323 60.294L82.0444 51.6971C82.1362 51.396 82.3409 51.0153 82.4871 50.7434L83.9199 48.0788C84.0661 47.8069 84.2667 47.5642 84.4129 47.2923C84.4714 47.1836 84.6135 47.0497 84.7012 46.8865C86.5983 44.4014 89.5374 43.1075 92.5693 43.3358C93.5061 43.4189 94.4341 42.8663 94.902 41.9962C95.1067 41.6156 95.2319 41.122 95.1898 40.6788C95.219 40.6244 95.1646 40.5952 95.1646 40.5952C95.1226 40.1519 94.9132 39.759 94.7039 39.366C93.4275 37.6982 92.7698 35.662 92.8062 33.5084C92.8226 32.9563 92.839 32.4043 92.9934 31.8564C92.9975 31.7184 93.0852 31.5553 93.1437 31.4465C93.3274 30.8442 93.5402 30.1876 93.8619 29.5894L95.2947 26.9247C95.324 26.8704 95.3824 26.7616 95.4409 26.6528L111.538 35.3082C111.395 35.4421 111.366 35.4965 111.308 35.6053Z" fill="#1f1f1f" stroke="#3c3c3c" stroke-width="1.9781" stroke-miterlimit="10" stroke-linecap="round" stroke-linejoin="round"/>
<path d="M93.8341 53.7603C93.8341 53.7603 87.0037 51.2092 86.8196 50.8998C86.6313 50.7285 84.9075 49.2407 83.803 48.2963L84.0954 47.7525C84.2416 47.4806 84.3878 47.2087 84.6176 46.9116C84.7556 46.9157 84.9229 46.8655 85.0901 46.8152C87.3104 46.4668 91.2207 46.8869 93.0881 50.9756L93.8341 53.7603Z" fill="#1f1f1f" stroke="#3c3c3c" stroke-width="1.9781" stroke-miterlimit="10" stroke-linecap="round" stroke-linejoin="round"/>
<path d="M111.308 35.6053L109.875 38.2699C109.466 39.0312 109.09 39.6002 108.492 40.1902C106.636 42.2069 103.956 43.1493 101.309 42.9878C100.841 42.9462 100.368 43.0427 100.03 43.2813C99.6367 43.4906 99.2396 43.8379 99.0057 44.2729C98.5378 45.143 98.6179 46.1675 99.1745 46.9576C101.062 49.4447 101.628 52.6936 100.518 55.6717C100.397 56.0272 100.221 56.3535 100.017 56.7342L98.5837 59.3988C98.4083 59.7251 98.1785 60.0221 98.0323 60.294L82.0444 51.6971C82.1362 51.396 82.3409 51.0153 82.4871 50.7434L83.9199 48.0788C84.0661 47.8069 84.2667 47.5642 84.4129 47.2923C84.4714 47.1836 84.6135 47.0497 84.7012 46.8865C86.5983 44.4014 89.5374 43.1075 92.5693 43.3358C93.5061 43.4189 94.4341 42.8663 94.902 41.9962C95.1067 41.6156 95.2319 41.122 95.1898 40.6788C95.219 40.6244 95.1646 40.5952 95.1646 40.5952C95.1226 40.1519 94.9132 39.759 94.7039 39.366C93.4275 37.6982 92.7698 35.662 92.8062 33.5084C92.8226 32.9563 92.839 32.4043 92.9934 31.8564C92.9975 31.7184 93.0852 31.5553 93.1437 31.4465C93.3274 30.8442 93.5402 30.1876 93.8619 29.5894L95.2947 26.9247C95.324 26.8704 95.3824 26.7616 95.4409 26.6528L111.538 35.3082C111.395 35.4421 111.366 35.4965 111.308 35.6053Z" fill="#1f1f1f" stroke="#737373" stroke-width="2" stroke-miterlimit="10" stroke-linecap="round" stroke-linejoin="round"/>
<path d="M101.587 39.2113L94.8318 35.9994L92.8315 33.5918C92.8479 33.0398 92.8643 32.4878 93.0187 31.9399C93.0228 31.8019 93.1105 31.6388 93.169 31.53C96.339 31.7623 98.5598 32.3256 101.301 35.8325C101.753 36.4261 102.151 36.9904 102.628 37.6676C106.7 43.7832 101.587 39.2113 101.587 39.2113Z" fill="#1f1f1f" stroke="#737373" stroke-width="1.9781" stroke-miterlimit="10" stroke-linecap="round" stroke-linejoin="round"/>
<path d="M108.462 40.2444C106.607 42.2611 103.927 43.2036 101.28 43.042C100.811 43.0005 100.339 43.0969 100 43.3355L99.9459 43.3063C99.0758 42.8384 97.9051 43.1904 97.4372 44.0605L93.0803 52.1632L91.5033 51.3152L95.8894 43.1581C96.3573 42.288 96.0597 41.1465 95.1353 40.6494C95.0932 40.2062 94.8839 39.8132 94.6745 39.4202C93.3981 37.7524 92.7404 35.7163 92.7768 33.5626C92.7932 33.0106 92.8096 32.4586 92.964 31.9107C95.7847 35.5305 98.7622 35.7295 101.163 35.8285C101.907 35.8782 102.597 35.8987 103.258 35.9736C105.817 36.2983 107.428 37.8656 108.462 40.2444Z" fill="#1f1f1f" stroke="#737373" stroke-width="2" stroke-miterlimit="10" stroke-linecap="round" stroke-linejoin="round"/>
<path d="M99.9622 56.7048L98.5294 59.3694C98.354 59.6957 98.1241 59.9928 97.9779 60.2647L83.7302 52.6035L82.6626 50.417L83.9492 48.0243C84.0954 47.7524 84.2416 47.4805 84.4422 47.2378C84.5007 47.129 84.6428 46.9951 84.7305 46.832C84.7849 46.8612 84.7556 46.9156 84.81 46.9449C84.8352 47.0285 84.8895 47.0577 84.9439 47.087C88.0867 51.0202 91.3234 50.8678 93.9454 50.9457C94.3594 50.958 94.8278 50.9996 95.2126 51.0663C97.7972 51.4746 99.4332 53.1255 100.493 55.5879C100.288 55.9686 100.167 56.3241 99.9622 56.7048Z" fill="#1f1f1f" stroke="#737373" stroke-width="2" stroke-miterlimit="10" stroke-linecap="round" stroke-linejoin="round"/>
<path d="M111.939 36.6459L94.1026 27.0548C93.722 26.8502 93.5711 26.3484 93.7466 26.0221L94.6823 24.282C94.887 23.9013 95.3595 23.8048 95.7402 24.0095L113.631 33.6299C114.012 33.8346 114.192 34.2819 113.987 34.6626L113.081 36.3484C112.767 36.6706 112.32 36.8506 111.939 36.6459Z" fill="#1f1f1f" stroke="#737373" stroke-width="2" stroke-miterlimit="10" stroke-linecap="round" stroke-linejoin="round"/>
<path d="M98.1382 62.3137L80.3013 52.7226C79.9207 52.5179 79.7406 52.0706 79.9453 51.6899L80.8517 50.0041C81.0564 49.6235 81.5289 49.527 81.9096 49.7317L99.8008 59.352C100.181 59.5567 100.362 60.0041 100.157 60.3847L99.2504 62.0705C98.9369 62.3927 98.5188 62.5184 98.1382 62.3137Z" fill="#1f1f1f" stroke="#737373" stroke-width="2" stroke-miterlimit="10" stroke-linecap="round" stroke-linejoin="round"/>
</svg>
