<svg width="117" height="120" viewBox="0 0 117 120" fill="none" xmlns="http://www.w3.org/2000/svg">
<path d="M104.634 68.6908C104.634 80.2049 100.53 90.6778 93.6709 98.8847C85.0353 109.235 72.0513 115.788 57.4749 115.788C43.511 115.788 31.0169 109.725 22.3813 100.11C14.9706 91.7803 10.4385 80.7561 10.4385 68.6908C10.4385 42.6615 31.5069 21.5931 57.5361 21.5931C83.5654 21.5931 104.634 42.6615 104.634 68.6908Z" fill="white" stroke="#d4d4d4" stroke-width="2" stroke-miterlimit="10" stroke-dasharray="4 4"/>
<path d="M74.8781 71.7799C74.5226 73.2909 73.9893 74.8907 73.3671 76.2239C71.6785 79.5124 69.0121 82.0898 65.7236 83.7785C62.3462 85.4672 58.3467 86.1783 54.3471 85.2895C44.926 83.3341 38.8823 74.0908 40.8376 64.6697C42.7929 55.2485 51.9474 49.1159 61.3685 51.1601C64.7459 51.8712 67.6789 53.5598 70.1675 55.8707C74.3448 60.048 76.1224 66.0917 74.8781 71.7799Z" fill="#d4d4d4" stroke="#a3a3a3" stroke-width="2" stroke-miterlimit="10"/>
<path d="M63.4127 65.7137H60.4132V62.7142C60.4132 61.4008 59.3814 60.2032 57.9023 60.2032C56.5889 60.2032 55.3913 61.235 55.3913 62.7142V65.7137H52.3918C51.0785 65.7137 49.8809 66.7455 49.8809 68.2246C49.8809 68.9086 50.1243 69.5489 50.5959 70.0205C51.0675 70.4921 51.7079 70.7356 52.3918 70.7356H55.3913V73.7351C55.3913 75.0484 56.4231 76.246 57.9023 76.246C59.2156 76.246 60.4132 75.2142 60.4132 73.7351V70.7356H63.4127C64.726 70.7356 65.9237 69.7038 65.9237 68.2246C65.9237 66.7455 64.726 65.7137 63.4127 65.7137Z" fill="white" stroke="#a3a3a3" stroke-width="2"/>
<path d="M78.3516 21.6135C78.3516 27.1681 76.1318 32.1054 72.6787 35.8085C72.4321 36.1788 72.0621 36.4256 71.6921 36.6725C67.9924 40.1287 63.0594 42.2271 57.6332 42.2271C53.3169 42.2271 49.2472 40.8693 45.9174 38.524C44.9308 37.9069 44.0675 37.0428 43.2043 36.3022C39.3812 32.5992 37.0381 27.4149 37.0381 21.6135C37.0381 10.2576 46.2874 1 57.6332 1C69.1023 1 78.3516 10.2576 78.3516 21.6135Z" fill="#E9F0F8"/>
<path d="M78.3516 21.6124C78.3516 27.6607 75.7618 32.9684 71.6921 36.7948C67.9924 40.251 63.0594 42.3494 57.6332 42.3494C53.3169 42.3494 49.2472 40.9916 45.9174 38.6463C40.4912 34.9433 37.0381 28.7716 37.0381 21.7358C37.0381 10.3799 46.2874 1.12231 57.6332 1.12231C68.979 1.12231 78.3516 10.2564 78.3516 21.6124Z" fill="#f5f5f5" stroke="#d4d4d4" stroke-width="2" stroke-miterlimit="10"/>
<path d="M72.679 35.8085C72.4324 36.1788 72.0624 36.4257 71.6924 36.6726C67.9927 40.1287 63.0597 42.2271 57.6335 42.2271C53.3172 42.2271 49.2475 40.8693 45.9177 38.5241C44.9311 37.9069 44.0679 37.0429 43.2046 36.3023C43.6979 35.6851 44.4378 35.3148 46.041 34.6976L46.6577 34.4507C47.8909 33.957 49.6174 33.3398 51.8373 32.3524C52.2072 32.2289 52.4539 31.9821 52.7005 31.7352C52.8239 31.6118 52.9472 31.4883 52.9472 31.2415C53.0705 30.9946 53.1938 30.6243 53.1938 30.3774V26.1806C53.0705 26.0572 53.0705 26.0572 52.9472 25.9338C52.5772 25.44 52.3306 24.8229 52.3306 24.0823L52.0839 23.9588C50.974 24.2057 51.0973 23.0948 50.8507 20.873C50.7274 20.0089 50.8507 19.7621 51.344 19.6386L51.7139 19.1449C50.974 17.4168 50.604 15.8122 50.604 14.5778C50.604 12.4794 51.4673 11.1217 52.7005 10.5045C51.9606 9.02328 51.9606 8.52954 51.9606 8.52954C51.9606 8.52954 56.2769 9.27015 57.7568 9.02328C59.6067 8.65298 62.5664 9.14671 63.6764 11.6154C65.5262 12.356 66.1428 13.4669 66.3895 14.7013C66.6361 16.6762 65.5262 18.7746 65.2796 19.6386V19.7621C65.5262 19.8855 65.6495 20.1324 65.5262 20.9964C65.2796 23.0948 65.2796 24.3291 64.293 24.0823L63.3064 25.8103C63.3064 26.0572 63.3064 26.0572 63.1831 26.1806C63.1831 26.5509 63.1831 27.1681 63.1831 30.5008C63.1831 30.8711 63.3064 31.3649 63.553 31.6117C63.6764 31.7352 63.6764 31.8586 63.7997 31.8586C64.0463 32.1055 64.293 32.3524 64.5396 32.3524C67.0061 33.3398 68.7326 34.0804 70.0892 34.5742C71.3224 35.0679 72.1857 35.4382 72.679 35.8085Z" fill="white"/>
<path d="M72.679 35.8084C72.4324 36.1787 72.0624 36.4256 71.6924 36.6725C67.9927 40.1286 63.0597 42.227 57.6335 42.227C53.3172 42.227 49.2475 40.8692 45.9177 38.524C44.9311 37.9068 44.0679 37.0428 43.2046 36.3022C43.6979 35.685 44.4378 35.3147 46.041 34.6975L46.6577 34.4507C47.8909 33.9569 49.6174 33.3398 51.8373 32.3523C52.2072 32.2288 52.4539 31.982 52.7005 31.7351C53.9338 33.4632 55.907 34.5741 58.2501 34.5741C60.4699 34.5741 62.4431 33.4632 63.6764 31.8585C63.923 32.1054 64.1697 32.3523 64.4163 32.3523C66.8828 33.3398 68.6093 34.0804 69.9659 34.5741C71.3224 35.0678 72.1857 35.4381 72.679 35.8084Z" fill="#d4d4d4"/>
<path d="M65.1564 19.5152C65.2797 19.0215 65.0331 18.2808 64.7864 17.9105C64.7864 17.7871 64.6631 17.7871 64.6631 17.6637C63.7999 15.9356 61.95 15.3184 60.2235 15.195C55.6605 14.9481 55.2905 15.8122 53.9339 14.5778C54.4272 15.195 54.4272 16.3059 53.6873 17.5402C53.194 18.4043 52.3307 18.898 51.4675 19.1449C49.371 14.4544 50.4809 11.492 52.454 10.5045C51.7141 9.02328 51.7141 8.52954 51.7141 8.52954C51.7141 8.52954 56.0304 9.27015 57.5103 9.02328C59.3602 8.65298 62.32 9.14671 63.4299 11.6154C65.2797 12.356 65.8964 13.4669 66.143 14.7013C66.513 16.5528 65.4031 18.6512 65.1564 19.5152Z" fill="#a3a3a3"/>
<path d="M53.317 30.3773V26.1805C53.1936 26.0571 53.1936 26.0571 53.0703 25.9336V25.6868C53.317 26.0571 53.5636 26.4274 53.9336 26.6742L57.2633 29.0195C58.0033 29.6367 59.1132 29.6367 59.8531 29.0195L62.9362 26.3039C63.0595 26.1805 63.1829 26.1805 63.3062 26.0571C63.3062 26.4274 63.3062 27.0445 63.3062 30.3773C63.3062 30.6241 63.3062 30.7476 63.4295 30.9944H53.317C53.1936 30.7476 53.317 30.6241 53.317 30.3773Z" fill="url(#paint0_linear)"/>
<path d="M115.285 97.8154C115.285 103.37 113.065 108.307 109.612 112.01C109.365 112.381 108.995 112.628 108.625 112.874C104.925 116.331 99.9925 118.429 94.5663 118.429C90.25 118.429 86.1803 117.071 82.8505 114.726C81.8639 114.109 81.0007 113.245 80.1374 112.504C76.3143 108.801 73.9712 103.617 73.9712 97.8154C73.9712 86.4595 83.2205 77.2019 94.5663 77.2019C106.035 77.2019 115.285 86.4595 115.285 97.8154Z" fill="#E9F0F8"/>
<path d="M115.285 97.8143C115.285 103.863 112.695 109.17 108.625 112.997C104.925 116.453 99.9925 118.551 94.5663 118.551C90.25 118.551 86.1803 117.194 82.8505 114.848C77.4243 111.145 73.9712 104.974 73.9712 97.9378C73.9712 86.5818 83.2205 77.3242 94.5663 77.3242C105.912 77.3242 115.285 86.4584 115.285 97.8143Z" fill="#f5f5f5" stroke="#d4d4d4" stroke-width="2" stroke-miterlimit="10"/>
<path d="M109.613 112.01C109.366 112.381 108.996 112.628 108.626 112.874C104.927 116.331 99.9938 118.429 94.5676 118.429C90.2512 118.429 86.1815 117.071 82.8518 114.726C81.8652 114.109 81.0019 113.245 80.1387 112.504C80.632 111.887 81.3719 111.517 82.9751 110.9L83.5917 110.653C84.825 110.159 86.5515 109.542 88.7713 108.554C89.1413 108.431 89.388 108.184 89.6346 107.937C89.7579 107.814 89.8813 107.69 89.8813 107.443C90.0046 107.197 90.1279 106.826 90.1279 106.579V102.383C90.0046 102.259 90.0046 102.259 89.8813 102.136C89.5113 101.642 89.2646 101.025 89.2646 100.284L89.018 100.161C87.9081 100.408 88.0314 99.2967 87.7848 97.0749C87.6614 96.2108 87.7848 95.964 88.278 95.8405L88.648 95.3468C87.9081 93.6187 87.5381 92.0141 87.5381 90.7797C87.5381 88.6814 88.4014 87.3236 89.6346 86.7064C88.8947 85.2252 88.8947 84.7315 88.8947 84.7315C88.8947 84.7315 93.211 85.4721 94.6909 85.2252C96.5408 84.8549 99.5005 85.3486 100.61 87.8173C102.46 88.5579 103.077 89.6688 103.324 90.9032C103.57 92.8781 102.46 94.9765 102.214 95.8405V95.964C102.46 96.0874 102.584 96.3343 102.46 97.1983C102.214 99.2967 102.214 100.531 101.227 100.284L100.24 102.012C100.24 102.259 100.24 102.259 100.117 102.383C100.117 102.753 100.117 103.37 100.117 106.703C100.117 107.073 100.24 107.567 100.487 107.814C100.61 107.937 100.61 108.061 100.734 108.061C100.98 108.307 101.227 108.554 101.474 108.554C103.94 109.542 105.667 110.282 107.023 110.776C108.257 111.27 109.12 111.64 109.613 112.01Z" fill="white"/>
<path d="M109.612 112.01C109.365 112.381 108.995 112.628 108.626 112.874C104.926 116.331 99.9928 118.429 94.5666 118.429C90.2503 118.429 86.1806 117.071 82.8508 114.726C81.8642 114.109 81.001 113.245 80.1377 112.504C80.631 111.887 81.3709 111.517 82.9741 110.899L83.5908 110.653C84.824 110.159 86.5505 109.542 88.7704 108.554C89.1403 108.431 89.387 108.184 89.6336 107.937C90.8669 109.665 92.8401 110.776 95.1832 110.776C97.403 110.776 99.3762 109.665 100.609 108.06C100.856 108.307 101.103 108.554 101.349 108.554C103.816 109.542 105.542 110.282 106.899 110.776C108.256 111.27 109.119 111.64 109.612 112.01Z" fill="#d4d4d4"/>
<path d="M102.09 95.7171C102.213 95.2234 101.966 94.4828 101.72 94.1125C101.72 93.989 101.596 93.989 101.596 93.8656C100.733 92.1375 98.8831 91.5203 97.1566 91.3969C92.5936 91.15 92.2236 92.0141 90.867 90.7797C91.3603 91.3969 91.3603 92.5078 90.6204 93.7422C90.1271 94.6062 89.2638 95.0999 88.4006 95.3468C86.3041 90.6563 87.414 87.6939 89.3872 86.7064C88.6472 85.2252 88.6472 84.7315 88.6472 84.7315C88.6472 84.7315 92.9635 85.4721 94.4434 85.2252C96.2933 84.8549 99.2531 85.3486 100.363 87.8173C102.213 88.5579 102.829 89.6688 103.076 90.9032C103.446 92.7547 102.336 94.8531 102.09 95.7171Z" fill="#a3a3a3"/>
<path d="M90.2501 106.579V102.382C90.1267 102.259 90.1267 102.259 90.0034 102.136V101.889C90.2501 102.259 90.4967 102.629 90.8667 102.876L94.1964 105.221C94.9364 105.839 96.0463 105.839 96.7862 105.221L99.8693 102.506C99.9927 102.382 100.116 102.382 100.239 102.259C100.239 102.629 100.239 103.246 100.239 106.579C100.239 106.826 100.239 106.949 100.363 107.196H90.2501C90.1267 106.949 90.2501 106.826 90.2501 106.579Z" fill="url(#paint1_linear)"/>
<path d="M41.2036 98.1248C41.2036 103.926 38.7371 109.11 34.7908 112.813C33.6808 113.801 32.5709 114.665 31.2144 115.406C28.2546 117.134 24.8015 118.121 21.1018 118.121C17.4021 118.121 13.949 117.134 10.9892 115.406C10.4959 115.159 10.126 114.912 9.63268 114.542C4.45307 110.962 1 104.914 1 98.1248C1 87.0157 10.0026 78.1284 20.9785 78.1284C32.201 78.005 41.2036 87.0157 41.2036 98.1248Z" fill="#f5f5f5" stroke="#d4d4d4" stroke-width="2" stroke-miterlimit="10"/>
<path d="M17.0323 102.568C17.279 102.815 17.5256 103.185 17.8956 103.432C18.1422 103.679 18.3889 103.802 18.6355 104.049C18.7589 104.172 19.0055 104.296 19.1288 104.419C19.1288 104.419 19.2522 104.419 19.2522 104.543L19.3755 104.666V106.394C19.3755 106.394 19.3755 106.394 19.2522 106.271C19.1288 106.147 18.8822 106.024 18.7589 105.901C18.5122 105.777 18.2656 105.53 18.0189 105.407C17.8956 105.407 17.8956 105.283 17.7723 105.283C16.909 104.79 16.1691 104.296 16.1691 103.679C16.2924 103.432 16.539 103.062 17.0323 102.568ZM34.1878 112.115C33.4478 110.511 32.4478 108.986 30.7213 108.122C29.858 107.752 28.8714 107.382 27.8848 107.382C27.6382 107.382 27.2682 107.382 27.0216 107.382C26.8982 107.382 26.7749 107.382 26.6516 107.382C25.295 107.258 25.1717 107.011 25.1717 107.011V104.172C26.035 103.432 26.8982 102.568 27.6382 101.704C28.2548 100.84 28.7481 99.8523 28.9947 98.6179C30.1047 98.371 30.8446 97.3836 30.7213 96.1492C30.7213 95.6555 30.3513 95.1617 30.3513 94.668C30.3513 94.4211 30.3513 94.1743 30.3513 93.9274C30.3513 93.804 30.3513 93.5571 30.3513 93.4337C30.3513 93.3102 30.3513 93.0634 30.3513 92.9399C30.228 92.0759 29.9813 91.2119 29.488 90.2244C28.0082 87.5088 25.295 85.7807 22.0886 85.7807C21.472 85.7807 20.8554 85.9042 20.2387 86.0276C19.1288 86.2745 18.0189 86.7682 17.1556 87.5088C17.0323 87.6323 16.7857 87.7557 16.6624 88.0026L16.539 88.126C15.5524 89.1135 14.6892 90.2244 14.3192 91.5822C13.8259 92.9399 13.8259 94.2977 13.9492 95.6555C13.9492 95.6555 13.9492 95.6555 13.9492 95.7789V95.9024C13.9492 96.1492 14.0726 96.1492 13.9492 96.2727C13.9492 96.3961 13.8259 96.3961 13.8259 96.5195C13.5793 96.8898 13.4559 97.3836 13.7026 98.1242C14.1959 99.3585 14.9358 99.2351 15.7991 99.8523C15.7991 99.8523 15.6758 99.8523 15.6758 99.9757L14.8125 100.223C10.8661 101.457 9.50957 104.79 11.2361 106.888C11.8527 107.629 12.8393 108.246 14.3192 108.616C13.9492 108.616 13.5793 108.863 13.3326 109.11C11.6061 110.468 10.4962 112.566 10.2495 114.541C10.2495 114.664 10.2495 114.788 10.2495 114.911C10.7428 115.158 11.1128 115.528 11.6061 115.775L30.9175 115.324C32.1507 114.583 32.6963 114.011 33.8062 113.024C33.6829 112.407 34.3111 112.239 34.1878 112.115Z" fill="white"/>
<path d="M34.7909 112.813C33.681 113.801 32.5711 114.665 31.2145 115.405C28.2547 117.133 24.8017 118.121 21.1019 118.121C17.4022 118.121 13.9491 117.133 10.9894 115.405C10.4961 115.158 10.1261 114.912 9.63281 114.541C9.63281 114.418 9.63281 114.294 9.63281 114.171C9.87946 112.196 10.9894 110.098 12.7159 108.74C12.9626 108.493 13.3325 108.37 13.7025 108.246C12.2226 107.999 11.236 107.382 10.6194 106.518H15.3057C16.6623 108.37 18.7588 109.48 21.2253 109.48C23.3218 109.48 25.1716 108.616 26.5282 107.259C26.6515 107.259 26.7748 107.259 26.8982 107.259C27.1448 107.259 27.3915 107.259 27.7614 107.259C28.748 107.259 29.7346 107.506 30.5979 107.999C32.3244 108.863 33.5577 110.345 34.4209 112.073C34.6676 112.319 34.6676 112.566 34.7909 112.813Z" fill="#d4d4d4"/>
<path d="M25.2953 104.173V106.765L17.5259 107.012L17.8958 105.284C18.0192 105.284 18.0192 105.407 18.1425 105.407C18.3891 105.531 18.6358 105.777 18.8824 105.901C19.0058 106.024 19.1291 106.148 19.3757 106.271C19.3757 106.271 19.4991 106.271 19.4991 106.395V104.667L19.3757 104.543C20.7323 105.284 22.5822 105.777 25.2953 104.173Z" fill="url(#paint2_linear)"/>
<path d="M30.351 93.4341C28.8711 93.9278 27.1446 94.1747 25.5414 94.0513C22.9516 93.8044 20.4851 92.8169 18.5119 91.0888C17.8953 92.9404 16.2921 94.2981 14.4422 95.1622C14.1956 95.2856 13.949 95.409 13.7023 95.409C13.7023 95.409 13.7023 95.4091 13.7023 95.2856C13.579 93.9278 13.579 92.5701 14.0723 91.2123C14.4422 89.8545 15.3055 88.7436 16.2921 87.7561L16.4154 87.6327C16.5388 87.5093 16.7854 87.3858 16.9087 87.139C17.772 86.3983 18.8819 85.9046 19.9918 85.6577C20.6084 85.5343 21.2251 85.4109 21.8417 85.4109C25.0481 85.4109 27.8846 87.139 29.2411 89.8545C29.7344 90.842 29.9811 91.8295 30.1044 92.5701C30.351 93.0638 30.351 93.3107 30.351 93.4341Z" fill="#a3a3a3"/>
<path d="M20.4853 111.703C19.7453 112.567 18.5121 112.567 17.4022 112.567C18.5121 111.456 17.8955 107.876 13.9491 108.246C8.52286 107.259 9.01616 101.581 14.4424 99.8528L15.3057 99.6059L15.429 99.7294C15.799 100.84 16.4156 101.828 17.0322 102.568C14.8124 104.42 17.8955 104.914 19.3754 106.395C20.6086 107.135 21.7185 110.221 20.4853 111.703Z" fill="#a3a3a3"/>
<defs>
<linearGradient id="paint0_linear" x1="58.2299" y1="30.8292" x2="58.2299" y2="28.049" gradientUnits="userSpaceOnUse">
<stop stop-color="white"/>
<stop offset="0.9913" stop-color="#D6DEEA"/>
</linearGradient>
<linearGradient id="paint1_linear" x1="95.163" y1="107.031" x2="95.163" y2="104.251" gradientUnits="userSpaceOnUse">
<stop stop-color="white"/>
<stop offset="0.9913" stop-color="#D6DEEA"/>
</linearGradient>
<linearGradient id="paint2_linear" x1="21.3956" y1="106.923" x2="21.3956" y2="105.436" gradientUnits="userSpaceOnUse">
<stop stop-color="white"/>
<stop offset="0.9913" stop-color="#D6DEEA"/>
</linearGradient>
</defs>
</svg>
