<svg width="123" height="126" viewBox="0 0 123 126" fill="none" xmlns="http://www.w3.org/2000/svg">
<path d="M64.4237 111.867C91.7974 111.867 113.99 89.6743 113.99 62.2029C113.99 34.7315 91.6996 12.5393 64.4237 12.5393C37.0501 12.5393 14.8579 34.7315 14.8579 62.2029C14.8579 89.6743 37.0501 111.867 64.4237 111.867Z" fill="#f5f5f5" stroke="#d4d4d4" stroke-width="2" stroke-miterlimit="10"/>
<path d="M93.6338 12.5393C83.2422 33.0217 67.9889 41.1701 54.0085 46.036C50.764 47.181 47.2331 48.1828 43.8931 47.3241C40.5531 46.4654 37.6425 43.0783 38.5491 39.7389C39.3602 36.6381 43.3682 35.1115 46.2788 36.3518C49.2371 37.5922 50.8594 41.027 50.5731 44.2232C50.2868 47.4195 48.3305 50.2341 45.8494 52.19C43.3205 54.1459 40.3145 55.3386 37.2608 56.245C30.533 58.2486 23.519 59.2027 16.9821 61.7311C10.3976 64.2595 4.14697 68.7915 1.9044 75.4225C0.282106 80.1453 0.950108 85.4883 3.04954 89.9726C5.14898 94.4569 8.72756 98.2256 12.7356 101.231C18.8907 105.811 26.4773 108.673 34.1116 108.482C41.7459 108.291 49.4757 104.952 54.1994 98.9412C58.9231 92.9304 60.3068 84.2003 56.9668 77.283C54.6765 72.5125 49.4757 68.6006 44.2748 69.7456C40.1714 70.6997 37.1653 74.7069 36.7359 78.9527C36.3065 83.1985 38.1673 87.3965 40.9348 90.5451C43.7022 93.7413 47.3762 95.9835 51.1934 97.9394C56.776 100.754 63.3606 102.901 69.134 100.515C74.6212 98.2733 77.818 92.5964 79.9175 87.1103C82.0169 81.6242 83.5915 75.661 87.4086 71.129C91.9892 65.6906 99.7189 63.1622 106.638 64.7842C113.556 66.4062 119.377 72.1308 121.095 79.0004C122.431 84.3434 120.809 91.0221 115.799 93.3597C111.886 95.2202 107.067 93.8845 103.679 91.213C100.292 88.5415 98.0012 84.725 95.8064 81.004" stroke="#d4d4d4" stroke-width="2" stroke-miterlimit="10" stroke-dasharray="4 4"/>
<path d="M55.1784 35.3718C63.5321 38.1997 72.5966 33.7202 75.4245 25.3665C78.2524 17.0128 73.7729 7.94831 65.4192 5.1204C57.0655 2.29248 48.001 6.77201 45.1731 15.1257C42.3451 23.4794 46.8247 32.5439 55.1784 35.3718Z" fill="white" stroke="#e5e5e5" stroke-width="2" stroke-miterlimit="10" stroke-linecap="round" stroke-linejoin="round"/>
<path d="M56.1375 32.5375C62.9259 34.8355 70.2919 31.1953 72.5899 24.407C74.8879 17.6186 71.2478 10.2526 64.4594 7.95462C57.671 5.65661 50.3051 9.29676 48.007 16.0851C45.709 22.8735 49.3492 30.2395 56.1375 32.5375Z" fill="white" stroke="#d4d4d4" stroke-width="2" stroke-miterlimit="10" stroke-linejoin="round"/>
<path d="M59.7561 21.8493C60.6415 22.149 61.6023 21.6742 61.902 20.7888C62.2018 19.9033 61.7269 18.9425 60.8415 18.6428C59.9561 18.3431 58.9953 18.8179 58.6956 19.7033C58.3958 20.5887 58.8706 21.5495 59.7561 21.8493Z" fill="white" stroke="#e5e5e5" stroke-width="2" stroke-miterlimit="10" stroke-linejoin="round"/>
<path d="M63.0122 12.2299L60.6604 19.1772" stroke="#e5e5e5" stroke-width="2" stroke-miterlimit="10" stroke-linejoin="round"/>
<path d="M62.083 20.2543L66.1857 20.4519" stroke="#e5e5e5" stroke-width="2" stroke-miterlimit="10" stroke-linejoin="round"/>
<path d="M64.0744 10.77C64.3349 10.6458 64.433 10.3214 64.2934 10.0455C64.1538 9.76957 63.8294 9.64658 63.5689 9.77078C63.3084 9.89498 63.2103 10.2193 63.3499 10.4953C63.4895 10.7712 63.8139 10.8942 64.0744 10.77Z" fill="white" stroke="#d4d4d4" stroke-width="2" stroke-miterlimit="10" stroke-linejoin="round"/>
<path d="M57.3166 30.7046C57.5771 30.5803 57.6752 30.256 57.5356 29.9801C57.396 29.7041 57.0716 29.5811 56.8111 29.7053C56.5506 29.8296 56.4525 30.1539 56.5921 30.4298C56.7317 30.7058 57.0561 30.8288 57.3166 30.7046Z" fill="white" stroke="#d4d4d4" stroke-width="2" stroke-miterlimit="10" stroke-linejoin="round"/>
<path d="M50.7199 17.3825C50.9804 17.2583 51.0785 16.9339 50.9389 16.658C50.7993 16.3821 50.4749 16.2591 50.2144 16.3833C49.9539 16.5075 49.8558 16.8319 49.9954 17.1078C50.135 17.3837 50.4594 17.5067 50.7199 17.3825Z" fill="white" stroke="#d4d4d4" stroke-width="2" stroke-miterlimit="10" stroke-linejoin="round"/>
<path d="M70.6545 24.1403C70.915 24.0161 71.0131 23.6917 70.8735 23.4158C70.7339 23.1399 70.4095 23.0169 70.149 23.1411C69.8884 23.2653 69.7904 23.5897 69.93 23.8656C70.0696 24.1415 70.394 24.2645 70.6545 24.1403Z" fill="white" stroke="#d4d4d4" stroke-width="2" stroke-miterlimit="10" stroke-linejoin="round"/>
<path d="M12.3005 40.098L14.9425 39.3017C15.1339 39.2461 15.1339 38.9684 14.9425 38.9128L12.3005 38.1165C12.2326 38.098 12.1832 38.0486 12.1647 37.9807L11.3684 35.3449C11.3128 35.1535 11.0351 35.1535 10.9795 35.3449L10.1832 37.9807C10.1647 38.0486 10.1153 38.098 10.0474 38.1165L7.41159 38.9128C7.22023 38.9684 7.22023 39.2461 7.41159 39.3017L10.0536 40.098C10.1215 40.1165 10.1709 40.1659 10.1894 40.2338L10.9857 42.8758C11.0412 43.0672 11.319 43.0672 11.3746 42.8758L12.1709 40.2338C12.1832 40.1659 12.2326 40.1165 12.3005 40.098Z" fill="#d4d4d4"/>
<path d="M96.5557 9.17318L99.2576 9.7335C99.4523 9.77595 99.5848 9.5318 99.4431 9.3917L97.5008 7.43162C97.45 7.38296 97.4301 7.316 97.4463 7.24748L98.0036 4.55101C98.0461 4.35632 97.8019 4.22382 97.6618 4.36551L95.7047 6.30233C95.656 6.35318 95.5891 6.37303 95.5206 6.35692L92.8241 5.79954C92.6294 5.75709 92.4969 6.00123 92.6386 6.14134L94.5808 8.10142C94.6317 8.15008 94.6515 8.21704 94.6354 8.28555L94.0751 10.9875C94.0326 11.1821 94.2768 11.3146 94.4169 11.1729L96.377 9.2307C96.4202 9.17691 96.4872 9.15706 96.5557 9.17318Z" fill="#d4d4d4"/>
<path d="M94.8952 76.0131L96.9595 74.182C97.1099 74.0513 96.9933 73.7991 96.7963 73.829L94.064 74.2144C93.9946 74.2261 93.9291 74.202 93.8838 74.1481L92.0553 72.0896C91.9246 71.9392 91.6724 72.0557 91.7023 72.2527L92.085 74.9793C92.0967 75.0487 92.0726 75.1143 92.0187 75.1596L89.96 76.9881C89.8096 77.1188 89.9262 77.3709 90.1232 77.3411L92.8555 76.9556C92.9249 76.9439 92.9904 76.9681 93.0357 77.0219L94.8668 79.0861C94.9975 79.2365 95.2497 79.1199 95.2198 78.9229L94.8345 76.1907C94.8172 76.1239 94.8413 76.0584 94.8952 76.0131Z" fill="#d4d4d4"/>
<path d="M73.8716 57.326L76.1834 56.6293C76.3508 56.5807 76.3508 56.3376 76.1834 56.289L73.8716 55.5923C73.8122 55.5761 73.769 55.5329 73.7528 55.4735L73.0561 53.1673C73.0074 52.9998 72.7644 52.9998 72.7158 53.1673L72.019 55.4735C72.0028 55.5329 71.9596 55.5761 71.9002 55.5923L69.5938 56.289C69.4264 56.3376 69.4264 56.5807 69.5938 56.6293L71.9056 57.326C71.965 57.3422 72.0082 57.3854 72.0244 57.4448L72.7212 59.7564C72.7698 59.9239 73.0128 59.9239 73.0615 59.7564L73.7582 57.4448C73.769 57.3854 73.8122 57.3422 73.8716 57.326Z" fill="#d4d4d4"/>
<path d="M29.5118 89.7616L31.8235 88.9653C31.991 88.9097 31.991 88.6319 31.8235 88.5764L29.5118 87.7801C29.4524 87.7616 29.4092 87.7122 29.393 87.6443L28.6962 85.0084C28.6476 84.8171 28.4045 84.8171 28.3559 85.0084L27.6591 87.6443C27.6429 87.7122 27.5997 87.7616 27.5403 87.7801L25.234 88.5764C25.0665 88.6319 25.0665 88.9097 25.234 88.9653L27.5457 89.7616C27.6051 89.7801 27.6483 89.8295 27.6646 89.8974L28.3613 92.5394C28.4099 92.7307 28.653 92.7307 28.7016 92.5394L29.3984 89.8974C29.4092 89.8295 29.4524 89.7801 29.5118 89.7616Z" fill="#d4d4d4"/>
<path d="M25.6922 50.6717L27.3434 50.1741C27.463 50.1394 27.463 49.9658 27.3434 49.931L25.6922 49.4334C25.6497 49.4218 25.6188 49.391 25.6073 49.3485L25.1096 47.7013C25.0749 47.5817 24.9013 47.5817 24.8665 47.7013L24.3688 49.3485C24.3573 49.391 24.3264 49.4218 24.284 49.4334L22.6366 49.931C22.517 49.9658 22.517 50.1394 22.6366 50.1741L24.2878 50.6717C24.3303 50.6833 24.3611 50.7142 24.3727 50.7566L24.8704 52.4077C24.9051 52.5273 25.0787 52.5273 25.1134 52.4077L25.6111 50.7566C25.6188 50.7142 25.6497 50.6833 25.6922 50.6717Z" fill="#d4d4d4"/>
<path d="M120.831 51.7623L122.482 51.2647C122.602 51.2299 122.602 51.0563 122.482 51.0216L120.831 50.524C120.788 50.5124 120.758 50.4815 120.746 50.4391L120.248 48.7918C120.214 48.6723 120.04 48.6723 120.005 48.7918L119.508 50.4391C119.496 50.4815 119.465 50.5124 119.423 50.524L117.775 51.0216C117.656 51.0563 117.656 51.2299 117.775 51.2647L119.426 51.7623C119.469 51.7739 119.5 51.8047 119.511 51.8472L120.009 53.4983C120.044 53.6179 120.217 53.6179 120.252 53.4983L120.75 51.8472C120.758 51.8047 120.788 51.7739 120.831 51.7623Z" fill="#d4d4d4"/>
<path d="M37.8972 27.6538L39.5485 27.1561C39.6681 27.1214 39.6681 26.9478 39.5485 26.9131L37.8972 26.4154C37.8548 26.4038 37.8239 26.373 37.8124 26.3305L37.3147 24.6833C37.2799 24.5637 37.1063 24.5637 37.0716 24.6833L36.5739 26.3305C36.5623 26.373 36.5315 26.4038 36.489 26.4154L34.8417 26.9131C34.7221 26.9478 34.7221 27.1214 34.8417 27.1561L36.4929 27.6538C36.5353 27.6653 36.5662 27.6962 36.5778 27.7386L37.0755 29.3897C37.1102 29.5093 37.2838 29.5093 37.3185 29.3897L37.8162 27.7386C37.8239 27.6962 37.8548 27.6653 37.8972 27.6538Z" fill="#d4d4d4"/>
<path d="M13.3069 83.1034L14.9581 82.6057C15.0777 82.571 15.0777 82.3974 14.9581 82.3627L13.3069 81.865C13.2645 81.8535 13.2336 81.8226 13.222 81.7802L12.7243 80.1329C12.6896 80.0133 12.516 80.0133 12.4813 80.1329L11.9836 81.7802C11.972 81.8226 11.9411 81.8535 11.8987 81.865L10.2513 82.3627C10.1317 82.3974 10.1317 82.571 10.2513 82.6057L11.9026 83.1034C11.945 83.1149 11.9759 83.1458 11.9874 83.1882L12.4851 84.8394C12.5199 84.9589 12.6935 84.9589 12.7282 84.8394L13.2259 83.1882C13.2336 83.1458 13.2645 83.1149 13.3069 83.1034Z" fill="#d4d4d4"/>
<path d="M58.6922 57.5908L61.979 62.276C62.9181 63.6147 63.5603 64.7336 64.0498 66.2449C65.8824 71.0943 65.1988 76.4247 62.6771 80.7618C62.209 81.5182 61.9707 82.3988 62.0863 83.1737C62.1063 84.0157 62.356 84.9819 62.8927 85.7468C63.9659 87.2767 65.7655 88.0117 67.5737 87.7419C73.3808 86.6644 79.3534 88.4668 83.4436 92.8737C83.9417 93.3804 84.3442 93.9541 84.8137 94.6234L88.1005 99.3087C88.5029 99.8824 88.8098 100.523 89.1452 101.001L61.0335 120.722C60.6025 120.311 60.133 119.642 59.7976 119.163L56.5108 114.478C56.1754 114 55.9357 113.455 55.6003 112.977C55.4661 112.786 55.3605 112.432 55.1593 112.145C52.5704 106.827 52.88 100.761 55.8413 95.8297C56.7775 94.3169 56.6319 92.2789 55.5586 90.7491C55.0891 90.0797 54.3612 89.4489 53.5763 89.1435C53.5092 89.0479 53.4136 89.115 53.4136 89.115C52.6287 88.8096 51.7867 88.8296 50.9447 88.8496C47.0414 89.5903 43.0411 88.9724 39.4319 87.0815C38.5128 86.5849 37.5937 86.0882 36.7988 85.3618C36.569 85.2377 36.3678 84.9508 36.2336 84.7596C35.3716 83.9375 34.4425 83.0199 33.7047 81.9681L30.4179 77.2828C30.3508 77.1872 30.2167 76.996 30.0825 76.8047L58.3854 56.95C58.491 57.3039 58.5581 57.3995 58.6922 57.5908Z" fill="#f5f5f5" stroke="#d4d4d4" stroke-width="1.9781" stroke-miterlimit="10" stroke-linecap="round" stroke-linejoin="round"/>
<path d="M74.5356 102.547C74.5356 102.547 64.4216 111.925 63.7422 111.973C63.2927 112.146 59.3138 113.796 56.7792 114.861L56.1085 113.904C55.7731 113.426 55.4377 112.948 55.1309 112.308C55.255 112.078 55.3121 111.752 55.3692 111.427C56.6664 107.378 60.698 101.126 69.1952 101.442L74.5356 102.547Z" fill="#f5f5f5" stroke="#d4d4d4" stroke-width="1.9781" stroke-miterlimit="10" stroke-linecap="round" stroke-linejoin="round"/>
<path d="M58.6922 57.5908L61.979 62.276C62.9181 63.6147 63.5603 64.7336 64.0498 66.2449C65.8824 71.0943 65.1988 76.4247 62.6771 80.7618C62.209 81.5182 61.9707 82.3988 62.0863 83.1737C62.1063 84.0157 62.356 84.9819 62.8927 85.7468C63.9659 87.2767 65.7655 88.0117 67.5737 87.7419C73.3808 86.6644 79.3534 88.4668 83.4436 92.8737C83.9417 93.3804 84.3442 93.9541 84.8137 94.6234L88.1005 99.3087C88.5029 99.8824 88.8098 100.523 89.1452 101.001L61.0335 120.722C60.6025 120.311 60.133 119.642 59.7976 119.163L56.5108 114.478C56.1754 114 55.9357 113.455 55.6003 112.977C55.4661 112.786 55.3605 112.432 55.1593 112.145C52.5704 106.827 52.88 100.761 55.8413 95.8297C56.7775 94.3169 56.6319 92.2789 55.5586 90.7491C55.0891 90.0797 54.3612 89.4489 53.5763 89.1435C53.5092 89.0479 53.4136 89.115 53.4136 89.115C52.6287 88.8096 51.7867 88.8296 50.9447 88.8496C47.0414 89.5903 43.0411 88.9724 39.4319 87.0815C38.5128 86.5849 37.5937 86.0882 36.7988 85.3618C36.569 85.2377 36.3678 84.9508 36.2336 84.7596C35.3716 83.9375 34.4425 83.0199 33.7047 81.9681L30.4179 77.2828C30.3508 77.1872 30.2167 76.996 30.0825 76.8047L58.3854 56.95C58.491 57.3039 58.5581 57.3995 58.6922 57.5908Z" fill="white" stroke="#e5e5e5" stroke-width="2" stroke-miterlimit="10"/>
<path d="M56.5304 77.0842L45.3631 85.7742L39.5946 87.1101C38.6755 86.6134 37.7565 86.1168 36.9615 85.3904C36.7318 85.2662 36.5305 84.9794 36.3964 84.7881C39.4818 79.6276 42.3203 76.3522 50.5763 74.6981C51.9635 74.4383 53.2551 74.2456 54.805 74.0144C68.6011 72.3259 56.5304 77.0842 56.5304 77.0842Z" fill="#f5f5f5" stroke="#e5e5e5" stroke-width="1.9781" stroke-miterlimit="10" stroke-linecap="round" stroke-linejoin="round"/>
<path d="M64.1171 66.3405C65.9496 71.1899 65.266 76.5203 62.7443 80.8574C62.2762 81.6138 62.0379 82.4944 62.1535 83.2693L62.0579 83.3364C60.528 84.4096 60.1284 86.6873 61.2017 88.2172L71.1961 102.464L68.4232 104.41L58.3617 90.0668C57.2885 88.537 55.1063 88.0703 53.4808 89.2106C52.6959 88.9052 51.8539 88.9252 51.0119 88.9452C47.1086 89.6859 43.1084 89.068 39.4991 87.1771C38.58 86.6805 37.6609 86.1838 36.866 85.4574C45.3803 83.7647 48.2459 78.901 50.4523 74.9278C51.1687 73.7119 51.7895 72.563 52.4773 71.5098C55.2003 67.4595 59.2177 66.068 64.1171 66.3405Z" fill="#f5f5f5" stroke="#e5e5e5" stroke-width="2" stroke-miterlimit="10" stroke-linecap="round" stroke-linejoin="round"/>
<path d="M84.7178 94.6904L88.0046 99.3757C88.407 99.9494 88.7139 100.59 89.0493 101.068L63.9974 118.642L59.3949 118.59L56.4435 114.383C56.1081 113.904 55.7727 113.426 55.5329 112.881C55.3988 112.69 55.2932 112.336 55.0919 112.049C55.1876 111.982 55.2546 112.078 55.3503 112.011C55.513 112.039 55.6086 111.972 55.7042 111.905C65.022 109.934 67.5137 104.334 69.8727 99.9682C70.2452 99.2789 70.7133 98.5225 71.1528 97.9288C74.0385 93.9071 78.2186 92.5441 83.2807 92.8452C83.7502 93.5145 84.2483 94.0211 84.7178 94.6904Z" fill="#f5f5f5" stroke="#e5e5e5" stroke-width="2" stroke-miterlimit="10" stroke-linecap="round" stroke-linejoin="round"/>
<path d="M60.9889 57.4062L29.6263 79.4074C28.957 79.8769 27.9808 79.7057 27.5783 79.132L25.4319 76.0722C24.9623 75.4029 25.2007 74.5223 25.87 74.0528L57.3282 51.9845C57.9976 51.515 58.9067 51.5906 59.3762 52.2599L61.4556 55.2241C61.7339 56.0275 61.6583 56.9366 60.9889 57.4062Z" fill="white" stroke="#e5e5e5" stroke-width="2" stroke-miterlimit="10" stroke-linecap="round" stroke-linejoin="round"/>
<path d="M92.6489 102.538L61.2863 124.54C60.6169 125.009 59.7078 124.933 59.2383 124.264L57.1589 121.3C56.6894 120.631 56.9277 119.75 57.597 119.281L89.0553 97.2122C89.7246 96.7427 90.6337 96.8183 91.1032 97.4876L93.1826 100.452C93.4609 101.255 93.3182 102.069 92.6489 102.538Z" fill="white" stroke="#e5e5e5" stroke-width="2" stroke-miterlimit="10" stroke-linecap="round" stroke-linejoin="round"/>
<path d="M111.308 35.6049L109.875 38.2695C109.466 39.0309 109.09 39.5998 108.492 40.1898C106.636 42.2065 103.956 43.149 101.309 42.9874C100.841 42.9459 100.368 43.0423 100.03 43.2809C99.6367 43.4902 99.2396 43.8375 99.0057 44.2726C98.5378 45.1427 98.6179 46.1672 99.1745 46.9572C101.062 49.4443 101.628 52.6932 100.518 55.6713C100.397 56.0269 100.221 56.3531 100.017 56.7338L98.5837 59.3985C98.4083 59.7247 98.1785 60.0218 98.0323 60.2937L82.0444 51.6968C82.1362 51.3956 82.3409 51.015 82.4871 50.7431L83.9199 48.0784C84.0661 47.8065 84.2667 47.5639 84.4129 47.292C84.4714 47.1832 84.6135 47.0493 84.7012 46.8861C86.5983 44.401 89.5374 43.1072 92.5693 43.3354C93.5061 43.4185 94.4341 42.866 94.902 41.9959C95.1067 41.6152 95.2319 41.1217 95.1898 40.6784C95.219 40.624 95.1646 40.5948 95.1646 40.5948C95.1226 40.1516 94.9132 39.7586 94.7039 39.3656C93.4275 37.6978 92.7698 35.6616 92.8062 33.508C92.8226 32.956 92.839 32.404 92.9934 31.8561C92.9975 31.7181 93.0852 31.5549 93.1437 31.4462C93.3274 30.8439 93.5402 30.1872 93.8619 29.589L95.2947 26.9244C95.324 26.87 95.3824 26.7612 95.4409 26.6525L111.538 35.3078C111.395 35.4417 111.366 35.4961 111.308 35.6049Z" fill="#f5f5f5" stroke="#d4d4d4" stroke-width="1.9781" stroke-miterlimit="10" stroke-linecap="round" stroke-linejoin="round"/>
<path d="M93.8341 53.76C93.8341 53.76 87.0037 51.2089 86.8196 50.8995C86.6313 50.7282 84.9075 49.2404 83.803 48.296L84.0954 47.7522C84.2416 47.4803 84.3878 47.2084 84.6176 46.9113C84.7556 46.9154 84.9229 46.8652 85.0901 46.8149C87.3104 46.4665 91.2207 46.8866 93.0881 50.9753L93.8341 53.76Z" fill="#f5f5f5" stroke="#d4d4d4" stroke-width="1.9781" stroke-miterlimit="10" stroke-linecap="round" stroke-linejoin="round"/>
<path d="M111.308 35.6049L109.875 38.2695C109.466 39.0309 109.09 39.5998 108.492 40.1898C106.636 42.2065 103.956 43.149 101.309 42.9874C100.841 42.9459 100.368 43.0423 100.03 43.2809C99.6367 43.4902 99.2396 43.8375 99.0057 44.2726C98.5378 45.1427 98.6179 46.1672 99.1745 46.9572C101.062 49.4443 101.628 52.6932 100.518 55.6713C100.397 56.0269 100.221 56.3531 100.017 56.7338L98.5837 59.3985C98.4083 59.7247 98.1785 60.0218 98.0323 60.2937L82.0444 51.6968C82.1362 51.3956 82.3409 51.015 82.4871 50.7431L83.9199 48.0784C84.0661 47.8065 84.2667 47.5639 84.4129 47.292C84.4714 47.1832 84.6135 47.0493 84.7012 46.8861C86.5983 44.401 89.5374 43.1072 92.5693 43.3354C93.5061 43.4185 94.4341 42.866 94.902 41.9959C95.1067 41.6152 95.2319 41.1217 95.1898 40.6784C95.219 40.624 95.1646 40.5948 95.1646 40.5948C95.1226 40.1516 94.9132 39.7586 94.7039 39.3656C93.4275 37.6978 92.7698 35.6616 92.8062 33.508C92.8226 32.956 92.839 32.404 92.9934 31.8561C92.9975 31.7181 93.0852 31.5549 93.1437 31.4462C93.3274 30.8439 93.5402 30.1872 93.8619 29.589L95.2947 26.9244C95.324 26.87 95.3824 26.7612 95.4409 26.6525L111.538 35.3078C111.395 35.4417 111.366 35.4961 111.308 35.6049Z" fill="white" stroke="#e5e5e5" stroke-width="2" stroke-miterlimit="10"/>
<path d="M101.587 39.2111L94.8318 35.9992L92.8315 33.5916C92.8479 33.0396 92.8643 32.4876 93.0187 31.9397C93.0228 31.8017 93.1105 31.6386 93.169 31.5298C96.339 31.7622 98.5598 32.3254 101.301 35.8324C101.753 36.4259 102.151 36.9902 102.628 37.6674C106.7 43.783 101.587 39.2111 101.587 39.2111Z" fill="#f5f5f5" stroke="#e5e5e5" stroke-width="1.9781" stroke-miterlimit="10" stroke-linecap="round" stroke-linejoin="round"/>
<path d="M108.462 40.2442C106.607 42.2609 103.927 43.2034 101.28 43.0418C100.811 43.0003 100.339 43.0967 100 43.3353L99.9459 43.3061C99.0758 42.8382 97.9051 43.1901 97.4372 44.0602L93.0803 52.1629L91.5033 51.315L95.8894 43.1579C96.3573 42.2878 96.0597 41.1463 95.1353 40.6492C95.0932 40.206 94.8839 39.813 94.6745 39.42C93.3981 37.7522 92.7404 35.7161 92.7768 33.5624C92.7932 33.0104 92.8096 32.4584 92.964 31.9105C95.7847 35.5303 98.7622 35.7293 101.163 35.8283C101.907 35.878 102.597 35.8985 103.258 35.9734C105.817 36.2981 107.428 37.8654 108.462 40.2442Z" fill="#f5f5f5" stroke="#e5e5e5" stroke-width="2" stroke-miterlimit="10" stroke-linecap="round" stroke-linejoin="round"/>
<path d="M99.9622 56.7046L98.5294 59.3693C98.354 59.6955 98.1241 59.9926 97.9779 60.2645L83.7302 52.6033L82.6626 50.4168L83.9492 48.0241C84.0954 47.7522 84.2416 47.4803 84.4422 47.2376C84.5007 47.1289 84.6428 46.995 84.7305 46.8318C84.7849 46.8611 84.7556 46.9154 84.81 46.9447C84.8352 47.0283 84.8895 47.0575 84.9439 47.0868C88.0867 51.02 91.3234 50.8676 93.9454 50.9456C94.3594 50.9579 94.8278 50.9994 95.2126 51.0661C97.7972 51.4744 99.4332 53.1253 100.493 55.5878C100.288 55.9684 100.167 56.3239 99.9622 56.7046Z" fill="#f5f5f5" stroke="#e5e5e5" stroke-width="2" stroke-miterlimit="10" stroke-linecap="round" stroke-linejoin="round"/>
<path d="M111.939 36.6458L94.1026 27.0547C93.722 26.85 93.5711 26.3483 93.7466 26.022L94.6823 24.2818C94.887 23.9012 95.3595 23.8047 95.7402 24.0094L113.631 33.6297C114.012 33.8344 114.192 34.2818 113.987 34.6625L113.081 36.3482C112.767 36.6704 112.32 36.8505 111.939 36.6458Z" fill="white" stroke="#e5e5e5" stroke-width="2" stroke-miterlimit="10" stroke-linecap="round" stroke-linejoin="round"/>
<path d="M98.1382 62.3134L80.3013 52.7223C79.9207 52.5176 79.7406 52.0703 79.9453 51.6896L80.8517 50.0038C81.0564 49.6232 81.5289 49.5267 81.9096 49.7314L99.8008 59.3517C100.181 59.5564 100.362 60.0038 100.157 60.3844L99.2504 62.0702C98.9369 62.3924 98.5188 62.5181 98.1382 62.3134Z" fill="white" stroke="#e5e5e5" stroke-width="2" stroke-miterlimit="10" stroke-linecap="round" stroke-linejoin="round"/>
</svg>
