<svg width="150" height="146" viewBox="0 0 150 146" fill="none" xmlns="http://www.w3.org/2000/svg">
<path d="M57.5655 17.3833C26.8774 25.8793 8.88717 57.6443 17.3832 88.3324C25.8792 119.02 57.6442 137.011 88.3322 128.515C119.02 120.019 137.011 88.2537 128.515 57.5656C120.019 26.8776 88.2536 8.88731 57.5655 17.3833Z" fill="#f5f5f5" stroke="#d4d4d4" stroke-width="2" stroke-miterlimit="10"/>
<path d="M93.1765 34.1478L94.2707 33.5955C94.3286 33.5794 94.4284 33.4894 94.3964 33.3736L94.3073 32.1511C94.3172 31.9613 94.4009 31.8134 94.5747 31.7653C94.7484 31.7172 94.9542 31.785 95.0023 31.9587L95.5547 33.0529C95.5707 33.1108 95.6607 33.2106 95.7766 33.1786L96.999 33.0896C97.1888 33.0994 97.3367 33.1831 97.3848 33.3569C97.4329 33.5306 97.3652 33.7365 97.1915 33.7846L96.0972 34.3369C96.0393 34.353 95.9395 34.4429 95.9716 34.5588L96.0606 35.7813C96.0508 35.971 95.967 36.1189 95.7933 36.167C95.6195 36.2152 95.4137 36.1474 95.3656 35.9737L94.8133 34.8795C94.7972 34.8215 94.7072 34.7217 94.5914 34.7538L93.3689 34.8428C93.1791 34.833 93.0312 34.7493 92.9831 34.5755C92.9511 34.4597 93.0188 34.2538 93.1765 34.1478Z" fill="#d4d4d4"/>
<path d="M40.6411 40.4399L41.6842 39.9134C41.7394 39.8981 41.8346 39.8123 41.804 39.7019L41.7191 38.5364C41.7285 38.3555 41.8084 38.2145 41.974 38.1686C42.1396 38.1228 42.3359 38.1874 42.3817 38.353L42.9083 39.3961C42.9236 39.4514 43.0094 39.5465 43.1198 39.5159L44.2852 39.4311C44.4662 39.4404 44.6072 39.5203 44.653 39.6859C44.6989 39.8516 44.6343 40.0478 44.4687 40.0936L43.4255 40.6202C43.3703 40.6355 43.2752 40.7213 43.3057 40.8317L43.3906 41.9971C43.3812 42.1781 43.3014 42.3191 43.1357 42.3649C42.9701 42.4108 42.7739 42.3462 42.728 42.1806L42.2014 41.1374C42.1862 41.0822 42.1004 40.9871 41.99 41.0176L40.8245 41.1025C40.6436 41.0932 40.5026 41.0133 40.4567 40.8477C40.4109 40.682 40.4754 40.4858 40.6411 40.4399Z" fill="#d4d4d4"/>
<path d="M78.0102 51.8625L78.8528 51.4372C78.8973 51.4249 78.9742 51.3556 78.9495 51.2664L78.881 50.3251C78.8885 50.179 78.953 50.0651 79.0868 50.028C79.2206 49.991 79.3791 50.0431 79.4161 50.1769L79.8414 51.0195C79.8538 51.064 79.923 51.1409 80.0122 51.1162L80.9535 51.0477C81.0996 51.0552 81.2135 51.1197 81.2506 51.2535C81.2876 51.3873 81.2355 51.5458 81.1017 51.5828L80.2592 52.0081C80.2146 52.0205 80.1377 52.0897 80.1624 52.1789L80.2309 53.1202C80.2234 53.2664 80.1589 53.3802 80.0251 53.4173C79.8913 53.4543 79.7328 53.4022 79.6958 53.2684L79.2705 52.4259C79.2582 52.3813 79.1889 52.3044 79.0997 52.3291L78.1584 52.3977C78.0123 52.3901 77.8984 52.3256 77.8613 52.1918C77.792 52.115 77.8888 51.9441 78.0102 51.8625Z" fill="#d4d4d4"/>
<path d="M44.8173 111.199L46.3299 110.436C46.4099 110.414 46.5479 110.289 46.5036 110.129L46.3805 108.439C46.3941 108.177 46.5099 107.972 46.7501 107.906C46.9902 107.839 47.2748 107.933 47.3413 108.173L48.1048 109.686C48.127 109.766 48.2514 109.904 48.4115 109.86L50.1014 109.736C50.3638 109.75 50.5683 109.866 50.6348 110.106C50.7013 110.346 50.6076 110.631 50.3674 110.697L48.8548 111.461C48.7748 111.483 48.6368 111.607 48.6811 111.767L48.8042 113.457C48.7906 113.72 48.6748 113.924 48.4346 113.991C48.1944 114.057 47.9099 113.964 47.8434 113.723L47.0799 112.211C47.0577 112.131 46.9333 111.993 46.7732 112.037L45.0832 112.16C44.8209 112.147 44.6164 112.031 44.5499 111.791C44.4834 111.55 44.5992 111.346 44.8173 111.199Z" fill="#d4d4d4"/>
<path d="M121.56 71.1737L122.353 69.985C122.402 69.9355 122.452 69.7869 122.353 69.6878L121.56 68.4991C121.461 68.301 121.461 68.1029 121.61 67.9543C121.759 67.8057 122.006 67.7562 122.155 67.9048L123.344 68.6973C123.393 68.7468 123.542 68.7963 123.641 68.6973L124.829 67.9048C125.028 67.8057 125.226 67.8057 125.374 67.9543C125.523 68.1029 125.572 68.3506 125.424 68.4991L124.631 69.6878C124.582 69.7374 124.532 69.886 124.631 69.985L125.424 71.1737C125.523 71.3718 125.523 71.5699 125.374 71.7185C125.226 71.8671 124.978 71.9167 124.829 71.7681L123.641 70.9756C123.591 70.9261 123.443 70.8765 123.344 70.9756L122.155 71.7681C121.957 71.8671 121.759 71.8671 121.61 71.7185C121.461 71.57 121.412 71.3223 121.56 71.1737Z" fill="#d4d4d4"/>
<path d="M44.9585 62.6945L45.9726 60.6606C46.0409 60.5725 46.0895 60.3282 45.9134 60.1915L44.426 58.4732C44.2302 58.1802 44.1907 57.8675 44.3957 57.6034C44.6006 57.3393 44.9816 57.2118 45.2457 57.4168L47.2796 58.4309C47.3677 58.4992 47.6121 58.5478 47.7487 58.3717L49.4671 56.8843C49.76 56.6885 50.0727 56.649 50.3368 56.854C50.6009 57.0589 50.7284 57.4399 50.5235 57.704L49.5094 59.7379C49.4411 59.826 49.3925 60.0704 49.5685 60.207L51.056 61.9254C51.2518 62.2183 51.2912 62.531 51.0863 62.7951C50.8813 63.0592 50.5003 63.1867 50.2362 62.9818L48.2023 61.9677C48.1143 61.8994 47.8699 61.8508 47.7333 62.0268L46.0149 63.5143C45.7219 63.71 45.4092 63.7495 45.1451 63.5446C44.881 63.3396 44.7536 62.9586 44.9585 62.6945Z" fill="#d4d4d4"/>
<path d="M65.1578 122.774L66.5786 122.057C66.6538 122.036 66.7833 121.919 66.7417 121.768L66.6261 120.181C66.6389 119.935 66.7476 119.743 66.9732 119.68C67.1988 119.618 67.4661 119.706 67.5285 119.931L68.2457 121.352C68.2665 121.427 68.3834 121.557 68.5338 121.515L70.121 121.4C70.3675 121.412 70.5595 121.521 70.622 121.747C70.6844 121.972 70.5965 122.24 70.3709 122.302L68.9501 123.019C68.8749 123.04 68.7454 123.157 68.787 123.307L68.9026 124.895C68.8898 125.141 68.7811 125.333 68.5555 125.396C68.3299 125.458 68.0626 125.37 68.0002 125.144L67.283 123.724C67.2622 123.648 67.1453 123.519 66.9949 123.561L65.4077 123.676C65.1612 123.663 64.9692 123.555 64.9067 123.329C64.8443 123.103 64.9322 122.836 65.1578 122.774Z" fill="#d4d4d4"/>
<path d="M37.8469 86.4298L38.8352 84.6773C38.8996 84.6025 38.9535 84.3886 38.804 84.2599L37.5664 82.6736C37.4065 82.4057 37.3857 82.1275 37.5788 81.9032C37.7719 81.679 38.1145 81.5834 38.3388 81.7765L40.0913 82.7648C40.1661 82.8291 40.38 82.8831 40.5087 82.7336L42.095 81.496C42.3628 81.3361 42.6411 81.3153 42.8654 81.5084C43.0896 81.7015 43.1852 82.0441 42.9921 82.2683L42.0038 84.0209C41.9394 84.0957 41.8854 84.3095 42.035 84.4383L43.2726 86.0246C43.4325 86.2924 43.4533 86.5707 43.2602 86.7949C43.0671 87.0192 42.7245 87.1147 42.5002 86.9216L40.7477 85.9334C40.6729 85.869 40.459 85.815 40.3303 85.9645L38.744 87.2022C38.4761 87.3621 38.1979 87.3829 37.9736 87.1898C37.7494 86.9967 37.6538 86.6541 37.8469 86.4298Z" fill="#d4d4d4"/>
<path d="M62.6367 31.7606L64.4916 30.8647C64.6691 30.8155 64.7088 30.6134 64.6842 30.5246L64.4986 28.4731C64.5136 28.1821 64.7062 27.8421 64.9726 27.7683C65.2389 27.6946 65.5544 27.7984 65.7415 28.129L66.6374 29.9839C66.6866 30.1614 66.8887 30.201 66.9775 30.1765L69.029 29.9908C69.32 30.0059 69.66 30.1985 69.7338 30.4648C69.8075 30.7312 69.7037 31.0467 69.3731 31.2338L67.5182 32.1297C67.3407 32.1788 67.301 32.381 67.3256 32.4698L67.5112 34.5213C67.4962 34.8122 67.3036 35.1523 67.0372 35.2261C66.7709 35.2998 66.4554 35.196 66.2683 34.8654L65.3724 33.0105C65.3233 32.833 65.1211 32.7933 65.0323 32.8179L62.9808 33.0035C62.6899 32.9885 62.3498 32.7959 62.276 32.5295C62.1777 32.1744 62.2815 31.8589 62.6367 31.7606Z" fill="#d4d4d4"/>
<path d="M105.972 51.7554L106.904 51.3054C106.993 51.2807 107.013 51.1792 107.001 51.1346L106.907 50.1041C106.915 49.9579 107.012 49.7871 107.146 49.7501C107.279 49.713 107.438 49.7652 107.532 49.9312L107.982 50.8629C108.007 50.9521 108.108 50.972 108.153 50.9597L109.183 50.8665C109.329 50.874 109.5 50.9708 109.537 51.1045C109.574 51.2383 109.522 51.3968 109.356 51.4908L108.424 51.9408C108.335 51.9655 108.315 52.067 108.328 52.1116L108.421 53.1421C108.413 53.2882 108.316 53.459 108.183 53.4961C108.049 53.5331 107.89 53.481 107.796 53.3149L107.346 52.3832C107.322 52.294 107.22 52.2741 107.176 52.2865L106.145 52.3797C105.999 52.3722 105.828 52.2754 105.791 52.1416C105.754 52.0078 105.851 51.837 105.972 51.7554Z" fill="#d4d4d4"/>
<path d="M97.6931 109.626L99.7927 108.612C99.9937 108.557 100.039 108.328 100.011 108.227L99.8006 105.905C99.8177 105.576 100.036 105.191 100.337 105.107C100.639 105.024 100.996 105.141 101.208 105.516L102.222 107.615C102.277 107.816 102.506 107.861 102.607 107.833L104.929 107.623C105.258 107.64 105.643 107.858 105.726 108.16C105.81 108.461 105.692 108.818 105.318 109.03L103.219 110.044C103.018 110.1 102.973 110.329 103.001 110.429L103.211 112.751C103.194 113.081 102.976 113.466 102.674 113.549C102.373 113.632 102.016 113.515 101.804 113.141L100.79 111.041C100.734 110.84 100.505 110.795 100.405 110.823L98.0826 111.033C97.7533 111.016 97.3684 110.798 97.2849 110.497C97.2014 110.195 97.319 109.838 97.6931 109.626Z" fill="#d4d4d4"/>
<path d="M107.532 88.1344L109.041 87.4056C109.186 87.3656 109.218 87.2012 109.198 87.129L109.047 85.4601C109.059 85.2234 109.216 84.9468 109.433 84.8868C109.649 84.8268 109.906 84.9112 110.058 85.1801L110.787 86.6891C110.827 86.8335 110.991 86.8658 111.063 86.8458L112.732 86.6948C112.969 86.707 113.246 86.8637 113.306 87.0804C113.366 87.297 113.281 87.5537 113.012 87.7059L111.503 88.4347C111.359 88.4747 111.327 88.6391 111.347 88.7114L111.498 90.3803C111.485 90.6169 111.329 90.8936 111.112 90.9536C110.895 91.0136 110.639 90.9291 110.487 90.6602L109.758 89.1512C109.718 89.0068 109.553 88.9746 109.481 88.9946L107.812 89.1456C107.576 89.1333 107.299 88.9766 107.239 88.76C107.179 88.5433 107.336 88.2666 107.532 88.1344Z" fill="#d4d4d4"/>
<path d="M23.5988 66.0333L25.8364 65.8308C26.0301 65.7772 26.1805 65.9441 26.2073 66.0409L27.1845 68.064C27.3618 68.3277 27.7327 68.5378 28.0232 68.4574C28.3137 68.377 28.5506 68.1029 28.5402 67.6887L28.3378 65.4511C28.2841 65.2574 28.451 65.107 28.5478 65.0801L30.571 64.103C30.8347 63.9257 31.0448 63.5548 30.9643 63.2643C30.8839 62.9738 30.6098 62.7369 30.1957 62.7473L27.958 62.9498C27.7644 63.0034 27.6139 62.8365 27.5871 62.7397L26.6099 60.7165C26.4327 60.4528 26.0617 60.2427 25.7712 60.3231C25.4807 60.4036 25.2438 60.6777 25.2542 61.0918L25.4567 63.3295C25.5103 63.5231 25.3435 63.6736 25.2466 63.7004L23.2234 64.6775C22.9597 64.8548 22.7497 65.2258 22.8301 65.5163C22.9373 65.9036 23.3083 66.1137 23.5988 66.0333Z" fill="#d4d4d4"/>
<path d="M11.6363 110.566L14.8001 110.28C15.0739 110.204 15.2867 110.44 15.3246 110.577L16.7062 113.438C16.9568 113.811 17.4813 114.108 17.892 113.994C18.3028 113.88 18.6377 113.493 18.623 112.907L18.3368 109.743C18.261 109.469 18.4969 109.257 18.6338 109.219L21.4944 107.837C21.8672 107.587 22.1643 107.062 22.0505 106.651C21.9368 106.241 21.5493 105.906 20.9637 105.92L17.7999 106.207C17.526 106.282 17.3133 106.046 17.2754 105.91L15.8938 103.049C15.6432 102.676 15.1187 102.379 14.7079 102.493C14.2972 102.606 13.9622 102.994 13.977 103.58L14.2632 106.743C14.339 107.017 14.1031 107.23 13.9662 107.268L11.1056 108.65C10.7327 108.9 10.4357 109.425 10.5494 109.835C10.7011 110.383 11.2255 110.68 11.6363 110.566Z" fill="#f5f5f5"/>
<path d="M16.8898 30.2522L19.8069 29.9883C20.0594 29.9184 20.2556 30.1359 20.2905 30.2622L21.5644 32.8997C21.7955 33.2435 22.2791 33.5173 22.6578 33.4125C23.0365 33.3076 23.3453 32.9503 23.3318 32.4104L23.0679 29.4932C22.998 29.2408 23.2155 29.0446 23.3417 29.0097L25.9793 27.7358C26.323 27.5047 26.5969 27.0211 26.4921 26.6424C26.3872 26.2637 26.0299 25.9548 25.49 25.9684L22.5728 26.2323C22.3203 26.3022 22.1242 26.0847 22.0893 25.9585L20.8154 23.3209C20.5843 22.9772 20.1007 22.7033 19.722 22.8081C19.3432 22.913 19.0344 23.2703 19.048 23.8102L19.3119 26.7274C19.3818 26.9799 19.1643 27.176 19.038 27.2109L16.4005 28.4848C16.0567 28.7159 15.7829 29.1995 15.8877 29.5782C16.0275 30.0832 16.5111 30.3571 16.8898 30.2522Z" fill="#f5f5f5"/>
<path d="M132.453 84.8904L136.429 86.3075C136.802 86.3686 136.927 86.7717 136.897 86.958L136.97 91.1786C137.065 91.768 137.532 92.4186 138.091 92.5102C138.65 92.6018 139.27 92.3208 139.578 91.6062L140.995 87.6299C141.056 87.2573 141.459 87.1321 141.646 87.1627L145.866 87.0895C146.456 86.9948 147.106 86.5275 147.198 85.9687C147.289 85.4098 147.009 84.7898 146.294 84.4813L142.318 83.0642C141.945 83.0031 141.82 82.6 141.85 82.4137L141.777 78.1931C141.682 77.6037 141.215 76.9532 140.656 76.8615C140.097 76.7699 139.477 77.0509 139.169 77.7655L137.752 81.7418C137.691 82.1144 137.288 82.2396 137.101 82.209L132.881 82.2823C132.291 82.3769 131.641 82.8442 131.549 83.4031C131.427 84.1483 131.894 84.7988 132.453 84.8904Z" fill="#f5f5f5"/>
<path d="M49.0588 44.7536C48.6894 44.8559 48.4728 45.2383 48.5751 45.6077C48.6774 45.9771 49.0598 46.1937 49.4292 46.0914C49.7987 45.9892 50.0152 45.6068 49.913 45.2373C49.8107 44.8679 49.4283 44.6513 49.0588 44.7536Z" fill="#d4d4d4"/>
<path d="M72.9485 62.1943C72.579 62.2965 72.3625 62.6789 72.4647 63.0484C72.567 63.4178 72.9494 63.6344 73.3189 63.5321C73.6883 63.4298 73.9049 63.0474 73.8026 62.678C73.7003 62.3086 73.3179 62.092 72.9485 62.1943Z" fill="#d4d4d4"/>
<path d="M88.4672 34.0585C88.2715 34.3881 88.38 34.8139 88.7097 35.0096C89.0393 35.2053 89.4651 35.0967 89.6608 34.7671C89.8565 34.4375 89.7479 34.0117 89.4183 33.816C89.0887 33.6203 88.6628 33.7289 88.4672 34.0585Z" fill="#d4d4d4"/>
<path d="M66.0721 20.7561C65.8764 21.0857 65.985 21.5116 66.3146 21.7073C66.6443 21.9029 67.0701 21.7944 67.2658 21.4648C67.4615 21.1351 67.3529 20.7093 67.0233 20.5136C66.6937 20.3179 66.2678 20.4265 66.0721 20.7561Z" fill="#d4d4d4"/>
<path d="M26.1205 51.313C25.9248 51.6426 26.0334 52.0685 26.363 52.2641C26.6926 52.4598 27.1185 52.3513 27.3141 52.0216C27.5098 51.692 27.4012 51.2662 27.0716 51.0705C26.742 50.8748 26.3162 50.9834 26.1205 51.313Z" fill="#d4d4d4"/>
<path d="M29.0292 78.6073C28.8335 78.9369 28.9421 79.3628 29.2717 79.5585C29.6013 79.7541 30.0271 79.6456 30.2228 79.3159C30.4185 78.9863 30.3099 78.5605 29.9803 78.3648C29.6507 78.1691 29.2249 78.2777 29.0292 78.6073Z" fill="#d4d4d4"/>
<path d="M36.6005 105.887C36.4048 106.216 36.5133 106.642 36.843 106.838C37.1726 107.034 37.5984 106.925 37.7941 106.595C37.9898 106.266 37.8812 105.84 37.5516 105.644C37.222 105.449 36.7961 105.557 36.6005 105.887Z" fill="#d4d4d4"/>
<path d="M54.91 119.827C54.7143 120.157 54.8229 120.583 55.1525 120.779C55.4822 120.974 55.908 120.866 56.1037 120.536C56.2994 120.206 56.1908 119.781 55.8612 119.585C55.5316 119.389 55.1057 119.498 54.91 119.827Z" fill="#d4d4d4"/>
<path d="M88.4047 120.051C88.209 120.381 88.3175 120.807 88.6472 121.002C88.9768 121.198 89.4026 121.089 89.5983 120.76C89.794 120.43 89.6854 120.004 89.3558 119.809C89.0262 119.613 88.6003 119.721 88.4047 120.051Z" fill="#d4d4d4"/>
<path d="M111.709 99.2577C111.514 99.5873 111.622 100.013 111.952 100.209C112.281 100.405 112.707 100.296 112.903 99.9663C113.099 99.6367 112.99 99.2109 112.66 99.0152C112.331 98.8195 111.905 98.9281 111.709 99.2577Z" fill="#d4d4d4"/>
<path d="M124.13 76.7053C123.935 77.035 124.043 77.4608 124.373 77.6565C124.702 77.8522 125.128 77.7436 125.324 77.414C125.52 77.0843 125.411 76.6585 125.081 76.4628C124.752 76.2671 124.326 76.3757 124.13 76.7053Z" fill="#d4d4d4"/>
<path d="M110.105 42.0772C109.909 42.4068 110.018 42.8326 110.347 43.0283C110.677 43.224 111.103 43.1154 111.299 42.7858C111.494 42.4562 111.386 42.0303 111.056 41.8346C110.726 41.639 110.301 41.7475 110.105 42.0772Z" fill="#d4d4d4"/>
<path d="M147.775 62.3292L133.976 44.0019L105.88 65.3824L119.679 83.7097L147.775 62.3292Z" fill="white" stroke="#a3a3a3" stroke-width="2" stroke-miterlimit="10"/>
<path d="M126.982 78.4619L112.81 59.7388" stroke="#a3a3a3" stroke-width="2" stroke-miterlimit="10"/>
<path d="M133.913 73.2158L119.74 54.4927" stroke="#a3a3a3" stroke-width="2" stroke-miterlimit="10"/>
<path d="M140.843 67.9697L126.671 49.2466" stroke="#a3a3a3" stroke-width="2" stroke-miterlimit="10"/>
<path d="M138.333 50.2513L110.61 71.236" stroke="#a3a3a3" stroke-width="2" stroke-miterlimit="10"/>
<path d="M143.065 56.5024L115.342 77.4871" stroke="#a3a3a3" stroke-width="2" stroke-miterlimit="10"/>
<path d="M107.991 80.3657L114.05 75.7581L111.895 72.8973L105.836 77.505L107.991 80.3657Z" fill="#d4d4d4" stroke="#a3a3a3" stroke-width="2" stroke-miterlimit="10"/>
<path d="M114.838 104.185C112.638 105.85 109.511 105.414 107.843 103.209L105.077 99.5552C104.939 99.374 104.976 99.109 105.157 98.9721L112.479 93.4294C112.66 93.2926 112.925 93.3295 113.062 93.5107L115.828 97.1647C117.466 99.392 117.007 102.542 114.838 104.185Z" fill="#d4d4d4" stroke="#a3a3a3" stroke-width="2.0875" stroke-miterlimit="10"/>
<path d="M65.7992 124.491L52 106.164L80.0961 84.7834L93.8953 103.111L65.7992 124.491Z" fill="white" stroke="#a3a3a3" stroke-width="2" stroke-miterlimit="10"/>
<path d="M86.9648 108.753L72.7925 90.0295" stroke="#a3a3a3" stroke-width="2" stroke-miterlimit="10"/>
<path d="M80.0337 113.999L65.8613 95.2755" stroke="#a3a3a3" stroke-width="2" stroke-miterlimit="10"/>
<path d="M73.1035 119.245L58.9312 100.522" stroke="#a3a3a3" stroke-width="2" stroke-miterlimit="10"/>
<path d="M56.7319 112.019L84.4548 91.0346" stroke="#a3a3a3" stroke-width="2" stroke-miterlimit="10"/>
<path d="M61.4639 118.27L89.1868 97.2855" stroke="#a3a3a3" stroke-width="2" stroke-miterlimit="10"/>
<path d="M91.7705 88.1563L85.7119 92.7639L87.8672 95.6246L93.9258 91.017L91.7705 88.1563Z" fill="#d4d4d4" stroke="#a3a3a3" stroke-width="2" stroke-miterlimit="10"/>
<path d="M97.5213 66.6557L83.3887 77.3533L102.819 103.022L102.841 103.052C102.841 103.052 102.841 103.052 102.864 103.082C103.672 104.086 107.453 102.507 111.34 99.5644C115.227 96.622 117.744 93.4344 117.027 92.3621C117.027 92.3621 117.027 92.3621 117.004 92.3319L116.981 92.3017L97.5515 66.6328L97.5213 66.6557Z" fill="white" stroke="#a3a3a3" stroke-width="2" stroke-miterlimit="10"/>
<path d="M104.493 75.8662L109.888 82.9931L109.911 83.0233L109.934 83.0535C110.681 84.1031 108.134 87.3134 104.247 90.2558C100.359 93.1983 96.6084 94.7551 95.7709 93.7739L95.7481 93.7437L95.7252 93.7135L90.3306 86.5867C91.1379 87.5906 94.9191 86.011 98.8063 83.0686C102.694 80.1262 105.218 76.8856 104.493 75.8662Z" fill="#d4d4d4" stroke="#a3a3a3" stroke-width="2" stroke-miterlimit="10"/>
<path d="M98.0347 54.7866C101.701 59.6524 98.8326 68.0492 91.6176 73.5362C84.4025 79.0232 75.5498 79.54 71.8839 74.6742C71.8617 74.6447 71.8395 74.6152 71.8172 74.5857C71.795 74.5562 71.7506 74.4973 71.7284 74.4678C70.5557 72.53 75.2735 66.7156 82.3668 61.3212C89.4601 55.9268 96.333 52.9729 97.8487 54.6034C97.8709 54.6329 97.9153 54.6918 97.9376 54.7213C97.968 54.6982 97.9902 54.7277 98.0347 54.7866Z" fill="#d4d4d4" stroke="#a3a3a3" stroke-width="2" stroke-miterlimit="10" stroke-linejoin="round"/>
<path d="M97.8103 54.622L97.8325 54.6513C98.2447 55.2611 98.0202 56.3546 97.2523 57.6763C95.7084 60.372 92.0409 64.1731 87.2801 67.7894C82.5192 71.4057 77.8477 73.939 74.8734 74.6753C73.3974 75.0581 72.2876 74.9781 71.8147 74.4143L71.7926 74.385C71.7704 74.3556 71.7483 74.3263 71.7262 74.297C70.5582 72.3691 75.2574 66.5844 82.3228 61.2175C89.3883 55.8506 96.2342 52.9118 97.7439 54.5339C97.7661 54.5633 97.7882 54.5926 97.8103 54.622Z" fill="#f5f5f5" stroke="#a3a3a3" stroke-width="2" stroke-miterlimit="10" stroke-linejoin="round"/>
<path d="M97.2428 57.6905L97.2649 57.7198C95.7227 60.4111 92.0595 64.206 87.3041 67.8165C82.5488 71.4269 77.8826 73.956 74.9118 74.6911L74.8897 74.6618C74.8676 74.6325 74.8454 74.6032 74.8454 74.6032C73.8474 72.9651 77.8864 67.9635 83.9442 63.3642C90.0322 58.7419 95.8977 56.2238 97.1986 57.6319C97.1986 57.6319 97.2207 57.6612 97.2428 57.6905Z" fill="#d4d4d4" stroke="#a3a3a3" stroke-width="2" stroke-miterlimit="10" stroke-linejoin="round"/>
<path d="M86.2749 63.5669C86.3795 63.7701 85.8735 64.3903 85.1309 64.9547C84.3574 65.5426 83.6257 65.8632 83.4676 65.6535L78.4102 57.7178L79.8644 56.6125L86.2298 63.507L86.2749 63.5669Z" fill="#f5f5f5" stroke="#a3a3a3" stroke-width="2" stroke-miterlimit="10" stroke-linejoin="round"/>
<path d="M79.7445 57.8316C80.6919 57.1105 80.8995 55.7815 80.208 54.8631C79.5165 53.9447 78.1879 53.7847 77.2404 54.5057C76.293 55.2268 76.0854 56.5558 76.7769 57.4742C77.4684 58.3926 78.797 58.5526 79.7445 57.8316Z" fill="#f5f5f5" stroke="#a3a3a3" stroke-width="2" stroke-miterlimit="10" stroke-linejoin="round"/>
<path d="M37.6256 34.2774C37.3892 35.8532 36.3649 38.9261 34.5527 39.3988C34.4739 39.3988 34.3952 39.3988 34.3164 39.4776C32.583 39.714 30.6132 38.5321 29.3525 37.6654C28.7222 37.1927 28.0919 36.6412 27.5403 36.0896C27.304 35.8532 26.9888 35.5381 26.7524 35.3017C24.9402 33.3319 23.522 30.8894 22.6553 28.2893C22.4977 27.7378 22.3401 27.1862 22.4189 26.6347C22.4189 26.4771 22.4977 26.3983 22.4977 26.3195C22.6553 25.9256 22.9704 25.5316 23.4432 25.4528C23.8371 25.374 24.1523 25.5316 24.5463 25.6104C24.9402 25.768 25.2554 25.9256 25.6493 26.1619C24.7826 25.1377 24.5463 23.4043 24.5463 22.1436C24.5463 22.0648 24.5463 21.9072 24.6251 21.9072C24.7038 21.8284 24.9402 21.9072 25.019 21.986C26.2797 22.9315 26.2797 24.6649 26.8312 26.0831C26.8312 25.0589 26.91 24.0346 26.91 23.0103C26.91 22.3012 26.9888 21.4345 27.5403 20.9617C27.6191 20.8829 27.6979 20.8829 27.7767 20.8829C27.9343 20.8829 28.0131 21.0405 28.0919 21.1193C29.0374 22.7739 28.4858 24.8225 28.6434 26.7135C28.7222 27.4226 28.801 28.1317 28.9586 28.8408C29.0374 29.156 29.1949 29.8651 29.3525 30.5742C29.5101 30.8894 29.6677 31.2046 29.9041 31.5197C29.9829 31.6773 30.1404 31.8349 30.298 31.9137C30.5344 32.1501 30.8496 32.3864 31.1647 32.6228C31.795 32.938 32.4254 33.1743 33.1345 33.3319C34.3952 33.5683 35.6558 33.5683 36.9165 33.6471C37.1528 33.6471 37.3892 33.7259 37.5468 33.8835C37.6256 34.041 37.6256 34.1198 37.6256 34.2774Z" fill="white" stroke="#a3a3a3" stroke-width="2" stroke-miterlimit="10" stroke-linecap="round" stroke-linejoin="round"/>
<path d="M54.1715 60.357C52.5169 60.357 50.7835 59.8055 49.5228 59.0176C47.0803 57.4418 45.5833 55.078 44.165 52.9507L46.9227 51.1385C48.1834 53.0295 49.444 55.078 51.2562 56.1811C52.6745 57.1266 54.9594 57.4418 56.2201 56.3387C57.7959 54.9204 57.4019 52.2415 56.7716 50.2718C55.9837 47.8292 54.4867 45.7019 52.6745 44.3624L54.6443 41.7623C57.0868 43.5745 58.9778 46.2534 59.9233 49.3263C61.2627 53.5022 60.79 56.8114 58.4262 58.86C57.2444 59.8843 55.6685 60.357 54.1715 60.357Z" fill="#a3a3a3"/>
<path d="M57.5598 34.1987C57.6386 35.3806 57.2447 36.5625 56.7719 37.7443C54.9597 42.4718 53.0687 47.1992 50.8626 51.7691C50.3898 52.6358 49.9959 53.5813 49.5231 54.448C48.8928 55.7087 48.1049 57.1269 46.6866 57.4421C45.5048 57.6785 44.4017 57.1269 43.3774 56.5754C43.0623 56.4178 42.7471 56.1814 42.5895 55.8663C42.4319 55.5511 42.5107 55.1571 42.5895 54.842C43.535 50.1145 45.3472 45.7022 47.1594 41.2111C48.0261 39.005 48.9716 36.72 49.6807 34.4351C50.2323 32.8593 50.6262 30.8107 52.6748 30.6531C54.5658 30.5743 57.4022 32.0714 57.5598 34.1987Z" fill="#a3a3a3"/>
<path d="M35.5769 48.3022C35.5769 48.4598 35.5769 48.5386 35.5769 48.6961C35.4981 49.7204 35.2617 50.6659 34.7102 51.5326C34.0799 52.4781 33.1344 53.266 32.0313 53.5024C31.7949 53.5812 31.5585 53.5812 31.3222 53.5812C30.2979 53.66 29.2736 53.3448 28.3281 52.9509C27.1462 52.4781 25.9644 51.9266 24.6249 51.8478C23.9158 51.769 23.2067 51.8478 22.4976 52.0054C22.1036 52.0842 21.7884 52.2417 21.3945 52.3205C21.0005 52.4781 20.6066 52.6357 20.2126 52.7933C18.8732 53.4236 17.5337 54.2903 16.1943 54.8418C15.0912 55.3146 13.7518 55.551 12.8063 54.8418C12.3335 54.5267 12.0971 53.9751 11.8608 53.5024C10.5213 50.9811 9.33945 48.4598 8.15758 45.8597C8.07879 45.7809 8 45.6233 8 45.4657C8 45.0717 8.47275 44.7566 8.78791 44.599C8.8667 44.5202 8.94549 44.5202 9.02428 44.4414C9.89099 44.0475 10.6789 43.7323 11.6244 43.5747C12.6487 43.4959 13.7518 43.6535 14.4609 44.3626C14.9336 44.8354 15.2488 45.3869 15.5639 46.0172C15.8791 46.7264 16.2731 47.4355 16.5882 48.1446C17.5337 47.3567 18.4792 46.5688 19.5035 45.8597C19.8187 45.6233 20.1338 45.4657 20.449 45.3081C21.0005 44.993 21.6309 44.6778 22.2612 44.5202C23.2855 44.1263 24.3886 43.9687 25.4916 43.8899C26.0432 43.8111 26.5947 43.7323 27.1462 43.8111C27.7766 43.8111 28.4069 43.9687 28.9584 44.0475C30.4555 44.3626 32.0313 44.6778 33.5283 44.993L31.8737 44.8354C33.2132 45.1505 34.789 45.6233 35.3405 46.8839C35.5769 47.2779 35.5769 47.8294 35.5769 48.3022Z" fill="white" stroke="#a3a3a3" stroke-width="2" stroke-miterlimit="10" stroke-linecap="round" stroke-linejoin="round"/>
<path d="M29.7464 44.5202C29.1949 46.6475 29.6676 48.9325 31.0071 50.7447C31.0859 50.8234 31.1647 50.981 31.3222 50.9022C31.401 50.9022 31.401 50.8234 31.4798 50.7447C31.7162 50.1931 31.795 49.5628 31.8738 49.0112C32.0314 47.6718 32.5041 45.5444 32.0314 44.205C31.4798 42.9443 29.9828 43.4959 29.7464 44.5202Z" fill="#a3a3a3"/>
<path d="M39.5163 29.3921C38.886 30.2588 38.0981 30.9679 37.389 31.7558C33.213 36.2469 31.2433 42.4714 30.0614 48.5383C29.7462 50.1141 29.5886 51.8475 30.5341 53.0294C31.0069 53.5809 31.6372 53.9749 32.2675 54.2901C33.2918 54.8416 34.2373 55.3931 35.2616 55.9447C36.4435 56.575 37.7041 57.2841 39.0436 57.3629C40.6194 57.4417 42.1952 56.6538 43.3771 55.5507C44.559 54.4476 45.3469 53.0294 46.1348 51.6112C48.1046 47.9868 49.9168 44.2836 51.4926 40.5016C51.9653 39.3985 52.4381 38.2167 52.5956 37.0348C52.832 35.3014 52.4381 33.568 52.1229 31.9134C52.0441 31.5194 51.9653 31.0467 51.6502 30.7315C51.2562 30.3376 50.6259 30.3376 50.1531 30.4164C46.6863 30.5739 43.1407 30.8891 39.8315 30.1012C39.1224 29.9436 38.3345 29.7072 37.9405 29.0769" fill="white"/>
<path d="M39.5163 29.3921C38.886 30.2588 38.0981 30.9679 37.389 31.7558C33.213 36.2469 31.2433 42.4714 30.0614 48.5383C29.7462 50.1141 29.5886 51.8475 30.5341 53.0294C31.0069 53.5809 31.6372 53.9749 32.2675 54.2901C33.2918 54.8416 34.2373 55.3931 35.2616 55.9447C36.4435 56.575 37.7041 57.2841 39.0436 57.3629C40.6194 57.4417 42.1952 56.6538 43.3771 55.5507C44.559 54.4476 45.3469 53.0294 46.1348 51.6112C48.1046 47.9868 49.9168 44.2836 51.4926 40.5016C51.9653 39.3985 52.4381 38.2167 52.5956 37.0348C52.832 35.3014 52.4381 33.568 52.1229 31.9134C52.0441 31.5194 51.9653 31.0467 51.6502 30.7315C51.2562 30.3376 50.6259 30.3376 50.1531 30.4164C46.6863 30.5739 43.1407 30.8891 39.8315 30.1012C39.1224 29.9436 38.3345 29.7072 37.9405 29.0769" stroke="#a3a3a3" stroke-width="2" stroke-miterlimit="10" stroke-linecap="round" stroke-linejoin="round"/>
<path d="M22.4975 52.084C22.1035 52.1628 21.7884 52.3203 21.3944 52.3991C21.3156 51.2961 21.158 50.0354 20.8429 48.8535C20.5277 47.8292 20.1337 46.8838 19.5034 45.9383C19.8186 45.7019 20.1337 45.5443 20.4489 45.3867C21.0792 46.411 21.552 47.4353 21.8672 48.5384C22.1823 49.7202 22.4187 50.9809 22.4975 52.084Z" fill="#a3a3a3"/>
<path d="M33.2129 50.5084C32.8978 51.2963 33.0554 50.272 32.9766 51.2175C32.9766 52.0842 33.2129 52.9509 33.6857 53.7388C34.6312 55.0783 36.2858 55.8662 37.8616 56.4177C39.2799 56.8905 40.7769 57.1269 42.1951 56.4177C43.9285 55.551 45.268 53.5025 45.1104 51.5327C44.9528 48.9326 41.88 47.5931 39.595 47.3568C36.7585 47.0416 35.3403 48.0659 33.1341 49.7205V50.5084H33.2129Z" fill="#a3a3a3"/>
<path d="M55.1956 25.5315C55.1956 25.6103 55.1168 25.7679 55.1168 25.8467C54.7229 27.5801 54.2501 29.2347 54.0925 31.0469C54.0137 31.8348 54.1713 33.253 53.3834 33.8046C52.7531 34.1985 51.65 33.9621 50.9409 33.9621C48.7347 33.8046 46.6074 33.4106 44.3224 33.4106C44.1648 33.4106 44.0073 33.4106 43.7709 33.4106C42.983 33.3318 42.2739 33.0166 41.6435 32.6227C40.7768 32.2287 39.9889 31.756 39.1222 31.4408C38.4131 31.2045 37.6252 31.0469 37.2312 30.4165C36.7585 29.7862 36.7585 28.9983 36.6797 28.2892C36.4433 25.9254 36.5221 23.4041 37.1524 21.1192C37.5464 19.7009 38.3343 18.2827 39.5162 17.2584C42.1163 14.8947 46.2922 14.4219 49.5226 15.9978C51.8864 17.1796 53.9349 19.2282 54.8804 21.7495C55.2744 22.8526 55.432 24.192 55.1956 25.5315Z" fill="white" stroke="#a3a3a3" stroke-width="2" stroke-miterlimit="10" stroke-linecap="round" stroke-linejoin="round"/>
<path d="M55.1957 25.5315C55.1957 25.6103 55.1169 25.7679 55.1169 25.8466C54.723 27.5801 54.2502 29.2347 54.0926 31.0469C54.0138 31.8348 54.1714 33.253 53.3835 33.8046C52.7532 34.1985 51.6501 33.9621 50.941 33.9621C48.7348 33.8046 46.6075 33.4106 44.3225 33.4106C44.1649 33.4106 44.0074 33.4106 43.771 33.4106C44.7165 33.0166 45.7408 33.0166 46.7651 32.8591C49.9955 32.3075 52.832 30.0226 54.0926 27.0285C54.4866 26.083 54.723 25.0587 54.8018 24.0345C54.8805 23.2465 54.8805 22.4586 54.723 21.7495C55.2745 22.8526 55.4321 24.192 55.1957 25.5315Z" fill="white" stroke="#a3a3a3" stroke-width="2" stroke-miterlimit="10" stroke-linecap="round" stroke-linejoin="round"/>
<path d="M48.1044 32.0715C47.2377 32.8594 46.2134 33.411 45.1103 33.411C43.2193 33.411 41.2496 33.017 39.5162 32.1503C38.9646 31.8351 38.4919 31.52 38.0191 31.2048C37.7828 30.9684 37.4676 30.7321 37.31 30.4957C36.7585 29.8654 36.4433 29.1562 36.2857 28.2895C35.813 26.4773 36.1281 24.2712 36.7585 22.5378C37.4676 20.7256 38.5707 20.0165 40.4617 19.9377C42.3526 19.7801 44.5588 20.4104 46.371 21.2771C46.4498 21.3559 46.5286 21.3559 46.6074 21.4347C47.3953 21.8287 48.1044 22.3014 48.6559 22.8529C51.3348 25.2955 50.6257 29.7078 48.1044 32.0715Z" fill="white" stroke="#a3a3a3" stroke-width="2" stroke-miterlimit="10" stroke-linecap="round" stroke-linejoin="round"/>
<path d="M43.9286 52.8721C43.9286 52.9509 43.9286 52.9509 43.9286 53.0297C43.9286 53.4236 43.8498 53.7388 43.6922 54.054C43.1407 55.551 41.5649 56.4965 39.989 56.9692C38.4132 57.442 36.7586 57.5208 35.2616 57.9935C34.0009 58.3875 32.7403 58.939 31.7948 59.8057C31.5584 60.0421 31.322 60.1997 31.1644 60.4361C31.1644 60.5148 31.0857 60.5148 31.0857 60.5936C29.3522 62.721 28.8795 65.7938 26.8309 67.6848C26.6734 67.8424 26.5158 67.9212 26.3582 68C26.2006 68 26.043 67.9212 25.8854 67.9212C22.9702 66.6605 20.2913 65.0847 17.6124 63.4301C17.2184 63.1937 16.7457 62.8786 16.5093 62.4846C16.3517 62.1695 16.3517 61.8543 16.5093 61.5391C16.9033 60.3573 18.6367 58.939 19.4246 58.6239C20.2913 58.3087 21.3156 58.3875 22.1823 58.7026C23.049 59.0178 23.9157 59.5693 24.6248 60.1209C24.7824 59.0178 25.0975 57.8359 25.5703 56.8117C25.7279 56.4965 25.8854 56.1813 26.043 55.8662C26.2006 55.551 26.437 55.3146 26.5946 54.9995C27.0673 54.2903 27.6976 53.66 28.328 53.1085C29.1947 52.3206 30.1402 51.6114 31.0857 50.9811C32.5039 50.0356 34.0009 49.1689 35.5767 48.775C35.8131 48.6962 36.0495 48.6962 36.2859 48.6174C37.8617 48.3022 39.5951 48.5386 41.0921 49.1689C41.9588 49.4841 42.7467 50.0356 43.2983 50.7447C43.6922 51.2963 43.9286 52.0842 43.9286 52.8721Z" fill="white" stroke="#a3a3a3" stroke-width="2" stroke-miterlimit="10" stroke-linecap="round" stroke-linejoin="round"/>
<path d="M31.716 59.8055C31.4796 60.0419 31.2433 60.1995 31.0857 60.4359C31.0857 60.5146 31.0069 60.5146 31.0069 60.5934C30.0614 59.4116 28.9583 58.4661 27.6977 57.757C27.1461 57.4418 26.5158 57.2054 25.8855 56.969C25.8067 56.8902 25.6491 56.8902 25.5703 56.8115C25.7279 56.4963 25.8855 56.1811 26.0431 55.866C26.1219 55.866 26.2006 55.9448 26.2794 55.9448C26.9098 56.1811 27.6189 56.4175 28.2492 56.8115C29.5099 57.5206 30.7705 58.5449 31.716 59.8055Z" fill="#a3a3a3"/>
<path d="M67.6446 39.2413C67.6446 39.3201 67.6446 39.4776 67.5658 39.5564C67.3294 40.4231 66.4627 40.8959 65.596 41.0535C65.3597 41.1323 65.0445 41.1323 64.8081 41.1323C64.1778 41.211 63.6263 41.211 62.9959 41.3686C62.3656 41.5262 61.7353 41.9202 61.1049 42.2353C60.4746 42.5505 59.7655 42.7869 59.1352 42.9444C58.7412 43.0232 58.3473 43.102 57.9533 43.1808C56.2199 43.4172 54.4865 43.2596 52.8319 42.7081C51.8076 42.3929 51.0197 41.5262 50.5469 40.4231C49.8378 38.6897 49.9954 36.4836 51.65 35.4593C53.7774 34.1198 55.1168 36.0108 56.8502 36.7987C57.1654 36.9563 57.4806 37.0351 57.7957 37.1139C58.1897 37.1927 58.5836 37.1927 58.9776 37.1927C59.8443 37.1139 60.711 36.8775 61.4989 36.4836C62.9171 35.7745 64.1778 34.6714 65.4385 33.6471C65.6748 33.4895 65.9112 33.2531 66.2264 33.3319C66.5415 33.4107 66.6991 33.8047 66.6991 34.1986V34.2774C66.6203 34.5926 66.4627 34.9078 66.3839 35.2229C66.2264 36.6412 67.8022 37.9018 67.6446 39.2413Z" fill="white" stroke="#a3a3a3" stroke-width="2" stroke-miterlimit="10" stroke-linecap="round" stroke-linejoin="round"/>
<path d="M67.0149 42.6293L61.1844 13.9494C61.1056 13.6342 61.342 13.3978 61.5784 13.319C61.8935 13.2403 62.1299 13.4766 62.2087 13.713L68.0392 42.393C68.118 42.7081 67.8816 42.9445 67.6453 43.0233C67.4089 43.1021 67.0937 42.8657 67.0149 42.6293Z" fill="white" stroke="#a3a3a3" stroke-width="2" stroke-miterlimit="10" stroke-linecap="round" stroke-linejoin="round"/>
<path d="M67.5664 39.5562C67.3301 40.4229 66.4634 40.8956 65.5967 41.0532C65.3603 41.132 65.0451 41.132 64.8087 41.132C64.8087 41.0532 64.73 40.9744 64.73 40.8956C64.5724 40.5805 64.6512 40.1865 64.9663 39.9501C64.73 39.8713 64.4936 39.7925 64.4148 39.5562C64.2572 39.1622 64.4148 38.6895 64.8087 38.5319L65.0451 38.4531C64.9663 38.4531 64.8875 38.4531 64.8875 38.4531C64.5724 38.4531 64.336 38.2955 64.1784 37.9803C64.0208 37.5864 64.1784 37.1924 64.4936 36.9561C64.336 36.8773 64.0996 36.7197 64.0208 36.5621C63.8633 36.1682 64.0208 35.6954 64.4148 35.5378L66.9361 34.356C66.8573 34.6711 66.6997 34.9863 66.6209 35.3014C66.227 36.7197 68.0392 38.0591 67.5664 39.5562Z" fill="white" stroke="#a3a3a3" stroke-width="2" stroke-miterlimit="10" stroke-linecap="round" stroke-linejoin="round"/>
<path d="M68.8264 38.7684C68.7476 38.532 68.5112 38.3744 68.2748 38.3744L68.5112 38.2956C68.9052 38.138 69.0628 37.6653 68.9052 37.2713C68.7476 36.9562 68.3536 36.7986 68.0385 36.8774L68.1961 36.7986C68.59 36.641 68.7476 36.1683 68.59 35.7743C68.5112 35.5379 68.3536 35.4591 68.1173 35.3804C68.4324 35.144 68.59 34.75 68.4324 34.3561C68.2748 33.9621 67.8021 33.8045 67.4081 33.9621L64.7292 35.2228C64.3353 35.3804 64.1777 35.8531 64.3353 36.2471C64.4141 36.4834 64.5717 36.5622 64.808 36.641C64.4929 36.8774 64.3353 37.2713 64.4929 37.6653C64.6505 37.9805 65.0444 38.138 65.3596 38.0593L65.1232 38.138C64.7292 38.2956 64.5717 38.7684 64.7292 39.1623C64.808 39.3987 65.0444 39.5563 65.2808 39.5563C64.9656 39.7927 64.8868 40.1866 65.0444 40.5018C65.202 40.8957 65.6747 41.0533 66.0687 40.8957L68.4324 39.7927C68.8264 39.6351 68.984 39.2411 68.8264 38.7684Z" fill="white" stroke="#a3a3a3" stroke-width="2" stroke-miterlimit="10" stroke-linecap="round" stroke-linejoin="round"/>
<path opacity="0.4" d="M45.1894 24.4287C44.8743 24.9014 44.2439 25.059 43.7712 24.8226C43.6136 24.7438 43.3772 24.665 43.2196 24.5862C41.0135 23.7195 38.6498 24.2711 38.0194 25.9257C37.8618 26.3196 37.3103 26.2408 37.3103 25.8469C37.2315 25.2954 37.3103 24.665 37.5467 24.1135C38.3346 21.9861 40.9347 21.0406 43.3772 21.9861C44.0076 22.2225 44.5591 22.6165 45.0318 23.0104C45.4258 23.4044 45.4258 23.9559 45.1894 24.4287Z" fill="#a3a3a3"/>
<path opacity="0.4" d="M37.6256 36.4835C39.2014 37.2714 42.4319 38.2956 44.4016 38.4532C44.7956 38.532 44.9532 38.8472 44.8744 39.2411C43.5349 42.3928 42.4319 45.5444 42.0379 46.7263C41.9591 47.0415 41.6439 47.199 41.4076 47.1203C39.9893 46.7263 36.0498 45.6232 34.474 44.9929C34.1588 44.9141 34.08 44.5989 34.1588 44.2838C35.4982 40.9745 36.4437 38.0593 36.8377 36.7986C36.9953 36.4835 37.3892 36.3259 37.6256 36.4835Z" fill="#a3a3a3"/>
<path d="M59.2145 42.8654C58.8205 42.9442 58.4266 43.023 58.0326 43.1018C57.4023 42.1563 57.0083 40.8956 57.0871 39.635C57.1659 38.9258 57.4023 37.9016 57.8751 37.1136C58.269 37.1924 58.663 37.1924 59.0569 37.1924C58.5842 37.9016 58.1902 38.9258 58.1114 39.7138C58.0326 40.8956 58.5054 42.1563 59.2145 42.8654Z" fill="#a3a3a3"/>
<path d="M31.2432 32.6228C29.825 33.5683 28.5643 34.7501 27.4613 36.0896C27.2249 35.8532 26.9097 35.538 26.6733 35.3017C27.6976 34.041 28.9583 32.9379 30.2977 31.9924L31.2432 32.6228Z" fill="#a3a3a3"/>
<path d="M82.4579 24.2708C75.0515 21.8283 71.9787 31.1257 64.4147 27.1861L61.7358 14.1068C69.9301 17.5736 73.0818 9.69449 79.779 11.1915L82.4579 24.2708Z" fill="white" stroke="#a3a3a3" stroke-width="2" stroke-miterlimit="10" stroke-linecap="round" stroke-linejoin="round"/>
</svg>
