<svg xmlns="http://www.w3.org/2000/svg" width="24" height="24" fill="none" viewBox="0 0 16 16"><path fill="currentColor" fill-rule="evenodd" d="M10.133 1h4.409a.5.5 0 0 1 .5.5v4.422c0 .026-.035.033-.045.01l-.048-.112a9.095 9.095 0 0 0-4.825-4.776c-.023-.01-.016-.044.01-.044Zm-8.588.275h-.5v1h.5c7.027 0 12.229 5.199 12.229 12.226v.5h1v-.5c0-7.58-5.65-13.226-13.229-13.226Zm.034 4.22h-.5v1h.5c2.361 0 4.348.837 5.744 2.238 1.395 1.401 2.227 3.395 2.227 5.758v.5h1v-.5c0-2.604-.921-4.859-2.52-6.463-1.596-1.605-3.845-2.532-6.45-2.532Zm-.528 8.996v-4.423c0-.041.033-.074.074-.074a4.923 4.923 0 0 1 4.923 4.922.074.074 0 0 1-.074.074H1.551a.5.5 0 0 1-.5-.5Z" clip-rule="evenodd"/></svg>
