<svg xmlns="http://www.w3.org/2000/svg" width="24" height="24" fill="none" viewBox="0 0 16 16"><path fill="currentColor" fill-rule="evenodd" d="M9.277 2.084a.5.5 0 0 1 .185.607l-2.269 5.5a.5.5 0 0 1-.462.309H3.5a.5.5 0 0 1-.354-.854l5.5-5.5a.5.5 0 0 1 .631-.062ZM4.707 7.5h1.69l1.186-2.875L4.707 7.5Zm2.016 6.416a.5.5 0 0 1-.185-.607l2.269-5.5a.5.5 0 0 1 .462-.309H12.5a.5.5 0 0 1 .354.854l-5.5 5.5a.5.5 0 0 1-.631.062Zm4.57-5.416h-1.69l-1.186 2.875L11.293 8.5Z" clip-rule="evenodd"/><path fill="currentColor" fill-rule="evenodd" d="M16 8A8 8 0 1 1 0 8a8 8 0 0 1 16 0Zm-1 0A7 7 0 1 1 1 8a7 7 0 0 1 14 0Z" clip-rule="evenodd"/></svg>
