<svg xmlns="http://www.w3.org/2000/svg" width="24" height="24" fill="none" viewBox="0 0 16 16"><path fill="currentColor" d="M1 2h4.257a2.5 2.5 0 0 1 1.768.732L9.293 5 5 9.293 3.732 8.025A2.5 2.5 0 0 1 3 6.257V4H2v2.257a3.5 3.5 0 0 0 1.025 2.475L5 10.707l1.25-1.25 2.396 2.397.708-.708L6.957 8.75 8.75 6.957l2.396 2.397.708-.708L9.457 6.25 10.707 5 7.732 2.025A3.5 3.5 0 0 0 5.257 1H1v1ZM10.646 2.354l2.622 2.62A2.5 2.5 0 0 1 14 6.744V12h1V6.743a3.5 3.5 0 0 0-1.025-2.475l-2.621-2.622-.707.708ZM4.268 13.975l-2.622-2.621.708-.708 2.62 2.622A2.5 2.5 0 0 0 6.744 14H15v1H6.743a3.5 3.5 0 0 1-2.475-1.025Z"/></svg>
