<svg xmlns="http://www.w3.org/2000/svg" viewBox="0 0 612.001 612.001" width="512" height="512">
  <g transform="translate(-516.408 -163.89)">
    <circle transform="scale(1 -1)" r="178.709" cy="-501.556" cx="822.408"/>
    <path data-old_color="#202124" class="active-path" data-original="#202124" d="M581.009 400.712c0 157.434 128.185 375.178 241.4 375.178 106.581 0 241.399-217.744 241.399-375.178S955.73 163.89 822.408 163.89s-241.399 79.388-241.399 236.822zm304.12 116.415c29.475-29.475 70.598-40.195 108.552-32.173 8.021 37.954-2.698 79.077-32.173 108.552-29.475 29.475-70.598 40.195-108.552 32.173-8.022-37.955 2.698-79.078 32.173-108.552zm-233.994-32.174c37.954-8.02 79.077 2.698 108.552 32.173 29.475 29.475 40.195 70.598 32.173 108.552-37.954 8.021-79.077-2.698-108.552-32.173-29.475-29.476-40.194-70.598-32.173-108.552z" fill="#50fa7b"/>
  </g>
</svg>
