<svg xmlns="http://www.w3.org/2000/svg" height="765" width="1200">
  <path fill="url(#a)" d="M105 57c.2-.3.4-.6.4-1 .8-4.9-15-11.5-35.1-14.7-20.1-3.2-37.2-1.8-38 3.1-.1.4 0 .7.1 1.1-.5-.2-29.6 81.5-29.6 81.5h110S106 57 105 57z" transform="matrix(2.42012 0 0 2.42012 428.06 228.145)"/>
  <path fill="#fff" d="M648.291 347.94c4.599 2.663 7.019 5.567 6.777 7.987-1.21 7.503-28.8 9.197-61.955 4.114-32.914-5.324-58.81-15.73-57.6-22.99.485-2.42 3.631-4.357 8.713-5.325-16.94.726-28.073 3.872-29.041 9.196-1.452 9.923 32.43 23.476 75.992 30.494 43.562 7.018 80.106 4.356 81.8-5.324.968-5.809-8.713-12.1-24.686-18.151z" fill-opacity=".75"/>
  <path fill="url(#b)" d="M73.7 20.1c9.8 1.5 19 3.5 27.3 5.7C99.8 13.4 90.3 2.9 77.5.9s-24.9 5-30 16.3c8.2.5 17 1.4 26.2 2.9z" transform="matrix(2.42012 0 0 2.42012 428.06 228.145)"/>
  <path fill="url(#c)" d="M73.7 20.1C34.9 14 2.3 16.5.9 25.8c-1 6.1 11.7 13.6 31.6 19.7-.1-.4-.1-.7-.1-1.1.8-4.9 17.8-6.3 38-3.1 20.2 3.2 35.9 9.8 35.1 14.7-.1.4-.2.7-.4 1 20.7.3 35.1-2.9 36.1-9 1.4-9.3-28.8-21.8-67.5-27.9zM48 28.7c-1.6-.3-2.8-1.8-2.5-3.4.3-1.6 1.8-2.8 3.4-2.5 1.6.3 2.8 1.8 2.5 3.4-.2 1.6-1.8 2.7-3.4 2.5zm23.9 2.8c-2.2-.3-3.7-2.4-3.3-4.6.3-2.2 2.4-3.7 4.6-3.3 2.2.3 3.7 2.4 3.3 4.6-.4 2.1-2.5 3.6-4.6 3.3zm23.5 4.7c-1.6-.3-2.8-1.8-2.5-3.4.3-1.6 1.8-2.8 3.4-2.5 1.6.3 2.8 1.8 2.5 3.4-.2 1.6-1.8 2.8-3.4 2.5z" transform="matrix(2.42012 0 0 2.42012 428.06 228.145)"/>
  <linearGradient y2="120.832" x2="59.11" y1="25.874" x1="59.11" gradientUnits="userSpaceOnUse" id="a">
    <stop stop-opacity=".75" stop-color="#52FA7B" offset="0"/>
    <stop stop-opacity=".032" stop-color="#52fa7b" offset="1"/>
  </linearGradient>
  <linearGradient y2="21.874" x2="74.181" y1=".956" x1="77.87" gradientUnits="userSpaceOnUse" id="b">
    <stop stop-color="#969BA1" offset="0"/>
    <stop stop-color="#82868B" offset=".254"/>
    <stop stop-color="#76797E" offset=".5"/>
    <stop stop-color="#72757A" offset=".726"/>
    <stop stop-color="#6B6E73" offset="1"/>
  </linearGradient>
  <radialGradient gradientUnits="userSpaceOnUse" gradientTransform="matrix(.989 .148 -.037 .249 2.155 17.202)" fy="-13.911" fx="71.211" r="69.985" cy="36.883" cx="71" id="c">
    <stop stop-color="#969BA1" offset=".347"/>
    <stop stop-color="#83878C" offset=".901"/>
    <stop stop-color="#72757A" offset=".949"/>
  </radialGradient>
</svg>
