<svg xmlns="http://www.w3.org/2000/svg" width="280" height="127" viewBox="0 0 280 127">
    <path fill="#ffffff" d="M0 87.1h16.4c5.2 0 7.9 2.3 7.9 6.9v12.1c0 4.6-2.6 7-7.9 7h-7.5v13.9h-8.9v-39.9zm15.3 17.8v-9.7c0-1-.5-1.6-1.6-1.6h-4.8v12.8h4.8c1.1.1 1.6-.4 1.6-1.5zM37.4 87.1h8.4c5.2 0 7.9 2.3 7.9 6.9v26c0 4.6-2.6 7-7.9 7h-8.4c-5.3 0-7.9-2.3-7.9-7v-26c0-4.6 2.6-6.9 7.9-6.9zm7.3 31.7v-23.6c0-1-.5-1.6-1.6-1.6h-3c-1.1 0-1.7.5-1.7 1.6v23.6c0 1 .6 1.6 1.7 1.6h3c1 0 1.6-.5 1.6-1.6zM74 118.8v-7.2c0-.5-.1-.9-.4-1.2-.2-.2-.7-.3-1.3-.3h-5.5c-4.9 0-7.4-2.3-7.4-7v-9.1c0-4.6 2.6-6.9 7.9-6.9h7.7c5.2 0 7.9 2.3 7.9 6.9v5.2h-8.9v-4c0-1-.6-1.6-1.7-1.6h-2.1c-1.1 0-1.7.5-1.7 1.6v7c0 .5.1.9.4 1.2.2.2.7.3 1.3.3h5.4c2.7 0 4.6.6 5.7 1.7 1.2 1.2 1.7 2.9 1.7 5.1v9.4c0 4.6-2.6 7-7.9 7h-7.6c-5.3 0-7.9-2.3-7.9-7v-5.1h8.9v4c0 1 .6 1.6 1.7 1.6h2.1c1.2 0 1.7-.5 1.7-1.6zM109.3 84.7l.2 6.6-7.3.3 1.2 33.3-8.9.3-1.2-33.3-7.2.3-.2-6.6 23.4-.9zM137.7 73.6l7.8-.6 2.8 39.8-9.7.7-8.1-22.1-5 23-9.7.7-2.8-39.8 7.8-.6 1.9 26.7 3.8-18.5 6.6-.5 6.4 17.7-1.8-26.5zM162.6 77.9l8.4.4c5.2.3 7.7 2.7 7.5 7.3l-1.4 26c-.2 4.6-3 6.8-8.2 6.5l-8.4-.4c-5.3-.3-7.8-2.7-7.6-7.4l1.4-26c.2-4.5 3-6.7 8.3-6.4zm5.6 32.1l1.2-23.6c.1-1-.5-1.6-1.5-1.7l-3-.2c-1.1-.1-1.7.4-1.8 1.5l-1.2 23.6c-.1 1 .5 1.6 1.6 1.7l3 .2c1.1 0 1.7-.5 1.7-1.5zM191.6 124.7l-7.9-.3 1.4-39.9 9.7.3 5.8 22.8 7.3-22.3 9.7.3-1.4 39.9-7.9-.3.9-26.8-5.7 17.9-6.6-.2-4.4-18.1-.9 26.7zM241.9 127l-1.4-7.2h-9.1l-1.4 7.2h-8.8l9-39.9h11.4l9.2 39.9h-8.9zm-9.1-13.7h6.5l-3.3-16.9-3.2 16.9zM271.8 87.1h8.2v39.9h-8l-8.7-23.9v23.9h-8.1v-39.9h8.1l8.6 23.8v-23.8z"/>
    <path fill="url(#a)" d="M185.3 57c.2-.3.4-.6.4-1 .8-4.9-15-11.5-35.1-14.7s-37.2-1.8-38 3.1c-.1.4 0 .7.1 1.1-.5-.2-29.7 81.5-29.7 81.5h110c.1 0-6.7-70-7.7-70z"/>
    <path fill="url(#b)" d="M154 20.1c9.8 1.5 19 3.5 27.3 5.7-1.2-12.4-10.6-22.9-23.5-24.9-12.8-2-24.9 5-30 16.3 8.2.5 17 1.4 26.2 2.9z"/>
    <path fill="url(#c)" d="M154 20.1c-38.7-6.1-71.3-3.6-72.8 5.7-1 6.1 11.7 13.6 31.6 19.7-.1-.4-.1-.7-.1-1.1.8-4.9 17.8-6.3 38-3.1s35.9 9.8 35.1 14.7c-.1.4-.2.7-.4 1 20.7.3 35.1-2.9 36.1-9 1.4-9.3-28.8-21.8-67.5-27.9zm-25.7 8.6c-1.6-.3-2.8-1.8-2.5-3.4.3-1.6 1.8-2.8 3.4-2.5 1.6.3 2.8 1.8 2.5 3.4-.2 1.6-1.8 2.7-3.4 2.5zm23.9 2.8c-2.2-.3-3.7-2.4-3.3-4.6.3-2.2 2.4-3.7 4.6-3.3 2.2.3 3.7 2.4 3.3 4.6-.4 2.1-2.5 3.6-4.6 3.3zm23.5 4.7c-1.6-.3-2.8-1.8-2.5-3.4.3-1.6 1.8-2.8 3.4-2.5 1.6.3 2.8 1.8 2.5 3.4-.2 1.6-1.8 2.8-3.4 2.5z"/>
    <path fill="#ffffff" d="M171.3 49.5c1.9 1.1 2.9 2.3 2.8 3.3-.5 3.1-11.9 3.8-25.6 1.7-13.6-2.2-24.3-6.4-23.8-9.5.2-1 1.5-1.8 3.6-2.2-7 .3-11.6 1.6-12 3.8-.6 4.1 13.4 9.7 31.4 12.6 18 2.9 33.1 1.8 33.8-2.2.4-2.4-3.6-5-10.2-7.5z"/>
    <linearGradient id="a" gradientUnits="userSpaceOnUse" x1="151.603" y1="41.487" x2="136.713" y2="135.498">
        <stop offset="0" stop-color="#52FA7B" stop-opacity=".75"/>
        <stop offset="1" stop-color="#52FA7B" stop-opacity=".25"/>
    </linearGradient>
    <linearGradient id="b" gradientUnits="userSpaceOnUse" x1="158.168" y1=".956" x2="154.479" y2="21.874"><stop offset="0" stop-color="#969BA1"/>
        <stop offset=".254" stop-color="#82868B"/>
        <stop offset=".5" stop-color="#76797E"/>
        <stop offset=".726" stop-color="#72757A"/>
        <stop offset="1" stop-color="#6B6E73"/>
    </linearGradient>
    <radialGradient id="c" cx="151.298" cy="36.883" r="69.985" fx="151.508" fy="-13.911" gradientTransform="matrix(.989 .148 -.037 .249 3.04 5.315)" gradientUnits="userSpaceOnUse">
        <stop offset=".347" stop-color="#969BA1"/>
        <stop offset=".901" stop-color="#83878C"/>
        <stop offset=".949" stop-color="#72757A"/>
    </radialGradient>
</svg>
