<svg width="119" height="117" viewBox="0 0 119 117" fill="none" xmlns="http://www.w3.org/2000/svg">
<path d="M52.0114 115.804C80.1842 115.804 103.023 92.8872 103.023 64.6184C103.023 36.3496 80.1842 13.4332 52.0114 13.4332C23.8386 13.4332 1 36.3496 1 64.6184C1 92.8872 23.8386 115.804 52.0114 115.804Z" fill="#1A1A1A" stroke="#3E3E3E" stroke-width="2" stroke-miterlimit="10"/>
<path d="M110.666 21.9437C111.335 21.3297 111.382 20.2874 110.77 19.6156C110.158 18.9438 109.12 18.8969 108.45 19.5108C107.781 20.1247 107.734 21.167 108.346 21.8389C108.957 22.5107 109.996 22.5576 110.666 21.9437Z" fill="#3E3E3E"/>
<path opacity="0.3" d="M83.419 41.2399C85.2329 41.2399 86.7034 39.7644 86.7034 37.9443C86.7034 36.1242 85.2329 34.6487 83.419 34.6487C81.605 34.6487 80.1345 36.1242 80.1345 37.9443C80.1345 39.7644 81.605 41.2399 83.419 41.2399Z" fill="#3E3E3E"/>
<path d="M61.2815 45.5689C60.8716 47.7547 59.0956 49.8039 56.7732 50.3504C54.9972 50.7602 53.2212 50.3504 51.9917 49.3941V65.2414H37.2373C37.7837 64.1485 37.9204 63.0556 37.7837 61.826C37.5105 59.0937 35.1881 56.9079 32.5924 56.6347C29.0404 56.2248 25.8983 58.9571 25.8983 62.5091C25.8983 63.4654 26.0349 64.4217 26.4447 65.1048H9.77771V34.6397C9.77771 28.3554 14.8325 23.3007 21.2534 23.3007H51.8551V39.148C52.948 38.4649 54.0409 38.0551 55.2704 38.0551C58.959 38.6015 61.9646 41.7437 61.2815 45.5689Z" fill="#1A1A1A" stroke="#3E3E3E" stroke-width="1.5905" stroke-miterlimit="10" stroke-linejoin="round"/>
<path d="M42.0188 85.1871C41.4723 88.8757 44.3412 92.0178 48.0298 92.0178C49.5326 92.0178 50.8987 91.4713 51.9917 90.6516V107.045H21.3899C15.1057 107.045 9.91431 101.854 9.91431 95.7064V65.1047H26.4447C26.0348 64.285 25.8982 63.4653 25.8982 62.3724C26.0348 59.5035 28.2207 57.0444 30.953 56.6346C34.6416 56.2247 37.7837 58.957 37.7837 62.509C37.7837 63.4653 37.6471 64.285 37.2373 65.1047H51.7184V81.4985C50.4889 80.4055 48.8495 79.8591 47.0735 80.1323C44.4778 80.4055 42.4286 82.5914 42.0188 85.1871Z" fill="#1A1A1A" stroke="#3E3E3E" stroke-width="1.5905" stroke-miterlimit="10" stroke-linejoin="round"/>
<path d="M94.069 65.1049V95.4333C94.069 101.718 88.8776 106.772 82.5933 106.772H51.9916V90.3786C50.8987 91.3349 49.5325 91.7447 48.0298 91.7447C44.4778 91.7447 41.7455 88.6026 42.0187 84.914C42.4286 82.1817 44.6144 80.1325 47.0735 79.7226C48.8495 79.586 50.6254 80.1325 51.7184 81.0888V64.695H69.3417C68.7952 65.5147 68.6586 66.471 68.6586 67.4273C68.6586 70.8427 71.6641 73.7116 75.3527 73.3017C78.085 73.0285 80.4075 70.7061 80.6807 68.1104C80.8173 66.8808 80.5441 65.7879 80.1342 64.695L94.069 65.1049Z" fill="#1A1A1A" stroke="#3E3E3E" stroke-width="1.5905" stroke-miterlimit="10" stroke-linejoin="round"/>
<path d="M106.911 52.6728L93.3859 50.3503C93.6591 51.4432 93.7958 52.5362 93.3859 53.6291C92.5662 56.2248 90.1072 58.0007 87.3749 57.8641C83.8229 57.5909 81.2272 54.4488 81.7737 51.0334C81.9103 50.0771 82.3201 49.2574 82.8666 48.5743L65.3799 45.4322L68.1122 29.7215C69.2051 30.8144 70.8445 31.4975 72.7571 31.4975C75.2161 31.3609 77.2654 29.8581 77.9484 27.6723C79.3146 24.1203 76.9921 20.2951 73.3035 19.7486C72.074 19.4754 70.8445 19.7486 69.7516 20.1585L72.4839 4.44775L102.539 9.63912C108.823 10.732 112.922 16.6065 111.829 22.7541L106.911 52.6728Z" fill="#222222" stroke="#696969" stroke-width="2" stroke-miterlimit="10" stroke-linejoin="round"/>
<path d="M113.473 64.1926L118.015 62.8236C118.344 62.7281 118.344 62.2505 118.015 62.155L113.473 60.786C113.356 60.7542 113.271 60.6693 113.239 60.5526L111.87 56.0211C111.775 55.6921 111.297 55.6921 111.202 56.0211L109.833 60.5526C109.801 60.6693 109.716 60.7542 109.599 60.786L105.068 62.155C104.739 62.2505 104.739 62.7281 105.068 62.8236L109.61 64.1926C109.727 64.2244 109.812 64.3093 109.843 64.4261L111.212 68.9682C111.308 69.2971 111.786 69.2971 111.881 68.9682L113.25 64.4261C113.271 64.3093 113.356 64.2244 113.473 64.1926Z" fill="#3E3E3E"/>
<path d="M103.424 24.4522L109.073 22.7495C109.483 22.6307 109.483 22.0367 109.073 21.9179L103.424 20.2152C103.279 20.1756 103.173 20.07 103.134 19.9248L101.431 14.2887C101.312 13.8795 100.718 13.8795 100.599 14.2887L98.8967 19.9248C98.8571 20.07 98.7515 20.1756 98.6064 20.2152L92.9702 21.9179C92.561 22.0367 92.561 22.6307 92.9702 22.7495L98.6196 24.4522C98.7647 24.4918 98.8703 24.5974 98.9099 24.7426L100.613 30.3919C100.731 30.8011 101.325 30.8011 101.444 30.3919L103.147 24.7426C103.173 24.5974 103.279 24.4918 103.424 24.4522Z" fill="#8D8D8D"/>
<path d="M62.357 5.26099L65.1958 4.40544C65.4015 4.34575 65.4015 4.0473 65.1958 3.98761L62.357 3.13205C62.2841 3.11216 62.231 3.0591 62.2111 2.98615L61.3555 0.154199C61.2958 -0.0513995 60.9973 -0.0513995 60.9376 0.154199L60.082 2.98615C60.0621 3.0591 60.009 3.11216 59.9361 3.13205L57.1039 3.98761C56.8983 4.0473 56.8983 4.34575 57.1039 4.40544L59.9427 5.26099C60.0157 5.28088 60.0687 5.33394 60.0886 5.4069L60.9443 8.24547C61.004 8.45107 61.3024 8.45107 61.3621 8.24547L62.2177 5.4069C62.231 5.33394 62.2841 5.28088 62.357 5.26099Z" fill="#3E3E3E"/>
</svg>
