<svg width="117" height="120" viewBox="0 0 117 120" fill="none" xmlns="http://www.w3.org/2000/svg">
<path d="M104.634 68.683C104.634 80.1971 100.53 90.67 93.6709 98.8769C85.0353 109.227 72.0513 115.781 57.4749 115.781C43.511 115.781 31.0169 109.717 22.3813 100.102C14.9707 91.7724 10.4385 80.7483 10.4385 68.683C10.4385 42.6537 31.5069 21.5853 57.5362 21.5853C83.5654 21.5853 104.634 42.6537 104.634 68.683Z" stroke="#3E3E3E" stroke-width="2" stroke-miterlimit="10" stroke-dasharray="4 4"/>
<path d="M74.878 71.7721C74.5225 73.2831 73.9892 74.8829 73.3671 76.216C71.6784 79.5046 69.012 82.082 65.7235 83.7707C62.3462 85.4594 58.3466 86.1704 54.3471 85.2817C44.926 83.3263 38.8822 74.083 40.8376 64.6618C42.7929 55.2407 51.9474 49.1081 61.3685 51.1523C64.7459 51.8633 67.6789 53.552 70.1675 55.8629C74.3447 60.0402 76.1223 66.0839 74.878 71.7721Z" fill="#3E3E3E" stroke="#696969" stroke-width="2" stroke-miterlimit="10"/>
<path d="M63.4127 66.7059H60.4131C59.8608 66.7059 59.4131 66.2582 59.4131 65.7059V62.7063C59.4131 61.9064 58.791 61.1954 57.9022 61.1954C57.1023 61.1954 56.3913 61.8176 56.3913 62.7063V65.7059C56.3913 66.2582 55.9436 66.7059 55.3913 66.7059H52.3917C51.5918 66.7059 50.8808 67.328 50.8808 68.2168C50.8808 69.1056 51.503 69.7277 52.3917 69.7277H55.3913C55.9436 69.7277 56.3913 70.1755 56.3913 70.7277V73.7273C56.3913 74.5272 57.0134 75.2382 57.9022 75.2382C58.7021 75.2382 59.4131 74.6161 59.4131 73.7273V70.7277C59.4131 70.1755 59.8608 69.7277 60.4131 69.7277H63.4127C64.2126 69.7277 64.9236 69.1056 64.9236 68.2168C64.9236 67.328 64.2126 66.7059 63.4127 66.7059Z" fill="#8D8D8D"/>
<path d="M78.3516 21.6057C78.3516 27.1603 76.1318 32.0976 72.6787 35.8007C72.4321 36.171 72.0621 36.4178 71.6921 36.6647C67.9924 40.1209 63.0594 42.2192 57.6332 42.2192C53.3169 42.2192 49.2472 40.8615 45.9174 38.5162C44.9308 37.899 44.0675 37.035 43.2043 36.2944C39.3812 32.5914 37.0381 27.4071 37.0381 21.6057C37.0381 10.2498 46.2874 0.992188 57.6332 0.992188C69.1023 0.992188 78.3516 10.2498 78.3516 21.6057Z" fill="#181818"/>
<path d="M78.3515 21.6046C78.3515 27.6529 75.7617 32.9605 71.692 36.787C67.9923 40.2432 63.0594 42.3416 57.6331 42.3416C53.3168 42.3416 49.2471 40.9838 45.9174 38.6385C40.4911 34.9355 37.038 28.7638 37.038 21.728C37.038 10.3721 46.2873 1.1145 57.6331 1.1145C68.9789 1.1145 78.3515 10.2486 78.3515 21.6046Z" fill="#1A1A1A" stroke="#3E3E3E" stroke-width="2" stroke-miterlimit="10"/>
<path d="M72.6791 35.8007C72.4324 36.171 72.0625 36.4179 71.6925 36.6647C67.9928 40.1209 63.0598 42.2193 57.6336 42.2193C53.3172 42.2193 49.2476 40.8615 45.9178 38.5163C44.9312 37.8991 44.0679 37.035 43.2047 36.2944C43.698 35.6773 44.4379 35.307 46.0411 34.6898L46.6578 34.4429C47.891 33.9492 49.6175 33.332 51.8374 32.3445C52.2073 32.2211 52.454 31.9742 52.7006 31.7274C52.824 31.6039 52.9473 31.4805 52.9473 31.2336C53.0706 30.9868 53.1939 30.6165 53.1939 30.3696V26.1728C53.0706 26.0494 53.0706 26.0494 52.9473 25.926C52.5773 25.4322 52.3307 24.8151 52.3307 24.0744L52.084 23.951C50.9741 24.1979 51.0974 23.087 50.8508 20.8652C50.7274 20.0011 50.8508 19.7542 51.3441 19.6308L51.714 19.1371C50.9741 17.409 50.6041 15.8044 50.6041 14.57C50.6041 12.4716 51.4674 11.1138 52.7006 10.4967C51.9607 9.01546 51.9607 8.52173 51.9607 8.52173C51.9607 8.52173 56.277 9.26234 57.7569 9.01547C59.6068 8.64516 62.5665 9.1389 63.6764 11.6076C65.5263 12.3482 66.1429 13.4591 66.3896 14.6934C66.6362 16.6684 65.5263 18.7668 65.2797 19.6308V19.7542C65.5263 19.8777 65.6496 20.1245 65.5263 20.9886C65.2797 23.087 65.2797 24.3213 64.2931 24.0744L63.3065 25.8025C63.3065 26.0494 63.3065 26.0494 63.1832 26.1728C63.1832 26.5431 63.1832 27.1603 63.1832 30.493C63.1832 30.8633 63.3065 31.3571 63.5531 31.6039C63.6764 31.7274 63.6765 31.8508 63.7998 31.8508C64.0464 32.0977 64.2931 32.3445 64.5397 32.3445C67.0062 33.332 68.7327 34.0726 70.0893 34.5664C71.3225 35.0601 72.1858 35.4304 72.6791 35.8007Z" fill="#1A1A1A"/>
<path d="M72.679 35.8006C72.4324 36.1709 72.0624 36.4178 71.6924 36.6647C67.9927 40.1208 63.0597 42.2192 57.6335 42.2192C53.3172 42.2192 49.2475 40.8614 45.9177 38.5162C44.9311 37.899 44.0679 37.035 43.2046 36.2944C43.6979 35.6772 44.4378 35.3069 46.041 34.6897L46.6577 34.4428C47.8909 33.9491 49.6174 33.3319 51.8373 32.3445C52.2072 32.221 52.4539 31.9742 52.7005 31.7273C53.9338 33.4554 55.907 34.5663 58.2501 34.5663C60.4699 34.5663 62.4431 33.4554 63.6764 31.8507C63.923 32.0976 64.1697 32.3445 64.4163 32.3445C66.8828 33.3319 68.6093 34.0725 69.9659 34.5663C71.3224 35.06 72.1857 35.4303 72.679 35.8006Z" fill="#3E3E3E"/>
<path d="M65.1563 19.5074C65.2796 19.0136 65.033 18.273 64.7863 17.9027C64.7863 17.7793 64.663 17.7793 64.663 17.6559C63.7997 15.9278 61.9499 15.3106 60.2233 15.1872C55.6604 14.9403 55.2904 15.8044 53.9338 14.57C54.4271 15.1872 54.4271 16.2981 53.6872 17.5324C53.1939 18.3965 52.3306 18.8902 51.4673 19.1371C49.3708 14.4466 50.4807 11.4841 52.4539 10.4967C51.714 9.01546 51.714 8.52173 51.714 8.52173C51.714 8.52173 56.0303 9.26234 57.5102 9.01547C59.3601 8.64516 62.3198 9.1389 63.4298 11.6076C65.2796 12.3482 65.8962 13.4591 66.1429 14.6934C66.5129 16.545 65.4029 18.6433 65.1563 19.5074Z" fill="#696969"/>
<path d="M53.3171 30.3695V26.1727C53.1938 26.0493 53.1938 26.0493 53.0704 25.9258V25.679C53.3171 26.0493 53.5637 26.4196 53.9337 26.6664L57.2634 29.0117C58.0034 29.6288 59.1133 29.6288 59.8533 29.0117L62.9363 26.2961C63.0597 26.1727 63.183 26.1727 63.3063 26.0493C63.3063 26.4196 63.3063 27.0367 63.3063 30.3695C63.3063 30.6163 63.3063 30.7398 63.4296 30.9866H53.3171C53.1938 30.7398 53.3171 30.6163 53.3171 30.3695Z" fill="url(#paint0_linear_595_1141)"/>
<path d="M115.285 97.8076C115.285 103.362 113.065 108.3 109.612 112.003C109.365 112.373 108.995 112.62 108.625 112.867C104.926 116.323 99.9926 118.421 94.5664 118.421C90.25 118.421 86.1803 117.063 82.8506 114.718C81.864 114.101 81.0007 113.237 80.1374 112.496C76.3144 108.793 73.9713 103.609 73.9713 97.8076C73.9713 86.4517 83.2206 77.1941 94.5664 77.1941C106.035 77.1941 115.285 86.4517 115.285 97.8076Z" fill="#181818"/>
<path d="M115.285 97.8065C115.285 103.855 112.695 109.162 108.625 112.989C104.925 116.445 99.9925 118.543 94.5663 118.543C90.25 118.543 86.1803 117.186 82.8505 114.84C77.4243 111.137 73.9712 104.966 73.9712 97.9299C73.9712 86.574 83.2205 77.3164 94.5663 77.3164C105.912 77.3164 115.285 86.4506 115.285 97.8065Z" fill="#1A1A1A" stroke="#3E3E3E" stroke-width="2" stroke-miterlimit="10"/>
<path d="M109.613 112.003C109.366 112.373 108.996 112.62 108.626 112.867C104.926 116.323 99.9935 118.421 94.5672 118.421C90.2509 118.421 86.1812 117.063 82.8514 114.718C81.8648 114.101 81.0016 113.237 80.1383 112.496C80.6316 111.879 81.3715 111.509 82.9748 110.892L83.5914 110.645C84.8246 110.151 86.5511 109.534 88.771 108.546C89.141 108.423 89.3876 108.176 89.6343 107.929C89.7576 107.806 89.8809 107.682 89.8809 107.436C90.0042 107.189 90.1275 106.818 90.1275 106.572V102.375C90.0042 102.251 90.0042 102.251 89.8809 102.128C89.5109 101.634 89.2643 101.017 89.2643 100.276L89.0176 100.153C87.9077 100.4 88.031 99.2889 87.7844 97.0671C87.6611 96.203 87.7844 95.9562 88.2777 95.8327L88.6477 95.339C87.9077 93.6109 87.5377 92.0063 87.5377 90.7719C87.5377 88.6735 88.401 87.3158 89.6343 86.6986C88.8943 85.2174 88.8943 84.7236 88.8943 84.7236C88.8943 84.7236 93.2106 85.4643 94.6905 85.2174C96.5404 84.8471 99.5002 85.3408 100.61 87.8095C102.46 88.5501 103.077 89.661 103.323 90.8954C103.57 92.8703 102.46 94.9687 102.213 95.8327V95.9562C102.46 96.0796 102.583 96.3265 102.46 97.1905C102.213 99.2889 102.213 100.523 101.227 100.276L100.24 102.004C100.24 102.251 100.24 102.251 100.117 102.375C100.117 102.745 100.117 103.362 100.117 106.695C100.117 107.065 100.24 107.559 100.487 107.806C100.61 107.929 100.61 108.053 100.733 108.053C100.98 108.3 101.227 108.546 101.473 108.546C103.94 109.534 105.666 110.275 107.023 110.768C108.256 111.262 109.119 111.632 109.613 112.003Z" fill="#1A1A1A"/>
<path d="M109.612 112.003C109.365 112.373 108.995 112.62 108.625 112.867C104.926 116.323 99.9927 118.421 94.5665 118.421C90.2501 118.421 86.1805 117.063 82.8507 114.718C81.8641 114.101 81.0008 113.237 80.1376 112.496C80.6309 111.879 81.3708 111.509 82.974 110.892L83.5906 110.645C84.8239 110.151 86.5504 109.534 88.7702 108.546C89.1402 108.423 89.3869 108.176 89.6335 107.929C90.8668 109.657 92.8399 110.768 95.1831 110.768C97.4029 110.768 99.3761 109.657 100.609 108.053C100.856 108.3 101.103 108.546 101.349 108.546C103.816 109.534 105.542 110.274 106.899 110.768C108.255 111.262 109.119 111.632 109.612 112.003Z" fill="#3E3E3E"/>
<path d="M102.089 95.7093C102.213 95.2156 101.966 94.475 101.719 94.1047C101.719 93.9812 101.596 93.9812 101.596 93.8578C100.733 92.1297 98.8829 91.5125 97.1563 91.3891C92.5933 91.1422 92.2234 92.0063 90.8668 90.7719C91.3601 91.3891 91.3601 92.5 90.6201 93.7344C90.1269 94.5984 89.2636 95.0921 88.4003 95.339C86.3038 90.6485 87.4137 87.6861 89.3869 86.6986C88.647 85.2174 88.647 84.7236 88.647 84.7236C88.647 84.7236 92.9633 85.4643 94.4432 85.2174C96.293 84.8471 99.2528 85.3408 100.363 87.8095C102.213 88.5501 102.829 89.661 103.076 90.8954C103.446 92.7469 102.336 94.8453 102.089 95.7093Z" fill="#696969"/>
<path d="M90.2501 106.571V102.375C90.1267 102.251 90.1267 102.251 90.0034 102.128V101.881C90.2501 102.251 90.4967 102.621 90.8667 102.868L94.1964 105.214C94.9364 105.831 96.0463 105.831 96.7862 105.214L99.8693 102.498C99.9927 102.375 100.116 102.375 100.239 102.251C100.239 102.621 100.239 103.239 100.239 106.571C100.239 106.818 100.239 106.942 100.363 107.189H90.2501C90.1267 106.942 90.2501 106.818 90.2501 106.571Z" fill="url(#paint1_linear_595_1141)"/>
<path d="M41.2036 98.117C41.2036 103.918 38.7371 109.103 34.7908 112.806C33.6808 113.793 32.5709 114.657 31.2144 115.398C28.2546 117.126 24.8015 118.113 21.1018 118.113C17.4021 118.113 13.949 117.126 10.9892 115.398C10.4959 115.151 10.126 114.904 9.63268 114.534C4.45307 110.954 1 104.906 1 98.117C1 87.0079 10.0026 78.1206 20.9785 78.1206C32.201 77.9972 41.2036 87.0079 41.2036 98.117Z" fill="#1A1A1A" stroke="#3E3E3E" stroke-width="2" stroke-miterlimit="10"/>
<path d="M17.0322 102.56C17.2789 102.807 17.5255 103.177 17.8955 103.424C18.1421 103.671 18.3888 103.794 18.6354 104.041C18.7587 104.165 19.0054 104.288 19.1287 104.412C19.1287 104.412 19.252 104.412 19.252 104.535L19.3754 104.658V106.386C19.3754 106.386 19.3754 106.386 19.252 106.263C19.1287 106.14 18.8821 106.016 18.7587 105.893C18.5121 105.769 18.2654 105.522 18.0188 105.399C17.8955 105.399 17.8955 105.276 17.7721 105.276C16.9089 104.782 16.1689 104.288 16.1689 103.671C16.2923 103.424 16.5389 103.054 17.0322 102.56ZM34.1876 112.107C33.4477 110.503 32.4477 108.979 30.7212 108.115C29.8579 107.744 28.8713 107.374 27.8847 107.374C27.6381 107.374 27.2681 107.374 27.0214 107.374C26.8981 107.374 26.7748 107.374 26.6515 107.374C25.2949 107.25 25.1716 107.004 25.1716 107.004V104.165C26.0348 103.424 26.8981 102.56 27.6381 101.696C28.2547 100.832 28.748 99.8444 28.9946 98.6101C30.1045 98.3632 30.8445 97.3758 30.7212 96.1414C30.7212 95.6477 30.3512 95.1539 30.3512 94.6602C30.3512 94.4133 30.3512 94.1665 30.3512 93.9196C30.3512 93.7962 30.3512 93.5493 30.3512 93.4259C30.3512 93.3024 30.3512 93.0556 30.3512 92.9321C30.2279 92.0681 29.9812 91.204 29.4879 90.2166C28.008 87.501 25.2949 85.7729 22.0885 85.7729C21.4719 85.7729 20.8552 85.8964 20.2386 86.0198C19.1287 86.2667 18.0188 86.7604 17.1555 87.501C17.0322 87.6245 16.7856 87.7479 16.6622 87.9947L16.5389 88.1182C15.5523 89.1057 14.689 90.2166 14.3191 91.5743C13.8258 92.9321 13.8258 94.2899 13.9491 95.6477C13.9491 95.6477 13.9491 95.6477 13.9491 95.7711V95.8945C13.9491 96.1414 14.0724 96.1414 13.9491 96.2648C13.9491 96.3883 13.8258 96.3883 13.8258 96.5117C13.5791 96.882 13.4558 97.3758 13.7025 98.1164C14.1958 99.3507 14.9357 99.2273 15.799 99.8444C15.799 99.8444 15.6756 99.8444 15.6756 99.9679L14.8124 100.215C10.866 101.449 9.50945 104.782 11.236 106.88C11.8526 107.621 12.8392 108.238 14.3191 108.608C13.9491 108.608 13.5791 108.855 13.3325 109.102C11.606 110.46 10.496 112.558 10.2494 114.533C10.2494 114.657 10.2494 114.78 10.2494 114.903C10.7427 115.15 11.1127 115.521 11.606 115.767L30.9174 115.316C32.1506 114.575 32.6962 114.004 33.8061 113.016C33.6828 112.399 34.311 112.231 34.1876 112.107Z" fill="#1A1A1A"/>
<path d="M34.791 112.805C33.681 113.793 32.5711 114.657 31.2146 115.398C28.2548 117.126 24.8017 118.113 21.102 118.113C17.4023 118.113 13.9492 117.126 10.9894 115.398C10.4961 115.151 10.1262 114.904 9.63287 114.533C9.63287 114.41 9.63287 114.287 9.63287 114.163C9.87952 112.188 10.9894 110.09 12.716 108.732C12.9626 108.485 13.3326 108.362 13.7026 108.238C12.2227 107.991 11.2361 107.374 10.6195 106.51H15.3058C16.6623 108.362 18.7588 109.473 21.2253 109.473C23.3218 109.473 25.1717 108.609 26.5283 107.251C26.6516 107.251 26.7749 107.251 26.8982 107.251C27.1449 107.251 27.3915 107.251 27.7615 107.251C28.7481 107.251 29.7347 107.498 30.5979 107.991C32.3245 108.855 33.5577 110.337 34.421 112.065C34.6676 112.312 34.6676 112.559 34.791 112.805Z" fill="#3E3E3E"/>
<path d="M25.2952 104.165V106.757L17.5258 107.004L17.8958 105.276C18.0191 105.276 18.0191 105.399 18.1424 105.399C18.3891 105.523 18.6357 105.77 18.8824 105.893C19.0057 106.017 19.129 106.14 19.3757 106.263C19.3757 106.263 19.499 106.263 19.499 106.387V104.659L19.3757 104.535C20.7322 105.276 22.5821 105.77 25.2952 104.165Z" fill="url(#paint2_linear_595_1141)"/>
<path d="M30.351 93.4263C28.8711 93.92 27.1446 94.1669 25.5414 94.0435C22.9516 93.7966 20.4851 92.8091 18.5119 91.081C17.8953 92.9326 16.2921 94.2903 14.4422 95.1544C14.1956 95.2778 13.949 95.4012 13.7023 95.4012C13.7023 95.4012 13.7023 95.4012 13.7023 95.2778C13.579 93.92 13.579 92.5623 14.0723 91.2045C14.4422 89.8467 15.3055 88.7358 16.2921 87.7483L16.4154 87.6249C16.5388 87.5014 16.7854 87.378 16.9087 87.1311C17.772 86.3905 18.8819 85.8968 19.9918 85.6499C20.6084 85.5265 21.2251 85.4031 21.8417 85.4031C25.0481 85.4031 27.8846 87.1311 29.2411 89.8467C29.7344 90.8342 29.9811 91.8216 30.1044 92.5623C30.351 93.056 30.351 93.3029 30.351 93.4263Z" fill="#696969"/>
<path d="M20.4854 111.695C19.7455 112.559 18.5122 112.559 17.4023 112.559C18.5122 111.448 17.8956 107.868 13.9492 108.239C8.52298 107.251 9.01628 101.573 14.4425 99.845L15.3058 99.5981L15.4291 99.7216C15.7991 100.832 16.4157 101.82 17.0323 102.561C14.8125 104.412 17.8956 104.906 19.3755 106.387C20.6087 107.128 21.7186 110.213 20.4854 111.695Z" fill="#696969"/>
<defs>
<linearGradient id="paint0_linear_595_1141" x1="58.23" y1="30.8213" x2="58.23" y2="28.0412" gradientUnits="userSpaceOnUse">
<stop stop-color="#3B3B3B"/>
<stop offset="0.0001" stop-color="#181818"/>
<stop offset="0.9913" stop-color="#0F0F0F"/>
</linearGradient>
<linearGradient id="paint1_linear_595_1141" x1="95.163" y1="107.023" x2="95.163" y2="104.243" gradientUnits="userSpaceOnUse">
<stop stop-color="#3B3B3B"/>
<stop offset="0.0001" stop-color="#181818"/>
<stop offset="0.9913" stop-color="#0F0F0F"/>
</linearGradient>
<linearGradient id="paint2_linear_595_1141" x1="21.3955" y1="106.916" x2="21.3955" y2="105.429" gradientUnits="userSpaceOnUse">
<stop stop-color="#3B3B3B"/>
<stop offset="0.0001" stop-color="#181818"/>
<stop offset="0.9913" stop-color="#0F0F0F"/>
</linearGradient>
</defs>
</svg>
