<svg width="150" height="126" viewBox="0 0 150 126" fill="none" xmlns="http://www.w3.org/2000/svg">
<path d="M84.2753 124.383C117.256 124.383 143.993 97.6453 143.993 64.5472C143.993 31.4491 117.138 4.71155 84.2753 4.71155C51.295 4.71155 24.5574 31.4491 24.5574 64.5472C24.5574 97.6453 51.295 124.383 84.2753 124.383Z" fill="#1A1A1A" stroke="#3E3E3E" stroke-width="2" stroke-miterlimit="10"/>
<path d="M139.635 25.4417C142.302 25.4417 144.464 23.2796 144.464 20.6125C144.464 17.9453 142.302 15.7832 139.635 15.7832C136.968 15.7832 134.806 17.9453 134.806 20.6125C134.806 23.2796 136.968 25.4417 139.635 25.4417Z" fill="#1A1A1A"/>
<path d="M146.702 6.59605C148.523 6.59605 150 5.11948 150 3.29803C150 1.47658 148.523 0 146.702 0C144.881 0 143.404 1.47658 143.404 3.29803C143.404 5.11948 144.881 6.59605 146.702 6.59605Z" fill="#1A1A1A"/>
<path d="M27.2665 25.324C29.0879 25.324 30.5645 23.8474 30.5645 22.026C30.5645 20.2045 29.0879 18.728 27.2665 18.728C25.445 18.728 23.9684 20.2045 23.9684 22.026C23.9684 23.8474 25.445 25.324 27.2665 25.324Z" fill="#1A1A1A"/>
<path d="M7.12491 88.9292C10.5076 88.9292 13.2498 86.187 13.2498 82.8043C13.2498 79.4216 10.5076 76.6794 7.12491 76.6794C3.74221 76.6794 1 79.4216 1 82.8043C1 86.187 3.74221 88.9292 7.12491 88.9292Z" fill="#1A1A1A" stroke="#3E3E3E" stroke-width="2" stroke-miterlimit="10"/>
<path d="M128.187 105.12C117.275 116.97 101.64 124.383 84.2751 124.383C70.4163 124.383 57.6599 119.662 47.5265 111.731V14.0746C47.5265 10.8443 50.1276 8.20825 53.3726 8.20825H111.37L128.187 25.0838V105.12Z" fill="#1A1A1A" stroke="#3E3E3E" stroke-width="2" stroke-miterlimit="10"/>
<path d="M71.5927 104.186H63.1469C62.8318 104.186 62.5797 103.369 62.5797 102.39C62.5797 101.41 62.8318 100.593 63.1469 100.593H71.5927C71.9079 100.593 72.16 101.41 72.16 102.39C72.16 103.533 71.9079 104.186 71.5927 104.186Z" fill="#3E3E3E"/>
<path d="M90.178 28.7409H63.7223C63.107 28.7409 62.5797 27.9119 62.5797 26.9446C62.5797 25.9774 63.107 25.1483 63.7223 25.1483H90.178C90.7932 25.1483 91.3206 25.9774 91.3206 26.9446C91.3206 27.9119 90.7932 28.7409 90.178 28.7409Z" fill="#3E3E3E"/>
<path d="M70.249 37.1237H63.3525C62.9364 37.1237 62.5797 36.2947 62.5797 35.3274C62.5797 34.3602 62.9364 33.5311 63.3525 33.5311H70.1895C70.6057 33.5311 70.9624 34.3602 70.9624 35.3274C70.9624 36.2947 70.6057 37.1237 70.249 37.1237Z" fill="#3E3E3E"/>
<path d="M111.995 83.8277H79.2033H75.5892H64.6587C64.2179 83.8277 63.7772 84.5762 63.7772 85.624C63.7772 86.5222 64.1298 87.4203 64.6587 87.4203H75.5892H79.2033H111.995C112.436 87.4203 112.876 86.6718 112.876 85.624C112.788 84.5762 112.436 83.8277 111.995 83.8277Z" fill="#3E3E3E"/>
<path d="M111.993 74.2474H99.8067H95.6563H64.6602C64.2187 74.2474 63.7772 74.9959 63.7772 76.0437C63.7772 76.9419 64.1304 77.8401 64.6602 77.8401H95.6563H99.8067H111.993C112.435 77.8401 112.876 77.0916 112.876 76.0437C112.788 74.9959 112.435 74.2474 111.993 74.2474Z" fill="#3E3E3E"/>
<path d="M113.251 65.8646H110.007H106.763H64.6783C64.2277 65.8646 63.7772 66.6131 63.7772 67.6609C63.7772 68.5591 64.1376 69.4572 64.6783 69.4572H106.763H110.367H113.161C113.612 69.4572 114.062 68.7088 114.062 67.6609C114.152 66.7628 113.702 65.8646 113.251 65.8646Z" fill="#3E3E3E"/>
<path d="M113.18 56.2844H102.728H100.137H64.6705C64.2238 56.2844 63.7772 57.0328 63.7772 58.0807C63.7772 58.9788 64.1345 59.877 64.6705 59.877H100.137H102.728H113.091C113.716 59.877 114.074 59.1285 114.074 58.0807C114.074 57.1825 113.716 56.2844 113.18 56.2844Z" fill="#3E3E3E"/>
<path d="M111.37 8.91168V19.7872C111.37 23.1009 114.056 25.7872 117.37 25.7872H128.187" fill="#1A1A1A"/>
<path d="M111.37 8.91168V19.7872C111.37 23.1009 114.056 25.7872 117.37 25.7872H128.187" stroke="#3E3E3E" stroke-width="2" stroke-miterlimit="10"/>
<path d="M70.8988 42.4288V79.5311C70.8988 83.8729 67.3447 87.0305 63.3956 87.0305H61.421V96.8981C61.421 99.2664 58.6567 100.056 57.077 98.477L47.2043 87.0305H8.50327C4.15928 87.0305 1 83.4782 1 79.5311V42.4288C1 38.0871 4.55418 34.9294 8.50327 34.9294H63.3956C67.3447 34.9294 70.8988 38.4818 70.8988 42.4288Z" fill="#222222" stroke="#696969" stroke-width="2" stroke-miterlimit="10" stroke-linejoin="round"/>
<path d="M19.5606 61.7695V53.8754C19.5606 52.6913 20.3504 51.9019 21.5351 51.9019H30.2232C31.4079 51.9019 32.1977 52.6913 32.1977 53.8754V62.9536C32.1977 65.3218 32.1977 67.2954 31.8028 68.8742C31.4157 70.4216 30.6493 71.2107 29.5036 72.3563C29.457 72.4028 29.4061 72.4451 29.3505 72.4803C28.3636 73.1039 26.8666 73.4756 25.0679 73.8037C24.4601 73.9146 23.9046 73.4429 23.9046 72.825V71.3204C23.9046 70.8227 24.274 70.4097 24.7556 70.2839C26.9907 69.7001 28.2486 68.1396 28.2486 65.3218C28.2486 65.3218 27.8952 64.5324 27.4592 64.5324H22.2327C22.0354 64.5324 21.8422 64.4743 21.6784 64.3643C20.5832 63.629 19.5606 62.8696 19.5606 61.7695ZM38.9111 61.7695V53.8754C38.9111 52.6913 39.7009 51.9019 40.8857 51.9019H49.5737C50.7584 51.9019 51.5482 52.6913 51.5482 53.8754V62.9536C51.5482 65.3218 51.5482 67.2954 51.1533 68.8742C50.7662 70.4216 49.9998 71.2107 48.8541 72.3563C48.8076 72.4028 48.7566 72.4451 48.701 72.4803C47.7141 73.1039 46.2171 73.4756 44.4184 73.8037C43.8106 73.9146 43.2551 73.4429 43.2551 72.825V71.3204C43.2551 70.8227 43.6245 70.4097 44.106 70.2839C46.3412 69.7001 47.5991 68.1396 47.5991 65.3218C47.5991 65.3218 47.2457 64.5324 46.8097 64.5324H41.5832C41.3859 64.5324 41.1927 64.4743 41.0289 64.3643C39.9337 63.629 38.9111 62.8696 38.9111 61.7695Z" fill="#8D8D8D"/>
</svg>
