<svg width="145" height="110" viewBox="0 0 145 110" fill="none" xmlns="http://www.w3.org/2000/svg">
<path d="M74.6528 108.28C104.218 108.28 128.187 84.3113 128.187 54.6402C128.187 24.9692 104.113 1 74.6528 1C45.0873 1 21.1182 24.9692 21.1182 54.6402C21.1182 84.3113 45.0873 108.28 74.6528 108.28Z" fill="#1A1A1A" stroke="#3E3E3E" stroke-width="2" stroke-miterlimit="10"/>
<path d="M134.984 37.645C137.374 37.645 139.313 35.7068 139.313 33.3158C139.313 30.9248 137.374 28.9866 134.984 28.9866C132.593 28.9866 130.654 30.9248 130.654 33.3158C130.654 35.7068 132.593 37.645 134.984 37.645Z" fill="#3E3E3E"/>
<path d="M141.319 20.7505C142.952 20.7505 144.275 19.4268 144.275 17.7939C144.275 16.1611 142.952 14.8374 141.319 14.8374C139.686 14.8374 138.362 16.1611 138.362 17.7939C138.362 19.4268 139.686 20.7505 141.319 20.7505Z" fill="#3E3E3E"/>
<path d="M23.5468 19.4783C25.1796 19.4783 26.5033 18.1546 26.5033 16.5217C26.5033 14.8889 25.1796 13.5652 23.5468 13.5652C21.9139 13.5652 20.5902 14.8889 20.5902 16.5217C20.5902 18.1546 21.9139 19.4783 23.5468 19.4783Z" fill="#1A1A1A"/>
<path d="M5.49073 76.4977C8.52318 76.4977 10.9815 74.0394 10.9815 71.007C10.9815 67.9745 8.52318 65.5162 5.49073 65.5162C2.45828 65.5162 0 67.9745 0 71.007C0 74.0394 2.45828 76.4977 5.49073 76.4977Z" fill="#1A1A1A"/>
<path d="M85.5262 69.1928V89.5045C85.5262 91.2707 84.4984 93.037 83.0303 93.9201L67.4678 102.898C66.5869 103.487 65.4124 103.782 64.3847 103.782V78.4656L84.7921 66.6907C85.2325 67.4266 85.5262 68.3097 85.5262 69.1928Z" fill="#1A1A1A" stroke="#3E3E3E" stroke-width="2" stroke-miterlimit="10"/>
<path d="M64.3846 78.4656V103.782C63.3568 103.782 62.3291 103.487 61.3014 102.898L45.739 93.9201C44.124 93.037 43.2431 91.4179 43.2431 89.5045V69.1928C43.2431 68.3097 43.5367 67.4266 43.9772 66.6907L64.3846 78.4656Z" fill="#1A1A1A" stroke="#3E3E3E" stroke-width="2" stroke-miterlimit="10"/>
<path d="M84.792 66.6908L64.3846 78.4657L43.8304 66.5437C44.2708 65.8077 44.8581 65.0718 45.739 64.6302L61.7419 55.3575C63.2101 54.4744 65.1187 54.4744 66.7336 55.2103L83.177 64.7774C83.177 64.7774 83.177 64.7774 83.3238 64.7774C83.9111 65.3662 84.4983 65.9549 84.792 66.6908Z" fill="#1A1A1A" stroke="#3E3E3E" stroke-width="2" stroke-miterlimit="10"/>
<path d="M127.809 69.1928V89.5045C127.809 91.2707 126.781 93.037 125.313 93.9201L109.751 102.898C108.87 103.487 107.695 103.782 106.668 103.782V78.4656L127.075 66.6907C127.515 67.4266 127.809 68.3097 127.809 69.1928Z" fill="#1A1A1A" stroke="#3E3E3E" stroke-width="2" stroke-miterlimit="10"/>
<path d="M106.668 78.4656V103.782C105.64 103.782 104.612 103.487 103.585 102.898L88.0221 93.9201C86.4071 93.037 85.5262 91.4179 85.5262 89.5045V69.1928C85.5262 68.3097 85.8198 67.4266 86.2603 66.6907L106.668 78.4656Z" fill="#1A1A1A" stroke="#3E3E3E" stroke-width="2" stroke-miterlimit="10"/>
<path d="M127.075 66.6908L106.668 78.4657L86.1134 66.5437C86.5539 65.8077 87.1411 65.0718 88.022 64.6302L104.025 55.3575C105.493 54.4744 107.402 54.4744 109.017 55.2103L125.46 64.7774C125.46 64.7774 125.46 64.7774 125.607 64.7774C126.194 65.3662 126.781 65.9549 127.075 66.6908Z" fill="#1A1A1A" stroke="#3E3E3E" stroke-width="2" stroke-miterlimit="10"/>
<path d="M64.238 30.7773V51.089C64.238 52.8552 63.2102 54.6214 61.7421 55.5045L46.1796 64.4829C45.2987 65.0716 44.1242 65.366 43.0965 65.366V40.05L63.5039 28.2751C64.0911 29.0111 64.238 29.8942 64.238 30.7773Z" fill="#1A1A1A" stroke="#3E3E3E" stroke-width="2" stroke-miterlimit="10"/>
<path d="M43.0965 40.05V65.366C42.0688 65.366 41.0411 65.0716 40.0133 64.4829L24.4509 55.5045C22.8359 54.6214 21.955 53.0024 21.955 51.089V30.7773C21.955 29.8942 22.2486 29.0111 22.6891 28.2751L43.0965 40.05Z" fill="#1A1A1A" stroke="#3E3E3E" stroke-width="2" stroke-miterlimit="10"/>
<path d="M63.6505 28.275L43.2432 40.0498L22.689 28.1278C23.1294 27.3918 23.7167 26.6559 24.5976 26.2143L40.6005 16.9416C42.0686 16.0585 43.9772 16.0585 45.5922 16.7944L61.8887 26.5087C61.8887 26.5087 61.8887 26.5087 62.0356 26.5087C62.6228 26.9503 63.2101 27.539 63.6505 28.275Z" fill="#1A1A1A" stroke="#3E3E3E" stroke-width="2" stroke-miterlimit="10"/>
<path d="M109.31 30.3358V53.0024C109.31 55.063 108.283 56.9765 106.374 58.0068L88.9029 68.1626C87.8752 68.7513 86.7006 69.0457 85.5261 69.0457V40.6388L108.576 27.3921C109.017 28.2752 109.31 29.3055 109.31 30.3358Z" fill="#1A1A1A" stroke="#3E3E3E" stroke-width="2" stroke-miterlimit="10"/>
<path d="M85.5261 40.6388V58.5955V69.0457C84.3516 69.0457 83.1771 68.7513 82.1493 68.1626L74.5149 63.747L64.5315 58.0067C62.7697 56.9764 61.742 55.063 61.5952 53.1496V30.1886C61.5952 29.1583 61.8888 28.128 62.3292 27.2449L85.5261 40.6388Z" fill="#1A1A1A" stroke="#3E3E3E" stroke-width="2" stroke-miterlimit="10"/>
<path d="M108.429 27.3921L85.3792 40.6388L62.3291 27.2449C62.7695 26.3618 63.5036 25.6258 64.3845 25.1843L82.296 14.7341C84.0578 13.7038 86.1132 13.7038 87.875 14.5869L106.374 25.3315C106.374 25.3315 106.521 25.3315 106.521 25.4787C107.402 26.0674 107.989 26.6561 108.429 27.3921Z" fill="#1A1A1A" stroke="#3E3E3E" stroke-width="2" stroke-miterlimit="10"/>
<path fill-rule="evenodd" clip-rule="evenodd" d="M108.206 12.7656C108.856 12.7656 109.383 13.2922 109.383 13.9418V20.9987C109.383 21.6483 108.856 22.1749 108.206 22.1749C107.557 22.1749 107.03 21.6483 107.03 20.9987V13.9418C107.03 13.2922 107.557 12.7656 108.206 12.7656Z" fill="#696969"/>
<path fill-rule="evenodd" clip-rule="evenodd" d="M123.936 13.1101C124.395 13.5694 124.395 14.3141 123.936 14.7735L115.311 23.3986C114.852 23.8579 114.107 23.8579 113.648 23.3986C113.188 22.9393 113.188 22.1946 113.648 21.7353L122.273 13.1101C122.732 12.6508 123.477 12.6508 123.936 13.1101Z" fill="#696969"/>
<path fill-rule="evenodd" clip-rule="evenodd" d="M114.087 29.624C114.087 28.9745 114.614 28.4479 115.263 28.4479H123.105C123.754 28.4479 124.281 28.9745 124.281 29.624C124.281 30.2736 123.754 30.8002 123.105 30.8002H115.263C114.614 30.8002 114.087 30.2736 114.087 29.624Z" fill="#696969"/>
<path d="M96.9655 43.7842C96.7251 44.8023 96.3647 45.8804 95.9441 46.7788C94.8025 48.9948 93.0001 50.7317 90.7771 51.8696C88.494 53.0076 85.7903 53.4867 83.0866 52.8878C76.718 51.5702 72.6324 45.3414 73.9542 38.9928C75.276 32.6442 81.4644 28.5116 87.8331 29.8891C90.1162 30.3683 92.0989 31.5062 93.7811 33.0634C96.605 35.8784 97.8066 39.9511 96.9655 43.7842Z" fill="#222222" stroke="#696969" stroke-width="2" stroke-miterlimit="10" stroke-linejoin="round"/>
<path d="M89.1596 40.3733H86.4798V37.6934C86.4798 37.1575 86.0629 36.681 85.4674 36.681C84.9314 36.681 84.455 37.0979 84.455 37.6934V40.3733H81.7751C81.2392 40.3733 80.7628 40.7901 80.7628 41.3857C80.7628 41.9812 81.1796 42.398 81.7751 42.398H84.455V45.0779C84.455 45.6139 84.8719 46.0903 85.4674 46.0903C86.0034 46.0903 86.4798 45.6734 86.4798 45.0779V42.398H89.1596C89.6956 42.398 90.172 41.9812 90.172 41.3857C90.172 40.7901 89.6956 40.3733 89.1596 40.3733Z" fill="#8D8D8D"/>
</svg>
