<svg width="123" height="126" viewBox="0 0 123 126" fill="none" xmlns="http://www.w3.org/2000/svg">
<path d="M64.4236 111.867C91.7972 111.867 113.989 89.6743 113.989 62.2029C113.989 34.7315 91.6995 12.5393 64.4236 12.5393C37.05 12.5393 14.8578 34.7315 14.8578 62.2029C14.8578 89.6743 37.05 111.867 64.4236 111.867Z" fill="#1A1A1A" stroke="#3E3E3E" stroke-width="2" stroke-miterlimit="10"/>
<path d="M93.6338 12.5393C83.2422 33.0217 67.9889 41.1701 54.0085 46.036C50.764 47.181 47.2331 48.1828 43.8931 47.3241C40.5531 46.4654 37.6425 43.0783 38.5491 39.7389C39.3602 36.6381 43.3682 35.1115 46.2788 36.3518C49.2371 37.5922 50.8594 41.027 50.5731 44.2232C50.2868 47.4195 48.3305 50.2341 45.8494 52.19C43.3205 54.1459 40.3145 55.3386 37.2608 56.245C30.533 58.2486 23.519 59.2027 16.9821 61.7311C10.3976 64.2595 4.14697 68.7915 1.9044 75.4225C0.282106 80.1453 0.950108 85.4883 3.04954 89.9726C5.14898 94.4569 8.72756 98.2256 12.7356 101.231C18.8907 105.811 26.4773 108.673 34.1116 108.482C41.7459 108.291 49.4757 104.952 54.1994 98.9412C58.9231 92.9304 60.3068 84.2003 56.9668 77.283C54.6765 72.5125 49.4757 68.6006 44.2748 69.7456C40.1714 70.6997 37.1653 74.7069 36.7359 78.9527C36.3065 83.1985 38.1673 87.3965 40.9348 90.5451C43.7022 93.7413 47.3762 95.9835 51.1934 97.9394C56.776 100.754 63.3606 102.901 69.134 100.515C74.6212 98.2733 77.818 92.5964 79.9175 87.1103C82.0169 81.6242 83.5915 75.661 87.4086 71.129C91.9892 65.6906 99.7189 63.1622 106.638 64.7842C113.556 66.4062 119.377 72.1308 121.095 79.0004C122.431 84.3434 120.809 91.0221 115.799 93.3597C111.886 95.2202 107.067 93.8845 103.679 91.213C100.292 88.5415 98.0012 84.725 95.8064 81.004" stroke="#3E3E3E" stroke-width="2" stroke-miterlimit="10" stroke-dasharray="4 4"/>
<path d="M55.1786 35.3718C63.5323 38.1997 72.5968 33.7202 75.4247 25.3665C78.2526 17.0128 73.7731 7.94831 65.4194 5.1204C57.0657 2.29248 48.0012 6.77201 45.1733 15.1257C42.3454 23.4794 46.8249 32.5439 55.1786 35.3718Z" fill="#1A1A1A" stroke="#3E3E3E" stroke-width="2" stroke-miterlimit="10" stroke-linecap="round" stroke-linejoin="round"/>
<path d="M56.138 32.5375C62.9263 34.8355 70.2923 31.1953 72.5903 24.407C74.8883 17.6186 71.2482 10.2526 64.4598 7.95462C57.6715 5.65661 50.3055 9.29676 48.0075 16.0851C45.7095 22.8735 49.3496 30.2395 56.138 32.5375Z" fill="#1A1A1A"/>
<path d="M59.7562 21.8492C60.6417 22.149 61.6025 21.6742 61.9022 20.7887C62.2019 19.9033 61.7271 18.9425 60.8417 18.6428C59.9563 18.343 58.9955 18.8178 58.6957 19.7033C58.396 20.5887 58.8708 21.5495 59.7562 21.8492Z" fill="#1A1A1A" stroke="#3E3E3E" stroke-width="2" stroke-miterlimit="10" stroke-linejoin="round"/>
<path d="M63.0126 12.2299L60.6608 19.1772" stroke="#3E3E3E" stroke-width="2" stroke-miterlimit="10" stroke-linejoin="round"/>
<path d="M62.0832 20.2544L66.1859 20.4519" stroke="#3E3E3E" stroke-width="2" stroke-miterlimit="10" stroke-linejoin="round"/>
<path d="M64.0748 10.77C64.3354 10.6458 64.4334 10.3214 64.2938 10.0455C64.1542 9.76957 63.8299 9.64658 63.5693 9.77078C63.3088 9.89498 63.2108 10.2193 63.3504 10.4953C63.49 10.7712 63.8143 10.8942 64.0748 10.77Z" fill="#1A1A1A" stroke="#3E3E3E" stroke-width="2" stroke-miterlimit="10" stroke-linejoin="round"/>
<path d="M57.317 30.7046C57.5775 30.5803 57.6755 30.256 57.5359 29.9801C57.3963 29.7041 57.072 29.5811 56.8115 29.7053C56.5509 29.8296 56.4529 30.1539 56.5925 30.4298C56.7321 30.7058 57.0564 30.8288 57.317 30.7046Z" fill="#1A1A1A" stroke="#3E3E3E" stroke-width="2" stroke-miterlimit="10" stroke-linejoin="round"/>
<path d="M50.7201 17.3825C50.9806 17.2583 51.0787 16.934 50.9391 16.658C50.7995 16.3821 50.4751 16.2591 50.2146 16.3833C49.9541 16.5075 49.8561 16.8319 49.9956 17.1078C50.1352 17.3837 50.4596 17.5067 50.7201 17.3825Z" fill="#1A1A1A" stroke="#3E3E3E" stroke-width="2" stroke-miterlimit="10" stroke-linejoin="round"/>
<path d="M70.6549 24.1403C70.9155 24.0161 71.0135 23.6918 70.8739 23.4159C70.7343 23.1399 70.4099 23.0169 70.1494 23.1411C69.8889 23.2653 69.7908 23.5897 69.9304 23.8656C70.07 24.1416 70.3944 24.2645 70.6549 24.1403Z" fill="#1A1A1A" stroke="#3E3E3E" stroke-width="2" stroke-miterlimit="10" stroke-linejoin="round"/>
<path d="M12.3006 40.098L14.9426 39.3017C15.1339 39.2461 15.1339 38.9684 14.9426 38.9128L12.3006 38.1165C12.2327 38.098 12.1833 38.0486 12.1648 37.9807L11.3685 35.3449C11.3129 35.1535 11.0351 35.1535 10.9796 35.3449L10.1833 37.9807C10.1648 38.0486 10.1154 38.098 10.0475 38.1165L7.41165 38.9128C7.22029 38.9684 7.22029 39.2461 7.41165 39.3017L10.0536 40.098C10.1215 40.1165 10.1709 40.1659 10.1894 40.2338L10.9857 42.8758C11.0413 43.0672 11.3191 43.0672 11.3746 42.8758L12.1709 40.2338C12.1833 40.1659 12.2327 40.1165 12.3006 40.098Z" fill="#3E3E3E"/>
<path d="M96.5555 9.17318L99.2574 9.7335C99.4521 9.77595 99.5846 9.5318 99.4429 9.3917L97.5007 7.43162C97.4498 7.38296 97.43 7.316 97.4461 7.24748L98.0034 4.55101C98.0459 4.35632 97.8018 4.22382 97.6616 4.36551L95.7045 6.30233C95.6558 6.35318 95.5889 6.37303 95.5204 6.35692L92.8239 5.79954C92.6292 5.75709 92.4967 6.00123 92.6384 6.14134L94.5807 8.10142C94.6315 8.15008 94.6513 8.21704 94.6352 8.28555L94.0749 10.9875C94.0325 11.1821 94.2766 11.3146 94.4167 11.1729L96.3768 9.2307C96.42 9.17691 96.487 9.15706 96.5555 9.17318Z" fill="#3E3E3E"/>
<path d="M94.8951 76.0131L96.9594 74.182C97.1098 74.0513 96.9933 73.7991 96.7963 73.829L94.0639 74.2144C93.9945 74.2261 93.929 74.202 93.8837 74.1481L92.0552 72.0896C91.9245 71.9392 91.6724 72.0557 91.7022 72.2527L92.085 74.9793C92.0966 75.0487 92.0725 75.1143 92.0187 75.1596L89.96 76.9881C89.8096 77.1188 89.9261 77.3709 90.1231 77.3411L92.8554 76.9556C92.9248 76.9439 92.9904 76.9681 93.0357 77.0219L94.8667 79.0861C94.9974 79.2365 95.2496 79.1199 95.2198 78.9229L94.8344 76.1907C94.8171 76.1239 94.8412 76.0584 94.8951 76.0131Z" fill="#3E3E3E"/>
<path d="M73.8718 57.326L76.1835 56.6293C76.351 56.5807 76.351 56.3376 76.1835 56.289L73.8718 55.5923C73.8124 55.5761 73.7691 55.5329 73.7529 55.4735L73.0562 53.1673C73.0076 52.9998 72.7645 52.9998 72.7159 53.1673L72.0191 55.4735C72.0029 55.5329 71.9597 55.5761 71.9003 55.5923L69.594 56.289C69.4265 56.3376 69.4265 56.5807 69.594 56.6293L71.9057 57.326C71.9651 57.3422 72.0083 57.3854 72.0245 57.4448L72.7213 59.7564C72.7699 59.9239 73.013 59.9239 73.0616 59.7564L73.7583 57.4448C73.7691 57.3854 73.8124 57.3422 73.8718 57.326Z" fill="#3E3E3E"/>
<path d="M29.5119 89.7616L31.8236 88.9653C31.9911 88.9097 31.9911 88.6319 31.8236 88.5764L29.5119 87.7801C29.4525 87.7616 29.4093 87.7122 29.393 87.6443L28.6963 85.0084C28.6477 84.8171 28.4046 84.8171 28.356 85.0084L27.6592 87.6443C27.643 87.7122 27.5998 87.7616 27.5404 87.7801L25.2341 88.5764C25.0666 88.6319 25.0666 88.9097 25.2341 88.9653L27.5458 89.7616C27.6052 89.7801 27.6484 89.8295 27.6646 89.8974L28.3614 92.5394C28.41 92.7307 28.6531 92.7307 28.7017 92.5394L29.3984 89.8974C29.4093 89.8295 29.4525 89.7801 29.5119 89.7616Z" fill="#3E3E3E"/>
<path d="M25.6924 50.6717L27.3436 50.1741C27.4632 50.1394 27.4632 49.9658 27.3436 49.931L25.6924 49.4334C25.6499 49.4218 25.6191 49.391 25.6075 49.3485L25.1098 47.7013C25.0751 47.5817 24.9015 47.5817 24.8667 47.7013L24.3691 49.3485C24.3575 49.391 24.3266 49.4218 24.2842 49.4334L22.6368 49.931C22.5172 49.9658 22.5172 50.1394 22.6368 50.1741L24.288 50.6717C24.3305 50.6833 24.3613 50.7142 24.3729 50.7566L24.8706 52.4077C24.9053 52.5273 25.0789 52.5273 25.1137 52.4077L25.6113 50.7566C25.6191 50.7142 25.6499 50.6833 25.6924 50.6717Z" fill="#3E3E3E"/>
<path d="M120.831 51.7623L122.482 51.2647C122.601 51.2299 122.601 51.0563 122.482 51.0216L120.831 50.524C120.788 50.5124 120.757 50.4815 120.746 50.4391L120.248 48.7918C120.213 48.6723 120.04 48.6723 120.005 48.7918L119.507 50.4391C119.496 50.4815 119.465 50.5124 119.422 50.524L117.775 51.0216C117.655 51.0563 117.655 51.2299 117.775 51.2647L119.426 51.7623C119.469 51.7739 119.5 51.8047 119.511 51.8472L120.009 53.4983C120.044 53.6179 120.217 53.6179 120.252 53.4983L120.75 51.8472C120.757 51.8047 120.788 51.7739 120.831 51.7623Z" fill="#3E3E3E"/>
<path d="M37.8974 27.6537L39.5486 27.1561C39.6682 27.1214 39.6682 26.9478 39.5486 26.913L37.8974 26.4154C37.8549 26.4038 37.8241 26.373 37.8125 26.3305L37.3148 24.6833C37.2801 24.5637 37.1065 24.5637 37.0718 24.6833L36.5741 26.3305C36.5625 26.373 36.5316 26.4038 36.4892 26.4154L34.8418 26.913C34.7222 26.9478 34.7222 27.1214 34.8418 27.1561L36.4931 27.6537C36.5355 27.6653 36.5664 27.6962 36.5779 27.7386L37.0756 29.3897C37.1103 29.5093 37.284 29.5093 37.3187 29.3897L37.8164 27.7386C37.8241 27.6962 37.8549 27.6653 37.8974 27.6537Z" fill="#3E3E3E"/>
<path d="M13.3067 83.1034L14.958 82.6057C15.0776 82.571 15.0776 82.3974 14.958 82.3627L13.3067 81.865C13.2643 81.8535 13.2334 81.8226 13.2218 81.7802L12.7241 80.1329C12.6894 80.0133 12.5158 80.0133 12.4811 80.1329L11.9834 81.7802C11.9718 81.8226 11.941 81.8535 11.8985 81.865L10.2511 82.3627C10.1315 82.3974 10.1315 82.571 10.2511 82.6057L11.9024 83.1034C11.9448 83.1149 11.9757 83.1458 11.9873 83.1882L12.4849 84.8394C12.5197 84.9589 12.6933 84.9589 12.728 84.8394L13.2257 83.1882C13.2334 83.1458 13.2643 83.1149 13.3067 83.1034Z" fill="#3E3E3E"/>
<path d="M58.6922 57.5908L61.979 62.276C62.9181 63.6147 63.5603 64.7336 64.0498 66.2449C65.8823 71.0943 65.1988 76.4247 62.6771 80.7618C62.209 81.5182 61.9707 82.3988 62.0863 83.1737C62.1063 84.0157 62.356 84.9819 62.8926 85.7468C63.9659 87.2767 65.7655 88.0117 67.5737 87.7419C73.3807 86.6644 79.3533 88.4668 83.4436 92.8737C83.9417 93.3804 84.3441 93.9541 84.8137 94.6234L88.1004 99.3087C88.5029 99.8824 88.8097 100.523 89.1451 101.001L61.0335 120.722C60.6025 120.311 60.1329 119.642 59.7976 119.163L56.5108 114.478C56.1754 114 55.9356 113.455 55.6003 112.977C55.4661 112.786 55.3605 112.432 55.1593 112.145C52.5704 106.827 52.88 100.761 55.8412 95.8297C56.7774 94.3169 56.6318 92.2789 55.5586 90.7491C55.0891 90.0797 54.3612 89.4489 53.5763 89.1435C53.5092 89.0479 53.4136 89.115 53.4136 89.115C52.6287 88.8096 51.7866 88.8296 50.9446 88.8496C47.0414 89.5903 43.0411 88.9724 39.4318 87.0815C38.5127 86.5849 37.5937 86.0882 36.7987 85.3618C36.569 85.2377 36.3677 84.9508 36.2336 84.7596C35.3716 83.9375 34.4425 83.0199 33.7046 81.9681L30.4179 77.2828C30.3508 77.1872 30.2166 76.996 30.0825 76.8047L58.3854 56.95C58.491 57.3039 58.5581 57.3995 58.6922 57.5908Z" fill="#1A1A1A" stroke="#3E3E3E" stroke-width="1.9781" stroke-miterlimit="10" stroke-linecap="round" stroke-linejoin="round"/>
<path d="M74.5354 102.547C74.5354 102.547 64.4213 111.925 63.742 111.973C63.2925 112.146 59.3136 113.796 56.779 114.861L56.1082 113.904C55.7729 113.426 55.4375 112.948 55.1306 112.308C55.2548 112.078 55.3119 111.752 55.369 111.427C56.6662 107.378 60.6978 101.126 69.195 101.442L74.5354 102.547Z" fill="#1A1A1A" stroke="#3E3E3E" stroke-width="1.9781" stroke-miterlimit="10" stroke-linecap="round" stroke-linejoin="round"/>
<path d="M58.6922 57.5908L61.979 62.276C62.9181 63.6147 63.5603 64.7336 64.0498 66.2449C65.8823 71.0943 65.1988 76.4247 62.6771 80.7618C62.209 81.5182 61.9707 82.3988 62.0863 83.1737C62.1063 84.0157 62.356 84.9819 62.8926 85.7468C63.9659 87.2767 65.7655 88.0117 67.5737 87.7419C73.3807 86.6644 79.3533 88.4668 83.4436 92.8737C83.9417 93.3804 84.3441 93.9541 84.8137 94.6234L88.1004 99.3087C88.5029 99.8824 88.8097 100.523 89.1451 101.001L61.0335 120.722C60.6025 120.311 60.1329 119.642 59.7976 119.163L56.5108 114.478C56.1754 114 55.9356 113.455 55.6003 112.977C55.4661 112.786 55.3605 112.432 55.1593 112.145C52.5704 106.827 52.88 100.761 55.8412 95.8297C56.7774 94.3169 56.6318 92.2789 55.5586 90.7491C55.0891 90.0797 54.3612 89.4489 53.5763 89.1435C53.5092 89.0479 53.4136 89.115 53.4136 89.115C52.6287 88.8096 51.7866 88.8296 50.9446 88.8496C47.0414 89.5903 43.0411 88.9724 39.4318 87.0815C38.5127 86.5849 37.5937 86.0882 36.7987 85.3618C36.569 85.2377 36.3677 84.9508 36.2336 84.7596C35.3716 83.9375 34.4425 83.0199 33.7046 81.9681L30.4179 77.2828C30.3508 77.1872 30.2166 76.996 30.0825 76.8047L58.3854 56.95C58.491 57.3039 58.5581 57.3995 58.6922 57.5908Z" fill="#1A1A1A" stroke="#3E3E3E" stroke-width="2" stroke-miterlimit="10" stroke-linecap="round" stroke-linejoin="round"/>
<path d="M56.5305 77.0842L45.3632 85.7742L39.5947 87.1101C38.6756 86.6134 37.7565 86.1168 36.9616 85.3904C36.7318 85.2662 36.5306 84.9794 36.3964 84.7881C39.4818 79.6276 42.3204 76.3522 50.5764 74.6981C51.9636 74.4383 53.2551 74.2456 54.805 74.0144C68.6012 72.3259 56.5305 77.0842 56.5305 77.0842Z" fill="#1A1A1A" stroke="#3E3E3E" stroke-width="1.9781" stroke-miterlimit="10" stroke-linecap="round" stroke-linejoin="round"/>
<path d="M64.1168 66.3405C65.9494 71.1899 65.2658 76.5203 62.7441 80.8574C62.276 81.6138 62.0377 82.4944 62.1533 83.2693L62.0577 83.3364C60.5278 84.4096 60.1282 86.6873 61.2015 88.2172L71.1959 102.464L68.423 104.41L58.3615 90.0668C57.2882 88.537 55.1061 88.0703 53.4806 89.2106C52.6957 88.9052 51.8537 88.9252 51.0117 88.9452C47.1084 89.6859 43.1081 89.068 39.4989 87.1771C38.5798 86.6805 37.6607 86.1838 36.8658 85.4574C45.3801 83.7647 48.2457 78.901 50.4521 74.9278C51.1685 73.7119 51.7893 72.563 52.4771 71.5098C55.2001 67.4595 59.2175 66.068 64.1168 66.3405Z" fill="#1A1A1A" stroke="#3E3E3E" stroke-width="2" stroke-miterlimit="10" stroke-linecap="round" stroke-linejoin="round"/>
<path d="M84.7177 94.6904L88.0045 99.3757C88.407 99.9494 88.7138 100.59 89.0492 101.068L63.9973 118.642L59.3948 118.59L56.4434 114.383C56.108 113.904 55.7726 113.426 55.5329 112.881C55.3987 112.69 55.2931 112.336 55.0919 112.049C55.1875 111.982 55.2545 112.078 55.3502 112.011C55.5129 112.039 55.6085 111.972 55.7041 111.905C65.0219 109.934 67.5136 104.334 69.8726 99.9682C70.2451 99.2789 70.7132 98.5225 71.1528 97.9288C74.0384 93.9071 78.2185 92.5441 83.2806 92.8452C83.7501 93.5145 84.2482 94.0211 84.7177 94.6904Z" fill="#1A1A1A" stroke="#3E3E3E" stroke-width="2" stroke-miterlimit="10" stroke-linecap="round" stroke-linejoin="round"/>
<path d="M60.9891 57.4062L29.6264 79.4074C28.9571 79.8769 27.9809 79.7057 27.5785 79.132L25.432 76.0722C24.9625 75.4029 25.2008 74.5223 25.8701 74.0528L57.3284 51.9845C57.9977 51.515 58.9068 51.5906 59.3763 52.2599L61.4557 55.2241C61.734 56.0275 61.6584 56.9366 60.9891 57.4062Z" fill="#1A1A1A" stroke="#3E3E3E" stroke-width="2" stroke-miterlimit="10" stroke-linecap="round" stroke-linejoin="round"/>
<path d="M92.6486 102.538L61.286 124.54C60.6166 125.009 59.7075 124.933 59.238 124.264L57.1586 121.3C56.6891 120.631 56.9274 119.75 57.5967 119.281L89.055 97.2122C89.7243 96.7427 90.6334 96.8183 91.1029 97.4876L93.1823 100.452C93.4606 101.255 93.3179 102.069 92.6486 102.538Z" fill="#1A1A1A" stroke="#3E3E3E" stroke-width="2" stroke-miterlimit="10" stroke-linecap="round" stroke-linejoin="round"/>
<path d="M111.307 35.6049L109.874 38.2695C109.465 39.0309 109.089 39.5998 108.491 40.1898C106.636 42.2065 103.956 43.149 101.309 42.9874C100.84 42.9459 100.368 43.0423 100.029 43.2809C99.6363 43.4902 99.2392 43.8375 99.0053 44.2726C98.5374 45.1427 98.6174 46.1672 99.1741 46.9572C101.062 49.4443 101.628 52.6932 100.517 55.6713C100.396 56.0269 100.221 56.3531 100.016 56.7338L98.5833 59.3985C98.4079 59.7247 98.178 60.0218 98.0318 60.2937L82.0439 51.6968C82.1358 51.3956 82.3404 51.015 82.4867 50.7431L83.9195 48.0784C84.0657 47.8065 84.2663 47.5639 84.4125 47.292C84.471 47.1832 84.6131 47.0493 84.7008 46.8861C86.5979 44.401 89.5369 43.1072 92.5689 43.3354C93.5057 43.4185 94.4337 42.866 94.9016 41.9959C95.1063 41.6152 95.2314 41.1217 95.1894 40.6784C95.2186 40.624 95.1642 40.5948 95.1642 40.5948C95.1221 40.1516 94.9128 39.7586 94.7035 39.3656C93.4271 37.6978 92.7694 35.6616 92.8057 33.508C92.8221 32.956 92.8386 32.404 92.993 31.8561C92.9971 31.7181 93.0848 31.5549 93.1433 31.4462C93.3269 30.8439 93.5398 30.1872 93.8615 29.589L95.2943 26.9244C95.3235 26.87 95.382 26.7612 95.4405 26.6525L111.537 35.3078C111.395 35.4417 111.366 35.4961 111.307 35.6049Z" fill="#1A1A1A" stroke="#3E3E3E" stroke-width="1.9781" stroke-miterlimit="10" stroke-linecap="round" stroke-linejoin="round"/>
<path d="M93.8338 53.76C93.8338 53.76 87.0034 51.2089 86.8193 50.8995C86.631 50.7282 84.9072 49.2404 83.8027 48.296L84.0951 47.7522C84.2413 47.4803 84.3875 47.2084 84.6173 46.9113C84.7553 46.9154 84.9225 46.8652 85.0898 46.8149C87.3101 46.4665 91.2204 46.8866 93.0878 50.9753L93.8338 53.76Z" fill="#1A1A1A" stroke="#3E3E3E" stroke-width="1.9781" stroke-miterlimit="10" stroke-linecap="round" stroke-linejoin="round"/>
<path d="M111.307 35.6049L109.874 38.2695C109.465 39.0309 109.089 39.5998 108.491 40.1898C106.636 42.2065 103.956 43.149 101.309 42.9874C100.84 42.9459 100.368 43.0423 100.029 43.2809C99.6363 43.4902 99.2392 43.8375 99.0053 44.2726C98.5374 45.1427 98.6174 46.1672 99.1741 46.9572C101.062 49.4443 101.628 52.6932 100.517 55.6713C100.396 56.0269 100.221 56.3531 100.016 56.7338L98.5833 59.3985C98.4079 59.7247 98.178 60.0218 98.0318 60.2937L82.0439 51.6968C82.1358 51.3956 82.3404 51.015 82.4867 50.7431L83.9195 48.0784C84.0657 47.8065 84.2663 47.5639 84.4125 47.292C84.471 47.1832 84.6131 47.0493 84.7008 46.8861C86.5979 44.401 89.5369 43.1072 92.5689 43.3354C93.5057 43.4185 94.4337 42.866 94.9016 41.9959C95.1063 41.6152 95.2314 41.1217 95.1894 40.6784C95.2186 40.624 95.1642 40.5948 95.1642 40.5948C95.1221 40.1516 94.9128 39.7586 94.7035 39.3656C93.4271 37.6978 92.7694 35.6616 92.8057 33.508C92.8221 32.956 92.8386 32.404 92.993 31.8561C92.9971 31.7181 93.0848 31.5549 93.1433 31.4462C93.3269 30.8439 93.5398 30.1872 93.8615 29.589L95.2943 26.9244C95.3235 26.87 95.382 26.7612 95.4405 26.6525L111.537 35.3078C111.395 35.4417 111.366 35.4961 111.307 35.6049Z" fill="#1A1A1A" stroke="#3E3E3E" stroke-width="2" stroke-miterlimit="10" stroke-linecap="round" stroke-linejoin="round"/>
<path d="M101.587 39.2111L94.8314 35.9992L92.8311 33.5916C92.8475 33.0396 92.8639 32.4876 93.0183 31.9397C93.0224 31.8017 93.1101 31.6386 93.1686 31.5298C96.3385 31.7622 98.5594 32.3254 101.301 35.8324C101.753 36.4259 102.15 36.9902 102.627 37.6674C106.7 43.783 101.587 39.2111 101.587 39.2111Z" fill="#1A1A1A" stroke="#3E3E3E" stroke-width="1.9781" stroke-miterlimit="10" stroke-linecap="round" stroke-linejoin="round"/>
<path d="M108.462 40.2442C106.607 42.2609 103.927 43.2033 101.28 43.0418C100.811 43.0002 100.339 43.0967 100 43.3353L99.9458 43.306C99.0757 42.8382 97.905 43.1901 97.4371 44.0602L93.0802 52.1629L91.5031 51.3149L95.8893 43.1578C96.3572 42.2877 96.0596 41.1463 95.1351 40.6492C95.0931 40.2059 94.8837 39.813 94.6744 39.42C93.398 37.7522 92.7403 35.716 92.7767 33.5624C92.7931 33.0104 92.8095 32.4583 92.9639 31.9104C95.7845 35.5303 98.7621 35.7293 101.163 35.8282C101.907 35.878 102.597 35.8985 103.258 35.9734C105.817 36.2981 107.428 37.8653 108.462 40.2442Z" fill="#1A1A1A" stroke="#3E3E3E" stroke-width="2" stroke-miterlimit="10" stroke-linecap="round" stroke-linejoin="round"/>
<path d="M99.9621 56.7046L98.5293 59.3693C98.3538 59.6955 98.124 59.9926 97.9778 60.2645L83.7301 52.6033L82.6625 50.4168L83.9491 48.0241C84.0953 47.7522 84.2415 47.4803 84.4421 47.2376C84.5006 47.1289 84.6427 46.995 84.7304 46.8318C84.7848 46.8611 84.7555 46.9154 84.8099 46.9447C84.835 47.0283 84.8894 47.0575 84.9438 47.0868C88.0866 51.02 91.3233 50.8676 93.9453 50.9456C94.3593 50.9579 94.8277 50.9994 95.2125 51.0661C97.7971 51.4744 99.4331 53.1253 100.493 55.5878C100.288 55.9684 100.167 56.3239 99.9621 56.7046Z" fill="#1A1A1A" stroke="#3E3E3E" stroke-width="2" stroke-miterlimit="10" stroke-linecap="round" stroke-linejoin="round"/>
<path d="M111.939 36.6458L94.1025 27.0547C93.7218 26.85 93.571 26.3483 93.7464 26.022L94.6821 24.2818C94.8868 23.9012 95.3593 23.8047 95.74 24.0094L113.631 33.6298C114.012 33.8344 114.192 34.2818 113.987 34.6625L113.081 36.3482C112.767 36.6704 112.32 36.8505 111.939 36.6458Z" fill="#1A1A1A" stroke="#3E3E3E" stroke-width="2" stroke-miterlimit="10" stroke-linecap="round" stroke-linejoin="round"/>
<path d="M98.1378 62.3134L80.301 52.7223C79.9203 52.5176 79.7402 52.0703 79.9449 51.6896L80.8514 50.0038C81.0561 49.6232 81.5286 49.5267 81.9092 49.7314L99.8004 59.3517C100.181 59.5564 100.361 60.0038 100.156 60.3844L99.25 62.0702C98.9366 62.3924 98.5185 62.5181 98.1378 62.3134Z" fill="#1A1A1A" stroke="#3E3E3E" stroke-width="2" stroke-miterlimit="10" stroke-linecap="round" stroke-linejoin="round"/>
</svg>
