<svg width="132" height="119" viewBox="0 0 132 119" fill="none" xmlns="http://www.w3.org/2000/svg">
<path d="M68.2952 117.6C96.2952 117.6 118.995 94.9 118.995 66.8C118.995 38.7 96.1952 16 68.2952 16C40.2952 16 17.5952 38.7 17.5952 66.8C17.5952 94.9 40.2952 117.6 68.2952 117.6Z" fill="#1A1A1A" stroke="#3E3E3E" stroke-width="2" stroke-miterlimit="10"/>
<path d="M115.295 33.6C117.56 33.6 119.395 31.7644 119.395 29.5C119.395 27.2357 117.56 25.4 115.295 25.4C113.031 25.4 111.195 27.2357 111.195 29.5C111.195 31.7644 113.031 33.6 115.295 33.6Z" fill="#8D8D8D"/>
<path d="M121.295 17.6C122.842 17.6 124.095 16.3464 124.095 14.8C124.095 13.2536 122.842 12 121.295 12C119.749 12 118.495 13.2536 118.495 14.8C118.495 16.3464 119.749 17.6 121.295 17.6Z" fill="#3E3E3E"/>
<path d="M13.3952 40.6C14.9416 40.6 16.1952 39.3464 16.1952 37.8C16.1952 36.2536 14.9416 35 13.3952 35C11.8488 35 10.5952 36.2536 10.5952 37.8C10.5952 39.3464 11.8488 40.6 13.3952 40.6Z" fill="#3E3E3E"/>
<path d="M28.7952 118.4C31.6671 118.4 33.9952 116.072 33.9952 113.2C33.9952 110.328 31.6671 108 28.7952 108C25.9233 108 23.5952 110.328 23.5952 113.2C23.5952 116.072 25.9233 118.4 28.7952 118.4Z" fill="#3E3E3E"/>
<path d="M130.815 80.551C130.815 93.3948 120.428 103.782 107.473 103.782C107.25 103.782 105.351 103.782 91.3903 103.782C81.6736 103.782 66.1494 103.782 41.3552 103.782H29.5166C13.9923 104.117 1.59521 91.7195 1.59521 76.7537C1.59521 61.6762 14.104 49.1674 29.8516 49.9492C43.3655 7.73215 105.239 13.6515 110.488 57.3204C122.104 58.7724 130.815 68.6007 130.815 80.551Z" fill="#1A1A1A" stroke="#3E3E3E" stroke-width="2" stroke-miterlimit="10" stroke-linecap="round" stroke-linejoin="round"/>
<path d="M110.153 57.4321C109.26 57.3204 108.366 57.3204 107.473 57.3204C102.894 57.3204 98.5381 58.6607 94.8525 61.0061" fill="#1A1A1A"/>
<path d="M110.153 57.4321C109.26 57.3204 108.366 57.3204 107.473 57.3204C102.894 57.3204 98.5381 58.6607 94.8525 61.0061" stroke="#3E3E3E" stroke-width="2" stroke-miterlimit="10" stroke-linecap="round" stroke-linejoin="round"/>
<path d="M29.8516 49.9491C28.5114 53.9698 27.8413 58.2138 27.8413 62.6812C27.8413 64.4682 27.953 66.1435 28.1764 67.8188" fill="#1A1A1A"/>
<path d="M29.8516 49.9491C28.5114 53.9698 27.8413 58.2138 27.8413 62.6812C27.8413 64.4682 27.953 66.1435 28.1764 67.8188" stroke="#3E3E3E" stroke-width="2" stroke-miterlimit="10" stroke-linecap="round" stroke-linejoin="round"/>
<path d="M58.2129 63.5102L60.1676 61.551C60.7377 60.9796 60.7377 60 60.1676 59.4286C59.5975 58.8571 58.6201 58.8571 58.05 59.4286L56.0952 61.3878L54.1405 59.4286C53.5703 58.8571 52.593 58.8571 52.0228 59.4286C51.4527 60 51.4527 60.9796 52.0228 61.551L53.9776 63.5102L52.0228 65.4694C51.4527 66.0408 51.4527 67.0204 52.0228 67.5918C52.3486 67.9184 52.6744 68 53.0816 68C53.4889 68 53.8147 67.8367 54.1405 67.5918L56.0952 65.6327L58.05 67.5918C58.3758 67.9184 58.7016 68 59.1088 68C59.516 68 59.8418 67.8367 60.1676 67.5918C60.7377 67.0204 60.7377 66.0408 60.1676 65.4694L58.2129 63.5102Z" fill="#696969"/>
<path d="M78.9482 63.5102L81.1201 61.551C81.7536 60.9796 81.7536 60 81.1201 59.4286C80.4866 58.8571 79.4006 58.8571 78.7672 59.4286L76.5952 61.3878L74.4233 59.4286C73.7898 58.8571 72.7038 58.8571 72.0703 59.4286C71.4368 60 71.4368 60.9796 72.0703 61.551L74.2423 63.5102L72.0703 65.4694C71.4368 66.0408 71.4368 67.0204 72.0703 67.5918C72.4323 67.9184 72.7943 68 73.2468 68C73.6993 68 74.0613 67.8367 74.4233 67.5918L76.5952 65.6327L78.7672 67.5918C79.1291 67.9184 79.4911 68 79.9436 68C80.3961 68 80.7581 67.8367 81.1201 67.5918C81.7536 67.0204 81.7536 66.0408 81.1201 65.4694L78.9482 63.5102Z" fill="#696969"/>
<path fill-rule="evenodd" clip-rule="evenodd" d="M22.3315 24.0521C22.5659 23.13 23.5034 22.5725 24.4256 22.8068L30.9457 24.4642C31.8678 24.6986 32.4254 25.6361 32.191 26.5582C31.9566 27.4804 31.019 28.0379 30.0969 27.8035L23.5767 26.1461C22.6546 25.9117 22.0971 24.9742 22.3315 24.0521Z" fill="#3E3E3E"/>
<path fill-rule="evenodd" clip-rule="evenodd" d="M27.8717 5.71515C28.6589 5.1808 29.7302 5.3858 30.2646 6.17302L38.059 17.656C38.5934 18.4432 38.3884 19.5146 37.6012 20.0489C36.8139 20.5833 35.7426 20.3783 35.2082 19.5911L27.4138 8.10806C26.8795 7.32084 27.0845 6.2495 27.8717 5.71515Z" fill="#3E3E3E"/>
<path fill-rule="evenodd" clip-rule="evenodd" d="M42.3303 0.536284C43.2636 0.351547 44.17 0.958405 44.3548 1.89174L47.0495 15.5061C47.2342 16.4394 46.6274 17.3458 45.694 17.5306C44.7607 17.7153 43.8543 17.1084 43.6696 16.1751L40.9749 2.56073C40.7901 1.6274 41.397 0.721022 42.3303 0.536284Z" fill="#3E3E3E"/>
<rect x="55.5952" y="77" width="23" height="3" rx="1.5" fill="#696969"/>
<path d="M69.5952 78H73.5952V83C73.5952 84.1046 72.6998 85 71.5952 85C70.4906 85 69.5952 84.1046 69.5952 83V78Z" fill="#696969"/>
<path d="M122.189 34.0647C121.763 35.8614 121.123 37.5889 120.342 39.1783C118.281 42.9098 115.225 45.9503 111.388 47.8161C107.408 49.82 102.718 50.511 97.9573 49.6127C86.8716 47.3323 79.6944 36.8288 82.0394 25.9798C84.3845 15.1308 95.1148 8.15147 106.271 10.4318C110.251 11.2611 113.733 13.1268 116.646 15.8218C121.479 20.6589 123.539 27.5 122.189 34.0647Z" fill="#222222" stroke="#696969" stroke-width="2" stroke-miterlimit="10" stroke-linejoin="round"/>
<path d="M102.095 17C100.632 17 99.494 18.4315 99.6024 20.112L100.415 30.195C100.469 31.1909 101.228 32 102.095 32C102.962 32 103.721 31.1909 103.775 30.195L104.588 20.112C104.696 18.3693 103.558 17 102.095 17Z" fill="#8D8D8D"/>
<path d="M102.095 37C100.706 37 99.5952 38.1111 99.5952 39.5C99.5952 40.8889 100.706 42 102.095 42C103.484 42 104.595 40.8889 104.595 39.5C104.595 38.1111 103.484 37 102.095 37Z" fill="#8D8D8D"/>
</svg>
