<svg width="128" height="110" viewBox="0 0 128 110" fill="none" xmlns="http://www.w3.org/2000/svg">
<path d="M63.7 108.492C93.4 108.492 117.6 84.3922 117.6 54.7922C117.5 25.0922 93.4 0.992188 63.7 0.992188C33.9 0.992188 9.79999 25.0922 9.79999 54.6922C9.79999 84.3922 33.9 108.492 63.7 108.492Z" fill="#1A1A1A" stroke="#3E3E3E" stroke-width="2" stroke-miterlimit="10"/>
<path d="M118.9 35.9922C121.164 35.9922 123 34.1566 123 31.8922C123 29.6279 121.164 27.7922 118.9 27.7922C116.636 27.7922 114.8 29.6279 114.8 31.8922C114.8 34.1566 116.636 35.9922 118.9 35.9922Z" fill="#3E3E3E"/>
<path d="M124.9 19.9922C126.446 19.9922 127.7 18.7386 127.7 17.1922C127.7 15.6458 126.446 14.3922 124.9 14.3922C123.354 14.3922 122.1 15.6458 122.1 17.1922C122.1 18.7386 123.354 19.9922 124.9 19.9922Z" fill="#3E3E3E"/>
<path d="M5.2 90.7922C8.07188 90.7922 10.4 88.4641 10.4 85.5922C10.4 82.7203 8.07188 80.3922 5.2 80.3922C2.32812 80.3922 0 82.7203 0 85.5922C0 88.4641 2.32812 90.7922 5.2 90.7922Z" fill="#3E3E3E"/>
<path d="M101.512 32.1619V97.2931C101.512 102.039 97.7477 105.803 93.002 105.803H34.4166C29.6709 105.803 25.907 102.039 25.907 97.2931V12.0334C25.907 7.28767 29.6709 3.5238 34.4166 3.5238H73.0372C75.1646 3.5238 77.1283 4.34203 78.6011 5.81485L99.2206 26.4343C100.693 28.0707 101.512 30.0345 101.512 32.1619Z" fill="#1A1A1A" stroke="#3E3E3E" stroke-width="2" stroke-miterlimit="10"/>
<path d="M75.9182 4.11917V23.4727C75.9182 26.9435 78.8573 29.7201 82.1972 29.7201H100.924" fill="#3E3E3E"/>
<path d="M51.1868 88.0666H37.5403C37.0311 88.0666 36.6237 87.5253 36.6237 86.8758C36.6237 86.2263 37.0311 85.6851 37.5403 85.6851H51.1868C51.696 85.6851 52.1034 86.2263 52.1034 86.8758C52.1034 87.6336 51.696 88.0666 51.1868 88.0666Z" fill="#3E3E3E"/>
<path d="M68.639 21.3849H37.9492C37.2355 21.3849 36.6237 20.8354 36.6237 20.1942C36.6237 19.553 37.2355 19.0034 37.9492 19.0034H68.639C69.3527 19.0034 69.9645 19.553 69.9645 20.1942C69.9645 20.8354 69.3527 21.3849 68.639 21.3849Z" fill="#3E3E3E"/>
<path d="M49.6965 28.5294H37.9411C37.2318 28.5294 36.6237 27.9799 36.6237 27.3387C36.6237 26.6975 37.2318 26.148 37.9411 26.148H49.5952C50.3046 26.148 50.9126 26.6975 50.9126 27.3387C50.9126 27.9799 50.3046 28.5294 49.6965 28.5294Z" fill="#3E3E3E"/>
<path d="M90.4358 70.2054H54.6494H50.7053H38.7765C38.2955 70.2054 37.8145 70.7015 37.8145 71.3961C37.8145 71.9915 38.1993 72.5868 38.7765 72.5868H50.7053H54.6494H90.4358C90.9168 72.5868 91.3978 72.0907 91.3978 71.3961C91.3016 70.7015 90.9168 70.2054 90.4358 70.2054Z" fill="#3E3E3E"/>
<path d="M90.4341 61.8701H77.1346H72.6051H38.7782C38.2963 61.8701 37.8145 62.3663 37.8145 63.0609C37.8145 63.6562 38.1999 64.2516 38.7782 64.2516H72.6051H77.1346H90.4341C90.916 64.2516 91.3978 63.7555 91.3978 63.0609C91.3015 62.3663 90.916 61.8701 90.4341 61.8701Z" fill="#3E3E3E"/>
<path d="M90.5214 53.5351H87.0652H83.609H38.7745C38.2945 53.5351 37.8145 54.0313 37.8145 54.7259C37.8145 55.3212 38.1985 55.9166 38.7745 55.9166H83.609H87.4493H90.4254C90.9055 55.9166 91.3855 55.4205 91.3855 54.7259C91.4815 54.1305 91.0015 53.5351 90.5214 53.5351Z" fill="#3E3E3E"/>
<path d="M90.4461 45.1999H79.3106H76.5506H38.7662C38.2903 45.1999 37.8145 45.696 37.8145 46.3906C37.8145 46.986 38.1952 47.5814 38.7662 47.5814H76.5506H79.3106H90.3509C91.0171 47.5814 91.3978 47.0852 91.3978 46.3906C91.3978 45.7952 91.0171 45.1999 90.4461 45.1999Z" fill="#3E3E3E"/>
<path d="M91.0475 105.992C102.671 105.992 112.093 96.5698 112.093 84.9467C112.093 73.3237 102.671 63.9014 91.0475 63.9014C79.4245 63.9014 70.0021 73.3237 70.0021 84.9467C70.0021 96.5698 79.4245 105.992 91.0475 105.992Z" fill="#222222" stroke="#696969" stroke-width="2" stroke-miterlimit="10" stroke-linejoin="round"/>
<path d="M92.2578 76.404C92.309 76.466 92.3544 76.5331 92.4096 76.5916L97.5976 82.1001C98.2177 82.7585 98.2177 83.9107 97.5976 84.5692C96.9775 85.2276 95.8922 85.2276 95.1946 84.5692L94.5083 83.8639C93.8823 83.2208 92.7916 83.6639 92.7916 84.5614V91.1534C92.7916 92.141 92.0165 92.9641 91.0863 92.9641C90.1561 92.9641 89.381 92.141 89.381 91.1534V84.5614C89.381 83.6639 88.2903 83.2208 87.6643 83.8639L86.978 84.5692C86.3579 85.2276 85.2727 85.2276 84.575 84.5692C84.1874 84.1576 84.0324 83.7461 84.0324 83.3346C84.0324 82.9604 84.1606 82.45 84.4754 82.1749C84.5377 82.1204 84.6037 82.0696 84.6605 82.0093L89.8461 76.5035C90.0786 76.2565 90.6212 75.9273 91.0088 75.9273C91.3635 75.9273 91.9778 76.0652 92.2578 76.404Z" fill="#8D8D8D"/>
</svg>
