<svg width="148" height="163" viewBox="0 0 148 163" fill="none" xmlns="http://www.w3.org/2000/svg">
<path d="M56.1609 15.3833C25.4728 23.8793 7.48257 55.6443 15.9786 86.3324C24.4746 117.02 56.2396 135.011 86.9276 126.515C117.616 118.019 135.606 86.2537 127.11 55.5656C118.614 24.8776 86.849 6.88731 56.1609 15.3833Z" fill="#1A1A1A" stroke="#3E3E3E" stroke-width="2" stroke-miterlimit="10"/>
<path d="M91.7718 32.1478L92.866 31.5955C92.9239 31.5794 93.0237 31.4894 92.9916 31.3736L92.9026 30.1511C92.9124 29.9613 92.9962 29.8134 93.1699 29.7653C93.3437 29.7172 93.5495 29.785 93.5976 29.9587L94.15 31.0529C94.166 31.1108 94.256 31.2106 94.3718 31.1786L95.5943 31.0896C95.7841 31.0994 95.932 31.1831 95.9801 31.3569C96.0282 31.5306 95.9605 31.7365 95.7867 31.7846L94.6925 32.3369C94.6346 32.353 94.5348 32.4429 94.5669 32.5588L94.6559 33.7813C94.6461 33.971 94.5623 34.1189 94.3886 34.167C94.2148 34.2152 94.009 34.1474 93.9609 33.9737L93.4085 32.8795C93.3925 32.8215 93.3025 32.7217 93.1867 32.7538L91.9642 32.8428C91.7744 32.833 91.6265 32.7493 91.5784 32.5755C91.5463 32.4597 91.6141 32.2538 91.7718 32.1478Z" fill="#222222"/>
<path d="M39.2365 38.4399L40.2796 37.9134C40.3348 37.8981 40.43 37.8123 40.3994 37.7019L40.3145 36.5364C40.3239 36.3555 40.4038 36.2145 40.5694 36.1686C40.735 36.1228 40.9313 36.1874 40.9771 36.353L41.5037 37.3961C41.519 37.4514 41.6048 37.5465 41.7152 37.5159L42.8806 37.4311C43.0616 37.4404 43.2026 37.5203 43.2484 37.6859C43.2943 37.8516 43.2297 38.0478 43.0641 38.0936L42.0209 38.6202C41.9657 38.6355 41.8706 38.7213 41.9011 38.8317L41.986 39.9971C41.9766 40.1781 41.8968 40.3191 41.7311 40.3649C41.5655 40.4108 41.3693 40.3462 41.3234 40.1806L40.7968 39.1374C40.7816 39.0822 40.6958 38.9871 40.5853 39.0176L39.4199 39.1025C39.239 39.0932 39.098 39.0133 39.0521 38.8477C39.0063 38.682 39.0708 38.4858 39.2365 38.4399Z" fill="#222222"/>
<path d="M76.6054 49.8625L77.448 49.4372C77.4926 49.4249 77.5694 49.3556 77.5447 49.2664L77.4762 48.3251C77.4837 48.179 77.5482 48.0651 77.682 48.028C77.8158 47.991 77.9743 48.0431 78.0113 48.1769L78.4366 49.0195C78.449 49.064 78.5183 49.1409 78.6074 49.1162L79.5487 49.0477C79.6949 49.0552 79.8087 49.1197 79.8458 49.2535C79.8828 49.3873 79.8307 49.5458 79.6969 49.5828L78.8544 50.0081C78.8098 50.0205 78.7329 50.0897 78.7576 50.1789L78.8262 51.1202C78.8186 51.2664 78.7541 51.3802 78.6203 51.4173C78.4865 51.4543 78.3281 51.4022 78.291 51.2684L77.8657 50.4259C77.8534 50.3813 77.7841 50.3044 77.6949 50.3291L76.7536 50.3977C76.6075 50.3901 76.4936 50.3256 76.4565 50.1918C76.3873 50.115 76.484 49.9441 76.6054 49.8625Z" fill="#222222"/>
<path d="M43.4127 109.199L44.9253 108.436C45.0053 108.414 45.1433 108.289 45.099 108.129L44.9759 106.439C44.9895 106.177 45.1053 105.972 45.3455 105.906C45.5856 105.839 45.8702 105.933 45.9367 106.173L46.7002 107.686C46.7224 107.766 46.8468 107.904 47.0069 107.86L48.6968 107.736C48.9592 107.75 49.1637 107.866 49.2302 108.106C49.2967 108.346 49.203 108.631 48.9628 108.697L47.4502 109.461C47.3702 109.483 47.2322 109.607 47.2765 109.767L47.3996 111.457C47.386 111.72 47.2702 111.924 47.03 111.991C46.7898 112.057 46.5053 111.964 46.4388 111.723L45.6753 110.211C45.6531 110.131 45.5287 109.993 45.3686 110.037L43.6786 110.16C43.4163 110.147 43.2118 110.031 43.1453 109.791C43.0788 109.55 43.1946 109.346 43.4127 109.199Z" fill="#222222"/>
<path d="M120.156 69.1737L120.948 67.985C120.998 67.9355 121.047 67.7869 120.948 67.6878L120.156 66.4991C120.057 66.301 120.057 66.1029 120.205 65.9543C120.354 65.8057 120.601 65.7562 120.75 65.9048L121.939 66.6973C121.988 66.7468 122.137 66.7963 122.236 66.6973L123.425 65.9048C123.623 65.8057 123.821 65.8057 123.969 65.9543C124.118 66.1029 124.168 66.3506 124.019 66.4991L123.227 67.6878C123.177 67.7374 123.127 67.886 123.227 67.985L124.019 69.1737C124.118 69.3718 124.118 69.5699 123.969 69.7185C123.821 69.8671 123.573 69.9167 123.425 69.7681L122.236 68.9756C122.186 68.9261 122.038 68.8765 121.939 68.9756L120.75 69.7681C120.552 69.8671 120.354 69.8671 120.205 69.7185C120.057 69.57 120.007 69.3223 120.156 69.1737Z" fill="#222222"/>
<path d="M43.5537 60.6945L44.5678 58.6606C44.6361 58.5725 44.6847 58.3282 44.5086 58.1915L43.0212 56.4732C42.8254 56.1802 42.786 55.8675 42.9909 55.6034C43.1958 55.3393 43.5768 55.2118 43.8409 55.4168L45.8749 56.4309C45.9629 56.4992 46.2073 56.5478 46.3439 56.3717L48.0623 54.8843C48.3553 54.6885 48.6679 54.649 48.932 54.854C49.1961 55.0589 49.3236 55.4399 49.1187 55.704L48.1046 57.7379C48.0363 57.826 47.9877 58.0704 48.1638 58.207L49.6512 59.9254C49.847 60.2183 49.8864 60.531 49.6815 60.7951C49.4765 61.0592 49.0956 61.1867 48.8314 60.9818L46.7975 59.9677C46.7095 59.8994 46.4651 59.8508 46.3285 60.0268L44.6101 61.5143C44.3171 61.71 44.0044 61.7495 43.7403 61.5446C43.4762 61.3396 43.3488 60.9586 43.5537 60.6945Z" fill="#222222"/>
<path d="M63.753 120.774L65.1738 120.057C65.249 120.036 65.3785 119.919 65.3369 119.768L65.2213 118.181C65.2341 117.935 65.3428 117.743 65.5684 117.68C65.794 117.618 66.0613 117.706 66.1237 117.931L66.8409 119.352C66.8617 119.427 66.9786 119.557 67.129 119.515L68.7163 119.4C68.9627 119.412 69.1547 119.521 69.2172 119.747C69.2796 119.972 69.1917 120.24 68.9661 120.302L67.5454 121.019C67.4702 121.04 67.3406 121.157 67.3822 121.307L67.4978 122.895C67.4851 123.141 67.3763 123.333 67.1507 123.396C66.9251 123.458 66.6579 123.37 66.5954 123.144L65.8782 121.724C65.8574 121.648 65.7406 121.519 65.5902 121.561L64.0029 121.676C63.7564 121.663 63.5644 121.555 63.5019 121.329C63.4395 121.103 63.5274 120.836 63.753 120.774Z" fill="#222222"/>
<path d="M36.4424 84.4298L37.4307 82.6773C37.495 82.6025 37.549 82.3886 37.3995 82.2599L36.1618 80.6736C36.0019 80.4057 35.9812 80.1275 36.1742 79.9032C36.3673 79.679 36.71 79.5834 36.9342 79.7765L38.6868 80.7648C38.7615 80.8291 38.9754 80.8831 39.1041 80.7336L40.6905 79.496C40.9583 79.3361 41.2365 79.3153 41.4608 79.5084C41.6851 79.7015 41.7806 80.0441 41.5875 80.2683L40.5993 82.0209C40.5349 82.0957 40.4809 82.3095 40.6304 82.4383L41.8681 84.0246C42.028 84.2924 42.0487 84.5707 41.8557 84.7949C41.6626 85.0192 41.32 85.1147 41.0957 84.9216L39.3431 83.9334C39.2684 83.869 39.0545 83.815 38.9258 83.9645L37.3395 85.2022C37.0716 85.3621 36.7934 85.3829 36.5691 85.1898C36.3448 84.9967 36.2493 84.6541 36.4424 84.4298Z" fill="#222222"/>
<path d="M61.2318 29.7606L63.0867 28.8647C63.2643 28.8155 63.3039 28.6134 63.2793 28.5246L63.0937 26.4731C63.1088 26.1821 63.3014 25.8421 63.5677 25.7683C63.8341 25.6946 64.1496 25.7984 64.3367 26.129L65.2326 27.9839C65.2817 28.1614 65.4839 28.201 65.5726 28.1765L67.6242 27.9908C67.9151 28.0059 68.2552 28.1985 68.3289 28.4648C68.4027 28.7312 68.2988 29.0467 67.9683 29.2338L66.1134 30.1297C65.9358 30.1788 65.8962 30.381 65.9208 30.4698L66.1064 32.5213C66.0914 32.8122 65.8987 33.1523 65.6324 33.2261C65.3661 33.2998 65.0505 33.196 64.8634 32.8654L63.9676 31.0105C63.9184 30.833 63.7163 30.7933 63.6275 30.8179L61.5759 31.0035C61.285 30.9885 60.9449 30.7959 60.8712 30.5295C60.7729 30.1744 60.8767 29.8589 61.2318 29.7606Z" fill="#222222"/>
<path d="M104.568 49.7554L105.499 49.3054C105.589 49.2807 105.608 49.1792 105.596 49.1346L105.503 48.1041C105.51 47.9579 105.607 47.7871 105.741 47.7501C105.875 47.713 106.033 47.7652 106.127 47.9312L106.577 48.8629C106.602 48.9521 106.703 48.972 106.748 48.9597L107.779 48.8665C107.925 48.874 108.095 48.9708 108.133 49.1045C108.17 49.2383 108.117 49.3968 107.951 49.4908L107.02 49.9408C106.93 49.9655 106.911 50.067 106.923 50.1116L107.016 51.1421C107.009 51.2882 106.912 51.459 106.778 51.4961C106.644 51.5331 106.486 51.481 106.392 51.3149L105.942 50.3832C105.917 50.294 105.816 50.2741 105.771 50.2865L104.741 50.3797C104.594 50.3722 104.424 50.2754 104.387 50.1416C104.349 50.0078 104.446 49.837 104.568 49.7554Z" fill="#222222"/>
<path d="M96.2885 107.626L98.3881 106.612C98.5891 106.557 98.634 106.328 98.6061 106.227L98.396 103.905C98.4131 103.576 98.6311 103.191 98.9326 103.107C99.2341 103.024 99.5912 103.141 99.803 103.516L100.817 105.615C100.873 105.816 101.101 105.861 101.202 105.833L103.524 105.623C103.853 105.64 104.238 105.858 104.322 106.16C104.405 106.461 104.288 106.818 103.914 107.03L101.814 108.044C101.613 108.1 101.568 108.329 101.596 108.429L101.806 110.751C101.789 111.081 101.571 111.466 101.27 111.549C100.968 111.632 100.611 111.515 100.399 111.141L99.3852 109.041C99.3295 108.84 99.1007 108.795 99.0002 108.823L96.678 109.033C96.3487 109.016 95.9638 108.798 95.8803 108.497C95.7968 108.195 95.9144 107.838 96.2885 107.626Z" fill="#222222"/>
<path d="M106.127 86.1344L107.636 85.4056C107.781 85.3656 107.813 85.2012 107.793 85.129L107.642 83.4601C107.654 83.2234 107.811 82.9468 108.028 82.8868C108.244 82.8268 108.501 82.9112 108.653 83.1801L109.382 84.6891C109.422 84.8335 109.586 84.8658 109.659 84.8458L111.327 84.6948C111.564 84.707 111.841 84.8637 111.901 85.0804C111.961 85.297 111.876 85.5537 111.607 85.7059L110.098 86.4347C109.954 86.4747 109.922 86.6391 109.942 86.7114L110.093 88.3803C110.081 88.6169 109.924 88.8936 109.707 88.9536C109.491 89.0136 109.234 88.9291 109.082 88.6602L108.353 87.1512C108.313 87.0068 108.148 86.9746 108.076 86.9946L106.407 87.1456C106.171 87.1333 105.894 86.9766 105.834 86.76C105.774 86.5433 105.931 86.2666 106.127 86.1344Z" fill="#222222"/>
<path d="M22.1939 64.0333L24.4315 63.8308C24.6252 63.7772 24.7756 63.9441 24.8024 64.0409L25.7796 66.064C25.9569 66.3277 26.3278 66.5378 26.6183 66.4574C26.9088 66.377 27.1457 66.1029 27.1353 65.6887L26.9329 63.4511C26.8792 63.2574 27.0461 63.107 27.1429 63.0801L29.1661 62.103C29.4298 61.9257 29.6399 61.5548 29.5594 61.2643C29.479 60.9738 29.2049 60.7369 28.7908 60.7473L26.5531 60.9498C26.3594 61.0034 26.209 60.8365 26.1822 60.7397L25.205 58.7165C25.0278 58.4528 24.6568 58.2427 24.3663 58.3231C24.0758 58.4036 23.8389 58.6777 23.8493 59.0918L24.0518 61.3295C24.1054 61.5231 23.9385 61.6736 23.8417 61.7004L21.8185 62.6775C21.5548 62.8548 21.3448 63.2258 21.4252 63.5163C21.5324 63.9036 21.9034 64.1137 22.1939 64.0333Z" fill="#222222"/>
<path d="M10.2317 108.566L13.3955 108.28C13.6693 108.204 13.882 108.44 13.92 108.577L15.3016 111.438C15.5522 111.811 16.0767 112.108 16.4874 111.994C16.8982 111.88 17.2331 111.493 17.2184 110.907L16.9322 107.743C16.8564 107.469 17.0923 107.257 17.2292 107.219L20.0898 105.837C20.4626 105.587 20.7597 105.062 20.6459 104.651C20.5322 104.241 20.1447 103.906 19.5591 103.92L16.3953 104.207C16.1214 104.282 15.9087 104.046 15.8708 103.91L14.4892 101.049C14.2386 100.676 13.7141 100.379 13.3033 100.493C12.8926 100.606 12.5576 100.994 12.5724 101.58L12.8586 104.743C12.9344 105.017 12.6985 105.23 12.5616 105.268L9.70098 106.65C9.32813 106.9 9.03111 107.425 9.14483 107.835C9.29645 108.383 9.82091 108.68 10.2317 108.566Z" fill="#222222"/>
<path d="M15.4851 28.2522L18.4022 27.9883C18.6547 27.9184 18.8508 28.1359 18.8858 28.2622L20.1597 30.8997C20.3908 31.2435 20.8743 31.5173 21.2531 31.4125C21.6318 31.3076 21.9406 30.9503 21.9271 30.4104L21.6631 27.4932C21.5932 27.2408 21.8107 27.0446 21.937 27.0097L24.5745 25.7358C24.9183 25.5047 25.1922 25.0211 25.0873 24.6424C24.9825 24.2637 24.6252 23.9548 24.0852 23.9684L21.1681 24.2323C20.9156 24.3022 20.7195 24.0847 20.6845 23.9585L19.4106 21.3209C19.1795 20.9772 18.696 20.7033 18.3172 20.8081C17.9385 20.913 17.6297 21.2703 17.6433 21.8102L17.9072 24.7274C17.9771 24.9799 17.7596 25.176 17.6333 25.2109L14.9958 26.4848C14.652 26.7159 14.3781 27.1995 14.483 27.5782C14.6228 28.0832 15.1064 28.3571 15.4851 28.2522Z" fill="#222222"/>
<path d="M131.048 82.8904L135.025 84.3075C135.397 84.3686 135.523 84.7717 135.492 84.958L135.565 89.1786C135.66 89.768 136.127 90.4186 136.686 90.5102C137.245 90.6018 137.865 90.3208 138.173 89.6062L139.59 85.6299C139.652 85.2573 140.055 85.1321 140.241 85.1627L144.462 85.0895C145.051 84.9948 145.702 84.5275 145.793 83.9687C145.885 83.4098 145.604 82.7898 144.889 82.4813L140.913 81.0642C140.54 81.0031 140.415 80.6 140.446 80.4137L140.372 76.1931C140.278 75.6037 139.811 74.9532 139.252 74.8615C138.693 74.7699 138.073 75.0509 137.764 75.7655L136.347 79.7418C136.286 80.1144 135.883 80.2396 135.697 80.209L131.476 80.2823C130.887 80.3769 130.236 80.8442 130.145 81.4031C130.022 82.1483 130.49 82.7988 131.048 82.8904Z" fill="#222222"/>
<path d="M47.6539 42.7536C47.2844 42.8559 47.0678 43.2383 47.1701 43.6077C47.2724 43.9771 47.6548 44.1937 48.0242 44.0914C48.3937 43.9892 48.6103 43.6068 48.508 43.2373C48.4057 42.8679 48.0233 42.6513 47.6539 42.7536Z" fill="#222222"/>
<path d="M71.5437 60.1943C71.1743 60.2965 70.9577 60.6789 71.06 61.0484C71.1622 61.4178 71.5446 61.6344 71.9141 61.5321C72.2835 61.4298 72.5001 61.0474 72.3978 60.678C72.2955 60.3086 71.9131 60.092 71.5437 60.1943Z" fill="#222222"/>
<path d="M87.0626 32.0585C86.8669 32.3881 86.9754 32.8139 87.3051 33.0096C87.6347 33.2053 88.0605 33.0967 88.2562 32.7671C88.4519 32.4375 88.3433 32.0117 88.0137 31.816C87.6841 31.6203 87.2582 31.7289 87.0626 32.0585Z" fill="#222222"/>
<path d="M64.6673 18.7561C64.4717 19.0857 64.5802 19.5116 64.9099 19.7073C65.2395 19.9029 65.6653 19.7944 65.861 19.4648C66.0567 19.1351 65.9481 18.7093 65.6185 18.5136C65.2889 18.3179 64.863 18.4265 64.6673 18.7561Z" fill="#222222"/>
<path d="M24.7158 49.313C24.5201 49.6426 24.6287 50.0685 24.9583 50.2641C25.2879 50.4598 25.7138 50.3513 25.9095 50.0216C26.1052 49.692 25.9966 49.2662 25.667 49.0705C25.3373 48.8748 24.9115 48.9834 24.7158 49.313Z" fill="#222222"/>
<path d="M27.6243 76.6073C27.4286 76.9369 27.5372 77.3628 27.8668 77.5585C28.1964 77.7541 28.6222 77.6456 28.8179 77.3159C29.0136 76.9863 28.905 76.5605 28.5754 76.3648C28.2458 76.1691 27.8199 76.2777 27.6243 76.6073Z" fill="#222222"/>
<path d="M35.1956 103.887C34.9999 104.216 35.1085 104.642 35.4381 104.838C35.7677 105.034 36.1936 104.925 36.3893 104.595C36.585 104.266 36.4764 103.84 36.1468 103.644C35.8171 103.449 35.3913 103.557 35.1956 103.887Z" fill="#222222"/>
<path d="M53.5051 117.827C53.3094 118.157 53.418 118.583 53.7476 118.779C54.0773 118.974 54.5031 118.866 54.6988 118.536C54.8945 118.206 54.7859 117.781 54.4563 117.585C54.1266 117.389 53.7008 117.498 53.5051 117.827Z" fill="#222222"/>
<path d="M86.9999 118.051C86.8042 118.381 86.9128 118.807 87.2424 119.002C87.5721 119.198 87.9979 119.089 88.1936 118.76C88.3893 118.43 88.2807 118.004 87.9511 117.809C87.6215 117.613 87.1956 117.721 86.9999 118.051Z" fill="#222222"/>
<path d="M110.305 97.2577C110.109 97.5873 110.218 98.0132 110.547 98.2089C110.877 98.4045 111.303 98.296 111.498 97.9663C111.694 97.6367 111.586 97.2109 111.256 97.0152C110.926 96.8195 110.5 96.9281 110.305 97.2577Z" fill="#222222"/>
<path d="M122.725 74.7053C122.53 75.035 122.638 75.4608 122.968 75.6565C123.298 75.8522 123.723 75.7436 123.919 75.414C124.115 75.0843 124.006 74.6585 123.677 74.4628C123.347 74.2671 122.921 74.3757 122.725 74.7053Z" fill="#222222"/>
<path d="M108.7 40.0772C108.505 40.4068 108.613 40.8326 108.943 41.0283C109.272 41.224 109.698 41.1154 109.894 40.7858C110.09 40.4562 109.981 40.0303 109.651 39.8346C109.322 39.639 108.896 39.7475 108.7 40.0772Z" fill="#222222"/>
<path d="M106.348 78.3656L112.645 73.4042L110.728 70.8973L104.431 75.8587L106.348 78.3656Z" fill="#1A1A1A" stroke="#3E3E3E" stroke-width="2" stroke-miterlimit="10"/>
<path d="M146.37 58.2507L134.023 42.0019L104.475 65.4608L116.823 81.7096L146.37 58.2507Z" fill="#1A1A1A" stroke="#3E3E3E" stroke-width="2" stroke-miterlimit="10"/>
<path d="M124.767 75.0698L112.405 58.7386" stroke="#3E3E3E" stroke-width="2" stroke-miterlimit="10"/>
<path d="M131.697 69.8237L119.335 53.4926" stroke="#3E3E3E" stroke-width="2" stroke-miterlimit="10"/>
<path d="M138.628 64.5776L126.266 48.2465" stroke="#3E3E3E" stroke-width="2" stroke-miterlimit="10"/>
<path d="M138.321 48.4404L108.206 71.2357" stroke="#3E3E3E" stroke-width="2" stroke-miterlimit="10"/>
<path d="M143.052 54.6919L112.938 77.4872" stroke="#3E3E3E" stroke-width="2" stroke-miterlimit="10"/>
<path d="M113.433 102.185C111.233 103.85 108.107 103.414 106.438 101.209L103.672 97.5552C103.535 97.374 103.571 97.109 103.752 96.9721L111.075 91.4294C111.255 91.2926 111.52 91.3295 111.658 91.5107L114.423 95.1647C116.062 97.392 115.603 100.542 113.433 102.185Z" fill="#181818" stroke="#3E3E3E" stroke-width="2" stroke-miterlimit="10"/>
<path d="M90.6045 86.1563L84.3073 91.1177L86.224 93.6246L92.5212 88.6632L90.6045 86.1563Z" fill="#1A1A1A" stroke="#3E3E3E" stroke-width="2" stroke-miterlimit="10"/>
<path d="M62.9432 122.491L50.5953 106.242L80.1428 82.7835L92.4906 99.0323L62.9432 122.491Z" fill="#1A1A1A" stroke="#3E3E3E" stroke-width="2" stroke-miterlimit="10"/>
<path d="M83.7493 106.361L71.3876 90.0295" stroke="#3E3E3E" stroke-width="2" stroke-miterlimit="10"/>
<path d="M76.8185 111.607L64.4568 95.2756" stroke="#3E3E3E" stroke-width="2" stroke-miterlimit="10"/>
<path d="M69.8881 116.853L57.5263 100.522" stroke="#3E3E3E" stroke-width="2" stroke-miterlimit="10"/>
<path d="M54.5474 112.295L84.2394 88.6205" stroke="#3E3E3E" stroke-width="2" stroke-miterlimit="10"/>
<path d="M59.2792 118.546L88.9713 94.8715" stroke="#3E3E3E" stroke-width="2" stroke-miterlimit="10"/>
<path d="M96.117 64.6557L81.9843 75.3533L101.414 101.022L101.437 101.052C101.437 101.052 101.437 101.052 101.46 101.082C102.267 102.086 106.048 100.507 109.936 97.5644C113.823 94.622 116.34 91.4344 115.623 90.3621C115.623 90.3621 115.623 90.3621 115.6 90.3319L115.577 90.3017L96.1471 64.6328L96.117 64.6557Z" fill="#1A1A1A" stroke="#3E3E3E" stroke-width="2" stroke-miterlimit="10"/>
<path d="M103.089 73.8662L108.483 80.9931L108.506 81.0233L108.529 81.0535C109.276 82.1031 106.729 85.3134 102.842 88.2558C98.9549 91.1983 95.2038 92.7551 94.3664 91.7739L94.3435 91.7437L94.3207 91.7135L88.926 84.5867C89.7334 85.5906 93.5146 84.011 97.4018 81.0686C101.289 78.1262 103.813 74.8856 103.089 73.8662Z" fill="#181818" stroke="#3E3E3E" stroke-width="2" stroke-miterlimit="10"/>
<path d="M97.3669 52.3623C100.626 56.6245 97.1994 64.8705 89.7021 70.7763C82.2048 76.6822 73.4526 78.0302 70.1933 73.768C70.1736 73.7421 70.1538 73.7163 70.1341 73.6905C70.1143 73.6646 70.0748 73.613 70.0551 73.5871C69.0399 71.8619 74.1022 65.8873 81.473 60.0811C88.8437 54.275 95.822 50.8061 97.197 52.2064C97.2168 52.2323 97.2563 52.2839 97.276 52.3098C97.3077 52.2848 97.3274 52.3107 97.3669 52.3623Z" fill="#181818" stroke="#3E3E3E" stroke-width="2" stroke-miterlimit="10"/>
<path d="M96.7131 52.1399L96.7324 52.165C97.0891 52.6898 96.794 53.722 95.9556 55.0164C94.2674 57.6544 90.4413 61.5147 85.568 65.3074C80.6947 69.1001 75.9847 71.883 73.0479 72.8445C71.5893 73.3377 70.5187 73.3685 70.0999 72.8919L70.0805 72.8669C70.0611 72.8418 70.0418 72.8168 70.0224 72.7918C69.0261 71.1196 73.9932 65.328 81.2256 59.6994C88.4579 54.0707 95.3055 50.7076 96.6549 52.0648C96.6743 52.0899 96.6937 52.1149 96.7131 52.1399Z" fill="#181818" stroke="#3E3E3E" stroke-width="2" stroke-miterlimit="10"/>
<path d="M95.9965 55.2585L96.0158 55.2833C94.3368 57.8956 90.5318 61.7185 85.6851 65.4745C80.8385 69.2304 76.1541 71.9864 73.2334 72.9386L73.2142 72.9139C73.1949 72.8891 73.1756 72.8643 73.1756 72.8643C72.3273 71.4555 76.5803 66.4909 82.7543 61.7062C88.9593 56.8977 94.801 54.0394 95.958 55.2089C95.958 55.2089 95.9773 55.2337 95.9965 55.2585Z" fill="#1A1A1A" stroke="#3E3E3E" stroke-width="2" stroke-miterlimit="10"/>
<path d="M84.8829 61.2183C84.9771 61.4173 84.3981 62.1113 83.5747 62.7728C82.7169 63.4618 81.9237 63.8702 81.7737 63.6702L77.0693 56.0049L78.6818 54.7096L84.84 61.1612L84.8829 61.2183Z" fill="#1A1A1A" stroke="#3E3E3E" stroke-width="2" stroke-miterlimit="10"/>
<path d="M78.2284 55.6796C79.2374 54.8746 79.5446 53.5456 78.9146 52.7111C78.2847 51.8766 76.9561 51.8526 75.9471 52.6576C74.9381 53.4625 74.6309 54.7915 75.2608 55.626C75.8908 56.4605 77.2194 56.4845 78.2284 55.6796Z" fill="#1A1A1A" stroke="#3E3E3E" stroke-width="2" stroke-miterlimit="10"/>
<path d="M36.2208 32.2774C35.9844 33.8532 34.9601 36.9261 33.148 37.3988C33.0692 37.3988 32.9904 37.3988 32.9116 37.4776C31.1782 37.714 29.2084 36.5321 27.9477 35.6654C27.3174 35.1927 26.6871 34.6412 26.1355 34.0896C25.8992 33.8532 25.584 33.5381 25.3476 33.3017C23.5354 31.3319 22.1172 28.8894 21.2505 26.2893C21.0929 25.7378 20.9353 25.1862 21.0141 24.6347C21.0141 24.4771 21.0929 24.3983 21.0929 24.3195C21.2505 23.9256 21.5657 23.5316 22.0384 23.4528C22.4324 23.374 22.7475 23.5316 23.1415 23.6104C23.5354 23.768 23.8506 23.9256 24.2446 24.1619C23.3779 23.1377 23.1415 21.4043 23.1415 20.1436C23.1415 20.0648 23.1415 19.9072 23.2203 19.9072C23.2991 19.8284 23.5354 19.9072 23.6142 19.986C24.8749 20.9315 24.8749 22.6649 25.4264 24.0831C25.4264 23.0589 25.5052 22.0346 25.5052 21.0103C25.5052 20.3012 25.584 19.4345 26.1355 18.9617C26.2143 18.8829 26.2931 18.8829 26.3719 18.8829C26.5295 18.8829 26.6083 19.0405 26.6871 19.1193C27.6326 20.7739 27.081 22.8225 27.2386 24.7135C27.3174 25.4226 27.3962 26.1317 27.5538 26.8408C27.6326 27.156 27.7902 27.8651 27.9477 28.5742C28.1053 28.8894 28.2629 29.2046 28.4993 29.5197C28.5781 29.6773 28.7357 29.8349 28.8932 29.9137C29.1296 30.1501 29.4448 30.3864 29.7599 30.6228C30.3903 30.938 31.0206 31.1743 31.7297 31.3319C32.9904 31.5683 34.251 31.5683 35.5117 31.6471C35.7481 31.6471 35.9844 31.7259 36.142 31.8835C36.2208 32.041 36.2208 32.1198 36.2208 32.2774Z" fill="#181818" stroke="#3E3E3E" stroke-width="2" stroke-miterlimit="10" stroke-linecap="round" stroke-linejoin="round"/>
<path d="M52.7666 58.357C51.112 58.357 49.3786 57.8055 48.1179 57.0176C45.6754 55.4418 44.1784 53.078 42.7601 50.9507L45.5178 49.1385C46.7785 51.0295 48.0391 53.078 49.8513 54.1811C51.2696 55.1266 53.5545 55.4418 54.8152 54.3387C56.391 52.9204 55.997 50.2415 55.3667 48.2718C54.5788 45.8292 53.0818 43.7019 51.2696 42.3624L53.2393 39.7623C55.6819 41.5745 57.5729 44.2534 58.5184 47.3263C59.8578 51.5022 59.3851 54.8114 57.0213 56.86C55.8395 57.8843 54.2636 58.357 52.7666 58.357Z" fill="#3E3E3E"/>
<path d="M56.1551 32.1987C56.2339 33.3806 55.8399 34.5625 55.3672 35.7443C53.555 40.4718 51.664 45.1992 49.4579 49.7691C48.9851 50.6358 48.5912 51.5813 48.1184 52.448C47.4881 53.7087 46.7002 55.1269 45.2819 55.4421C44.1001 55.6785 42.997 55.1269 41.9727 54.5754C41.6575 54.4178 41.3424 54.1814 41.1848 53.8663C41.0272 53.5511 41.106 53.1571 41.1848 52.842C42.1303 48.1145 43.9425 43.7022 45.7547 39.2111C46.6214 37.005 47.5669 34.72 48.276 32.4351C48.8275 30.8593 49.2215 28.8107 51.2701 28.6531C53.161 28.5743 55.9975 30.0714 56.1551 32.1987Z" fill="#3E3E3E"/>
<path d="M34.1721 46.3022C34.1721 46.4598 34.1721 46.5386 34.1721 46.6961C34.0933 47.7204 33.8569 48.6659 33.3054 49.5326C32.6751 50.4781 31.7296 51.266 30.6265 51.5024C30.3901 51.5812 30.1538 51.5812 29.9174 51.5812C28.8931 51.66 27.8688 51.3448 26.9233 50.9509C25.7415 50.4781 24.5596 49.9266 23.2201 49.8478C22.511 49.769 21.8019 49.8478 21.0928 50.0054C20.6988 50.0842 20.3837 50.2417 19.9897 50.3205C19.5957 50.4781 19.2018 50.6357 18.8078 50.7933C17.4684 51.4236 16.1289 52.2903 14.7895 52.8418C13.6864 53.3146 12.347 53.551 11.4015 52.8418C10.9287 52.5267 10.6924 51.9751 10.456 51.5024C9.11653 48.9811 7.93466 46.4598 6.7528 43.8597C6.67401 43.7809 6.59521 43.6233 6.59521 43.4657C6.59521 43.0717 7.06796 42.7566 7.38313 42.599C7.46192 42.5202 7.54071 42.5202 7.6195 42.4414C8.4862 42.0475 9.27411 41.7323 10.2196 41.5747C11.2439 41.4959 12.347 41.6535 13.0561 42.3626C13.5288 42.8354 13.844 43.3869 14.1592 44.0172C14.4743 44.7264 14.8683 45.4355 15.1834 46.1446C16.1289 45.3567 17.0744 44.5688 18.0987 43.8597C18.4139 43.6233 18.729 43.4657 19.0442 43.3081C19.5957 42.993 20.2261 42.6778 20.8564 42.5202C21.8807 42.1263 22.9838 41.9687 24.0868 41.8899C24.6384 41.8111 25.1899 41.7323 25.7415 41.8111C26.3718 41.8111 27.0021 41.9687 27.5536 42.0475C29.0507 42.3626 30.6265 42.6778 32.1235 42.993L30.4689 42.8354C31.8084 43.1505 33.3842 43.6233 33.9357 44.8839C34.1721 45.2779 34.1721 45.8294 34.1721 46.3022Z" fill="#181818" stroke="#3E3E3E" stroke-width="2" stroke-miterlimit="10" stroke-linecap="round" stroke-linejoin="round"/>
<path d="M28.3415 42.5202C27.7899 44.6475 28.2627 46.9325 29.6021 48.7446C29.6809 48.8234 29.7597 48.981 29.9173 48.9022C29.9961 48.9022 29.9961 48.8234 30.0749 48.7446C30.3112 48.1931 30.39 47.5628 30.4688 47.0112C30.6264 45.6718 31.0991 43.5444 30.6264 42.205C30.0749 40.9443 28.5778 41.4959 28.3415 42.5202Z" fill="#3E3E3E"/>
<path d="M38.1117 27.3921C37.4813 28.2588 36.6934 28.9679 35.9843 29.7558C31.8084 34.2469 29.8386 40.4714 28.6567 46.5383C28.3416 48.1141 28.184 49.8475 29.1295 51.0294C29.6022 51.5809 30.2326 51.9749 30.8629 52.2901C31.8872 52.8416 32.8327 53.3931 33.8569 53.9447C35.0388 54.575 36.2995 55.2841 37.6389 55.3629C39.2147 55.4417 40.7906 54.6538 41.9724 53.5507C43.1543 52.4476 43.9422 51.0294 44.7301 49.6112C46.6999 45.9868 48.5121 42.2836 50.0879 38.5016C50.5607 37.3985 51.0334 36.2167 51.191 35.0348C51.4274 33.3014 51.0334 31.568 50.7182 29.9134C50.6394 29.5194 50.5607 29.0467 50.2455 28.7315C49.8515 28.3376 49.2212 28.3376 48.7485 28.4164C45.2817 28.5739 41.7361 28.8891 38.4268 28.1012C37.7177 27.9436 36.9298 27.7072 36.5358 27.0769" fill="#181818"/>
<path d="M38.1117 27.3921C37.4813 28.2588 36.6934 28.9679 35.9843 29.7558C31.8084 34.2469 29.8386 40.4714 28.6567 46.5383C28.3416 48.1141 28.184 49.8475 29.1295 51.0294C29.6022 51.5809 30.2325 51.9749 30.8629 52.2901C31.8872 52.8416 32.8327 53.3931 33.8569 53.9447C35.0388 54.575 36.2995 55.2841 37.6389 55.3629C39.2147 55.4417 40.7906 54.6538 41.9724 53.5507C43.1543 52.4476 43.9422 51.0294 44.7301 49.6112C46.6999 45.9868 48.5121 42.2836 50.0879 38.5016C50.5607 37.3985 51.0334 36.2167 51.191 35.0348C51.4274 33.3014 51.0334 31.568 50.7182 29.9134C50.6394 29.5194 50.5607 29.0467 50.2455 28.7315C49.8515 28.3376 49.2212 28.3376 48.7485 28.4164C45.2817 28.5739 41.7361 28.8891 38.4268 28.1012C37.7177 27.9436 36.9298 27.7072 36.5358 27.0769" stroke="#3E3E3E" stroke-width="2" stroke-miterlimit="10" stroke-linecap="round" stroke-linejoin="round"/>
<path d="M21.0929 50.084C20.699 50.1628 20.3838 50.3203 19.9899 50.3991C19.9111 49.2961 19.7535 48.0354 19.4383 46.8535C19.1232 45.8292 18.7292 44.8838 18.0989 43.9383C18.414 43.7019 18.7292 43.5443 19.0444 43.3867C19.6747 44.411 20.1474 45.4353 20.4626 46.5384C20.7778 47.7202 21.0141 48.9809 21.0929 50.084Z" fill="#3E3E3E"/>
<path d="M31.808 48.5084C31.4929 49.2963 31.6504 48.272 31.5717 49.2175C31.5717 50.0842 31.808 50.9509 32.2808 51.7388C33.2263 53.0783 34.8809 53.8662 36.4567 54.4177C37.8749 54.8905 39.372 55.1269 40.7902 54.4177C42.5236 53.551 43.8631 51.5025 43.7055 49.5327C43.5479 46.9326 40.475 45.5931 38.1901 45.3568C35.3536 45.0416 33.9354 46.0659 31.7292 47.7205V48.5084H31.808Z" fill="#3E3E3E"/>
<path d="M53.7909 23.5315C53.7909 23.6103 53.7121 23.7679 53.7121 23.8467C53.3181 25.5801 52.8454 27.2347 52.6878 29.0469C52.609 29.8348 52.7666 31.253 51.9787 31.8046C51.3484 32.1985 50.2453 31.9621 49.5362 31.9621C47.33 31.8046 45.2026 31.4106 42.9177 31.4106C42.7601 31.4106 42.6025 31.4106 42.3662 31.4106C41.5783 31.3318 40.8691 31.0166 40.2388 30.6227C39.3721 30.2287 38.5842 29.756 37.7175 29.4408C37.0084 29.2045 36.2205 29.0469 35.8265 28.4165C35.3538 27.7862 35.3538 26.9983 35.275 26.2892C35.0386 23.9254 35.1174 21.4041 35.7477 19.1192C36.1417 17.7009 36.9296 16.2827 38.1114 15.2584C40.7116 12.8947 44.8875 12.4219 48.1179 13.9978C50.4817 15.1796 52.5302 17.2282 53.4757 19.7495C53.8697 20.8526 54.0273 22.192 53.7909 23.5315Z" fill="#181818" stroke="#3E3E3E" stroke-width="2" stroke-miterlimit="10" stroke-linecap="round" stroke-linejoin="round"/>
<path d="M53.7908 23.5315C53.7908 23.6103 53.712 23.7679 53.712 23.8466C53.3181 25.5801 52.8453 27.2347 52.6877 29.0469C52.6089 29.8348 52.7665 31.253 51.9786 31.8046C51.3483 32.1985 50.2452 31.9621 49.5361 31.9621C47.3299 31.8046 45.2026 31.4106 42.9176 31.4106C42.76 31.4106 42.6025 31.4106 42.3661 31.4106C43.3116 31.0166 44.3359 31.0166 45.3602 30.8591C48.5906 30.3075 51.4271 28.0226 52.6877 25.0285C53.0817 24.083 53.3181 23.0587 53.3968 22.0345C53.4756 21.2465 53.4756 20.4586 53.3181 19.7495C53.8696 20.8526 54.0272 22.192 53.7908 23.5315Z" fill="#181818" stroke="#3E3E3E" stroke-width="2" stroke-miterlimit="10" stroke-linecap="round" stroke-linejoin="round"/>
<path d="M46.6998 30.0715C45.8331 30.8594 44.8088 31.411 43.7057 31.411C41.8147 31.411 39.845 31.017 38.1116 30.1503C37.56 29.8351 37.0873 29.52 36.6145 29.2048C36.3782 28.9684 36.063 28.7321 35.9054 28.4957C35.3539 27.8654 35.0387 27.1562 34.8811 26.2895C34.4084 24.4773 34.7235 22.2712 35.3539 20.5378C36.063 18.7256 37.1661 18.0165 39.0571 17.9377C40.948 17.7801 43.1542 18.4104 44.9664 19.2771C45.0452 19.3559 45.124 19.3559 45.2028 19.4347C45.9907 19.8287 46.6998 20.3014 47.2513 20.8529C49.9302 23.2955 49.2211 27.7078 46.6998 30.0715Z" fill="#181818" stroke="#3E3E3E" stroke-width="2" stroke-miterlimit="10" stroke-linecap="round" stroke-linejoin="round"/>
<path d="M42.5238 50.8721C42.5238 50.9509 42.5238 50.9509 42.5238 51.0297C42.5238 51.4236 42.445 51.7388 42.2874 52.054C41.7359 53.551 40.1601 54.4965 38.5843 54.9692C37.0084 55.442 35.3538 55.5208 33.8568 55.9935C32.5961 56.3875 31.3355 56.939 30.39 57.8057C30.1536 58.0421 29.9172 58.1997 29.7597 58.4361C29.7597 58.5148 29.6809 58.5148 29.6809 58.5936C27.9475 60.721 27.4747 63.7938 25.4261 65.6848C25.2686 65.8424 25.111 65.9212 24.9534 66C24.7958 66 24.6382 65.9212 24.4807 65.9212C21.5654 64.6605 18.8865 63.0847 16.2076 61.4301C15.8136 61.1937 15.3409 60.8786 15.1045 60.4846C14.9469 60.1695 14.9469 59.8543 15.1045 59.5391C15.4985 58.3573 17.2319 56.939 18.0198 56.6239C18.8865 56.3087 19.9108 56.3875 20.7775 56.7026C21.6442 57.0178 22.5109 57.5693 23.22 58.1209C23.3776 57.0178 23.6927 55.8359 24.1655 54.8117C24.3231 54.4965 24.4807 54.1813 24.6382 53.8662C24.7958 53.551 25.0322 53.3146 25.1898 52.9995C25.6625 52.2903 26.2929 51.66 26.9232 51.1085C27.7899 50.3206 28.7354 49.6114 29.6809 48.9811C31.0991 48.0356 32.5961 47.1689 34.172 46.775C34.4083 46.6962 34.6447 46.6962 34.8811 46.6174C36.4569 46.3022 38.1903 46.5386 39.6873 47.1689C40.554 47.4841 41.342 48.0356 41.8935 48.7447C42.2874 49.2963 42.5238 50.0842 42.5238 50.8721Z" fill="#181818" stroke="#3E3E3E" stroke-width="2" stroke-miterlimit="10" stroke-linecap="round" stroke-linejoin="round"/>
<path d="M30.3114 57.8055C30.075 58.0419 29.8387 58.1995 29.6811 58.4359C29.6811 58.5146 29.6023 58.5146 29.6023 58.5934C28.6568 57.4116 27.5537 56.4661 26.2931 55.757C25.7415 55.4418 25.1112 55.2054 24.4809 54.969C24.4021 54.8902 24.2445 54.8902 24.1657 54.8115C24.3233 54.4963 24.4809 54.1811 24.6385 53.866C24.7172 53.866 24.796 53.9448 24.8748 53.9448C25.5052 54.1811 26.2143 54.4175 26.8446 54.8115C28.1053 55.5206 29.3659 56.5449 30.3114 57.8055Z" fill="#3E3E3E"/>
<path d="M66.2398 37.2413C66.2398 37.3201 66.2398 37.4776 66.161 37.5564C65.9247 38.4231 65.058 38.8959 64.1913 39.0535C63.9549 39.1323 63.6397 39.1323 63.4033 39.1323C62.773 39.211 62.2215 39.211 61.5911 39.3686C60.9608 39.5262 60.3305 39.9202 59.7002 40.2353C59.0698 40.5505 58.3607 40.7869 57.7304 40.9444C57.3364 41.0232 56.9425 41.102 56.5485 41.1808C54.8151 41.4172 53.0817 41.2596 51.4271 40.7081C50.4028 40.3929 49.6149 39.5262 49.1422 38.4231C48.433 36.6897 48.5906 34.4836 50.2452 33.4593C52.3726 32.1198 53.712 34.0108 55.4454 34.7987C55.7606 34.9563 56.0758 35.0351 56.3909 35.1139C56.7849 35.1927 57.1788 35.1927 57.5728 35.1927C58.4395 35.1139 59.3062 34.8775 60.0941 34.4836C61.5124 33.7745 62.773 32.6714 64.0337 31.6471C64.27 31.4895 64.5064 31.2531 64.8216 31.3319C65.1367 31.4107 65.2943 31.8047 65.2943 32.1986V32.2774C65.2155 32.5926 65.058 32.9078 64.9792 33.2229C64.8216 34.6412 66.3974 35.9018 66.2398 37.2413Z" fill="#181818" stroke="#3E3E3E" stroke-width="2" stroke-miterlimit="10" stroke-linecap="round" stroke-linejoin="round"/>
<path d="M65.6099 40.6293L59.7794 11.9494C59.7006 11.6342 59.937 11.3978 60.1733 11.319C60.4885 11.2403 60.7249 11.4766 60.8037 11.713L66.6342 40.393C66.713 40.7081 66.4766 40.9445 66.2402 41.0233C66.0039 41.1021 65.6887 40.8657 65.6099 40.6293Z" fill="#181818" stroke="#3E3E3E" stroke-width="2" stroke-miterlimit="10" stroke-linecap="round" stroke-linejoin="round"/>
<path d="M66.1616 37.5562C65.9253 38.4229 65.0586 38.8956 64.1919 39.0532C63.9555 39.132 63.6403 39.132 63.404 39.132C63.404 39.0532 63.3252 38.9744 63.3252 38.8956C63.1676 38.5805 63.2464 38.1865 63.5615 37.9501C63.3252 37.8713 63.0888 37.7925 63.01 37.5562C62.8524 37.1622 63.01 36.6895 63.404 36.5319L63.6403 36.4531C63.5615 36.4531 63.4828 36.4531 63.4828 36.4531C63.1676 36.4531 62.9312 36.2955 62.7736 35.9803C62.6161 35.5864 62.7736 35.1924 63.0888 34.9561C62.9312 34.8773 62.6948 34.7197 62.6161 34.5621C62.4585 34.1682 62.6161 33.6954 63.01 33.5378L65.5313 32.356C65.4525 32.6711 65.2949 32.9863 65.2162 33.3014C64.8222 34.7197 66.6344 36.0591 66.1616 37.5562Z" fill="#181818" stroke="#3E3E3E" stroke-width="2" stroke-miterlimit="10" stroke-linecap="round" stroke-linejoin="round"/>
<path d="M67.4218 36.7684C67.343 36.532 67.1066 36.3744 66.8702 36.3744L67.1066 36.2956C67.5006 36.138 67.6582 35.6653 67.5006 35.2713C67.343 34.9562 66.949 34.7986 66.6339 34.8774L66.7915 34.7986C67.1854 34.641 67.343 34.1683 67.1854 33.7743C67.1066 33.5379 66.949 33.4591 66.7127 33.3804C67.0278 33.144 67.1854 32.75 67.0278 32.3561C66.8702 31.9621 66.3975 31.8045 66.0035 31.9621L63.3246 33.2228C62.9307 33.3804 62.7731 33.8531 62.9307 34.2471C63.0095 34.4834 63.1671 34.5622 63.4034 34.641C63.0883 34.8774 62.9307 35.2713 63.0883 35.6653C63.2458 35.9805 63.6398 36.138 63.955 36.0593L63.7186 36.138C63.3246 36.2956 63.1671 36.7684 63.3246 37.1623C63.4034 37.3987 63.6398 37.5563 63.8762 37.5563C63.561 37.7927 63.4822 38.1866 63.6398 38.5018C63.7974 38.8957 64.2701 39.0533 64.6641 38.8957L67.0278 37.7927C67.4218 37.6351 67.5794 37.2411 67.4218 36.7684Z" fill="#181818" stroke="#3E3E3E" stroke-width="2" stroke-miterlimit="10" stroke-linecap="round" stroke-linejoin="round"/>
<path opacity="0.4" d="M43.7847 22.4287C43.4695 22.9014 42.8392 23.059 42.3665 22.8226C42.2089 22.7438 41.9725 22.665 41.8149 22.5862C39.6088 21.7195 37.245 22.2711 36.6147 23.9257C36.4571 24.3196 35.9056 24.2408 35.9056 23.8469C35.8268 23.2954 35.9056 22.665 36.142 22.1135C36.9299 19.9861 39.53 19.0406 41.9725 19.9861C42.6028 20.2225 43.1544 20.6165 43.6271 21.0104C44.0211 21.4044 44.0211 21.9559 43.7847 22.4287Z" fill="#3E3E3E"/>
<path opacity="0.4" d="M36.2206 34.4835C37.7964 35.2714 41.0268 36.2956 42.9966 36.4532C43.3906 36.532 43.5481 36.8472 43.4693 37.2411C42.1299 40.3928 41.0268 43.5444 40.6329 44.7263C40.5541 45.0415 40.2389 45.199 40.0025 45.1203C38.5843 44.7263 34.6447 43.6232 33.0689 42.9929C32.7538 42.9141 32.675 42.5989 32.7538 42.2838C34.0932 38.9745 35.0387 36.0593 35.4327 34.7986C35.5902 34.4835 35.9842 34.3259 36.2206 34.4835Z" fill="#3E3E3E"/>
<path d="M57.8097 40.8654C57.4158 40.9442 57.0218 41.023 56.6278 41.1018C55.9975 40.1563 55.6036 38.8956 55.6824 37.635C55.7611 36.9258 55.9975 35.9016 56.4703 35.1136C56.8642 35.1924 57.2582 35.1924 57.6521 35.1924C57.1794 35.9016 56.7854 36.9258 56.7066 37.7138C56.6278 38.8956 57.1006 40.1563 57.8097 40.8654Z" fill="#3E3E3E"/>
<path d="M29.8386 30.6228C28.4203 31.5683 27.1597 32.7501 26.0566 34.0896C25.8202 33.8532 25.5051 33.538 25.2687 33.3017C26.293 32.041 27.5536 30.9379 28.8931 29.9924L29.8386 30.6228Z" fill="#3E3E3E"/>
<path d="M81.0529 22.2708C73.6466 19.8283 70.5737 29.1257 63.0098 25.1861L60.3309 12.1068C68.5251 15.5736 71.6768 7.69449 78.374 9.19152L81.0529 22.2708Z" fill="#181818" stroke="#3E3E3E" stroke-width="2" stroke-miterlimit="10" stroke-linecap="round" stroke-linejoin="round"/>
</svg>
