<svg width="119" height="117" viewBox="0 0 119 117" fill="none" xmlns="http://www.w3.org/2000/svg">
<path d="M52.0114 115.804C80.1842 115.804 103.023 92.8871 103.023 64.6183C103.023 36.3495 80.1842 13.4331 52.0114 13.4331C23.8386 13.4331 1 36.3495 1 64.6183C1 92.8871 23.8386 115.804 52.0114 115.804Z" fill="#1f1f1f" stroke="#3c3c3c" stroke-width="2" stroke-miterlimit="10"/>
<path d="M110.666 21.9438C111.335 21.3298 111.382 20.2875 110.77 19.6157C110.158 18.9439 109.12 18.897 108.45 19.5109C107.781 20.1249 107.734 21.1672 108.346 21.839C108.957 22.5108 109.996 22.5577 110.666 21.9438Z" fill="#525252"/>
<path opacity="0.3" d="M83.4192 41.2397C85.2331 41.2397 86.7036 39.7642 86.7036 37.9441C86.7036 36.1239 85.2331 34.6484 83.4192 34.6484C81.6053 34.6484 80.1348 36.1239 80.1348 37.9441C80.1348 39.7642 81.6053 41.2397 83.4192 41.2397Z" fill="#737373"/>
<path d="M61.2816 45.569C60.8718 47.7548 59.0958 49.804 56.7733 50.3505C54.9973 50.7604 53.2213 50.3505 51.9918 49.3942V65.2415H37.2374C37.7839 64.1486 37.9205 63.0557 37.7839 61.8261C37.5106 59.0939 35.1882 56.908 32.5925 56.6348C29.0405 56.2249 25.8984 58.9572 25.8984 62.5092C25.8984 63.4655 26.035 64.4218 26.4448 65.1049H9.77783V34.6398C9.77783 28.3555 14.8326 23.3008 21.2535 23.3008H51.8552V39.1481C52.9481 38.465 54.041 38.0552 55.2706 38.0552C58.9592 38.6016 61.9647 41.7438 61.2816 45.569Z" fill="#1f1f1f" stroke="#737373" stroke-width="1.5905" stroke-miterlimit="10" stroke-linejoin="round"/>
<path d="M42.019 85.187C41.4726 88.8756 44.3415 92.0177 48.0301 92.0177C49.5328 92.0177 50.899 91.4713 51.9919 90.6516V107.045H21.3902C15.1059 107.045 9.91455 101.854 9.91455 95.7063V65.1046H26.4449C26.0351 64.2849 25.8985 63.4653 25.8985 62.3723C26.0351 59.5034 28.2209 57.0444 30.9532 56.6345C34.6418 56.2247 37.784 58.957 37.784 62.5089C37.784 63.4652 37.6474 64.2849 37.2375 65.1046H51.7187V81.4984C50.4891 80.4055 48.8498 79.859 47.0738 80.1323C44.4781 80.4055 42.4289 82.5913 42.019 85.187Z" fill="#1f1f1f" stroke="#737373" stroke-width="1.5905" stroke-miterlimit="10" stroke-linejoin="round"/>
<path d="M94.0691 65.1047V95.4331C94.0691 101.717 88.8777 106.772 82.5934 106.772H51.9917V90.3784C50.8988 91.3347 49.5327 91.7446 48.0299 91.7446C44.4779 91.7446 41.7456 88.6024 42.0188 84.9138C42.4287 82.1815 44.6145 80.1323 47.0736 79.7224C48.8496 79.5858 50.6256 80.1323 51.7185 81.0886V64.6948H69.3418C68.7953 65.5145 68.6587 66.4708 68.6587 67.4271C68.6587 70.8425 71.6642 73.7114 75.3528 73.3016C78.0851 73.0283 80.4076 70.7059 80.6808 68.1102C80.8174 66.8807 80.5442 65.7877 80.1344 64.6948L94.0691 65.1047Z" fill="#1f1f1f" stroke="#737373" stroke-width="1.5905" stroke-miterlimit="10" stroke-linejoin="round"/>
<path d="M106.911 52.6728L93.3859 50.3503C93.6591 51.4432 93.7958 52.5362 93.3859 53.6291C92.5662 56.2247 90.1072 58.0007 87.3749 57.8641C83.8229 57.5909 81.2272 54.4488 81.7737 51.0334C81.9103 50.0771 82.3201 49.2574 82.8666 48.5743L65.3799 45.4322L68.1122 29.7215C69.2051 30.8144 70.8445 31.4975 72.7571 31.4975C75.2161 31.3609 77.2654 29.8581 77.9484 27.6723C79.3146 24.1203 76.9921 20.2951 73.3035 19.7486C72.074 19.4754 70.8445 19.7486 69.7516 20.1585L72.4839 4.44775L102.539 9.63912C108.823 10.732 112.922 16.6065 111.829 22.7541L106.911 52.6728Z" fill="#1f1f1f" stroke="#a3a3a3" stroke-width="2" stroke-miterlimit="10" stroke-linejoin="round"/>
<path d="M113.473 64.1927L118.015 62.8237C118.344 62.7282 118.344 62.2506 118.015 62.1551L113.473 60.7861C113.356 60.7543 113.271 60.6694 113.24 60.5526L111.871 56.0212C111.775 55.6922 111.297 55.6922 111.202 56.0212L109.833 60.5526C109.801 60.6694 109.716 60.7543 109.6 60.7861L105.068 62.1551C104.739 62.2506 104.739 62.7282 105.068 62.8237L109.61 64.1927C109.727 64.2245 109.812 64.3094 109.844 64.4261L111.213 68.9682C111.308 69.2972 111.786 69.2972 111.881 68.9682L113.25 64.4261C113.271 64.3094 113.356 64.2245 113.473 64.1927Z" fill="#737373"/>
<path d="M103.424 24.4523L109.073 22.7496C109.482 22.6308 109.482 22.0369 109.073 21.9181L103.424 20.2153C103.279 20.1757 103.173 20.0701 103.133 19.925L101.431 14.2888C101.312 13.8796 100.718 13.8796 100.599 14.2888L98.8965 19.925C98.8569 20.0701 98.7513 20.1757 98.6061 20.2153L92.97 21.9181C92.5608 22.0369 92.5608 22.6308 92.97 22.7496L98.6193 24.4523C98.7645 24.4919 98.8701 24.5975 98.9097 24.7427L100.612 30.3921C100.731 30.8012 101.325 30.8012 101.444 30.3921L103.147 24.7427C103.173 24.5975 103.279 24.4919 103.424 24.4523Z" fill="#525252"/>
<path d="M62.357 5.26099L65.1958 4.40543C65.4015 4.34575 65.4015 4.0473 65.1958 3.98761L62.357 3.13205C62.2841 3.11216 62.231 3.0591 62.2111 2.98615L61.3555 0.154199C61.2958 -0.0513995 60.9973 -0.0513995 60.9376 0.154199L60.082 2.98615C60.0621 3.0591 60.009 3.11216 59.9361 3.13205L57.1039 3.98761C56.8983 4.0473 56.8983 4.34575 57.1039 4.40543L59.9427 5.26099C60.0157 5.28088 60.0687 5.33394 60.0886 5.4069L60.9443 8.24548C61.004 8.45107 61.3024 8.45107 61.3621 8.24548L62.2177 5.4069C62.231 5.33394 62.2841 5.28088 62.357 5.26099Z" fill="#737373"/>
</svg>
