<svg width="144" height="118" viewBox="0 0 144 118" fill="none" xmlns="http://www.w3.org/2000/svg">
<path d="M71.915 116.003C103.558 116.003 129.168 90.2405 129.168 58.455C129.168 26.6694 103.558 1 71.915 1C40.3653 1 14.6616 26.7621 14.6616 58.5476C14.6616 90.3332 40.3653 116.003 71.915 116.003Z" fill="#1f1f1f" stroke="#525252" stroke-width="2" stroke-miterlimit="10"/>
<path d="M6.40267 71.9221C8.53691 71.9221 10.2072 70.2541 10.2072 68.1227C10.2072 65.9913 8.53691 64.3232 6.40267 64.3232C4.26842 64.3232 2.59814 65.9913 2.59814 68.1227C2.59814 70.2541 4.36122 71.9221 6.40267 71.9221Z" fill="#1f1f1f"/>
<path d="M2.59821 59.5972C3.99011 59.5972 5.19642 58.3925 5.19642 57.0025C5.19642 55.6124 3.99011 54.4077 2.59821 54.4077C1.20631 54.4077 0 55.6124 0 57.0025C0 58.4852 1.20631 59.5972 2.59821 59.5972Z" fill="#1f1f1f"/>
<path d="M138.726 81.467C141.417 81.467 143.551 79.3356 143.551 76.6481C143.551 73.9607 141.417 71.8293 138.726 71.8293C136.035 71.8293 133.9 73.9607 133.9 76.6481C133.9 79.3356 136.035 81.467 138.726 81.467Z" fill="#1f1f1f"/>
<circle cx="70.6176" cy="28.6049" r="2.23823" fill="#4D4D4D"/>
<path d="M113.372 106.197H29.3551C26.224 106.197 23.6147 103.61 23.6147 100.505V15.6447C23.6147 12.5401 26.224 9.95288 29.3551 9.95288H113.372C116.503 9.95288 119.113 12.5401 119.113 15.6447V100.505C119.113 103.61 116.503 106.197 113.372 106.197Z" fill="#1f1f1f" stroke="#737373" stroke-width="2" stroke-miterlimit="10"/>
<path d="M70.8772 42.0341C77.4699 42.0341 82.8144 36.6896 82.8144 30.0969C82.8144 23.5041 77.4699 18.1597 70.8772 18.1597C64.2844 18.1597 58.9399 23.5041 58.9399 30.0969C58.9399 36.6896 64.2844 42.0341 70.8772 42.0341Z" fill="#1f1f1f" stroke="#737373" stroke-width="2" stroke-miterlimit="10"/>
<path d="M70.8773 30.8431C73.3496 30.8431 75.3538 28.8389 75.3538 26.3666C75.3538 23.8943 73.3496 21.8901 70.8773 21.8901C68.4051 21.8901 66.4009 23.8943 66.4009 26.3666C66.4009 28.8389 68.4051 30.8431 70.8773 30.8431Z" fill="#737373"/>
<path d="M79.8302 38.3074C77.6656 40.6044 74.6218 42.0342 71.2503 42.0342C67.8788 42.0342 64.8349 40.6044 62.6704 38.3074C63.8656 34.8375 67.2553 32.3352 71.2503 32.3352C75.2452 32.3352 78.635 34.8375 79.8302 38.3074Z" fill="#737373"/>
<path d="M103.388 60.686H38.5928C37.8184 60.686 37.0439 59.8252 37.0439 58.9643V51.2166C37.0439 50.3557 37.8184 49.4949 38.5928 49.4949H103.388C104.162 49.4949 104.937 50.3557 104.937 51.2166V58.9643C104.937 59.8252 104.162 60.686 103.388 60.686Z" fill="#1f1f1f" stroke="#737373" stroke-width="2" stroke-miterlimit="10"/>
<path d="M103.388 77.0998H38.5928C37.8184 77.0998 37.0439 76.239 37.0439 75.3781V67.6304C37.0439 66.7695 37.8184 65.9087 38.5928 65.9087H103.388C104.162 65.9087 104.937 66.7695 104.937 67.6304V75.3781C104.937 76.239 104.162 77.0998 103.388 77.0998Z" fill="#1f1f1f" stroke="#737373" stroke-width="2" stroke-miterlimit="10"/>
<path d="M103.325 83.8145H79.6896C78.8839 83.8145 78.0781 84.4877 78.0781 85.8342V93.2398C78.0781 94.2497 78.6153 95.2595 79.6896 95.2595H103.325C104.131 95.2595 104.937 94.5863 104.937 93.2398V85.8342C104.937 84.7682 104.131 83.8145 103.325 83.8145Z" fill="#1f1f1f" stroke="#737373" stroke-width="2" stroke-miterlimit="10"/>
<path d="M97.9375 88.291H85.8239C85.3084 88.291 84.793 88.9141 84.793 89.5371C84.793 90.1601 85.3084 90.7832 85.8239 90.7832H97.9375C98.453 90.7832 98.9684 90.1601 98.9684 89.5371C98.9684 88.6025 98.453 88.291 97.9375 88.291Z" fill="#a3a3a3"/>
<rect x="41.5205" y="53.9714" width="29.097" height="2.23823" rx="1.11911" fill="#a3a3a3"/>
<rect x="41.5205" y="70.385" width="2.23823" height="2.23823" rx="1.11911" fill="#a3a3a3"/>
<rect x="45.9971" y="70.385" width="2.23823" height="2.23823" rx="1.11911" fill="#a3a3a3"/>
<rect x="50.4736" y="70.385" width="2.23823" height="2.23823" rx="1.11911" fill="#a3a3a3"/>
<rect x="54.9497" y="70.385" width="2.23823" height="2.23823" rx="1.11911" fill="#a3a3a3"/>
<rect x="58.6802" y="70.385" width="2.23823" height="2.23823" rx="1.11911" fill="#a3a3a3"/>
<rect x="63.1567" y="70.385" width="2.23823" height="2.23823" rx="1.11911" fill="#a3a3a3"/>
</svg>
