<svg width="150" height="126" viewBox="0 0 150 126" fill="none" xmlns="http://www.w3.org/2000/svg">
<path d="M84.2752 124.383C117.256 124.383 143.993 97.6453 143.993 64.5472C143.993 31.4491 117.138 4.71155 84.2752 4.71155C51.295 4.71155 24.5574 31.4491 24.5574 64.5472C24.5574 97.6453 51.295 124.383 84.2752 124.383Z" fill="#F5F5F5" stroke="#D4D4D4" stroke-width="2" stroke-miterlimit="10"/>
<path d="M139.635 25.4417C142.302 25.4417 144.464 23.2796 144.464 20.6125C144.464 17.9453 142.302 15.7832 139.635 15.7832C136.968 15.7832 134.806 17.9453 134.806 20.6125C134.806 23.2796 136.968 25.4417 139.635 25.4417Z" fill="#F5F5F5"/>
<path d="M146.702 6.59605C148.523 6.59605 150 5.11948 150 3.29803C150 1.47658 148.523 0 146.702 0C144.881 0 143.404 1.47658 143.404 3.29803C143.404 5.11948 144.881 6.59605 146.702 6.59605Z" fill="#F5F5F5"/>
<path d="M27.2665 25.324C29.088 25.324 30.5646 23.8474 30.5646 22.026C30.5646 20.2045 29.088 18.728 27.2665 18.728C25.4451 18.728 23.9685 20.2045 23.9685 22.026C23.9685 23.8474 25.4451 25.324 27.2665 25.324Z" fill="#F5F5F5"/>
<path d="M7.12491 88.9292C10.5076 88.9292 13.2498 86.187 13.2498 82.8043C13.2498 79.4216 10.5076 76.6794 7.12491 76.6794C3.74221 76.6794 1 79.4216 1 82.8043C1 86.187 3.74221 88.9292 7.12491 88.9292Z" fill="#F5F5F5"/>
<path d="M128.187 105.12C117.275 116.97 101.64 124.383 84.275 124.383C70.4162 124.383 57.6597 119.662 47.5264 111.731V14.0746C47.5264 10.8443 50.1275 8.20825 53.3724 8.20825H111.37L128.187 25.0838V105.12Z" fill="white" stroke="#D4D4D4" stroke-width="2" stroke-miterlimit="10"/>
<path d="M71.5925 104.186H63.1467C62.8316 104.186 62.5795 103.369 62.5795 102.39C62.5795 101.41 62.8316 100.593 63.1467 100.593H71.5925C71.9077 100.593 72.1598 101.41 72.1598 102.39C72.1598 103.533 71.9077 104.186 71.5925 104.186Z" fill="#E3E3E3"/>
<path d="M90.1778 28.7409H63.7221C63.1068 28.7409 62.5795 27.9119 62.5795 26.9446C62.5795 25.9774 63.1068 25.1483 63.7221 25.1483H90.1778C90.793 25.1483 91.3204 25.9774 91.3204 26.9446C91.3204 27.9119 90.793 28.7409 90.1778 28.7409Z" fill="#D4D4D4"/>
<path d="M70.2488 37.1237H63.3523C62.9362 37.1237 62.5795 36.2947 62.5795 35.3274C62.5795 34.3602 62.9362 33.5311 63.3523 33.5311H70.1894C70.6055 33.5311 70.9622 34.3602 70.9622 35.3274C70.9622 36.2947 70.6055 37.1237 70.2488 37.1237Z" fill="#D4D4D4"/>
<path d="M111.995 83.8277H79.2032H75.5891H64.6586C64.2178 83.8277 63.7771 84.5762 63.7771 85.624C63.7771 86.5222 64.1297 87.4203 64.6586 87.4203H75.5891H79.2032H111.995C112.435 87.4203 112.876 86.6718 112.876 85.624C112.788 84.5762 112.435 83.8277 111.995 83.8277Z" fill="#D4D4D4"/>
<path d="M111.993 74.2474H99.8067H95.6562H64.6602C64.2186 74.2474 63.7771 74.9959 63.7771 76.0437C63.7771 76.9419 64.1303 77.8401 64.6602 77.8401H95.6562H99.8067H111.993C112.435 77.8401 112.876 77.0916 112.876 76.0437C112.788 74.9959 112.435 74.2474 111.993 74.2474Z" fill="#D4D4D4"/>
<path d="M113.251 65.8646H110.007H106.763H64.6783C64.2277 65.8646 63.7771 66.6131 63.7771 67.6609C63.7771 68.5591 64.1376 69.4572 64.6783 69.4572H106.763H110.367H113.161C113.612 69.4572 114.062 68.7088 114.062 67.6609C114.152 66.7628 113.702 65.8646 113.251 65.8646Z" fill="#D4D4D4"/>
<path d="M113.18 56.2844H102.728H100.137H64.6705C64.2238 56.2844 63.7771 57.0328 63.7771 58.0807C63.7771 58.9788 64.1344 59.877 64.6705 59.877H100.137H102.728H113.091C113.716 59.877 114.074 59.1285 114.074 58.0807C114.074 57.1825 113.716 56.2844 113.18 56.2844Z" fill="#D4D4D4"/>
<path d="M111.37 8.91168V19.7872C111.37 23.1009 114.056 25.7872 117.37 25.7872H128.187" fill="#F5F5F5"/>
<path d="M111.37 8.91168V19.7872C111.37 23.1009 114.056 25.7872 117.37 25.7872H128.187" stroke="#D4D4D4" stroke-width="2" stroke-miterlimit="10"/>
<path d="M70.8988 42.4288V79.5311C70.8988 83.8729 67.3447 87.0305 63.3956 87.0305H62.421C61.8688 87.0305 61.421 87.4782 61.421 88.0305V96.8981C61.421 99.2664 58.6567 100.056 57.077 98.477L47.5035 87.3774C47.3135 87.1571 47.0371 87.0305 46.7462 87.0305H8.50327C4.15928 87.0305 1 83.4782 1 79.5311V42.4288C1 38.0871 4.55418 34.9294 8.50327 34.9294H63.3956C67.3447 34.9294 70.8988 38.4818 70.8988 42.4288Z" fill="#D4D4D4" stroke="#A3A3A3" stroke-width="2" stroke-miterlimit="10" stroke-linejoin="round"/>
<path d="M19.5605 61.7695V53.8754C19.5605 52.6913 20.3504 51.9019 21.5351 51.9019H30.2231C31.4078 51.9019 32.1976 52.6913 32.1976 53.8754V62.9536C32.1976 65.3218 32.1976 67.2954 31.8027 68.8742C31.4157 70.4216 30.6493 71.2107 29.5035 72.3563C29.457 72.4028 29.4061 72.4451 29.3504 72.4803C28.3636 73.1039 26.8665 73.4756 25.0679 73.8037C24.46 73.9146 23.9046 73.4429 23.9046 72.825V71.3204C23.9046 70.8227 24.274 70.4097 24.7555 70.2839C26.9907 69.7001 28.2485 68.1396 28.2485 65.3218C28.2485 65.3218 27.8951 64.5324 27.4591 64.5324H22.2327C22.0353 64.5324 21.8422 64.4743 21.6783 64.3643C20.5832 63.629 19.5605 62.8696 19.5605 61.7695ZM38.9111 61.7695V53.8754C38.9111 52.6913 39.7009 51.9019 40.8856 51.9019H49.5736C50.7583 51.9019 51.5481 52.6913 51.5481 53.8754V62.9536C51.5481 65.3218 51.5481 67.2954 51.1532 68.8742C50.7662 70.4216 49.9998 71.2107 48.8541 72.3563C48.8075 72.4028 48.7566 72.4451 48.7009 72.4803C47.7141 73.1039 46.217 73.4756 44.4184 73.8037C43.8105 73.9146 43.255 73.4429 43.255 72.825V71.3204C43.255 70.8227 43.6244 70.4097 44.106 70.2839C46.3411 69.7001 47.5991 68.1396 47.5991 65.3218C47.5991 65.3218 47.2456 64.5324 46.8097 64.5324H41.5832C41.3858 64.5324 41.1927 64.4743 41.0288 64.3643C39.9337 63.629 38.9111 62.8696 38.9111 61.7695Z" fill="white" stroke="#A3A3A3" stroke-width="2" stroke-miterlimit="10" stroke-linejoin="round"/>
</svg>
