<svg width="165" height="142" viewBox="0 0 165 142" fill="none" xmlns="http://www.w3.org/2000/svg">
<path d="M85.3227 123.613C119.114 123.613 146.509 96.2184 146.509 62.3067C146.509 28.3949 118.993 1 85.3227 1C51.5316 1 24.1367 28.3949 24.1367 62.3067C24.1367 96.2184 51.5316 123.613 85.3227 123.613Z" fill="#F5F5F5" stroke="#D4D4D4" stroke-width="2" stroke-miterlimit="10"/>
<path d="M154.276 42.8823C157.009 42.8823 159.224 40.667 159.224 37.9343C159.224 35.2016 157.009 32.9863 154.276 32.9863C151.543 32.9863 149.328 35.2016 149.328 37.9343C149.328 40.667 151.543 42.8823 154.276 42.8823Z" fill="#F5F5F5"/>
<path d="M161.517 23.5733C163.383 23.5733 164.896 22.0604 164.896 20.1942C164.896 18.3279 163.383 16.8151 161.517 16.8151C159.65 16.8151 158.137 18.3279 158.137 20.1942C158.137 22.0604 159.65 23.5733 161.517 23.5733Z" fill="#F5F5F5"/>
<path d="M26.9123 22.1192C28.7785 22.1192 30.2914 20.6064 30.2914 18.7401C30.2914 16.8739 28.7785 15.361 26.9123 15.361C25.0461 15.361 23.5332 16.8739 23.5332 18.7401C23.5332 20.6064 25.0461 22.1192 26.9123 22.1192Z" fill="#F5F5F5"/>
<path d="M6.27549 87.288C9.74134 87.288 12.551 84.4784 12.551 81.0126C12.551 77.5467 9.74134 74.7371 6.27549 74.7371C2.80963 74.7371 0 77.5467 0 81.0126C0 84.4784 2.80963 87.288 6.27549 87.288Z" fill="#F5F5F5"/>
<path d="M121.099 107.854H138.619C140.82 107.854 142.706 105.969 142.706 103.769V22.0726C142.706 19.873 140.82 17.9877 138.619 17.9877H121.643" fill="#F5F5F5"/>
<path d="M121.099 107.854H138.619C140.82 107.854 142.706 105.969 142.706 103.769V22.0726C142.706 19.873 140.82 17.9877 138.619 17.9877H121.643L121.099 107.854Z" stroke="#D4D4D4" stroke-width="2" stroke-miterlimit="10"/>
<path d="M51.5361 107.854H34.5596C32.3589 107.854 30.4727 105.969 30.4727 103.769V22.0726C30.4727 19.873 32.3589 17.9877 34.5596 17.9877H51.1864" fill="#F5F5F5"/>
<path d="M51.5361 107.854H34.5596C32.3589 107.854 30.4727 105.969 30.4727 103.769V22.0726C30.4727 19.873 32.3589 17.9877 34.5596 17.9877H51.1864L51.5361 107.854Z" stroke="#D4D4D4" stroke-width="2" stroke-miterlimit="10"/>
<path d="M42.2832 34.327H50.7714" stroke="#D4D4D4" stroke-width="2" stroke-miterlimit="10" stroke-linecap="round"/>
<path d="M42.2832 45.3246H50.7714" stroke="#D4D4D4" stroke-width="2" stroke-miterlimit="10" stroke-linecap="round"/>
<path d="M42.2832 56.6365H50.7714" stroke="#D4D4D4" stroke-width="2" stroke-miterlimit="10" stroke-linecap="round"/>
<path d="M42.2832 67.9485H50.7714" stroke="#D4D4D4" stroke-width="2" stroke-miterlimit="10" stroke-linecap="round"/>
<path d="M42.2832 89.9436H50.7714" stroke="#D4D4D4" stroke-width="2" stroke-miterlimit="10" stroke-linecap="round"/>
<path d="M129.816 34.327H121.643" stroke="#D4D4D4" stroke-width="2" stroke-miterlimit="10"/>
<path d="M129.816 45.3246H121.643" stroke="#D4D4D4" stroke-width="2" stroke-miterlimit="10" stroke-linecap="round"/>
<path d="M129.816 56.6365H121.643" stroke="#D4D4D4" stroke-width="2" stroke-miterlimit="10" stroke-linecap="round"/>
<path d="M129.816 67.9485H121.643" stroke="#D4D4D4" stroke-width="2" stroke-miterlimit="10" stroke-linecap="round"/>
<path d="M129.816 89.9436H121.643" stroke="#D4D4D4" stroke-width="2" stroke-miterlimit="10" stroke-linecap="round"/>
<path d="M117.556 114.767H55.3086C53.108 114.767 51.2217 112.881 51.2217 110.682V15.7883C51.2217 13.5888 53.108 11.7035 55.3086 11.7035H117.556C119.756 11.7035 121.643 13.5888 121.643 15.7883V110.682C121.643 112.881 119.756 114.767 117.556 114.767Z" fill="white" stroke="#D4D4D4" stroke-width="2" stroke-miterlimit="10"/>
<path d="M110.01 42.4468H66.6261C65.683 42.4468 65.0542 41.8773 65.0542 41.0231V37.3217C65.0542 36.4675 65.683 35.898 66.6261 35.898H110.01C110.954 35.898 111.582 36.4675 111.582 37.3217V41.0231C111.582 41.5926 110.954 42.4468 110.01 42.4468Z" fill="#F5F5F5" stroke="#D4D4D4" stroke-width="2" stroke-miterlimit="10"/>
<path d="M110.01 59.4146H66.6261C65.683 59.4146 65.0542 58.8451 65.0542 57.9909V54.2894C65.0542 53.4352 65.683 52.8658 66.6261 52.8658H110.01C110.954 52.8658 111.582 53.4352 111.582 54.2894V57.9909C111.582 58.8451 110.954 59.4146 110.01 59.4146Z" fill="#F5F5F5" stroke="#D4D4D4" stroke-width="2" stroke-miterlimit="10"/>
<path d="M110.01 76.6964H66.6261C65.683 76.6964 65.0542 76.127 65.0542 75.2728V71.5713C65.0542 70.7171 65.683 70.1476 66.6261 70.1476H110.01C110.954 70.1476 111.582 70.7171 111.582 71.5713V75.2728C111.582 76.127 110.954 76.6964 110.01 76.6964Z" fill="#F5F5F5" stroke="#D4D4D4" stroke-width="2" stroke-miterlimit="10"/>
<path d="M110.011 94.2926H92.7201C91.777 94.2926 91.1482 93.7231 91.1482 92.8689V89.1674C91.1482 88.3132 91.777 87.7438 92.7201 87.7438H110.011C110.954 87.7438 111.583 88.3132 111.583 89.1674V92.8689C111.583 93.7231 110.954 94.2926 110.011 94.2926Z" fill="#F5F5F5" stroke="#D4D4D4" stroke-width="2" stroke-miterlimit="10"/>
<path d="M105.547 125.569C105.155 127.237 104.566 129.003 103.879 130.475C102.015 134.106 99.071 136.952 95.4402 138.816C91.7114 140.681 87.2956 141.466 82.8799 140.484C72.4783 138.326 65.8057 128.12 67.9645 117.719C70.1233 107.317 80.2304 100.546 90.632 102.803C94.3608 103.588 97.5991 105.453 100.347 108.004C104.959 112.616 106.921 119.289 105.547 125.569Z" fill="#D4D4D4" stroke="#A3A3A3" stroke-width="2" stroke-miterlimit="10"/>
<path d="M92.889 118.976H89.4732V115.56C89.4732 114.163 88.3767 112.892 86.8051 112.892C85.4085 112.892 84.1369 113.988 84.1369 115.56V118.976H80.7212C79.3246 118.976 78.053 120.072 78.053 121.644C78.053 122.374 78.3127 123.054 78.812 123.553C79.3113 124.052 79.991 124.312 80.7212 124.312H84.1369V127.728C84.1369 129.124 85.2334 130.396 86.8051 130.396C88.2016 130.396 89.4732 129.299 89.4732 127.728V124.312H92.889C94.2856 124.312 95.5572 123.215 95.5572 121.644C95.5572 120.072 94.2856 118.976 92.889 118.976Z" fill="white" stroke="#A3A3A3" stroke-width="2"/>
</svg>
