<svg width="144" height="117" viewBox="0 0 144 117" fill="none" xmlns="http://www.w3.org/2000/svg">
<path d="M71.9152 116.003C103.558 116.003 129.169 90.2405 129.169 58.455C129.169 26.6694 103.558 1 71.9152 1C40.3655 1 14.6617 26.7621 14.6617 58.5476C14.6617 90.3332 40.3655 116.003 71.9152 116.003Z" fill="#F2F2F2" stroke="#D4D4D4" stroke-width="2" stroke-miterlimit="10"/>
<path d="M6.40267 71.9221C8.53691 71.9221 10.2072 70.2541 10.2072 68.1227C10.2072 65.9913 8.53691 64.3232 6.40267 64.3232C4.26842 64.3232 2.59814 65.9913 2.59814 68.1227C2.59814 70.2541 4.36122 71.9221 6.40267 71.9221Z" fill="#F2F2F2"/>
<path d="M2.59821 59.5971C3.99011 59.5971 5.19642 58.3924 5.19642 57.0023C5.19642 55.6123 3.99011 54.4076 2.59821 54.4076C1.20631 54.4076 0 55.6123 0 57.0023C0 58.485 1.20631 59.5971 2.59821 59.5971Z" fill="#F2F2F2"/>
<path d="M138.726 81.467C141.417 81.467 143.551 79.3356 143.551 76.6482C143.551 73.9608 141.417 71.8294 138.726 71.8294C136.035 71.8294 133.901 73.9608 133.901 76.6482C133.901 79.3356 136.035 81.467 138.726 81.467Z" fill="#F2F2F2"/>
<circle cx="70.6175" cy="28.6048" r="2.23823" fill="#C4C4C4"/>
<path d="M113.372 106.197H29.3551C26.224 106.197 23.6147 103.61 23.6147 100.505V15.6448C23.6147 12.5401 26.224 9.95294 29.3551 9.95294H113.372C116.503 9.95294 119.113 12.5401 119.113 15.6448V100.505C119.113 103.61 116.503 106.197 113.372 106.197Z" fill="white" stroke="#D4D4D4" stroke-width="2" stroke-miterlimit="10"/>
<path d="M70.8772 42.0342C77.4699 42.0342 82.8144 36.6897 82.8144 30.0969C82.8144 23.5042 77.4699 18.1597 70.8772 18.1597C64.2844 18.1597 58.9399 23.5042 58.9399 30.0969C58.9399 36.6897 64.2844 42.0342 70.8772 42.0342Z" fill="#D4D4D4" stroke="#A3A3A3" stroke-width="2" stroke-miterlimit="10" stroke-linejoin="round"/>
<path d="M70.8772 30.8431C73.3495 30.8431 75.3537 28.8389 75.3537 26.3667C75.3537 23.8944 73.3495 21.8902 70.8772 21.8902C68.4049 21.8902 66.4008 23.8944 66.4008 26.3667C66.4008 28.8389 68.4049 30.8431 70.8772 30.8431Z" fill="#A3A3A3"/>
<path d="M79.8302 38.3074C77.6656 40.6044 74.6218 42.0341 71.2503 42.0341C67.8788 42.0341 64.8349 40.6044 62.6704 38.3074C63.8656 34.8374 67.2553 32.3351 71.2503 32.3351C75.2452 32.3351 78.635 34.8374 79.8302 38.3074Z" fill="#A3A3A3"/>
<path d="M103.388 60.6861H38.593C37.8185 60.6861 37.0441 59.8253 37.0441 58.9644V51.2167C37.0441 50.3558 37.8185 49.495 38.593 49.495H103.388C104.163 49.495 104.937 50.3558 104.937 51.2167V58.9644C104.937 59.8253 104.163 60.6861 103.388 60.6861Z" fill="#D4D4D4" stroke="#A3A3A3" stroke-width="2" stroke-miterlimit="10" stroke-linejoin="round"/>
<path d="M103.388 77.0998H38.593C37.8185 77.0998 37.0441 76.2389 37.0441 75.3781V67.6303C37.0441 66.7695 37.8185 65.9086 38.593 65.9086H103.388C104.163 65.9086 104.937 66.7695 104.937 67.6303V75.3781C104.937 76.2389 104.163 77.0998 103.388 77.0998Z" fill="#D4D4D4" stroke="#A3A3A3" stroke-width="2" stroke-miterlimit="10" stroke-linejoin="round"/>
<path d="M103.325 83.8145H79.6898C78.884 83.8145 78.0782 84.4289 78.0782 85.6577V92.4163C78.0782 93.3379 78.6154 94.2595 79.6898 94.2595H103.325C104.131 94.2595 104.937 93.6451 104.937 92.4163V85.6577C104.937 84.6849 104.131 83.8145 103.325 83.8145Z" fill="#D4D4D4" stroke="#A3A3A3" stroke-width="2" stroke-miterlimit="10" stroke-linejoin="round"/>
<path d="M97.9375 88.291H85.8239C85.3084 88.291 84.793 88.664 84.793 89.037C84.793 89.4101 85.3084 89.7831 85.8239 89.7831H97.9375C98.453 89.7831 98.9684 89.4101 98.9684 89.037C98.9684 88.4775 98.453 88.291 97.9375 88.291Z" fill="#A3A3A3"/>
<rect x="41.5205" y="53.9714" width="29.097" height="2.23823" rx="1.11911" fill="#A3A3A3"/>
<rect x="41.5205" y="70.3851" width="2.23823" height="2.23823" rx="1.11911" fill="#A3A3A3"/>
<rect x="45.9971" y="70.3851" width="2.23823" height="2.23823" rx="1.11911" fill="#A3A3A3"/>
<rect x="50.4734" y="70.3851" width="2.23823" height="2.23823" rx="1.11911" fill="#A3A3A3"/>
<rect x="54.9498" y="70.3851" width="2.23823" height="2.23823" rx="1.11911" fill="#A3A3A3"/>
<rect x="58.6803" y="70.3851" width="2.23823" height="2.23823" rx="1.11911" fill="#A3A3A3"/>
<rect x="63.1567" y="70.3851" width="2.23823" height="2.23823" rx="1.11911" fill="#A3A3A3"/>
</svg>
