<svg width="146" height="120" viewBox="0 0 146 120" fill="none" xmlns="http://www.w3.org/2000/svg">
<path d="M131.648 59.7265C131.648 72.9542 127.219 85.3837 119.837 95.1904C115.748 100.55 110.865 105.225 105.187 108.874C96.1015 114.918 85.0856 118.339 73.3883 118.339C41.2491 118.453 15.1289 92.2256 15.1289 59.7265C15.1289 27.3414 41.1355 1 73.3883 1C85.0856 1 95.9879 4.42096 105.187 10.4647C110.865 14.1137 115.748 18.789 119.837 24.1485C127.219 34.0693 131.648 46.3847 131.648 59.7265Z" fill="#F5F5F5" stroke="#D4D4D4" stroke-width="2" stroke-miterlimit="10"/>
<path d="M29.0198 51.8744H28.3164C27.7889 51.8744 27.4373 51.7103 27.4373 51.4641C27.4373 51.2179 27.7889 51.0538 28.3164 51.0538H29.0198C29.5473 51.0538 29.8989 51.2179 29.8989 51.4641C29.8989 51.7103 29.5473 51.8744 29.0198 51.8744Z" fill="#808080"/>
<path d="M29.0198 55.1566H28.3164C27.7889 55.1566 27.4373 54.9925 27.4373 54.7463C27.4373 54.5002 27.7889 54.3361 28.3164 54.3361H29.0198C29.5473 54.3361 29.8989 54.5002 29.8989 54.7463C29.8989 54.9925 29.5473 55.1566 29.0198 55.1566Z" fill="#808080"/>
<path d="M29.0198 58.4388H28.3164C27.7889 58.4388 27.4373 58.2747 27.4373 58.0286C27.4373 57.7824 27.7889 57.6183 28.3164 57.6183H29.0198C29.5473 57.6183 29.8989 57.7824 29.8989 58.0286C29.8989 58.2747 29.5473 58.4388 29.0198 58.4388Z" fill="#808080"/>
<path d="M29.0198 61.7211H28.3164C27.7889 61.7211 27.4373 61.557 27.4373 61.3108C27.4373 61.0646 27.7889 60.9005 28.3164 60.9005H29.0198C29.5473 60.9005 29.8989 61.0646 29.8989 61.3108C29.8989 61.557 29.5473 61.7211 29.0198 61.7211Z" fill="#808080"/>
<path d="M61.1191 51.8744H49.5532C49.0843 51.8744 48.7717 51.7103 48.7717 51.4641C48.7717 51.2179 49.0843 51.0538 49.5532 51.0538H61.1191C61.588 51.0538 61.9006 51.2179 61.9006 51.4641C61.9006 51.7103 61.588 51.8744 61.1191 51.8744Z" fill="white"/>
<path d="M85.7623 61.7211H49.5266C49.0737 61.7211 48.7717 61.557 48.7717 61.3108C48.7717 61.0646 49.0737 60.9005 49.5266 60.9005H85.7623C86.2153 60.9005 86.5172 61.0646 86.5172 61.3108C86.5172 61.557 86.2153 61.7211 85.7623 61.7211Z" fill="url(#paint0_linear_555_5442)"/>
<path d="M61.1642 55.1566H45.4053C44.9635 55.1566 44.6689 54.9925 44.6689 54.7463C44.6689 54.5002 44.9635 54.3361 45.4053 54.3361H61.1642C61.606 54.3361 61.9006 54.5002 61.9006 54.7463C61.9006 54.9925 61.606 55.1566 61.1642 55.1566Z" fill="#808080"/>
<path d="M73.4741 58.4388H45.4038C44.9629 58.4388 44.6689 58.2747 44.6689 58.0286C44.6689 57.7824 44.9629 57.6183 45.4038 57.6183H73.4741C73.915 57.6183 74.2089 57.7824 74.2089 58.0286C74.0619 58.2747 73.768 58.4388 73.4741 58.4388Z" fill="#808080"/>
<path d="M85.7178 58.4388H75.008C74.5284 58.4388 74.2087 58.2747 74.2087 58.0286C74.2087 57.7824 74.5284 57.6183 75.008 57.6183H85.7178C86.1974 57.6183 86.5171 57.7824 86.5171 58.0286C86.5171 58.2747 86.1974 58.4388 85.7178 58.4388Z" fill="white"/>
<path d="M92.3053 58.4388H88.1138C87.6481 58.4388 87.3376 58.2747 87.3376 58.0286C87.3376 57.7824 87.6481 57.6183 88.1138 57.6183H92.3053C92.771 57.6183 93.0815 57.7824 93.0815 58.0286C93.0815 58.2747 92.771 58.4388 92.3053 58.4388Z" fill="url(#paint1_linear_555_5442)"/>
<path d="M2 103.569H139.853" stroke="#D4D4D4" stroke-width="2" stroke-miterlimit="10" stroke-linecap="round" stroke-linejoin="round"/>
<path d="M98.8255 51.0538V103.569H24.3715C21.4345 103.569 19.2317 101.209 19.2317 98.4063V51.0538H98.8255Z" fill="white" stroke="#D4D4D4" stroke-width="2" stroke-miterlimit="10"/>
<path d="M128.365 51.0538V98.4063C128.365 101.357 125.916 103.569 123.008 103.569H98.8254V51.0538H128.365Z" fill="#D4D4D4"/>
<path d="M128.365 51.0538V98.4063C128.365 101.357 125.916 103.569 123.008 103.569H98.8254V51.0538H128.365Z" fill="#F5F5F5" stroke="#D4D4D4" stroke-width="2" stroke-miterlimit="10"/>
<path d="M47.9512 51.0538L63.6074 26.4372H143.956L127.857 51.0538H47.9512Z" fill="#D0D0D0"/>
<path d="M47.9512 51.0538L63.6074 26.4372H143.956L127.857 51.0538H47.9512Z" fill="#F5F5F5" stroke="#D4D4D4" stroke-width="2" stroke-miterlimit="10"/>
<path opacity="0.3" d="M128.365 51.1976V78.9527H106.826C104.826 78.9527 103.441 77.6584 103.133 75.7889L98.8254 51.0538L128.365 51.1976Z" fill="url(#paint2_linear_555_5442)"/>
<path d="M127.746 51.0538H98.8254L113.511 73.312C114.56 74.786 116.208 75.6705 117.856 75.6705H140.334C141.832 75.6705 142.881 73.9016 141.982 72.7224L127.746 51.0538Z" fill="white" stroke="#D4D4D4" stroke-width="2" stroke-miterlimit="10"/>
<path d="M98.8254 51.0538L83.0597 26.4372H2L18.3607 51.0538H98.8254Z" fill="white" stroke="#D4D4D4" stroke-width="2" stroke-miterlimit="10"/>
<path d="M58.9543 81.4144H27.9218C27.1967 81.4144 26.6167 80.8673 26.6167 80.1835C26.6167 79.4997 27.1967 78.9527 27.9218 78.9527H58.9543C59.6794 78.9527 60.2594 79.4997 60.2594 80.1835C60.1144 80.8673 59.6794 81.4144 58.9543 81.4144Z" fill="#D4D4D4"/>
<path d="M58.9543 87.1583H27.9218C27.1967 87.1583 26.6167 86.7936 26.6167 86.3377C26.6167 85.8818 27.1967 85.5172 27.9218 85.5172H58.9543C59.6794 85.5172 60.2594 85.8818 60.2594 86.3377C60.1144 86.7936 59.6794 87.1583 58.9543 87.1583Z" fill="#D4D4D4"/>
<path d="M42.5228 93.7227H27.9422C27.2058 93.7227 26.6167 93.358 26.6167 92.9021C26.6167 92.4462 27.2058 92.0815 27.9422 92.0815H42.5228C43.2592 92.0815 43.8483 92.4462 43.8483 92.9021C43.7011 93.358 43.1119 93.7227 42.5228 93.7227Z" fill="#D4D4D4"/>
<defs>
<linearGradient id="paint0_linear_555_5442" x1="48.9413" y1="61.3274" x2="86.561" y2="61.3274" gradientUnits="userSpaceOnUse">
<stop stop-color="#FF66A9"/>
<stop offset="1" stop-color="#F53689"/>
</linearGradient>
<linearGradient id="paint1_linear_555_5442" x1="87.376" y1="58.0035" x2="93.0804" y2="58.0035" gradientUnits="userSpaceOnUse">
<stop stop-color="#FBFBFB"/>
<stop offset="1" stop-color="#919191"/>
</linearGradient>
<linearGradient id="paint2_linear_555_5442" x1="113.602" y1="79.5253" x2="113.602" y2="54.1128" gradientUnits="userSpaceOnUse">
<stop offset="0.00289017" stop-color="#6E6E6E" stop-opacity="0"/>
<stop offset="1" stop-color="#C2C2C2"/>
</linearGradient>
</defs>
</svg>
