<svg width="123" height="126" viewBox="0 0 123 126" fill="none" xmlns="http://www.w3.org/2000/svg">
<path d="M64.4237 111.867C91.7974 111.867 113.99 89.6743 113.99 62.2029C113.99 34.7315 91.6996 12.5393 64.4237 12.5393C37.0501 12.5393 14.8579 34.7315 14.8579 62.2029C14.8579 89.6743 37.0501 111.867 64.4237 111.867Z" fill="#F5F5F5" stroke="#D4D4D4" stroke-width="2" stroke-miterlimit="10"/>
<path d="M93.6338 12.5393C83.2422 33.0217 67.9889 41.1701 54.0085 46.036C50.764 47.181 47.2331 48.1828 43.8931 47.3241C40.5531 46.4654 37.6425 43.0783 38.5491 39.7389C39.3602 36.6381 43.3682 35.1115 46.2788 36.3518C49.2371 37.5922 50.8594 41.027 50.5731 44.2232C50.2868 47.4195 48.3305 50.2341 45.8494 52.19C43.3205 54.1459 40.3145 55.3386 37.2608 56.245C30.533 58.2486 23.519 59.2027 16.9821 61.7311C10.3976 64.2595 4.14697 68.7915 1.9044 75.4225C0.282106 80.1453 0.950108 85.4883 3.04954 89.9726C5.14898 94.4569 8.72756 98.2256 12.7356 101.231C18.8907 105.811 26.4773 108.673 34.1116 108.482C41.7459 108.291 49.4757 104.952 54.1994 98.9412C58.9231 92.9304 60.3068 84.2003 56.9668 77.283C54.6765 72.5125 49.4757 68.6006 44.2748 69.7456C40.1714 70.6997 37.1653 74.7069 36.7359 78.9527C36.3065 83.1985 38.1673 87.3965 40.9348 90.5451C43.7022 93.7413 47.3762 95.9835 51.1934 97.9394C56.776 100.754 63.3606 102.901 69.134 100.515C74.6212 98.2733 77.818 92.5964 79.9175 87.1103C82.0169 81.6242 83.5915 75.661 87.4086 71.129C91.9892 65.6906 99.7189 63.1622 106.638 64.7842C113.556 66.4062 119.377 72.1308 121.095 79.0004C122.431 84.3434 120.809 91.0221 115.799 93.3597C111.886 95.2202 107.067 93.8845 103.679 91.213C100.292 88.5415 98.0012 84.725 95.8064 81.004" stroke="#D4D4D4" stroke-width="2" stroke-miterlimit="10" stroke-dasharray="4 4"/>
<path d="M55.1786 35.3718C63.5323 38.1997 72.5968 33.7202 75.4247 25.3665C78.2527 17.0128 73.7731 7.94831 65.4194 5.1204C57.0657 2.29248 48.0012 6.77201 45.1733 15.1257C42.3454 23.4794 46.8249 32.5439 55.1786 35.3718Z" fill="white" stroke="#D4D4D4" stroke-width="2" stroke-miterlimit="10" stroke-linecap="round" stroke-linejoin="round"/>
<path d="M56.138 32.5375C62.9264 34.8355 70.2924 31.1953 72.5904 24.407C74.8884 17.6186 71.2482 10.2526 64.4599 7.95462C57.6715 5.65661 50.3055 9.29676 48.0075 16.0851C45.7095 22.8735 49.3497 30.2395 56.138 32.5375Z" fill="white" stroke="#D4D4D4" stroke-width="2" stroke-miterlimit="10" stroke-linejoin="round"/>
<path d="M59.7563 21.8493C60.6417 22.149 61.6025 21.6742 61.9023 20.7888C62.202 19.9033 61.7272 18.9425 60.8418 18.6428C59.9563 18.3431 58.9955 18.8179 58.6958 19.7033C58.3961 20.5887 58.8709 21.5495 59.7563 21.8493Z" fill="white" stroke="#D4D4D4" stroke-width="2" stroke-miterlimit="10" stroke-linejoin="round"/>
<path d="M63.0127 12.2299L60.6609 19.1772" stroke="#D4D4D4" stroke-width="2" stroke-miterlimit="10" stroke-linejoin="round"/>
<path d="M62.0832 20.2543L66.1859 20.4519" stroke="#D4D4D4" stroke-width="2" stroke-miterlimit="10" stroke-linejoin="round"/>
<path d="M64.0749 10.77C64.3354 10.6458 64.4335 10.3214 64.2939 10.0455C64.1543 9.76957 63.8299 9.64658 63.5694 9.77078C63.3089 9.89498 63.2108 10.2193 63.3504 10.4953C63.49 10.7712 63.8144 10.8942 64.0749 10.77Z" fill="white" stroke="#D4D4D4" stroke-width="2" stroke-miterlimit="10" stroke-linejoin="round"/>
<path d="M57.3169 30.7046C57.5774 30.5803 57.6754 30.256 57.5358 29.9801C57.3962 29.7041 57.0719 29.5811 56.8113 29.7053C56.5508 29.8296 56.4528 30.1539 56.5924 30.4298C56.732 30.7058 57.0563 30.8288 57.3169 30.7046Z" fill="white" stroke="#D4D4D4" stroke-width="2" stroke-miterlimit="10" stroke-linejoin="round"/>
<path d="M50.7202 17.3825C50.9807 17.2583 51.0787 16.9339 50.9391 16.658C50.7995 16.3821 50.4752 16.2591 50.2146 16.3833C49.9541 16.5075 49.8561 16.8319 49.9957 17.1078C50.1353 17.3837 50.4596 17.5067 50.7202 17.3825Z" fill="white" stroke="#D4D4D4" stroke-width="2" stroke-miterlimit="10" stroke-linejoin="round"/>
<path d="M70.655 24.1403C70.9155 24.0161 71.0136 23.6917 70.874 23.4158C70.7344 23.1399 70.41 23.0169 70.1495 23.1411C69.8889 23.2653 69.7909 23.5897 69.9305 23.8656C70.0701 24.1415 70.3945 24.2645 70.655 24.1403Z" fill="white" stroke="#D4D4D4" stroke-width="2" stroke-miterlimit="10" stroke-linejoin="round"/>
<path d="M12.3005 40.098L14.9425 39.3017C15.1339 39.2461 15.1339 38.9684 14.9425 38.9128L12.3005 38.1165C12.2326 38.098 12.1832 38.0486 12.1647 37.9807L11.3684 35.3449C11.3128 35.1535 11.0351 35.1535 10.9795 35.3449L10.1832 37.9807C10.1647 38.0486 10.1153 38.098 10.0474 38.1165L7.41159 38.9128C7.22023 38.9684 7.22023 39.2461 7.41159 39.3017L10.0536 40.098C10.1215 40.1165 10.1709 40.1659 10.1894 40.2338L10.9857 42.8758C11.0412 43.0672 11.319 43.0672 11.3746 42.8758L12.1709 40.2338C12.1832 40.1659 12.2326 40.1165 12.3005 40.098Z" fill="#D4D4D4"/>
<path d="M96.5554 9.17318L99.2573 9.7335C99.452 9.77595 99.5845 9.5318 99.4428 9.3917L97.5006 7.43162C97.4497 7.38296 97.4299 7.316 97.446 7.24748L98.0034 4.55101C98.0458 4.35632 97.8017 4.22382 97.6616 4.36551L95.7045 6.30233C95.6558 6.35318 95.5888 6.37303 95.5203 6.35692L92.8238 5.79954C92.6292 5.75709 92.4967 6.00123 92.6383 6.14134L94.5806 8.10142C94.6314 8.15008 94.6513 8.21704 94.6352 8.28555L94.0748 10.9875C94.0324 11.1821 94.2765 11.3146 94.4167 11.1729L96.3767 9.2307C96.42 9.17691 96.4869 9.15706 96.5554 9.17318Z" fill="#D4D4D4"/>
<path d="M94.8952 76.0131L96.9595 74.182C97.1099 74.0513 96.9933 73.7991 96.7963 73.829L94.064 74.2144C93.9946 74.2261 93.9291 74.202 93.8838 74.1481L92.0553 72.0896C91.9246 71.9392 91.6724 72.0557 91.7023 72.2527L92.085 74.9793C92.0967 75.0487 92.0726 75.1143 92.0187 75.1596L89.96 76.9881C89.8096 77.1188 89.9262 77.3709 90.1232 77.3411L92.8555 76.9556C92.9249 76.9439 92.9904 76.9681 93.0357 77.0219L94.8668 79.0861C94.9975 79.2365 95.2497 79.1199 95.2198 78.9229L94.8345 76.1907C94.8172 76.1239 94.8413 76.0584 94.8952 76.0131Z" fill="#D4D4D4"/>
<path d="M73.8716 57.326L76.1834 56.6293C76.3508 56.5807 76.3508 56.3376 76.1834 56.289L73.8716 55.5923C73.8122 55.5761 73.769 55.5329 73.7528 55.4735L73.0561 53.1673C73.0074 52.9998 72.7644 52.9998 72.7158 53.1673L72.019 55.4735C72.0028 55.5329 71.9596 55.5761 71.9002 55.5923L69.5938 56.289C69.4264 56.3376 69.4264 56.5807 69.5938 56.6293L71.9056 57.326C71.965 57.3422 72.0082 57.3854 72.0244 57.4448L72.7212 59.7564C72.7698 59.9239 73.0128 59.9239 73.0615 59.7564L73.7582 57.4448C73.769 57.3854 73.8122 57.3422 73.8716 57.326Z" fill="#D4D4D4"/>
<path d="M29.5118 89.7616L31.8235 88.9653C31.991 88.9097 31.991 88.6319 31.8235 88.5764L29.5118 87.7801C29.4524 87.7616 29.4092 87.7122 29.393 87.6443L28.6962 85.0084C28.6476 84.8171 28.4045 84.8171 28.3559 85.0084L27.6591 87.6443C27.6429 87.7122 27.5997 87.7616 27.5403 87.7801L25.234 88.5764C25.0665 88.6319 25.0665 88.9097 25.234 88.9653L27.5457 89.7616C27.6051 89.7801 27.6483 89.8295 27.6646 89.8974L28.3613 92.5394C28.4099 92.7307 28.653 92.7307 28.7016 92.5394L29.3984 89.8974C29.4092 89.8295 29.4524 89.7801 29.5118 89.7616Z" fill="#D4D4D4"/>
<path d="M25.6924 50.6717L27.3436 50.1741C27.4632 50.1394 27.4632 49.9658 27.3436 49.931L25.6924 49.4334C25.65 49.4218 25.6191 49.391 25.6075 49.3485L25.1098 47.7013C25.0751 47.5817 24.9015 47.5817 24.8668 47.7013L24.3691 49.3485C24.3575 49.391 24.3266 49.4218 24.2842 49.4334L22.6368 49.931C22.5172 49.9658 22.5172 50.1394 22.6368 50.1741L24.2881 50.6717C24.3305 50.6833 24.3614 50.7142 24.3729 50.7566L24.8706 52.4077C24.9054 52.5273 25.079 52.5273 25.1137 52.4077L25.6114 50.7566C25.6191 50.7142 25.65 50.6833 25.6924 50.6717Z" fill="#D4D4D4"/>
<path d="M120.831 51.7623L122.482 51.2647C122.601 51.2299 122.601 51.0563 122.482 51.0216L120.831 50.524C120.788 50.5124 120.757 50.4815 120.746 50.4391L120.248 48.7918C120.213 48.6723 120.04 48.6723 120.005 48.7918L119.507 50.4391C119.496 50.4815 119.465 50.5124 119.422 50.524L117.775 51.0216C117.655 51.0563 117.655 51.2299 117.775 51.2647L119.426 51.7623C119.469 51.7739 119.5 51.8047 119.511 51.8472L120.009 53.4983C120.044 53.6179 120.217 53.6179 120.252 53.4983L120.75 51.8472C120.757 51.8047 120.788 51.7739 120.831 51.7623Z" fill="#D4D4D4"/>
<path d="M37.8975 27.6538L39.5487 27.1561C39.6683 27.1214 39.6683 26.9478 39.5487 26.9131L37.8975 26.4154C37.855 26.4038 37.8242 26.373 37.8126 26.3305L37.3149 24.6833C37.2802 24.5637 37.1066 24.5637 37.0719 24.6833L36.5742 26.3305C36.5626 26.373 36.5317 26.4038 36.4893 26.4154L34.8419 26.9131C34.7223 26.9478 34.7223 27.1214 34.8419 27.1561L36.4931 27.6538C36.5356 27.6653 36.5664 27.6962 36.578 27.7386L37.0757 29.3897C37.1104 29.5093 37.284 29.5093 37.3188 29.3897L37.8165 27.7386C37.8242 27.6962 37.855 27.6653 37.8975 27.6538Z" fill="#D4D4D4"/>
<path d="M13.3067 83.1034L14.9579 82.6057C15.0775 82.571 15.0775 82.3974 14.9579 82.3627L13.3067 81.865C13.2642 81.8535 13.2334 81.8226 13.2218 81.7802L12.7241 80.1329C12.6894 80.0133 12.5158 80.0133 12.481 80.1329L11.9833 81.7802C11.9718 81.8226 11.9409 81.8535 11.8985 81.865L10.2511 82.3627C10.1315 82.3974 10.1315 82.571 10.2511 82.6057L11.9023 83.1034C11.9448 83.1149 11.9756 83.1458 11.9872 83.1882L12.4849 84.8394C12.5196 84.9589 12.6932 84.9589 12.7279 84.8394L13.2256 83.1882C13.2334 83.1458 13.2642 83.1149 13.3067 83.1034Z" fill="#D4D4D4"/>
<path d="M58.692 57.5908L61.9788 62.276C62.9178 63.6147 63.5601 64.7336 64.0496 66.2449C65.8821 71.0943 65.1986 76.4247 62.6769 80.7618C62.2088 81.5182 61.9704 82.3988 62.0861 83.1737C62.106 84.0157 62.3558 84.9819 62.8924 85.7468C63.9657 87.2767 65.7653 88.0117 67.5735 87.7419C73.3805 86.6644 79.3531 88.4668 83.4434 92.8737C83.9415 93.3804 84.3439 93.9541 84.8135 94.6234L88.1002 99.3087C88.5027 99.8824 88.8095 100.523 89.1449 101.001L61.0333 120.722C60.6023 120.311 60.1327 119.642 59.7973 119.163L56.5106 114.478C56.1752 114 55.9354 113.455 55.6 112.977C55.4659 112.786 55.3603 112.432 55.159 112.145C52.5701 106.827 52.8798 100.761 55.841 95.8297C56.7772 94.3169 56.6316 92.2789 55.5584 90.7491C55.0888 90.0797 54.361 89.4489 53.5761 89.1435C53.509 89.0479 53.4134 89.115 53.4134 89.115C52.6284 88.8096 51.7864 88.8296 50.9444 88.8496C47.0412 89.5903 43.0409 88.9724 39.4316 87.0815C38.5125 86.5849 37.5934 86.0882 36.7985 85.3618C36.5687 85.2377 36.3675 84.9508 36.2334 84.7596C35.3714 83.9375 34.4423 83.0199 33.7044 81.9681L30.4177 77.2828C30.3506 77.1872 30.2164 76.996 30.0823 76.8047L58.3851 56.95C58.4908 57.3039 58.5578 57.3995 58.692 57.5908Z" fill="#F5F5F5" stroke="#D4D4D4" stroke-width="1.9781" stroke-miterlimit="10" stroke-linecap="round" stroke-linejoin="round"/>
<path d="M74.5354 102.547C74.5354 102.547 64.4213 111.925 63.742 111.973C63.2924 112.146 59.3136 113.796 56.779 114.861L56.1082 113.904C55.7728 113.426 55.4375 112.948 55.1306 112.308C55.2548 112.078 55.3118 111.752 55.3689 111.427C56.6662 107.378 60.6978 101.126 69.195 101.442L74.5354 102.547Z" fill="#F5F5F5" stroke="#D4D4D4" stroke-width="1.9781" stroke-miterlimit="10" stroke-linecap="round" stroke-linejoin="round"/>
<path d="M58.692 57.5908L61.9788 62.276C62.9178 63.6147 63.5601 64.7336 64.0496 66.2449C65.8821 71.0943 65.1986 76.4247 62.6769 80.7618C62.2088 81.5182 61.9704 82.3988 62.0861 83.1737C62.106 84.0157 62.3558 84.9819 62.8924 85.7468C63.9657 87.2767 65.7653 88.0117 67.5735 87.7419C73.3805 86.6644 79.3531 88.4668 83.4434 92.8737C83.9415 93.3804 84.3439 93.9541 84.8135 94.6234L88.1002 99.3087C88.5027 99.8824 88.8095 100.523 89.1449 101.001L61.0333 120.722C60.6023 120.311 60.1327 119.642 59.7973 119.163L56.5106 114.478C56.1752 114 55.9354 113.455 55.6 112.977C55.4659 112.786 55.3603 112.432 55.159 112.145C52.5701 106.827 52.8798 100.761 55.841 95.8297C56.7772 94.3169 56.6316 92.2789 55.5584 90.7491C55.0888 90.0797 54.361 89.4489 53.5761 89.1435C53.509 89.0479 53.4134 89.115 53.4134 89.115C52.6284 88.8096 51.7864 88.8296 50.9444 88.8496C47.0412 89.5903 43.0409 88.9724 39.4316 87.0815C38.5125 86.5849 37.5934 86.0882 36.7985 85.3618C36.5687 85.2377 36.3675 84.9508 36.2334 84.7596C35.3714 83.9375 34.4423 83.0199 33.7044 81.9681L30.4177 77.2828C30.3506 77.1872 30.2164 76.996 30.0823 76.8047L58.3851 56.95C58.4908 57.3039 58.5578 57.3995 58.692 57.5908Z" fill="white" stroke="#D4D4D4" stroke-width="2" stroke-miterlimit="10"/>
<path d="M56.5304 77.0842L45.3631 85.7742L39.5946 87.1101C38.6755 86.6134 37.7565 86.1168 36.9615 85.3904C36.7318 85.2662 36.5305 84.9794 36.3964 84.7881C39.4818 79.6276 42.3203 76.3522 50.5763 74.6981C51.9635 74.4383 53.2551 74.2456 54.805 74.0144C68.6011 72.3259 56.5304 77.0842 56.5304 77.0842Z" fill="#F5F5F5" stroke="#D4D4D4" stroke-width="1.9781" stroke-miterlimit="10" stroke-linecap="round" stroke-linejoin="round"/>
<path d="M64.1168 66.3405C65.9493 71.1899 65.2658 76.5203 62.7441 80.8574C62.276 81.6138 62.0377 82.4944 62.1533 83.2693L62.0577 83.3364C60.5278 84.4096 60.1282 86.6873 61.2014 88.2172L71.1959 102.464L68.423 104.41L58.3614 90.0668C57.2882 88.537 55.1061 88.0703 53.4806 89.2106C52.6957 88.9052 51.8536 88.9252 51.0116 88.9452C47.1084 89.6859 43.1081 89.068 39.4988 87.1771C38.5798 86.6805 37.6607 86.1838 36.8657 85.4574C45.3801 83.7647 48.2457 78.901 50.452 74.9278C51.1684 73.7119 51.7892 72.563 52.4771 71.5098C55.2 67.4595 59.2174 66.068 64.1168 66.3405Z" fill="#F5F5F5" stroke="#D4D4D4" stroke-width="2" stroke-miterlimit="10" stroke-linecap="round" stroke-linejoin="round"/>
<path d="M84.7176 94.6904L88.0043 99.3757C88.4068 99.9494 88.7136 100.59 89.049 101.068L63.9972 118.642L59.3946 118.59L56.4432 114.383C56.1079 113.904 55.7725 113.426 55.5327 112.881C55.3985 112.69 55.2929 112.336 55.0917 112.049C55.1873 111.982 55.2544 112.078 55.35 112.011C55.5127 112.039 55.6083 111.972 55.7039 111.905C65.0217 109.934 67.5135 104.334 69.8725 99.9682C70.245 99.2789 70.7131 98.5225 71.1526 97.9288C74.0382 93.9071 78.2183 92.5441 83.2804 92.8452C83.7499 93.5145 84.248 94.0211 84.7176 94.6904Z" fill="#F5F5F5" stroke="#D4D4D4" stroke-width="2" stroke-miterlimit="10" stroke-linecap="round" stroke-linejoin="round"/>
<path d="M60.9889 57.4062L29.6263 79.4074C28.957 79.8769 27.9808 79.7057 27.5783 79.132L25.4319 76.0722C24.9623 75.4029 25.2007 74.5223 25.87 74.0528L57.3282 51.9845C57.9976 51.515 58.9067 51.5906 59.3762 52.2599L61.4556 55.2241C61.7339 56.0275 61.6583 56.9366 60.9889 57.4062Z" fill="white" stroke="#D4D4D4" stroke-width="2" stroke-miterlimit="10" stroke-linecap="round" stroke-linejoin="round"/>
<path d="M92.6484 102.538L61.2858 124.54C60.6165 125.009 59.7074 124.933 59.2378 124.264L57.1584 121.3C56.6889 120.631 56.9272 119.75 57.5965 119.281L89.0548 97.2122C89.7241 96.7427 90.6332 96.8183 91.1028 97.4876L93.1821 100.452C93.4604 101.255 93.3177 102.069 92.6484 102.538Z" fill="white" stroke="#D4D4D4" stroke-width="2" stroke-miterlimit="10" stroke-linecap="round" stroke-linejoin="round"/>
<path d="M111.307 35.6049L109.874 38.2695C109.465 39.0309 109.089 39.5998 108.491 40.1898C106.636 42.2065 103.956 43.149 101.309 42.9874C100.84 42.9459 100.368 43.0423 100.029 43.2809C99.6362 43.4902 99.2391 43.8375 99.0052 44.2726C98.5373 45.1427 98.6174 46.1672 99.174 46.9572C101.061 49.4443 101.628 52.6932 100.517 55.6713C100.396 56.0269 100.221 56.3531 100.016 56.7338L98.5832 59.3985C98.4078 59.7247 98.178 60.0218 98.0318 60.2937L82.0439 51.6968C82.1357 51.3956 82.3404 51.015 82.4866 50.7431L83.9194 48.0784C84.0656 47.8065 84.2662 47.5639 84.4124 47.292C84.4709 47.1832 84.613 47.0493 84.7007 46.8861C86.5978 44.401 89.5369 43.1072 92.5688 43.3354C93.5056 43.4185 94.4337 42.866 94.9015 41.9959C95.1062 41.6152 95.2314 41.1217 95.1893 40.6784C95.2185 40.624 95.1642 40.5948 95.1642 40.5948C95.1221 40.1516 94.9128 39.7586 94.7034 39.3656C93.427 37.6978 92.7693 35.6616 92.8057 33.508C92.8221 32.956 92.8385 32.404 92.9929 31.8561C92.997 31.7181 93.0847 31.5549 93.1432 31.4462C93.3269 30.8439 93.5398 30.1872 93.8614 29.589L95.2942 26.9244C95.3235 26.87 95.3819 26.7612 95.4404 26.6525L111.537 35.3078C111.395 35.4417 111.366 35.4961 111.307 35.6049Z" fill="#F5F5F5" stroke="#D4D4D4" stroke-width="1.9781" stroke-miterlimit="10" stroke-linecap="round" stroke-linejoin="round"/>
<path d="M93.8336 53.76C93.8336 53.76 87.0032 51.2089 86.8191 50.8995C86.6308 50.7282 84.907 49.2404 83.8025 48.296L84.0949 47.7522C84.2411 47.4803 84.3873 47.2084 84.6171 46.9113C84.7551 46.9154 84.9224 46.8652 85.0896 46.8149C87.31 46.4665 91.2202 46.8866 93.0877 50.9753L93.8336 53.76Z" fill="#F5F5F5" stroke="#D4D4D4" stroke-width="1.9781" stroke-miterlimit="10" stroke-linecap="round" stroke-linejoin="round"/>
<path d="M111.307 35.6049L109.874 38.2695C109.465 39.0309 109.089 39.5998 108.491 40.1898C106.636 42.2065 103.956 43.149 101.309 42.9874C100.84 42.9459 100.368 43.0423 100.029 43.2809C99.6362 43.4902 99.2391 43.8375 99.0052 44.2726C98.5373 45.1427 98.6174 46.1672 99.174 46.9572C101.061 49.4443 101.628 52.6932 100.517 55.6713C100.396 56.0269 100.221 56.3531 100.016 56.7338L98.5832 59.3985C98.4078 59.7247 98.178 60.0218 98.0318 60.2937L82.0439 51.6968C82.1357 51.3956 82.3404 51.015 82.4866 50.7431L83.9194 48.0784C84.0656 47.8065 84.2662 47.5639 84.4124 47.292C84.4709 47.1832 84.613 47.0493 84.7007 46.8861C86.5978 44.401 89.5369 43.1072 92.5688 43.3354C93.5056 43.4185 94.4337 42.866 94.9015 41.9959C95.1062 41.6152 95.2314 41.1217 95.1893 40.6784C95.2185 40.624 95.1642 40.5948 95.1642 40.5948C95.1221 40.1516 94.9128 39.7586 94.7034 39.3656C93.427 37.6978 92.7693 35.6616 92.8057 33.508C92.8221 32.956 92.8385 32.404 92.9929 31.8561C92.997 31.7181 93.0847 31.5549 93.1432 31.4462C93.3269 30.8439 93.5398 30.1872 93.8614 29.589L95.2942 26.9244C95.3235 26.87 95.3819 26.7612 95.4404 26.6525L111.537 35.3078C111.395 35.4417 111.366 35.4961 111.307 35.6049Z" fill="white" stroke="#D4D4D4" stroke-width="2" stroke-miterlimit="10"/>
<path d="M101.587 39.2111L94.8313 35.9992L92.831 33.5916C92.8474 33.0396 92.8638 32.4876 93.0182 31.9397C93.0223 31.8017 93.1101 31.6386 93.1685 31.5298C96.3385 31.7622 98.5594 32.3254 101.3 35.8324C101.752 36.4259 102.15 36.9902 102.627 37.6674C106.7 43.783 101.587 39.2111 101.587 39.2111Z" fill="#F5F5F5" stroke="#D4D4D4" stroke-width="1.9781" stroke-miterlimit="10" stroke-linecap="round" stroke-linejoin="round"/>
<path d="M108.462 40.2442C106.607 42.2609 103.927 43.2034 101.279 43.0418C100.811 43.0003 100.339 43.0967 100 43.3353L99.9456 43.3061C99.0756 42.8382 97.9049 43.1901 97.437 44.0602L93.0801 52.1629L91.503 51.315L95.8892 43.1579C96.3571 42.2878 96.0595 41.1463 95.135 40.6492C95.0929 40.206 94.8836 39.813 94.6743 39.42C93.3979 37.7522 92.7402 35.7161 92.7765 33.5624C92.7929 33.0104 92.8094 32.4584 92.9638 31.9105C95.7844 35.5303 98.762 35.7293 101.162 35.8283C101.907 35.878 102.597 35.8985 103.258 35.9734C105.817 36.2981 107.428 37.8654 108.462 40.2442Z" fill="#F5F5F5" stroke="#D4D4D4" stroke-width="2" stroke-miterlimit="10" stroke-linecap="round" stroke-linejoin="round"/>
<path d="M99.962 56.7046L98.5292 59.3693C98.3537 59.6955 98.1239 59.9926 97.9777 60.2645L83.73 52.6033L82.6623 50.4168L83.9489 48.0241C84.0952 47.7522 84.2414 47.4803 84.4419 47.2376C84.5004 47.1289 84.6425 46.995 84.7303 46.8318C84.7846 46.8611 84.7554 46.9154 84.8098 46.9447C84.8349 47.0283 84.8893 47.0575 84.9437 47.0868C88.0865 51.02 91.3231 50.8676 93.9452 50.9456C94.3592 50.9579 94.8276 50.9994 95.2123 51.0661C97.7969 51.4744 99.433 53.1253 100.492 55.5878C100.288 55.9684 100.167 56.3239 99.962 56.7046Z" fill="#F5F5F5" stroke="#D4D4D4" stroke-width="2" stroke-miterlimit="10" stroke-linecap="round" stroke-linejoin="round"/>
<path d="M111.939 36.6458L94.1024 27.0547C93.7217 26.85 93.5709 26.3483 93.7463 26.022L94.6821 24.2818C94.8868 23.9012 95.3592 23.8047 95.7399 24.0094L113.631 33.6298C114.012 33.8344 114.192 34.2818 113.987 34.6625L113.081 36.3482C112.767 36.6704 112.32 36.8505 111.939 36.6458Z" fill="white" stroke="#D4D4D4" stroke-width="2" stroke-miterlimit="10" stroke-linecap="round" stroke-linejoin="round"/>
<path d="M98.1377 62.3134L80.3008 52.7223C79.9202 52.5176 79.7401 52.0703 79.9448 51.6896L80.8513 50.0038C81.0559 49.6232 81.5284 49.5267 81.9091 49.7314L99.8003 59.3517C100.181 59.5564 100.361 60.0038 100.156 60.3844L99.2499 62.0702C98.9364 62.3924 98.5183 62.5181 98.1377 62.3134Z" fill="white" stroke="#D4D4D4" stroke-width="2" stroke-miterlimit="10" stroke-linecap="round" stroke-linejoin="round"/>
</svg>
