<svg width="132" height="119" viewBox="0 0 132 119" fill="none" xmlns="http://www.w3.org/2000/svg">
<path d="M67.7 117.6C95.7 117.6 118.4 94.9 118.4 66.8C118.4 38.7 95.6 16 67.7 16C39.7 16 17 38.7 17 66.8C17 94.9 39.7 117.6 67.7 117.6Z" fill="#F5F5F5" stroke="#D4D4D4" stroke-width="2" stroke-miterlimit="10"/>
<path d="M114.7 33.6C116.964 33.6 118.8 31.7644 118.8 29.5C118.8 27.2357 116.964 25.4 114.7 25.4C112.436 25.4 110.6 27.2357 110.6 29.5C110.6 31.7644 112.436 33.6 114.7 33.6Z" fill="#F5F5F5"/>
<path d="M120.7 17.6C122.246 17.6 123.5 16.3464 123.5 14.8C123.5 13.2536 122.246 12 120.7 12C119.154 12 117.9 13.2536 117.9 14.8C117.9 16.3464 119.154 17.6 120.7 17.6Z" fill="#F5F5F5"/>
<path d="M12.8 40.6C14.3464 40.6 15.6 39.3464 15.6 37.8C15.6 36.2536 14.3464 35 12.8 35C11.2536 35 10 36.2536 10 37.8C10 39.3464 11.2536 40.6 12.8 40.6Z" fill="#F5F5F5"/>
<path d="M28.2 118.4C31.0719 118.4 33.4 116.072 33.4 113.2C33.4 110.328 31.0719 108 28.2 108C25.3281 108 23 110.328 23 113.2C23 116.072 25.3281 118.4 28.2 118.4Z" fill="#F5F5F5"/>
<path d="M130.22 80.551C130.22 93.3948 119.833 103.782 106.878 103.782C106.654 103.782 104.756 103.782 90.795 103.782C81.0784 103.782 65.5541 103.782 40.76 103.782H28.9213C13.3971 104.117 1 91.7195 1 76.7537C1 61.6762 13.5088 49.1674 29.2564 49.9492C42.7703 7.73215 104.644 13.6515 109.893 57.3204C121.509 58.7724 130.22 68.6007 130.22 80.551Z" fill="white" stroke="#D4D4D4" stroke-width="2" stroke-miterlimit="10"/>
<path d="M109.558 57.4321C108.665 57.3204 107.771 57.3204 106.878 57.3204C102.299 57.3204 97.9429 58.6607 94.2573 61.0061" fill="white"/>
<path d="M109.558 57.4321C108.665 57.3204 107.771 57.3204 106.878 57.3204C102.299 57.3204 97.9429 58.6607 94.2573 61.0061" stroke="#D4D4D4" stroke-width="2" stroke-miterlimit="10" stroke-linecap="round"/>
<path d="M29.2564 49.9491C27.9162 53.9698 27.2461 58.2138 27.2461 62.6812C27.2461 64.4682 27.3578 66.1435 27.5811 67.8188" fill="white"/>
<path d="M29.2564 49.9491C27.9162 53.9698 27.2461 58.2138 27.2461 62.6812C27.2461 64.4682 27.3578 66.1435 27.5811 67.8188" stroke="#D4D4D4" stroke-width="2" stroke-miterlimit="10" stroke-linecap="round" stroke-linejoin="round"/>
<path d="M57.6176 63.5102L59.5724 61.551C60.1425 60.9796 60.1425 60 59.5724 59.4286C59.0023 58.8571 58.0249 58.8571 57.4548 59.4286L55.5 61.3878L53.5452 59.4286C52.9751 58.8571 51.9977 58.8571 51.4276 59.4286C50.8575 60 50.8575 60.9796 51.4276 61.551L53.3824 63.5102L51.4276 65.4694C50.8575 66.0408 50.8575 67.0204 51.4276 67.5918C51.7534 67.9184 52.0792 68 52.4864 68C52.8937 68 53.2195 67.8367 53.5452 67.5918L55.5 65.6327L57.4548 67.5918C57.7805 67.9184 58.1063 68 58.5136 68C58.9208 68 59.2466 67.8367 59.5724 67.5918C60.1425 67.0204 60.1425 66.0408 59.5724 65.4694L57.6176 63.5102Z" fill="#A3A3A3"/>
<path d="M78.3529 63.5102L80.5249 61.551C81.1584 60.9796 81.1584 60 80.5249 59.4286C79.8914 58.8571 78.8054 58.8571 78.1719 59.4286L76 61.3878L73.8281 59.4286C73.1946 58.8571 72.1086 58.8571 71.4751 59.4286C70.8416 60 70.8416 60.9796 71.4751 61.551L73.6471 63.5102L71.4751 65.4694C70.8416 66.0408 70.8416 67.0204 71.4751 67.5918C71.8371 67.9184 72.1991 68 72.6516 68C73.1041 68 73.4661 67.8367 73.8281 67.5918L76 65.6327L78.1719 67.5918C78.5339 67.9184 78.8959 68 79.3484 68C79.8009 68 80.1629 67.8367 80.5249 67.5918C81.1584 67.0204 81.1584 66.0408 80.5249 65.4694L78.3529 63.5102Z" fill="#A3A3A3"/>
<path fill-rule="evenodd" clip-rule="evenodd" d="M21.7363 24.0521C21.9707 23.13 22.9082 22.5725 23.8303 22.8068L30.3505 24.4642C31.2726 24.6986 31.8301 25.6361 31.5957 26.5582C31.3614 27.4804 30.4238 28.0379 29.5017 27.8035L22.9815 26.1461C22.0594 25.9117 21.5019 24.9742 21.7363 24.0521Z" fill="#BABABA"/>
<path fill-rule="evenodd" clip-rule="evenodd" d="M27.2764 5.71515C28.0636 5.1808 29.135 5.3858 29.6693 6.17302L37.4637 17.656C37.9981 18.4432 37.7931 19.5146 37.0059 20.0489C36.2187 20.5833 35.1473 20.3783 34.613 19.5911L26.8185 8.10806C26.2842 7.32084 26.4892 6.2495 27.2764 5.71515Z" fill="#BABABA"/>
<path fill-rule="evenodd" clip-rule="evenodd" d="M41.7351 0.536284C42.6684 0.351547 43.5748 0.958405 43.7595 1.89174L46.4543 15.5061C46.639 16.4394 46.0322 17.3458 45.0988 17.5306C44.1655 17.7153 43.2591 17.1084 43.0744 16.1751L40.3796 2.56073C40.1949 1.6274 40.8018 0.721022 41.7351 0.536284Z" fill="#BABABA"/>
<rect x="55" y="77" width="23" height="3" rx="1.5" fill="#A3A3A3"/>
<path d="M69 78H73V83C73 84.1046 72.1046 85 71 85C69.8954 85 69 84.1046 69 83V78Z" fill="#A3A3A3"/>
<path d="M121.594 34.0647C121.168 35.8614 120.528 37.5889 119.746 39.1783C117.686 42.9098 114.63 45.9503 110.793 47.8161C106.813 49.82 102.123 50.511 97.362 49.6127C86.2764 47.3323 79.0992 36.8288 81.4442 25.9798C83.7893 15.1308 94.5196 8.15147 105.676 10.4318C109.656 11.2611 113.138 13.1268 116.051 15.8218C120.883 20.6589 122.944 27.5 121.594 34.0647Z" fill="#D4D4D4" stroke="#A3A3A3" stroke-width="2" stroke-miterlimit="10"/>
<path d="M98.0092 20.1764L98.0097 20.1844L98.0104 20.1924L98.8223 30.2637C98.9056 31.6676 99.997 33 101.5 33C103.003 33 104.094 31.6676 104.178 30.2637L104.99 20.1924L104.99 20.1833L104.991 20.1741C105.126 18.0032 103.678 16 101.5 16C99.3111 16 97.8739 18.0787 98.0092 20.1764Z" fill="white" stroke="#A3A3A3" stroke-width="2"/>
<path d="M101.5 36C99.5588 36 98 37.5588 98 39.5C98 41.4412 99.5588 43 101.5 43C103.441 43 105 41.4412 105 39.5C105 37.5588 103.441 36 101.5 36Z" fill="white" stroke="#A3A3A3" stroke-width="2"/>
</svg>
