<svg width="128" height="110" viewBox="0 0 128 110" fill="none" xmlns="http://www.w3.org/2000/svg">
<path d="M63.7001 108.5C93.4001 108.5 117.6 84.4 117.6 54.8C117.5 25.1 93.4001 1 63.7001 1C33.9001 1 9.80005 25.1 9.80005 54.7C9.80005 84.4 33.9001 108.5 63.7001 108.5Z" fill="#F5F5F5" stroke="#D4D4D4" stroke-width="2" stroke-miterlimit="10"/>
<path d="M118.9 36C121.164 36 123 34.1644 123 31.9C123 29.6357 121.164 27.8 118.9 27.8C116.636 27.8 114.8 29.6357 114.8 31.9C114.8 34.1644 116.636 36 118.9 36Z" fill="#F5F5F5"/>
<path d="M124.9 20C126.446 20 127.7 18.7464 127.7 17.2C127.7 15.6536 126.446 14.4 124.9 14.4C123.354 14.4 122.1 15.6536 122.1 17.2C122.1 18.7464 123.354 20 124.9 20Z" fill="#F5F5F5"/>
<path d="M5.2 90.8C8.07188 90.8 10.4 88.4719 10.4 85.6C10.4 82.7281 8.07188 80.4 5.2 80.4C2.32812 80.4 0 82.7281 0 85.6C0 88.4719 2.32812 90.8 5.2 90.8Z" fill="#F5F5F5"/>
<path d="M101.512 32.1697V97.3009C101.512 102.047 97.7477 105.811 93.0019 105.811H34.4166C29.6708 105.811 25.907 102.047 25.907 97.3009V12.0412C25.907 7.29548 29.6708 3.53162 34.4166 3.53162H73.0371C75.1645 3.53162 77.1283 4.34985 78.6011 5.82266L99.2205 26.4421C100.693 28.0786 101.512 30.0423 101.512 32.1697Z" fill="white" stroke="#D4D4D4" stroke-width="2" stroke-miterlimit="10"/>
<path d="M75.9182 4.12698V23.4805C75.9182 26.9513 78.8573 29.7279 82.1972 29.7279H100.924" fill="#D4D4D4"/>
<path d="M51.1869 88.0744H37.5403C37.0311 88.0744 36.6238 87.5331 36.6238 86.8836C36.6238 86.2342 37.0311 85.6929 37.5403 85.6929H51.1869C51.6961 85.6929 52.1034 86.2342 52.1034 86.8836C52.1034 87.6414 51.6961 88.0744 51.1869 88.0744Z" fill="#E3E3E3"/>
<path d="M68.6391 21.3927H37.9493C37.2355 21.3927 36.6238 20.8432 36.6238 20.202C36.6238 19.5608 37.2355 19.0113 37.9493 19.0113H68.6391C69.3528 19.0113 69.9646 19.5608 69.9646 20.202C69.9646 20.8432 69.3528 21.3927 68.6391 21.3927Z" fill="#D4D4D4"/>
<path d="M49.6966 28.5373H37.9412C37.2318 28.5373 36.6238 27.9877 36.6238 27.3465C36.6238 26.7053 37.2318 26.1558 37.9412 26.1558H49.5953C50.3046 26.1558 50.9127 26.7053 50.9127 27.3465C50.9127 27.9877 50.3046 28.5373 49.6966 28.5373Z" fill="#D4D4D4"/>
<path d="M90.4358 70.2132H54.6494H50.7053H38.7765C38.2955 70.2132 37.8145 70.7093 37.8145 71.4039C37.8145 71.9993 38.1993 72.5947 38.7765 72.5947H50.7053H54.6494H90.4358C90.9168 72.5947 91.3978 72.0985 91.3978 71.4039C91.3016 70.7093 90.9168 70.2132 90.4358 70.2132Z" fill="#D4D4D4"/>
<path d="M90.4341 61.8779H77.1346H72.6051H38.7782C38.2963 61.8779 37.8145 62.3741 37.8145 63.0687C37.8145 63.664 38.1999 64.2594 38.7782 64.2594H72.6051H77.1346H90.4341C90.916 64.2594 91.3978 63.7633 91.3978 63.0687C91.3015 62.3741 90.916 61.8779 90.4341 61.8779Z" fill="#D4D4D4"/>
<path d="M90.5214 53.5429H87.0652H83.609H38.7745C38.2945 53.5429 37.8145 54.0391 37.8145 54.7337C37.8145 55.329 38.1985 55.9244 38.7745 55.9244H83.609H87.4493H90.4254C90.9055 55.9244 91.3855 55.4283 91.3855 54.7337C91.4815 54.1383 91.0015 53.5429 90.5214 53.5429Z" fill="#D4D4D4"/>
<path d="M90.4461 45.2077H79.3106H76.5506H38.7662C38.2903 45.2077 37.8145 45.7038 37.8145 46.3984C37.8145 46.9938 38.1952 47.5892 38.7662 47.5892H76.5506H79.3106H90.3509C91.0171 47.5892 91.3978 47.093 91.3978 46.3984C91.3978 45.8031 91.0171 45.2077 90.4461 45.2077Z" fill="#D4D4D4"/>
<path d="M91.0475 106C102.671 106 112.093 96.5776 112.093 84.9546C112.093 73.3315 102.671 63.9092 91.0475 63.9092C79.4244 63.9092 70.0021 73.3315 70.0021 84.9546C70.0021 96.5776 79.4244 106 91.0475 106Z" fill="#D4D4D4" stroke="#A3A3A3" stroke-width="2" stroke-miterlimit="10"/>
<path d="M94.4779 85.2744L94.4927 85.2896L94.5082 85.3042C95.5668 86.3033 97.2889 86.3632 98.3255 85.2626C99.3083 84.219 99.3083 82.4658 98.3255 81.4223L93.1187 75.8939C92.8242 75.466 92.38 75.244 92.0707 75.1303C91.7071 74.9966 91.3189 74.9351 91.0087 74.9351C90.5745 74.9351 90.1698 75.1043 89.9003 75.2474C89.6159 75.3984 89.3267 75.6041 89.118 75.8257L83.9154 81.3496C83.5546 81.6234 83.3445 81.9942 83.2252 82.3039C83.09 82.6546 83.0323 83.0246 83.0323 83.3424C83.0323 84.041 83.3081 84.6904 83.847 85.2626L83.8672 85.284L83.8886 85.3042C84.9451 86.3013 86.6624 86.3629 87.6996 85.2693L88.3809 84.5692V91.1612C88.3809 92.6438 89.5482 93.9719 91.0862 93.9719C92.6243 93.9719 93.7916 92.6438 93.7916 91.1612V84.5692L94.4779 85.2744Z" fill="white" stroke="#A3A3A3" stroke-width="2"/>
</svg>
