<svg width="148" height="142" viewBox="0 0 148 142" fill="none" xmlns="http://www.w3.org/2000/svg">
<path d="M55.5657 15.3833C24.8777 23.8793 6.88741 55.6443 15.3834 86.3324C23.8794 117.02 55.6444 135.011 86.3325 126.515C117.021 118.019 135.011 86.2537 126.515 55.5656C118.019 24.8776 86.2538 6.88731 55.5657 15.3833Z" fill="#F5F5F5" stroke="#D4D4D4" stroke-width="2" stroke-miterlimit="10"/>
<path d="M91.1766 32.1478L92.2708 31.5955C92.3287 31.5794 92.4285 31.4894 92.3965 31.3736L92.3075 30.1511C92.3173 29.9613 92.401 29.8134 92.5748 29.7653C92.7485 29.7172 92.9544 29.785 93.0025 29.9587L93.5548 31.0529C93.5709 31.1108 93.6608 31.2106 93.7767 31.1786L94.9992 31.0896C95.1889 31.0994 95.3369 31.1831 95.385 31.3569C95.4331 31.5306 95.3653 31.7365 95.1916 31.7846L94.0974 32.3369C94.0395 32.353 93.9396 32.4429 93.9717 32.5588L94.0607 33.7813C94.0509 33.971 93.9672 34.1189 93.7934 34.167C93.6197 34.2152 93.4138 34.1474 93.3657 33.9737L92.8134 32.8795C92.7973 32.8215 92.7074 32.7217 92.5915 32.7538L91.369 32.8428C91.1792 32.833 91.0313 32.7493 90.9832 32.5755C90.9512 32.4597 91.0189 32.2538 91.1766 32.1478Z" fill="#D4D4D4"/>
<path d="M38.6413 38.4399L39.6845 37.9134C39.7397 37.8981 39.8348 37.8123 39.8043 37.7019L39.7194 36.5364C39.7287 36.3555 39.8086 36.2145 39.9742 36.1686C40.1399 36.1228 40.3361 36.1874 40.382 36.353L40.9085 37.3961C40.9238 37.4514 41.0096 37.5465 41.12 37.5159L42.2855 37.4311C42.4664 37.4404 42.6074 37.5203 42.6533 37.6859C42.6991 37.8516 42.6345 38.0478 42.4689 38.0936L41.4258 38.6202C41.3705 38.6355 41.2754 38.7213 41.306 38.8317L41.3908 39.9971C41.3815 40.1781 41.3016 40.3191 41.136 40.3649C40.9703 40.4108 40.7741 40.3462 40.7283 40.1806L40.2017 39.1374C40.1864 39.0822 40.1006 38.9871 39.9902 39.0176L38.8248 39.1025C38.6438 39.0932 38.5028 39.0133 38.457 38.8477C38.4111 38.682 38.4757 38.4858 38.6413 38.4399Z" fill="#D4D4D4"/>
<path d="M76.0102 49.8625L76.8528 49.4372C76.8973 49.4249 76.9742 49.3556 76.9495 49.2664L76.881 48.3251C76.8885 48.179 76.953 48.0651 77.0868 48.028C77.2206 47.991 77.3791 48.0431 77.4161 48.1769L77.8414 49.0195C77.8538 49.064 77.923 49.1409 78.0122 49.1162L78.9535 49.0477C79.0996 49.0552 79.2135 49.1197 79.2506 49.2535C79.2876 49.3873 79.2355 49.5458 79.1017 49.5828L78.2592 50.0081C78.2146 50.0205 78.1377 50.0897 78.1624 50.1789L78.2309 51.1202C78.2234 51.2664 78.1589 51.3802 78.0251 51.4173C77.8913 51.4543 77.7328 51.4022 77.6958 51.2684L77.2705 50.4259C77.2582 50.3813 77.1889 50.3044 77.0997 50.3291L76.1584 50.3977C76.0123 50.3901 75.8984 50.3256 75.8613 50.1918C75.792 50.115 75.8888 49.9441 76.0102 49.8625Z" fill="#D4D4D4"/>
<path d="M42.8175 109.199L44.3301 108.436C44.4102 108.414 44.5481 108.289 44.5038 108.129L44.3808 106.439C44.3943 106.177 44.5101 105.972 44.7503 105.906C44.9905 105.839 45.275 105.933 45.3415 106.173L46.1051 107.686C46.1272 107.766 46.2516 107.904 46.4118 107.86L48.1017 107.736C48.364 107.75 48.5685 107.866 48.635 108.106C48.7015 108.346 48.6079 108.631 48.3677 108.697L46.8551 109.461C46.775 109.483 46.637 109.607 46.6814 109.767L46.8044 111.457C46.7909 111.72 46.6751 111.924 46.4349 111.991C46.1947 112.057 45.9102 111.964 45.8437 111.723L45.0801 110.211C45.0579 110.131 44.9335 109.993 44.7734 110.037L43.0835 110.16C42.8211 110.147 42.6167 110.031 42.5502 109.791C42.4837 109.55 42.5995 109.346 42.8175 109.199Z" fill="#D4D4D4"/>
<path d="M119.56 69.1737L120.353 67.985C120.402 67.9355 120.452 67.7869 120.353 67.6878L119.56 66.4991C119.461 66.301 119.461 66.1029 119.61 65.9543C119.759 65.8057 120.006 65.7562 120.155 65.9048L121.344 66.6973C121.393 66.7468 121.542 66.7963 121.641 66.6973L122.829 65.9048C123.028 65.8057 123.226 65.8057 123.374 65.9543C123.523 66.1029 123.572 66.3506 123.424 66.4991L122.631 67.6878C122.582 67.7374 122.532 67.886 122.631 67.985L123.424 69.1737C123.523 69.3718 123.523 69.5699 123.374 69.7185C123.226 69.8671 122.978 69.9167 122.829 69.7681L121.641 68.9756C121.591 68.9261 121.443 68.8765 121.344 68.9756L120.155 69.7681C119.957 69.8671 119.759 69.8671 119.61 69.7185C119.461 69.57 119.412 69.3223 119.56 69.1737Z" fill="#D4D4D4"/>
<path d="M42.9585 60.6945L43.9726 58.6606C44.0409 58.5725 44.0895 58.3282 43.9134 58.1915L42.426 56.4732C42.2302 56.1802 42.1907 55.8675 42.3957 55.6034C42.6006 55.3393 42.9816 55.2118 43.2457 55.4168L45.2796 56.4309C45.3677 56.4992 45.6121 56.5478 45.7487 56.3717L47.4671 54.8843C47.76 54.6885 48.0727 54.649 48.3368 54.854C48.6009 55.0589 48.7284 55.4399 48.5235 55.704L47.5094 57.7379C47.4411 57.826 47.3925 58.0704 47.5685 58.207L49.056 59.9254C49.2518 60.2183 49.2912 60.531 49.0863 60.7951C48.8813 61.0592 48.5003 61.1867 48.2362 60.9818L46.2023 59.9677C46.1143 59.8994 45.8699 59.8508 45.7333 60.0268L44.0149 61.5143C43.7219 61.71 43.4092 61.7495 43.1451 61.5446C42.881 61.3396 42.7536 60.9586 42.9585 60.6945Z" fill="#D4D4D4"/>
<path d="M63.1578 120.774L64.5786 120.057C64.6538 120.036 64.7833 119.919 64.7417 119.768L64.6261 118.181C64.6389 117.935 64.7476 117.743 64.9732 117.68C65.1988 117.618 65.4661 117.706 65.5285 117.931L66.2457 119.352C66.2665 119.427 66.3834 119.557 66.5338 119.515L68.121 119.4C68.3675 119.412 68.5595 119.521 68.622 119.747C68.6844 119.972 68.5965 120.24 68.3709 120.302L66.9501 121.019C66.8749 121.04 66.7454 121.157 66.787 121.307L66.9026 122.895C66.8898 123.141 66.7811 123.333 66.5555 123.396C66.3299 123.458 66.0626 123.37 66.0002 123.144L65.283 121.724C65.2622 121.648 65.1453 121.519 64.9949 121.561L63.4077 121.676C63.1612 121.663 62.9692 121.555 62.9067 121.329C62.8443 121.103 62.9322 120.836 63.1578 120.774Z" fill="#D4D4D4"/>
<path d="M35.8472 84.4298L36.8354 82.6773C36.8998 82.6025 36.9538 82.3886 36.8043 82.2599L35.5666 80.6736C35.4067 80.4057 35.3859 80.1275 35.579 79.9032C35.7721 79.679 36.1147 79.5834 36.339 79.7765L38.0916 80.7648C38.1663 80.8291 38.3802 80.8831 38.5089 80.7336L40.0952 79.496C40.3631 79.3361 40.6413 79.3153 40.8656 79.5084C41.0899 79.7015 41.1854 80.0441 40.9923 80.2683L40.004 82.0209C39.9397 82.0957 39.8857 82.3095 40.0352 82.4383L41.2729 84.0246C41.4328 84.2924 41.4535 84.5707 41.2604 84.7949C41.0673 85.0192 40.7247 85.1147 40.5005 84.9216L38.7479 83.9334C38.6732 83.869 38.4593 83.815 38.3306 83.9645L36.7442 85.2022C36.4764 85.3621 36.1981 85.3829 35.9739 85.1898C35.7496 84.9967 35.6541 84.6541 35.8472 84.4298Z" fill="#D4D4D4"/>
<path d="M60.6367 29.7606L62.4916 28.8647C62.6691 28.8155 62.7088 28.6134 62.6842 28.5246L62.4986 26.4731C62.5136 26.1821 62.7062 25.8421 62.9726 25.7683C63.2389 25.6946 63.5544 25.7984 63.7415 26.129L64.6374 27.9839C64.6866 28.1614 64.8887 28.201 64.9775 28.1765L67.029 27.9908C67.32 28.0059 67.66 28.1985 67.7338 28.4648C67.8075 28.7312 67.7037 29.0467 67.3731 29.2338L65.5182 30.1297C65.3407 30.1788 65.301 30.381 65.3256 30.4698L65.5112 32.5213C65.4962 32.8122 65.3036 33.1523 65.0372 33.2261C64.7709 33.2998 64.4554 33.196 64.2683 32.8654L63.3724 31.0105C63.3233 30.833 63.1211 30.7933 63.0323 30.8179L60.9808 31.0035C60.6899 30.9885 60.3498 30.7959 60.276 30.5295C60.1777 30.1744 60.2815 29.8589 60.6367 29.7606Z" fill="#D4D4D4"/>
<path d="M103.972 49.7554L104.904 49.3054C104.993 49.2807 105.013 49.1792 105.001 49.1346L104.908 48.1041C104.915 47.9579 105.012 47.7871 105.146 47.7501C105.279 47.713 105.438 47.7652 105.532 47.9312L105.982 48.8629C106.007 48.9521 106.108 48.972 106.153 48.9597L107.183 48.8665C107.329 48.874 107.5 48.9708 107.537 49.1045C107.574 49.2383 107.522 49.3968 107.356 49.4908L106.424 49.9408C106.335 49.9655 106.315 50.067 106.328 50.1116L106.421 51.1421C106.413 51.2882 106.317 51.459 106.183 51.4961C106.049 51.5331 105.891 51.481 105.797 51.3149L105.347 50.3832C105.322 50.294 105.22 50.2741 105.176 50.2865L104.145 50.3797C103.999 50.3722 103.828 50.2754 103.791 50.1416C103.754 50.0078 103.851 49.837 103.972 49.7554Z" fill="#D4D4D4"/>
<path d="M95.6932 107.626L97.7928 106.612C97.9938 106.557 98.0387 106.328 98.0109 106.227L97.8008 103.905C97.8178 103.576 98.0358 103.191 98.3373 103.107C98.6388 103.024 98.9959 103.141 99.2077 103.516L100.222 105.615C100.277 105.816 100.506 105.861 100.607 105.833L102.929 105.623C103.258 105.64 103.643 105.858 103.727 106.16C103.81 106.461 103.693 106.818 103.318 107.03L101.219 108.044C101.018 108.1 100.973 108.329 101.001 108.429L101.211 110.751C101.194 111.081 100.976 111.466 100.674 111.549C100.373 111.632 100.016 111.515 99.8039 111.141L98.7899 109.041C98.7342 108.84 98.5054 108.795 98.4049 108.823L96.0828 109.033C95.7534 109.016 95.3685 108.798 95.285 108.497C95.2016 108.195 95.3191 107.838 95.6932 107.626Z" fill="#D4D4D4"/>
<path d="M105.532 86.1344L107.041 85.4056C107.186 85.3656 107.218 85.2012 107.198 85.129L107.047 83.4601C107.059 83.2234 107.216 82.9468 107.432 82.8868C107.649 82.8268 107.906 82.9112 108.058 83.1801L108.787 84.6891C108.827 84.8335 108.991 84.8658 109.063 84.8458L110.732 84.6948C110.969 84.707 111.246 84.8637 111.306 85.0804C111.366 85.297 111.281 85.5537 111.012 85.7059L109.503 86.4347C109.359 86.4747 109.327 86.6391 109.347 86.7114L109.498 88.3803C109.485 88.6169 109.329 88.8936 109.112 88.9536C108.895 89.0136 108.639 88.9291 108.486 88.6602L107.758 87.1512C107.718 87.0068 107.553 86.9746 107.481 86.9946L105.812 87.1456C105.575 87.1333 105.299 86.9766 105.239 86.76C105.179 86.5433 105.335 86.2666 105.532 86.1344Z" fill="#D4D4D4"/>
<path d="M21.5988 64.0333L23.8364 63.8308C24.0301 63.7772 24.1805 63.9441 24.2073 64.0409L25.1845 66.064C25.3618 66.3277 25.7327 66.5378 26.0232 66.4574C26.3137 66.377 26.5506 66.1029 26.5402 65.6887L26.3378 63.4511C26.2841 63.2574 26.451 63.107 26.5478 63.0801L28.571 62.103C28.8347 61.9257 29.0448 61.5548 28.9643 61.2643C28.8839 60.9738 28.6098 60.7369 28.1957 60.7473L25.958 60.9498C25.7644 61.0034 25.6139 60.8365 25.5871 60.7397L24.6099 58.7165C24.4327 58.4528 24.0617 58.2427 23.7712 58.3231C23.4807 58.4036 23.2438 58.6777 23.2542 59.0918L23.4567 61.3295C23.5103 61.5231 23.3435 61.6736 23.2466 61.7004L21.2234 62.6775C20.9597 62.8548 20.7497 63.2258 20.8301 63.5163C20.9373 63.9036 21.3083 64.1137 21.5988 64.0333Z" fill="#D4D4D4"/>
<path d="M9.63651 108.566L12.8003 108.28C13.0742 108.204 13.2869 108.44 13.3248 108.577L14.7064 111.438C14.957 111.811 15.4815 112.108 15.8923 111.994C16.303 111.88 16.638 111.493 16.6233 110.907L16.337 107.743C16.2612 107.469 16.4971 107.257 16.634 107.219L19.4946 105.837C19.8675 105.587 20.1645 105.062 20.0508 104.651C19.9371 104.241 19.5495 103.906 18.9639 103.92L15.8001 104.207C15.5263 104.282 15.3136 104.046 15.2757 103.91L13.894 101.049C13.6434 100.676 13.1189 100.379 12.7082 100.493C12.2974 100.606 11.9625 100.994 11.9772 101.58L12.2634 104.743C12.3393 105.017 12.1033 105.23 11.9664 105.268L9.10583 106.65C8.73298 106.9 8.43596 107.425 8.54968 107.835C8.7013 108.383 9.22576 108.68 9.63651 108.566Z" fill="#F5F5F5"/>
<path d="M14.8898 28.2522L17.8069 27.9883C18.0594 27.9184 18.2556 28.1359 18.2905 28.2622L19.5644 30.8997C19.7955 31.2435 20.2791 31.5173 20.6578 31.4125C21.0365 31.3076 21.3453 30.9503 21.3318 30.4104L21.0679 27.4932C20.998 27.2408 21.2155 27.0446 21.3417 27.0097L23.9793 25.7358C24.323 25.5047 24.5969 25.0211 24.4921 24.6424C24.3872 24.2637 24.0299 23.9548 23.49 23.9684L20.5728 24.2323C20.3203 24.3022 20.1242 24.0847 20.0893 23.9585L18.8154 21.3209C18.5843 20.9772 18.1007 20.7033 17.722 20.8081C17.3432 20.913 17.0344 21.2703 17.048 21.8102L17.3119 24.7274C17.3818 24.9799 17.1643 25.176 17.038 25.2109L14.4005 26.4848C14.0567 26.7159 13.7829 27.1995 13.8877 27.5782C14.0275 28.0832 14.5111 28.3571 14.8898 28.2522Z" fill="#F5F5F5"/>
<path d="M130.453 82.8904L134.43 84.3075C134.802 84.3686 134.927 84.7717 134.897 84.958L134.97 89.1786C135.065 89.768 135.532 90.4186 136.091 90.5102C136.65 90.6018 137.27 90.3208 137.578 89.6062L138.995 85.6299C139.056 85.2573 139.459 85.1321 139.646 85.1627L143.866 85.0895C144.456 84.9948 145.106 84.5275 145.198 83.9687C145.29 83.4098 145.009 82.7898 144.294 82.4813L140.318 81.0642C139.945 81.0031 139.82 80.6 139.85 80.4137L139.777 76.1931C139.683 75.6037 139.215 74.9532 138.656 74.8615C138.098 74.7699 137.478 75.0509 137.169 75.7655L135.752 79.7418C135.691 80.1144 135.288 80.2396 135.102 80.209L130.881 80.2823C130.291 80.3769 129.641 80.8442 129.549 81.4031C129.427 82.1483 129.894 82.7988 130.453 82.8904Z" fill="#F5F5F5"/>
<path d="M47.0586 42.7536C46.6891 42.8559 46.4726 43.2383 46.5748 43.6077C46.6771 43.9771 47.0595 44.1937 47.429 44.0914C47.7984 43.9892 48.015 43.6068 47.9127 43.2373C47.8104 42.8679 47.428 42.6513 47.0586 42.7536Z" fill="#D4D4D4"/>
<path d="M70.9485 60.1943C70.579 60.2965 70.3625 60.6789 70.4647 61.0484C70.567 61.4178 70.9494 61.6344 71.3189 61.5321C71.6883 61.4298 71.9049 61.0474 71.8026 60.678C71.7003 60.3086 71.3179 60.092 70.9485 60.1943Z" fill="#D4D4D4"/>
<path d="M86.4673 32.0585C86.2716 32.3881 86.3802 32.8139 86.7098 33.0096C87.0394 33.2053 87.4653 33.0967 87.6609 32.7671C87.8566 32.4375 87.748 32.0117 87.4184 31.816C87.0888 31.6203 86.663 31.7289 86.4673 32.0585Z" fill="#D4D4D4"/>
<path d="M64.0721 18.7561C63.8764 19.0857 63.985 19.5116 64.3146 19.7073C64.6443 19.9029 65.0701 19.7944 65.2658 19.4648C65.4615 19.1351 65.3529 18.7093 65.0233 18.5136C64.6937 18.3179 64.2678 18.4265 64.0721 18.7561Z" fill="#D4D4D4"/>
<path d="M24.1207 49.313C23.925 49.6426 24.0336 50.0685 24.3632 50.2641C24.6929 50.4598 25.1187 50.3513 25.3144 50.0216C25.5101 49.692 25.4015 49.2662 25.0719 49.0705C24.7422 48.8748 24.3164 48.9834 24.1207 49.313Z" fill="#D4D4D4"/>
<path d="M27.0289 76.6073C26.8332 76.9369 26.9418 77.3628 27.2714 77.5585C27.6011 77.7541 28.0269 77.6456 28.2226 77.3159C28.4183 76.9863 28.3097 76.5605 27.9801 76.3648C27.6505 76.1691 27.2246 76.2777 27.0289 76.6073Z" fill="#D4D4D4"/>
<path d="M34.6005 103.887C34.4048 104.216 34.5133 104.642 34.843 104.838C35.1726 105.034 35.5984 104.925 35.7941 104.595C35.9898 104.266 35.8812 103.84 35.5516 103.644C35.222 103.449 34.7961 103.557 34.6005 103.887Z" fill="#D4D4D4"/>
<path d="M52.9098 117.827C52.7141 118.157 52.8227 118.583 53.1523 118.779C53.4819 118.974 53.9078 118.866 54.1034 118.536C54.2991 118.206 54.1906 117.781 53.8609 117.585C53.5313 117.389 53.1055 117.498 52.9098 117.827Z" fill="#D4D4D4"/>
<path d="M86.4048 118.051C86.2091 118.381 86.3177 118.807 86.6473 119.002C86.9769 119.198 87.4028 119.089 87.5984 118.76C87.7941 118.43 87.6855 118.004 87.3559 117.809C87.0263 117.613 86.6005 117.721 86.4048 118.051Z" fill="#D4D4D4"/>
<path d="M109.709 97.2577C109.514 97.5873 109.622 98.0132 109.952 98.2089C110.282 98.4045 110.707 98.296 110.903 97.9663C111.099 97.6367 110.99 97.2109 110.661 97.0152C110.331 96.8195 109.905 96.9281 109.709 97.2577Z" fill="#D4D4D4"/>
<path d="M122.13 74.7053C121.935 75.035 122.043 75.4608 122.373 75.6565C122.702 75.8522 123.128 75.7436 123.324 75.414C123.52 75.0843 123.411 74.6585 123.081 74.4628C122.752 74.2671 122.326 74.3757 122.13 74.7053Z" fill="#D4D4D4"/>
<path d="M108.105 40.0772C107.909 40.4068 108.018 40.8326 108.348 41.0283C108.677 41.224 109.103 41.1154 109.299 40.7858C109.494 40.4562 109.386 40.0303 109.056 39.8346C108.727 39.639 108.301 39.7475 108.105 40.0772Z" fill="#D4D4D4"/>
<path d="M145.775 60.3292L131.976 42.0019L103.88 63.3824L117.679 81.7097L145.775 60.3292Z" fill="white" stroke="#A3A3A3" stroke-width="2" stroke-miterlimit="10"/>
<path d="M124.982 76.4619L110.81 57.7388" stroke="#A3A3A3" stroke-width="2" stroke-miterlimit="10"/>
<path d="M131.912 71.2158L117.74 52.4927" stroke="#A3A3A3" stroke-width="2" stroke-miterlimit="10"/>
<path d="M138.843 65.9697L124.671 47.2466" stroke="#A3A3A3" stroke-width="2" stroke-miterlimit="10"/>
<path d="M136.333 48.2513L108.61 69.236" stroke="#A3A3A3" stroke-width="2" stroke-miterlimit="10"/>
<path d="M141.065 54.5024L113.342 75.4871" stroke="#A3A3A3" stroke-width="2" stroke-miterlimit="10"/>
<path d="M105.991 78.3657L112.05 73.7581L109.895 70.8973L103.836 75.505L105.991 78.3657Z" fill="#D4D4D4" stroke="#A3A3A3" stroke-width="2" stroke-miterlimit="10"/>
<path d="M112.838 102.185C110.638 103.85 107.511 103.414 105.843 101.209L103.077 97.5552C102.94 97.374 102.976 97.109 103.157 96.9721L110.479 91.4294C110.66 91.2926 110.925 91.3295 111.062 91.5107L113.828 95.1647C115.467 97.392 115.007 100.542 112.838 102.185Z" fill="#D4D4D4" stroke="#A3A3A3" stroke-width="2.0875" stroke-miterlimit="10"/>
<path d="M63.7994 122.491L50.0002 104.164L78.0964 82.7834L91.8955 101.111L63.7994 122.491Z" fill="white" stroke="#A3A3A3" stroke-width="2" stroke-miterlimit="10"/>
<path d="M84.9648 106.753L70.7925 88.0295" stroke="#A3A3A3" stroke-width="2" stroke-miterlimit="10"/>
<path d="M78.0341 111.999L63.8617 93.2755" stroke="#A3A3A3" stroke-width="2" stroke-miterlimit="10"/>
<path d="M71.1035 117.245L56.9312 98.5219" stroke="#A3A3A3" stroke-width="2" stroke-miterlimit="10"/>
<path d="M54.7322 110.019L82.4551 89.0346" stroke="#A3A3A3" stroke-width="2" stroke-miterlimit="10"/>
<path d="M59.464 116.27L87.1869 95.2855" stroke="#A3A3A3" stroke-width="2" stroke-miterlimit="10"/>
<path d="M89.7708 86.1563L83.7122 90.7639L85.8674 93.6246L91.926 89.017L89.7708 86.1563Z" fill="#D4D4D4" stroke="#A3A3A3" stroke-width="2" stroke-miterlimit="10"/>
<path d="M95.5218 64.6557L81.3892 75.3533L100.819 101.022L100.842 101.052C100.842 101.052 100.842 101.052 100.865 101.082C101.672 102.086 105.453 100.507 109.341 97.5644C113.228 94.622 115.744 91.4344 115.028 90.3621C115.028 90.3621 115.028 90.3621 115.005 90.3319L114.982 90.3017L95.5519 64.6328L95.5218 64.6557Z" fill="white" stroke="#A3A3A3" stroke-width="2" stroke-miterlimit="10"/>
<path d="M102.494 73.8662L107.888 80.9931L107.911 81.0233L107.934 81.0535C108.681 82.1031 106.134 85.3134 102.247 88.2558C98.3597 91.1983 94.6086 92.7551 93.7712 91.7739L93.7483 91.7437L93.7255 91.7135L88.3308 84.5867C89.1381 85.5906 92.9193 84.011 96.8066 81.0686C100.694 78.1262 103.218 74.8856 102.494 73.8662Z" fill="#D4D4D4" stroke="#A3A3A3" stroke-width="2" stroke-miterlimit="10"/>
<path d="M96.0348 52.7866C99.7007 57.6524 96.8328 66.0492 89.6177 71.5362C82.4026 77.0232 73.5499 77.54 69.884 72.6742C69.8618 72.6447 69.8396 72.6152 69.8174 72.5857C69.7951 72.5562 69.7507 72.4973 69.7285 72.4678C68.5559 70.53 73.2736 64.7156 80.3669 59.3212C87.4602 53.9268 94.3331 50.9729 95.8488 52.6034C95.871 52.6329 95.9155 52.6918 95.9377 52.7213C95.9681 52.6982 95.9903 52.7277 96.0348 52.7866Z" fill="#D4D4D4" stroke="#A3A3A3" stroke-width="2" stroke-miterlimit="10" stroke-linejoin="round"/>
<path d="M95.8105 52.622L95.8326 52.6513C96.2449 53.2611 96.0204 54.3546 95.2525 55.6763C93.7085 58.372 90.041 62.1731 85.2802 65.7894C80.5194 69.4057 75.8478 71.939 72.8736 72.6753C71.3975 73.0581 70.2878 72.9781 69.8148 72.4143L69.7927 72.385C69.7706 72.3556 69.7484 72.3263 69.7263 72.297C68.5583 70.3691 73.2575 64.5844 80.323 59.2175C87.3884 53.8506 94.2343 50.9118 95.7441 52.5339C95.7662 52.5633 95.7883 52.5926 95.8105 52.622Z" fill="#F5F5F5" stroke="#A3A3A3" stroke-width="2" stroke-miterlimit="10" stroke-linejoin="round"/>
<path d="M95.2432 55.6905L95.2653 55.7198C93.7231 58.4111 90.0598 62.206 85.3045 65.8165C80.5491 69.4269 75.883 71.956 72.9121 72.6911L72.89 72.6618C72.8679 72.6325 72.8458 72.6032 72.8458 72.6032C71.8478 70.9651 75.8868 65.9635 81.9445 61.3642C88.0326 56.7419 93.8981 54.2238 95.199 55.6319C95.199 55.6319 95.2211 55.6612 95.2432 55.6905Z" fill="#D4D4D4" stroke="#A3A3A3" stroke-width="2" stroke-miterlimit="10" stroke-linejoin="round"/>
<path d="M84.2749 61.5669C84.3795 61.7701 83.8735 62.3903 83.1309 62.9547C82.3574 63.5426 81.6257 63.8632 81.4676 63.6535L76.4102 55.7178L77.8644 54.6125L84.2298 61.507L84.2749 61.5669Z" fill="#F5F5F5" stroke="#A3A3A3" stroke-width="2" stroke-miterlimit="10" stroke-linejoin="round"/>
<path d="M77.7445 55.8316C78.6919 55.1105 78.8995 53.7815 78.208 52.8631C77.5165 51.9447 76.1879 51.7847 75.2404 52.5057C74.293 53.2268 74.0854 54.5558 74.7769 55.4742C75.4684 56.3926 76.797 56.5526 77.7445 55.8316Z" fill="#F5F5F5" stroke="#A3A3A3" stroke-width="2" stroke-miterlimit="10" stroke-linejoin="round"/>
<path d="M35.6256 32.2774C35.3892 33.8532 34.3649 36.9261 32.5527 37.3988C32.4739 37.3988 32.3952 37.3988 32.3164 37.4776C30.583 37.714 28.6132 36.5321 27.3525 35.6654C26.7222 35.1927 26.0919 34.6412 25.5403 34.0896C25.304 33.8532 24.9888 33.5381 24.7524 33.3017C22.9402 31.3319 21.522 28.8894 20.6553 26.2893C20.4977 25.7378 20.3401 25.1862 20.4189 24.6347C20.4189 24.4771 20.4977 24.3983 20.4977 24.3195C20.6553 23.9256 20.9704 23.5316 21.4432 23.4528C21.8371 23.374 22.1523 23.5316 22.5463 23.6104C22.9402 23.768 23.2554 23.9256 23.6493 24.1619C22.7826 23.1377 22.5463 21.4043 22.5463 20.1436C22.5463 20.0648 22.5463 19.9072 22.6251 19.9072C22.7038 19.8284 22.9402 19.9072 23.019 19.986C24.2797 20.9315 24.2797 22.6649 24.8312 24.0831C24.8312 23.0589 24.91 22.0346 24.91 21.0103C24.91 20.3012 24.9888 19.4345 25.5403 18.9617C25.6191 18.8829 25.6979 18.8829 25.7767 18.8829C25.9343 18.8829 26.0131 19.0405 26.0919 19.1193C27.0374 20.7739 26.4858 22.8225 26.6434 24.7135C26.7222 25.4226 26.801 26.1317 26.9586 26.8408C27.0374 27.156 27.1949 27.8651 27.3525 28.5742C27.5101 28.8894 27.6677 29.2046 27.9041 29.5197C27.9829 29.6773 28.1404 29.8349 28.298 29.9137C28.5344 30.1501 28.8496 30.3864 29.1647 30.6228C29.795 30.938 30.4254 31.1743 31.1345 31.3319C32.3952 31.5683 33.6558 31.5683 34.9165 31.6471C35.1528 31.6471 35.3892 31.7259 35.5468 31.8835C35.6256 32.041 35.6256 32.1198 35.6256 32.2774Z" fill="white" stroke="#A3A3A3" stroke-width="2" stroke-miterlimit="10" stroke-linecap="round" stroke-linejoin="round"/>
<path d="M52.1713 58.357C50.5167 58.357 48.7832 57.8055 47.5226 57.0176C45.0801 55.4418 43.583 53.078 42.1648 50.9507L44.9225 49.1385C46.1831 51.0295 47.4438 53.078 49.256 54.1811C50.6742 55.1266 52.9592 55.4418 54.2198 54.3387C55.7957 52.9204 55.4017 50.2415 54.7714 48.2718C53.9835 45.8292 52.4864 43.7019 50.6742 42.3624L52.644 39.7623C55.0865 41.5745 56.9775 44.2534 57.923 47.3263C59.2625 51.5022 58.7897 54.8114 56.426 56.86C55.2441 57.8843 53.6683 58.357 52.1713 58.357Z" fill="#A3A3A3"/>
<path d="M55.5598 32.1987C55.6386 33.3806 55.2447 34.5625 54.7719 35.7443C52.9597 40.4718 51.0687 45.1992 48.8626 49.7691C48.3898 50.6358 47.9959 51.5813 47.5231 52.448C46.8928 53.7087 46.1049 55.1269 44.6866 55.4421C43.5048 55.6785 42.4017 55.1269 41.3774 54.5754C41.0623 54.4178 40.7471 54.1814 40.5895 53.8663C40.4319 53.5511 40.5107 53.1571 40.5895 52.842C41.535 48.1145 43.3472 43.7022 45.1594 39.2111C46.0261 37.005 46.9716 34.72 47.6807 32.4351C48.2323 30.8593 48.6262 28.8107 50.6748 28.6531C52.5658 28.5743 55.4022 30.0714 55.5598 32.1987Z" fill="#A3A3A3"/>
<path d="M33.5769 46.3022C33.5769 46.4598 33.5769 46.5386 33.5769 46.6961C33.4981 47.7204 33.2617 48.6659 32.7102 49.5326C32.0799 50.4781 31.1344 51.266 30.0313 51.5024C29.7949 51.5812 29.5585 51.5812 29.3222 51.5812C28.2979 51.66 27.2736 51.3448 26.3281 50.9509C25.1462 50.4781 23.9644 49.9266 22.6249 49.8478C21.9158 49.769 21.2067 49.8478 20.4976 50.0054C20.1036 50.0842 19.7884 50.2417 19.3945 50.3205C19.0005 50.4781 18.6066 50.6357 18.2126 50.7933C16.8732 51.4236 15.5337 52.2903 14.1943 52.8418C13.0912 53.3146 11.7518 53.551 10.8063 52.8418C10.3335 52.5267 10.0971 51.9751 9.86076 51.5024C8.52132 48.9811 7.33945 46.4598 6.15758 43.8597C6.07879 43.7809 6 43.6233 6 43.4657C6 43.0717 6.47275 42.7566 6.78791 42.599C6.8667 42.5202 6.94549 42.5202 7.02428 42.4414C7.89099 42.0475 8.6789 41.7323 9.62439 41.5747C10.6487 41.4959 11.7518 41.6535 12.4609 42.3626C12.9336 42.8354 13.2488 43.3869 13.5639 44.0172C13.8791 44.7264 14.2731 45.4355 14.5882 46.1446C15.5337 45.3567 16.4792 44.5688 17.5035 43.8597C17.8187 43.6233 18.1338 43.4657 18.449 43.3081C19.0005 42.993 19.6309 42.6778 20.2612 42.5202C21.2855 42.1263 22.3885 41.9687 23.4916 41.8899C24.0432 41.8111 24.5947 41.7323 25.1462 41.8111C25.7766 41.8111 26.4069 41.9687 26.9584 42.0475C28.4555 42.3626 30.0313 42.6778 31.5283 42.993L29.8737 42.8354C31.2132 43.1505 32.789 43.6233 33.3405 44.8839C33.5769 45.2779 33.5769 45.8294 33.5769 46.3022Z" fill="white" stroke="#A3A3A3" stroke-width="2" stroke-miterlimit="10" stroke-linecap="round" stroke-linejoin="round"/>
<path d="M27.7462 42.5202C27.1946 44.6475 27.6674 46.9325 29.0068 48.7446C29.0856 48.8234 29.1644 48.981 29.322 48.9022C29.4008 48.9022 29.4008 48.8234 29.4796 48.7446C29.716 48.1931 29.7947 47.5628 29.8735 47.0112C30.0311 45.6718 30.5039 43.5444 30.0311 42.205C29.4796 40.9443 27.9825 41.4959 27.7462 42.5202Z" fill="#A3A3A3"/>
<path d="M37.5163 27.3921C36.886 28.2588 36.0981 28.9679 35.389 29.7558C31.213 34.2469 29.2433 40.4714 28.0614 46.5383C27.7462 48.1141 27.5886 49.8475 28.5341 51.0294C29.0069 51.5809 29.6372 51.9749 30.2675 52.2901C31.2918 52.8416 32.2373 53.3931 33.2616 53.9447C34.4435 54.575 35.7041 55.2841 37.0436 55.3629C38.6194 55.4417 40.1952 54.6538 41.3771 53.5507C42.559 52.4476 43.3469 51.0294 44.1348 49.6112C46.1046 45.9868 47.9167 42.2836 49.4926 38.5016C49.9653 37.3985 50.4381 36.2167 50.5956 35.0348C50.832 33.3014 50.4381 31.568 50.1229 29.9134C50.0441 29.5194 49.9653 29.0467 49.6502 28.7315C49.2562 28.3376 48.6259 28.3376 48.1531 28.4164C44.6863 28.5739 41.1407 28.8891 37.8315 28.1012C37.1224 27.9436 36.3345 27.7072 35.9405 27.0769" fill="white"/>
<path d="M37.5163 27.3921C36.886 28.2588 36.0981 28.9679 35.389 29.7558C31.213 34.2469 29.2433 40.4714 28.0614 46.5383C27.7462 48.1141 27.5886 49.8475 28.5341 51.0294C29.0069 51.5809 29.6372 51.9749 30.2675 52.2901C31.2918 52.8416 32.2373 53.3931 33.2616 53.9447C34.4435 54.575 35.7041 55.2841 37.0436 55.3629C38.6194 55.4417 40.1952 54.6538 41.3771 53.5507C42.559 52.4476 43.3469 51.0294 44.1348 49.6112C46.1046 45.9868 47.9168 42.2836 49.4926 38.5016C49.9653 37.3985 50.4381 36.2167 50.5956 35.0348C50.832 33.3014 50.4381 31.568 50.1229 29.9134C50.0441 29.5194 49.9653 29.0467 49.6502 28.7315C49.2562 28.3376 48.6259 28.3376 48.1531 28.4164C44.6863 28.5739 41.1407 28.8891 37.8315 28.1012C37.1224 27.9436 36.3345 27.7072 35.9405 27.0769" stroke="#A3A3A3" stroke-width="2" stroke-miterlimit="10" stroke-linecap="round" stroke-linejoin="round"/>
<path d="M20.4977 50.084C20.1038 50.1628 19.7886 50.3203 19.3946 50.3991C19.3159 49.2961 19.1583 48.0354 18.8431 46.8535C18.5279 45.8292 18.134 44.8838 17.5037 43.9383C17.8188 43.7019 18.134 43.5443 18.4492 43.3867C19.0795 44.411 19.5522 45.4353 19.8674 46.5384C20.1826 47.7202 20.4189 48.9809 20.4977 50.084Z" fill="#A3A3A3"/>
<path d="M31.2127 48.5084C30.8975 49.2963 31.0551 48.272 30.9763 49.2175C30.9763 50.0842 31.2127 50.9509 31.6854 51.7388C32.6309 53.0783 34.2855 53.8662 35.8614 54.4177C37.2796 54.8905 38.7766 55.1269 40.1949 54.4177C41.9283 53.551 43.2677 51.5025 43.1101 49.5327C42.9526 46.9326 39.8797 45.5931 37.5948 45.3568C34.7583 45.0416 33.3401 46.0659 31.1339 47.7205V48.5084H31.2127Z" fill="#A3A3A3"/>
<path d="M53.1956 23.5315C53.1956 23.6103 53.1168 23.7679 53.1168 23.8467C52.7229 25.5801 52.2501 27.2347 52.0925 29.0469C52.0137 29.8348 52.1713 31.253 51.3834 31.8046C50.7531 32.1985 49.65 31.9621 48.9409 31.9621C46.7347 31.8046 44.6074 31.4106 42.3224 31.4106C42.1648 31.4106 42.0073 31.4106 41.7709 31.4106C40.983 31.3318 40.2739 31.0166 39.6435 30.6227C38.7768 30.2287 37.9889 29.756 37.1222 29.4408C36.4131 29.2045 35.6252 29.0469 35.2312 28.4165C34.7585 27.7862 34.7585 26.9983 34.6797 26.2892C34.4433 23.9254 34.5221 21.4041 35.1524 19.1192C35.5464 17.7009 36.3343 16.2827 37.5162 15.2584C40.1163 12.8947 44.2922 12.4219 47.5226 13.9978C49.8864 15.1796 51.9349 17.2282 52.8804 19.7495C53.2744 20.8526 53.432 22.192 53.1956 23.5315Z" fill="white" stroke="#A3A3A3" stroke-width="2" stroke-miterlimit="10" stroke-linecap="round" stroke-linejoin="round"/>
<path d="M53.1955 23.5315C53.1955 23.6103 53.1167 23.7679 53.1167 23.8466C52.7227 25.5801 52.25 27.2347 52.0924 29.0469C52.0136 29.8348 52.1712 31.253 51.3833 31.8046C50.7529 32.1985 49.6499 31.9621 48.9407 31.9621C46.7346 31.8046 44.6072 31.4106 42.3223 31.4106C42.1647 31.4106 42.0071 31.4106 41.7708 31.4106C42.7162 31.0166 43.7405 31.0166 44.7648 30.8591C47.9952 30.3075 50.8317 28.0226 52.0924 25.0285C52.4863 24.083 52.7227 23.0587 52.8015 22.0345C52.8803 21.2465 52.8803 20.4586 52.7227 19.7495C53.2743 20.8526 53.4318 22.192 53.1955 23.5315Z" fill="white" stroke="#A3A3A3" stroke-width="2" stroke-miterlimit="10" stroke-linecap="round" stroke-linejoin="round"/>
<path d="M46.1046 30.0715C45.2379 30.8594 44.2136 31.411 43.1106 31.411C41.2196 31.411 39.2498 31.017 37.5164 30.1503C36.9649 29.8351 36.4921 29.52 36.0194 29.2048C35.783 28.9684 35.4678 28.7321 35.3103 28.4957C34.7587 27.8654 34.4436 27.1562 34.286 26.2895C33.8132 24.4773 34.1284 22.2712 34.7587 20.5378C35.4678 18.7256 36.5709 18.0165 38.4619 17.9377C40.3529 17.7801 42.559 18.4104 44.3712 19.2771C44.45 19.3559 44.5288 19.3559 44.6076 19.4347C45.3955 19.8287 46.1046 20.3014 46.6562 20.8529C49.3351 23.2955 48.6259 27.7078 46.1046 30.0715Z" fill="white" stroke="#A3A3A3" stroke-width="2" stroke-miterlimit="10" stroke-linecap="round" stroke-linejoin="round"/>
<path d="M41.9286 50.8721C41.9286 50.9509 41.9286 50.9509 41.9286 51.0297C41.9286 51.4236 41.8498 51.7388 41.6922 52.054C41.1407 53.551 39.5649 54.4965 37.989 54.9692C36.4132 55.442 34.7586 55.5208 33.2616 55.9935C32.0009 56.3875 30.7403 56.939 29.7948 57.8057C29.5584 58.0421 29.322 58.1997 29.1644 58.4361C29.1644 58.5148 29.0857 58.5148 29.0857 58.5936C27.3523 60.721 26.8795 63.7938 24.8309 65.6848C24.6734 65.8424 24.5158 65.9212 24.3582 66C24.2006 66 24.043 65.9212 23.8854 65.9212C20.9702 64.6605 18.2913 63.0847 15.6124 61.4301C15.2184 61.1937 14.7457 60.8786 14.5093 60.4846C14.3517 60.1695 14.3517 59.8543 14.5093 59.5391C14.9033 58.3573 16.6367 56.939 17.4246 56.6239C18.2913 56.3087 19.3156 56.3875 20.1823 56.7026C21.049 57.0178 21.9157 57.5693 22.6248 58.1209C22.7824 57.0178 23.0975 55.8359 23.5703 54.8117C23.7279 54.4965 23.8854 54.1813 24.043 53.8662C24.2006 53.551 24.437 53.3146 24.5946 52.9995C25.0673 52.2903 25.6976 51.66 26.328 51.1085C27.1947 50.3206 28.1402 49.6114 29.0857 48.9811C30.5039 48.0356 32.0009 47.1689 33.5767 46.775C33.8131 46.6962 34.0495 46.6962 34.2859 46.6174C35.8617 46.3022 37.5951 46.5386 39.0921 47.1689C39.9588 47.4841 40.7467 48.0356 41.2983 48.7447C41.6922 49.2963 41.9286 50.0842 41.9286 50.8721Z" fill="white" stroke="#A3A3A3" stroke-width="2" stroke-miterlimit="10" stroke-linecap="round" stroke-linejoin="round"/>
<path d="M29.7163 57.8055C29.4799 58.0419 29.2435 58.1995 29.0859 58.4359C29.0859 58.5146 29.0071 58.5146 29.0071 58.5934C28.0617 57.4116 26.9586 56.4661 25.6979 55.757C25.1464 55.4418 24.5161 55.2054 23.8857 54.969C23.8069 54.8902 23.6493 54.8902 23.5706 54.8115C23.7281 54.4963 23.8857 54.1811 24.0433 53.866C24.1221 53.866 24.2009 53.9448 24.2797 53.9448C24.91 54.1811 25.6191 54.4175 26.2495 54.8115C27.5101 55.5206 28.7708 56.5449 29.7163 57.8055Z" fill="#A3A3A3"/>
<path d="M65.6446 37.2413C65.6446 37.3201 65.6446 37.4776 65.5658 37.5564C65.3294 38.4231 64.4627 38.8959 63.596 39.0535C63.3597 39.1323 63.0445 39.1323 62.8081 39.1323C62.1778 39.211 61.6263 39.211 60.9959 39.3686C60.3656 39.5262 59.7353 39.9202 59.1049 40.2353C58.4746 40.5505 57.7655 40.7869 57.1352 40.9444C56.7412 41.0232 56.3473 41.102 55.9533 41.1808C54.2199 41.4172 52.4865 41.2596 50.8319 40.7081C49.8076 40.3929 49.0197 39.5262 48.5469 38.4231C47.8378 36.6897 47.9954 34.4836 49.65 33.4593C51.7774 32.1198 53.1168 34.0108 54.8502 34.7987C55.1654 34.9563 55.4806 35.0351 55.7957 35.1139C56.1897 35.1927 56.5836 35.1927 56.9776 35.1927C57.8443 35.1139 58.711 34.8775 59.4989 34.4836C60.9171 33.7745 62.1778 32.6714 63.4385 31.6471C63.6748 31.4895 63.9112 31.2531 64.2264 31.3319C64.5415 31.4107 64.6991 31.8047 64.6991 32.1986V32.2774C64.6203 32.5926 64.4627 32.9078 64.3839 33.2229C64.2264 34.6412 65.8022 35.9018 65.6446 37.2413Z" fill="white" stroke="#A3A3A3" stroke-width="2" stroke-miterlimit="10" stroke-linecap="round" stroke-linejoin="round"/>
<path d="M65.0147 40.6293L59.1842 11.9494C59.1054 11.6342 59.3417 11.3978 59.5781 11.319C59.8933 11.2403 60.1297 11.4766 60.2084 11.713L66.039 40.393C66.1178 40.7081 65.8814 40.9445 65.645 41.0233C65.4087 41.1021 65.0935 40.8657 65.0147 40.6293Z" fill="white" stroke="#A3A3A3" stroke-width="2" stroke-miterlimit="10" stroke-linecap="round" stroke-linejoin="round"/>
<path d="M65.5664 37.5562C65.3301 38.4229 64.4634 38.8956 63.5967 39.0532C63.3603 39.132 63.0451 39.132 62.8087 39.132C62.8087 39.0532 62.73 38.9744 62.73 38.8956C62.5724 38.5805 62.6512 38.1865 62.9663 37.9501C62.73 37.8713 62.4936 37.7925 62.4148 37.5562C62.2572 37.1622 62.4148 36.6895 62.8087 36.5319L63.0451 36.4531C62.9663 36.4531 62.8875 36.4531 62.8875 36.4531C62.5724 36.4531 62.336 36.2955 62.1784 35.9803C62.0208 35.5864 62.1784 35.1924 62.4936 34.9561C62.336 34.8773 62.0996 34.7197 62.0208 34.5621C61.8633 34.1682 62.0208 33.6954 62.4148 33.5378L64.9361 32.356C64.8573 32.6711 64.6997 32.9863 64.6209 33.3014C64.227 34.7197 66.0392 36.0591 65.5664 37.5562Z" fill="white" stroke="#A3A3A3" stroke-width="2" stroke-miterlimit="10" stroke-linecap="round" stroke-linejoin="round"/>
<path d="M66.8265 36.7684C66.7477 36.532 66.5113 36.3744 66.275 36.3744L66.5113 36.2956C66.9053 36.138 67.0629 35.6653 66.9053 35.2713C66.7477 34.9562 66.3538 34.7986 66.0386 34.8774L66.1962 34.7986C66.5901 34.641 66.7477 34.1683 66.5901 33.7743C66.5113 33.5379 66.3538 33.4591 66.1174 33.3804C66.4326 33.144 66.5901 32.75 66.4325 32.3561C66.275 31.9621 65.8022 31.8045 65.4083 31.9621L62.7294 33.2228C62.3354 33.3804 62.1778 33.8531 62.3354 34.2471C62.4142 34.4834 62.5718 34.5622 62.8082 34.641C62.493 34.8774 62.3354 35.2713 62.493 35.6653C62.6506 35.9805 63.0445 36.138 63.3597 36.0593L63.1233 36.138C62.7294 36.2956 62.5718 36.7684 62.7294 37.1623C62.8082 37.3987 63.0445 37.5563 63.2809 37.5563C62.9657 37.7927 62.8869 38.1866 63.0445 38.5018C63.2021 38.8957 63.6749 39.0533 64.0688 38.8957L66.4325 37.7927C66.8265 37.6351 66.9841 37.2411 66.8265 36.7684Z" fill="white" stroke="#A3A3A3" stroke-width="2" stroke-miterlimit="10" stroke-linecap="round" stroke-linejoin="round"/>
<path opacity="0.4" d="M43.1894 22.4287C42.8743 22.9014 42.2439 23.059 41.7712 22.8226C41.6136 22.7438 41.3772 22.665 41.2196 22.5862C39.0135 21.7195 36.6498 22.2711 36.0194 23.9257C35.8618 24.3196 35.3103 24.2408 35.3103 23.8469C35.2315 23.2954 35.3103 22.665 35.5467 22.1135C36.3346 19.9861 38.9347 19.0406 41.3772 19.9861C42.0076 20.2225 42.5591 20.6165 43.0318 21.0104C43.4258 21.4044 43.4258 21.9559 43.1894 22.4287Z" fill="#A3A3A3"/>
<path opacity="0.4" d="M35.6254 34.4835C37.2012 35.2714 40.4316 36.2956 42.4014 36.4532C42.7953 36.532 42.9529 36.8472 42.8741 37.2411C41.5347 40.3928 40.4316 43.5444 40.0377 44.7263C39.9589 45.0415 39.6437 45.199 39.4073 45.1203C37.9891 44.7263 34.0495 43.6232 32.4737 42.9929C32.1585 42.9141 32.0798 42.5989 32.1585 42.2838C33.498 38.9745 34.4435 36.0593 34.8374 34.7986C34.995 34.4835 35.389 34.3259 35.6254 34.4835Z" fill="#A3A3A3"/>
<path d="M57.2145 40.8654C56.8205 40.9442 56.4266 41.023 56.0326 41.1018C55.4023 40.1563 55.0083 38.8956 55.0871 37.635C55.1659 36.9258 55.4023 35.9016 55.8751 35.1136C56.269 35.1924 56.663 35.1924 57.0569 35.1924C56.5842 35.9016 56.1902 36.9258 56.1114 37.7138C56.0326 38.8956 56.5054 40.1563 57.2145 40.8654Z" fill="#A3A3A3"/>
<path d="M29.2435 30.6228C27.8252 31.5683 26.5646 32.7501 25.4615 34.0896C25.2251 33.8532 24.91 33.538 24.6736 33.3017C25.6979 32.041 26.9585 30.9379 28.298 29.9924L29.2435 30.6228Z" fill="#A3A3A3"/>
<path d="M80.4578 22.2708C73.0514 19.8283 69.9786 29.1257 62.4146 25.1861L59.7357 12.1068C67.93 15.5736 71.0816 7.69449 77.7789 9.19152L80.4578 22.2708Z" fill="white" stroke="#A3A3A3" stroke-width="2" stroke-miterlimit="10" stroke-linecap="round" stroke-linejoin="round"/>
</svg>
