<svg xmlns="http://www.w3.org/2000/svg" xmlns:xlink="http://www.w3.org/1999/xlink" width="24" height="24" viewBox="0 0 24 24">
  <defs>
    <path id="a" d="M24 24H0V0h24v24z"/>
  </defs>
  <clipPath id="b">
    <use xlink:href="#a" overflow="visible"/>
  </clipPath>
  <path clip-path="url(#b)" d="M3 4V1h2v3h3v2H5v3H3V6H0V4h3zm3 6V7h3V4h7l1.83 2H21c1.1 0 2 .9 2 2v12c0 1.1-.9 2-2 2H5c-1.1 0-2-.9-2-2V10h3zm7 9c2.76 0 5-2.24 5-5s-2.24-5-5-5-5 2.24-5 5 2.24 5 5 5zm-3.2-5c0 1.77 1.43 3.2 3.2 3.2s3.2-1.43 3.2-3.2-1.43-3.2-3.2-3.2-3.2 1.43-3.2 3.2z"/>
</svg>
