<svg class="material-icons" xmlns="http://www.w3.org/2000/svg" width="24" height="24">
  <path
    d="M2.897 4.181A11.87 11.87 0 0111.969 0c4.288 0 8.535 2.273 10.717 6.554h-9.293c-1.674.001-2.755-.037-3.926.579-1.376.724-2.415 2.067-2.777 3.644L2.897 4.181zM8.007 12c0 2.2 1.789 3.99 3.988 3.99s3.988-1.79 3.988-3.99-1.789-3.991-3.988-3.991S8.007 9.8 8.007 12zm5.536 5.223c-2.238.666-4.858-.073-6.293-2.549-1.095-1.891-3.989-6.933-5.305-9.225A11.856 11.856 0 000 11.956c0 5.448 3.726 10.65 9.673 11.818l3.87-6.551zm2.158-9.214a5.463 5.463 0 011.007 6.719 1815.43 1815.43 0 01-5.46 9.248C18.437 24.419 24 18.616 24 12.004c0-1.313-.22-2.66-.69-3.995h-7.609z"
  />
</svg>