<svg class="material-icons" xmlns="http://www.w3.org/2000/svg" width="24" height="24">
  <path
    d="M12 0C5.373 0 0 5.373 0 12s5.373 12 12 12 12-5.373 12-12S18.627 0 12 0zm8.003 8.657c-1.276-3.321-4.46-4.605-5.534-4.537 3.529 1.376 4.373 6.059 4.06 7.441-.307-1.621-1.286-3.017-1.872-3.385 3.417 8.005-4.835 10.465-7.353 7.687.649.168 1.931.085 2.891-.557.898-.602.983-.638 1.56-.683.686-.053-.041-1.406-1.539-1.177-.616.094-1.632.819-2.88.341-1.508-.576-1.46-2.634.096-2.015.337-.437.088-1.263.088-1.263.452-.414 1.022-.706 1.37-.911.228-.135.829-.507.795-1.23-.123-.096-.32-.219-.766-.193-1.736.11-1.852-.518-1.967-.808.078-.668.524-1.534 1.361-1.931-1.257-.193-2.28.397-2.789 1.154-.809-.174-1.305-.183-2.118-.031-.316-.24-.666-.67-.878-1.181C6.36 3.312 9.027 2 12 2c5.912 0 8.263 4.283 8.003 6.657z"
  />
</svg>