<svg xmlns="http://www.w3.org/2000/svg" xmlns:xlink="http://www.w3.org/1999/xlink" aria-hidden="true" role="img" class="iconify iconify--logos" width="30.92" height="32" preserveAspectRatio="xMidYMid meet" viewBox="0 0 256 265"><defs><radialGradient id="IconifyId-17b2bfeca9d-d6badc-3688" cx="-14920.226" cy="-8274.071" r="124.382" fx="-14928.161" fy="-8274.071" gradientTransform="matrix(.7398 .0292 -.04867 1.0902 10886.526 9537.696)" gradientUnits="userSpaceOnUse"><stop offset=".1" stop-color="#ffea00"></stop><stop offset=".17" stop-color="#ffde00"></stop><stop offset=".28" stop-color="#ffbf00"></stop><stop offset=".43" stop-color="#ff8e00"></stop><stop offset=".77" stop-color="#ff272d"></stop><stop offset=".87" stop-color="#e0255a"></stop><stop offset=".95" stop-color="#cc2477"></stop><stop offset="1" stop-color="#c42482"></stop></radialGradient><radialGradient id="IconifyId-17b2bfeca9d-d6badc-3689" cx="-8176.534" cy="-7746.301" r="218.273" gradientTransform="translate(9957.373 9315.522) scale(1.1973)" gradientUnits="userSpaceOnUse"><stop offset="0" stop-color="#00ccda"></stop><stop offset=".22" stop-color="#0083ff"></stop><stop offset=".26" stop-color="#007af9"></stop><stop offset=".33" stop-color="#0060e8"></stop><stop offset=".33" stop-color="#005fe7"></stop><stop offset=".44" stop-color="#2639ad"></stop><stop offset=".52" stop-color="#401e84"></stop><stop offset=".57" stop-color="#4a1475"></stop></radialGradient><radialGradient id="IconifyId-17b2bfeca9d-d6badc-3690" cx="-9132.676" cy="-6696.7" r="73.626" gradientTransform="matrix(1.1875 .1168 -.1168 1.1875 10322.184 9194.845)" gradientUnits="userSpaceOnUse"><stop offset="0" stop-color="#ffea00"></stop><stop offset=".5" stop-color="#ff272d"></stop><stop offset="1" stop-color="#c42482"></stop></radialGradient><radialGradient id="IconifyId-17b2bfeca9d-d6badc-3691" cx="-9139.338" cy="-6767.297" r="122.948" gradientTransform="matrix(1.1875 .1168 -.1168 1.1875 10322.184 9194.845)" gradientUnits="userSpaceOnUse"><stop offset="0" stop-color="#ffe900"></stop><stop offset=".16" stop-color="#ffaf0e"></stop><stop offset=".32" stop-color="#ff7a1b"></stop><stop offset=".47" stop-color="#ff4e26"></stop><stop offset=".62" stop-color="#ff2c2e"></stop><stop offset=".76" stop-color="#ff1434"></stop><stop offset=".89" stop-color="#ff0538"></stop><stop offset="1" stop-color="#ff0039"></stop></radialGradient><radialGradient id="IconifyId-17b2bfeca9d-d6badc-3692" cx="-9121.947" cy="-6653.326" r="112.818" gradientTransform="matrix(1.1875 .1168 -.1168 1.1875 10322.184 9194.845)" gradientUnits="userSpaceOnUse"><stop offset="0" stop-color="#ff272d"></stop><stop offset=".5" stop-color="#c42482"></stop><stop offset=".99" stop-color="#620700"></stop></radialGradient><radialGradient id="IconifyId-17b2bfeca9d-d6badc-3693" cx="227.574" cy="408.42" r="215.776" fx="235.292" fy="404.605" gradientTransform="translate(-29.473 -291.75) scale(.9734)" gradientUnits="userSpaceOnUse"><stop offset=".16" stop-color="#ffea00"></stop><stop offset=".23" stop-color="#ffde00"></stop><stop offset=".37" stop-color="#ffbf00"></stop><stop offset=".54" stop-color="#ff8e00"></stop><stop offset=".76" stop-color="#ff272d"></stop><stop offset=".8" stop-color="#f92433"></stop><stop offset=".84" stop-color="#e91c45"></stop><stop offset=".89" stop-color="#cf0e62"></stop><stop offset=".94" stop-color="#b5007f"></stop></radialGradient><radialGradient id="IconifyId-17b2bfeca9d-d6badc-3694" cx="215.202" cy="308.35" r="245.92" gradientTransform="translate(-29.473 -291.75) scale(.9734)" gradientUnits="userSpaceOnUse"><stop offset=".28" stop-color="#ffea00"></stop><stop offset=".4" stop-color="#fd0"></stop><stop offset=".63" stop-color="#ffba00"></stop><stop offset=".86" stop-color="#ff9100"></stop><stop offset=".93" stop-color="#ff6711"></stop><stop offset=".99" stop-color="#ff4a1d"></stop></radialGradient><linearGradient id="IconifyId-17b2bfeca9d-d6badc-3695" gradientUnits="userSpaceOnUse" x1="145.243" y1="481.786" x2="93.837" y2="313.629" gradientTransform="translate(0 -286)"><stop offset="0" stop-color="#000f43" stop-opacity=".4"></stop><stop offset=".48" stop-color="#001962" stop-opacity=".17"></stop><stop offset="1" stop-color="#002079" stop-opacity="0"></stop></linearGradient><linearGradient id="IconifyId-17b2bfeca9d-d6badc-3696" gradientUnits="userSpaceOnUse" x1="-9348.662" y1="-6754.194" x2="-9266.217" y2="-6775.209" gradientTransform="matrix(1.22 .12 -.12 1.22 10634.76 9460)"><stop offset="0" stop-color="#c42482" stop-opacity=".5"></stop><stop offset=".47" stop-color="#ff272d" stop-opacity=".5"></stop><stop offset=".49" stop-color="#ff2c2c" stop-opacity=".51"></stop><stop offset=".68" stop-color="#ff7a1a" stop-opacity=".72"></stop><stop offset=".83" stop-color="#ffb20d" stop-opacity=".87"></stop><stop offset=".94" stop-color="#ffd605" stop-opacity=".96"></stop><stop offset="1" stop-color="#ffe302"></stop></linearGradient><linearGradient id="IconifyId-17b2bfeca9d-d6badc-3697" gradientUnits="userSpaceOnUse" x1="103.092" y1="-1126.781" x2="88.439" y2="-1164.334" gradientTransform="matrix(.99 .1 -.1 .99 -175.62 1176.21)"><stop offset="0" stop-color="#891551" stop-opacity=".6"></stop><stop offset="1" stop-color="#c42482" stop-opacity="0"></stop></linearGradient><linearGradient id="IconifyId-17b2bfeca9d-d6badc-3698" gradientUnits="userSpaceOnUse" x1="-193.279" y1="534.177" x2="-168.009" y2="562.877" gradientTransform="matrix(.99 .1 -.1 .99 303.51 -384.2)"><stop offset=".01" stop-color="#891551" stop-opacity=".5"></stop><stop offset=".48" stop-color="#ff272d" stop-opacity=".5"></stop><stop offset="1" stop-color="#ff272d" stop-opacity="0"></stop></linearGradient><linearGradient id="IconifyId-17b2bfeca9d-d6badc-3699" gradientUnits="userSpaceOnUse" x1="-144.684" y1="583.677" x2="-144.665" y2="563.596" gradientTransform="matrix(.99 .1 -.1 .99 303.51 -384.2)"><stop offset="0" stop-color="#c42482"></stop><stop offset=".08" stop-color="#c42482" stop-opacity=".81"></stop><stop offset=".21" stop-color="#c42482" stop-opacity=".57"></stop><stop offset=".33" stop-color="#c42482" stop-opacity=".36"></stop><stop offset=".45" stop-color="#c42482" stop-opacity=".2"></stop><stop offset=".56" stop-color="#c42482" stop-opacity=".09"></stop><stop offset=".67" stop-color="#c42482" stop-opacity=".02"></stop><stop offset=".77" stop-color="#c42482" stop-opacity="0"></stop></linearGradient><linearGradient id="IconifyId-17b2bfeca9d-d6badc-3700" gradientUnits="userSpaceOnUse" x1="166.591" y1="295.714" x2="248.667" y2="479.246" gradientTransform="translate(0 -286)"><stop offset="0" stop-color="#fff14f"></stop><stop offset=".27" stop-color="#ffee4c"></stop><stop offset=".45" stop-color="#ffe643"></stop><stop offset=".61" stop-color="#ffd834"></stop><stop offset=".76" stop-color="#ffc41e"></stop><stop offset=".89" stop-color="#ffab02"></stop><stop offset=".9" stop-color="#ffa900"></stop><stop offset=".95" stop-color="#ffa000"></stop><stop offset="1" stop-color="#ff9100"></stop></linearGradient><linearGradient id="IconifyId-17b2bfeca9d-d6badc-3701" gradientUnits="userSpaceOnUse" x1="182.888" y1="401.274" x2="144.011" y2="505.662" gradientTransform="translate(0 -286)"><stop offset="0" stop-color="#ff8e00"></stop><stop offset=".04" stop-color="#ff8e00" stop-opacity=".86"></stop><stop offset=".08" stop-color="#ff8e00" stop-opacity=".73"></stop><stop offset=".13" stop-color="#ff8e00" stop-opacity=".63"></stop><stop offset=".18" stop-color="#ff8e00" stop-opacity=".56"></stop><stop offset=".23" stop-color="#ff8e00" stop-opacity=".51"></stop><stop offset=".28" stop-color="#ff8e00" stop-opacity=".5"></stop><stop offset=".39" stop-color="#ff8e00" stop-opacity=".48"></stop><stop offset=".52" stop-color="#ff8e00" stop-opacity=".42"></stop><stop offset=".68" stop-color="#ff8e00" stop-opacity=".31"></stop><stop offset=".84" stop-color="#ff8e00" stop-opacity=".17"></stop><stop offset="1" stop-color="#ff8e00" stop-opacity="0"></stop></linearGradient></defs><path fill="url(#IconifyId-17b2bfeca9d-d6badc-3688)" d="M206.8 24.6c-6.4 7.5-9.4 24.3-2.9 41.4s16.5 13.4 22.7 30.8c8.2 23 4.4 53.9 4.4 53.9s9.9 28.6 16.8-1.8c15.3-57.1-41-110.2-41-124.3z"></path><path fill="url(#IconifyId-17b2bfeca9d-d6badc-3689)" d="M128.4 261.7c65.9 0 119.2-53.6 119.2-119.8S194.2 22.2 128.4 22.2S9.3 75.8 9.3 141.9c-.1 66.2 53.3 119.8 119.1 119.8z"></path><path fill="url(#IconifyId-17b2bfeca9d-d6badc-3695)" d="M217.7 215.8c-2.6 1.8-5.3 3.4-8.1 4.9c3.7-5.5 7.2-11.1 10.3-16.9c2.5-2.8 4.9-5.5 6.8-8.5c.9-1.5 2-3.2 3.1-5.3c6.7-12.1 14.1-31.6 14.3-51.6v-1.5c0-5-.5-10.1-1.5-15c.1.4.1.8.2 1.2c-.1-.3-.1-.6-.2-.9c.1.5.2 1.1.3 1.6c1.4 11.6.4 22.9-4.5 31.3c-.1.1-.2.2-.2.4c2.5-12.7 3.4-26.7.6-40.7c0 0-1.1-6.8-9.5-27.5c-4.8-11.9-13.4-21.7-20.9-28.8c-6.6-8.2-12.7-13.7-16-17.2c-6.9-7.3-9.8-12.8-11-16.3c-1-.5-14.3-13.4-15.3-13.9c-5.8 9-23.9 37-15.3 63.1c3.9 11.9 13.8 24.2 24.2 31.1c.5.5 6.2 6.7 8.9 20.7c2.8 14.5 1.3 25.7-4.4 42.4c-6.8 14.6-24.2 29.1-40.5 30.6c-34.8 3.2-47.6-17.5-47.6-17.5c12.4 5 26.2 3.9 34.6-1.2c8.4-5.2 13.5-9.1 17.7-7.6c4.1 1.5 7.3-2.9 4.4-7.5c-4.6-7.1-13-10.7-21.3-9.3c-8.4 1.4-16.2 8.1-27.2 1.6c-.7-.4-1.4-.9-2.1-1.4s2.4.7 1.6.2c-2.1-1.2-6-3.7-6.9-4.6c-.2-.2 1.7.6 1.5.4c-10.3-8.5-9-14.3-8.7-17.9c.3-2.9 2.1-6.6 5.3-8.1c1.5.8 2.5 1.5 2.5 1.5s-.7-1.3-1-2c.1-.1.2 0 .4-.1c1.3.6 4 2.2 5.5 3.1c1.9 1.3 2.5 2.5 2.5 2.5s.5-.3.1-1.4c-.1-.5-.7-2-2.6-3.5h.1c1.1.6 2.2 1.4 3.2 2.2c.5-1.9 1.5-3.9 1.3-7.5c-.1-2.5-.1-3.2-.5-4.2c-.4-.8.2-1.2.9-.3c-.1-.7-.3-1.4-.6-2v-.1c.9-3 18.3-10.9 19.6-11.8c2.1-1.5 3.8-3.4 5.1-5.6c1-1.5 1.7-3.7 1.9-7c.1-2.4-1-4-18.7-5.8c-4.8-.5-7.7-4-9.3-7.2c-.3-.7-.6-1.3-.9-2s-.5-1.5-.7-2.3c2.9-8.3 7.7-15.3 14.9-20.6c.4-.4-1.6.1-1.2-.3c.5-.4 3.4-1.6 4-1.9c.7-.3-2.9-1.9-6.1-1.5s-3.9.8-5.7 1.5c.7-.7 3-1.7 2.5-1.6c-3.5.5-7.8 2.6-11.5 4.9c0-.4.1-.8.2-1.2c-1.7.7-6 3.7-7.2 6.2c.1-.5.1-1 .1-1.5c-1.3 1.1-2.5 2.3-3.5 3.7l-.6.2c-10-4-18.9-4.3-26.3-2.5c-1.6-1.6-2.4-.4-6.2-8.6c-.3-.5.2.5 0 0c-.6-1.6.4 2.1 0 0c-6.2 5-14.4 10.6-18.4 14.5c0 .2 4.6-1.3 0 0c-1.6.5-1.5 1.4-1.7 10.1c-.1.7 0 1.4-.1 2c-3.2 4-5.3 7.4-6.1 9.2c-4.1 7-8.6 18-12.9 35.3c1.9-4.7 4.2-9.2 6.9-13.5c-3.6 9.2-7.1 23.7-7.8 45.9c.9-4.6 2-9.1 3.4-13.6c-.9 18.5 2.3 36.9 9.3 54c2.5 6.1 6.6 15.4 13.7 25.6c22.2 23.3 53.4 37.8 88 37.8c36.1 0 68.6-15.8 90.9-40.9z"></path><path fill="url(#IconifyId-17b2bfeca9d-d6badc-3690)" d="M190.9 232.7c43.7-5.1 63.1-50.1 38.2-51c-22.4-.7-58.9 53.4-38.2 51z"></path><path fill="url(#IconifyId-17b2bfeca9d-d6badc-3691)" d="M232.3 172.5c30.1-17.5 22.2-55.3 22.2-55.3s-11.6 13.5-19.5 35c-7.7 21.3-20.8 30.9-2.7 20.3z"></path><path fill="url(#IconifyId-17b2bfeca9d-d6badc-3692)" d="M136.8 255.1c42 13.4 78-19.7 55.8-30.7c-20.2-9.9-75.7 24.4-55.8 30.7z"></path><path fill="url(#IconifyId-17b2bfeca9d-d6badc-3693)" d="M235.5 188.6c1-1.4 2.4-6 3.6-8.1c7.4-12 7.5-21.5 7.5-21.7c4.5-22.3 4.1-31.5 1.3-48.3c-2.2-13.6-11.9-33.1-20.3-42.4c-8.6-9.7-2.6-6.5-10.9-13.6c-7.3-8.1-14.5-16.2-18.3-19.4c-28-23.4-27.4-28.4-26.8-29.2l-.4.4c-.3-1.3-.6-2.4-.6-2.4S155.2 19.1 152 44.6c-2.1 16.6 4.1 34 13.2 45.1c4.7 5.8 10 11 15.8 15.6c6.8 9.8 10.6 21.9 10.6 34.9c0 32.6-26.4 58.9-59 58.9c-4.4 0-8.9-.5-13.2-1.5c-15.4-2.9-24.2-10.7-28.7-16c-2.5-3-3.6-5.2-3.6-5.2c13.8 4.9 29 3.9 38.3-1.2c9.3-5.2 15-9 19.6-7.5c4.5 1.5 8.1-2.9 4.9-7.4c-3.2-4.5-11.4-11-23.6-9.2c-9.3 1.4-17.9 8-30.1 1.6c-.8-.4-1.6-.9-2.3-1.3c-.8-.5 2.6.7 1.8.2c-2.4-1.2-6.6-3.7-7.7-4.6c-.2-.2 1.8.6 1.7.4c-11.4-8.4-10-14.1-9.7-17.7c.3-2.9 2.4-6.5 5.9-8c1.7.8 2.7 1.5 2.7 1.5s-.7-1.3-1.1-2c.1-.1.3 0 .4-.1c1.4.6 4.5 2.1 6.1 3.1c2.1 1.3 2.8 2.5 2.8 2.5s.6-.3.1-1.4c-.2-.5-.8-2-2.9-3.5h.1c1.2.6 2.4 1.4 3.5 2.2c.6-1.9 1.6-3.9 1.4-7.5c-.1-2.5-.1-3.2-.6-4.1c-.4-.8.2-1.2 1-.3c-.1-.7-.4-1.3-.7-2v-.1c1-3 20.3-10.8 21.7-11.7c2.3-1.4 4.2-3.3 5.7-5.5c1.1-1.5 1.9-3.7 2.1-7c.1-1.5-.4-2.6-5.5-3.8c-3.1-.7-7.8-1.3-15.2-2c-5.3-.5-8.5-3.9-10.3-7.1c-.3-.7-.7-1.3-1-1.9c-.3-.7-.6-1.5-.8-2.2c3.2-8.4 9-15.5 16.5-20.4c.4-.4-1.7.1-1.3-.3c.5-.4 3.8-1.6 4.4-1.9c.8-.3-3.2-1.8-6.8-1.5c-3.6.4-4.3.7-6.3 1.5c.8-.7 3.3-1.6 2.7-1.6c-3.6.4-8.4 2.4-12.5 4.7c0-.4.1-.8.2-1.2c-1.9.7-6.6 3.7-8 6.2c.1-.5.1-1 .1-1.4c-1.4 1.1-2.8 2.3-3.9 3.7l-.1.1c-11.1-4-20.9-4.3-29.1-2.5c-1.8-1.6-4.7-4.1-8.8-12.2c-.3-.5-.4 1-.6.5c-1.6-3.7-2.6-9.8-2.4-14c0 0-3.3 1.5-6 7.8c-.5 1.1-.8 1.8-1.2 2.4c-.2.2.3-2.1.3-1.9c-.5.8-1.7 1.9-2.2 3.4c-.4 1.1-.9 1.7-1.2 3l-.1.1c0-.4.1-1.6 0-1.4c-1.3 2.6-2.4 5.3-3.3 8c-1.5 4.8-3.2 11.4-3.5 20c-.1.6 0 1.4-.1 2c-3.5 4-5.9 7.4-6.8 9.1c-4.5 7-9.5 17.8-14.3 35c2.1-4.7 4.7-9.2 7.7-13.4c-4 9.1-7.9 23.5-8.7 45.5c1-4.6 2.2-9.1 3.7-13.5c-.7 14.7 1 33 10.3 53.6c5.5 12.1 18.2 36.7 49.3 55.9c0 0 10.6 7.9 28.7 13.8c1.3.5 2.7 1 4.1 1.4c-.4-.2-.9-.4-1.3-.5c12.1 3.6 24.6 5.5 37.3 5.5c47 0 60.9-18.9 60.9-18.9l-.1.1c.7-.6 1.3-1.3 1.9-1.9c-7.4 7-24.4 7.5-30.7 7c10.8-3.2 17.9-5.9 31.7-11.1c1.6-.6 3.3-1.3 5-2.1l.5-.3c.3-.2.7-.3 1-.5c6.7-3.2 13.1-7.1 18.9-11.8c13.9-11.1 16.9-21.9 18.5-29c-.2.7-.9 2.3-1.4 3.3c-3.6 7.6-11.5 12.4-20.1 16.4c4.1-5.4 7.9-11 11.4-16.8c2.8-2.8 3.6-7.2 5.8-10.1z"></path><path fill="url(#IconifyId-17b2bfeca9d-d6badc-3694)" d="M218.6 215.1c5.7-6.2 10.7-13.4 14.6-21.5c9.9-20.8 25.2-55.5 13.2-91.6c-9.5-28.6-22.6-44.2-39.2-59.5c-27-24.8-34.5-35.9-34.5-42.5c0 0-31.2 34.7-17.7 71s41.2 34.9 59.5 72.7c21.6 44.5-17.4 93.1-49.7 106.7c2-.4 71.7-16.2 75.4-56.1c-.2.7-1.8 11.8-21.6 20.8z"></path><path fill="url(#IconifyId-17b2bfeca9d-d6badc-3696)" d="M128.2 85.8c.1-2.4-1.1-3.9-20.6-5.8c-8-.7-11.1-8.1-12-11.3c-2.8 7.4-4 15.2-3.4 24.6c.4 6.2 4.6 12.8 6.5 16.6c0 0 .4-.6.6-.8c3.7-3.9 19.3-9.8 20.8-10.6c1.7-1 7.9-5.5 8.1-12.7z"></path><path fill="url(#IconifyId-17b2bfeca9d-d6badc-3697)" d="M42.5 42c-.3-.5-.4 1-.6.5c-1.6-3.7-2.6-9.7-2.3-14c0 0-3.3 1.5-6 7.8c-.5 1.1-.8 1.8-1.2 2.4c-.2.2.3-2.1.3-1.9c-.5.8-1.7 1.9-2.2 3.3c-.4 1.1-.9 1.8-1.2 3.2c-.1.4.1-1.7 0-1.4c-6.4 12.3-7.6 30.9-6.9 30.1C36 57.5 51.5 54.1 51.5 54.1c-1.9-1.2-5.5-4.8-9-12.1z"></path><path fill="url(#IconifyId-17b2bfeca9d-d6badc-3698)" d="M93.9 193.4c-18.7-8-40-19.3-39.2-44.9c1.1-33.7 31.5-27.1 31.5-27.1c-1.1.3-4.2 2.5-5.3 4.8c-1.1 2.9-3.2 9.5 3.1 16.4c10 10.8-20.5 25.6 26.5 53.6c1.2.6-11-.4-16.6-2.8z"></path><path fill="url(#IconifyId-17b2bfeca9d-d6badc-3699)" d="M87.3 176.6c13.3 4.6 28.7 3.8 38-1.3c6.2-3.5 14.2-9 19-7.6c-4.2-1.7-7.4-2.5-11.3-2.6c-.7 0-1.4 0-2.1-.1c-1.4 0-2.8.1-4.2.2c-2.4.2-5 1.7-7.4 1.5c-.1 0 2.3-1 2.1-1c-1.3.3-2.7.3-4.1.5c-.9.1-1.7.2-2.7.3c-27.7 2.3-51-15-51-15c-2 6.6 8.9 19.9 23.7 25.1z"></path><path fill="url(#IconifyId-17b2bfeca9d-d6badc-3700)" d="M218.5 215.3c28-27.5 42.1-60.8 36.1-98.3c0 0 2.4 19.2-6.7 38.8c4.4-19.2 4.9-43-6.7-67.7c-15.4-32.9-40.8-50.3-50.5-57.5c-14.7-11-20.8-22.1-20.9-24.4c-4.4 9-17.7 39.8-1.4 66.3c15.2 24.9 39.2 32.2 55.9 55c31 42.1-5.8 87.8-5.8 87.8z"></path><path fill="url(#IconifyId-17b2bfeca9d-d6badc-3701)" d="M214.5 143.8c-9.8-20.2-22-29-33.5-38.5c1.3 1.9 1.7 2.5 2.4 3.8c10.2 10.8 25.1 37.2 14.3 70.4c-20.5 62.4-102.3 33-110.9 24.8c3.5 36.1 63.9 53.4 103.3 30c22.3-21.4 40.4-57.4 24.4-90.5z"></path></svg>