<svg xmlns="http://www.w3.org/2000/svg" viewBox="0 0 512 512"><path d="M118.2 208.3c19.9-60.3 76.5-103.6 143.7-103.6 36.1 0 68.6 12.8 94.3 33.7L430.5 64C385.2 24.4 327 0 261.8 0 160.9 0 74 57.6 32.3 141.9l85.9 66.4z" fill="#ea4335"/><path d="M348 384.3c-23.3 15-52.8 23-86.2 23-66.9 0-123.3-43-143.4-102.9l-86.2 65.4C73.9 454.3 160.8 512 261.8 512c62.6 0 122.4-22.2 167.1-64L348 384.3z" fill="#34a853"/><path d="M428.9 448c46.8-43.7 77.2-108.7 77.2-192 0-15.1-2.3-31.4-5.8-46.5H261.8v98.9h137.3c-6.8 33.3-25 59-51.1 75.9l80.9 63.7z" fill="#4a90e2"/><path d="M118.4 304.4c-5.1-15.2-7.9-31.4-7.9-48.4 0-16.7 2.7-32.7 7.6-47.7l-85.9-66.4C15.1 176.2 5.8 214.9 5.8 256c0 40.9 9.5 79.6 26.4 113.8l86.2-65.4z" fill="#fbbc05"/></svg>
