<svg xmlns="http://www.w3.org/2000/svg" xmlns:xlink="http://www.w3.org/1999/xlink" aria-hidden="true" role="img" class="iconify iconify--tabler" width="32" height="32" preserveAspectRatio="xMidYMid meet" viewBox="0 0 24 24"><g class="icon-tabler" fill="none" stroke="currentColor" stroke-width="2" stroke-linecap="round" stroke-linejoin="round"><path d="M12 8c2.648 0 5.028.826 6.675 2.14a2.5 2.5 0 0 1 2.326 4.36c0 3.59-4.03 6.5-9 6.5c-4.875 0-8.845-2.8-9-6.294l-1-.206a2.5 2.5 0 0 1 2.326-4.36C5.973 8.827 8.353 8 11.001 8z"></path><path d="M12 8l1-5l6 1"></path><circle cx="19" cy="4" r="1"></circle><circle cx="9" cy="13" r=".5" fill="currentColor"></circle><circle cx="15" cy="13" r=".5" fill="currentColor"></circle><path d="M10 17c.667.333 1.333.5 2 .5s1.333-.167 2-.5"></path></g></svg>